<?xml version="1.0" encoding="utf-8"?>
<!-- Generator: Adobe Illustrator 18.1.1, SVG Export Plug-In . SVG Version: 6.00 Build 0)  -->
<!DOCTYPE svg PUBLIC "-//W3C//DTD SVG 1.1//EN" "http://www.w3.org/Graphics/SVG/1.1/DTD/svg11.dtd">
<svg version="1.1" id="Layer_1" xmlns="http://www.w3.org/2000/svg" xmlns:xlink="http://www.w3.org/1999/xlink" x="0px" y="0px"
	 width="792px" height="612px" viewBox="0 0 792 612" enable-background="new 0 0 792 612" xml:space="preserve">
<polygon fill="#D6D6D6" points="523,293.8 527.2,291.8 529.8,295.7 522.8,299 520.6,300 518.7,295.8 519.2,295.5 "/>
<polygon fill="#D6D6D6" points="261.2,165.8 260.7,167 262,173.4 263.1,174.4 264.2,179.6 259.8,180.6 258,181 256.9,175.7 
	257.3,174.4 255.9,168 255,167.1 254.5,164.6 253.9,161.7 260.1,160.4 "/>
<polygon fill="#D6D6D6" points="450.1,249.5 453.7,257 450,258.7 447.9,254.4 449.7,253.6 447.8,249.7 444.3,251.4 446.1,255.2 
	444.1,256.2 442.3,252.3 438.8,254 435.2,246.4 445,241.8 446.2,241.2 "/>
<polygon fill="#D6D6D6" points="367.1,501.9 361.9,504.2 359.3,498.3 355.4,500.1 356.7,503 355.3,503.6 356.4,506.3 353.5,507.5 
	352.6,505.5 351.3,506.1 346.8,495.7 361.5,489.2 "/>
<polygon fill="#D6D6D6" points="426.1,463.3 427.7,466.7 426,467.5 425.8,468.6 426.6,470.5 427.6,470.9 429.2,470.2 429.2,470.3 
	431.4,475.2 423,479 422,476.6 420.6,473.6 422.8,472.5 421.6,469.8 419.4,470.8 417.1,465.7 425.5,461.9 "/>
<polygon fill="#D6D6D6" points="439.2,462.2 439,463.4 440.1,465.9 441.3,466.9 441.6,467.5 443,470.8 443.2,471.2 437.7,473.7 
	437.7,473.7 435.7,469.4 435.7,469.4 436.1,468.5 434.7,465.3 433.6,464.7 431.9,460.7 431.5,459.8 437,457.3 "/>
<polygon fill="#D6D6D6" points="239,434.7 237.5,446.4 232.3,445.7 233.8,434 "/>
<polygon fill="#D6D6D6" points="340.7,329.1 342,332.3 342.9,334.7 337.1,336.1 336.1,333.6 335,330.7 330.8,332.4 329.7,332.9 
	329.4,332.1 328.7,330.4 326.6,325.1 337.4,320.7 "/>
<polygon fill="#D6D6D6" points="301.5,288.6 301.6,288.7 297.4,290.4 295.9,286.7 295.1,284.8 299.2,283.1 "/>
<polygon fill="#D6D6D6" points="314.2,330 317.3,337.7 318.1,339.8 313.7,341.6 314,342.4 308.5,343.6 307.7,343.8 303.7,333.8 
	303.6,333.6 309.7,331.2 314,329.5 314.1,329.7 "/>
<polygon fill="#D6D6D6" points="540.4,166.8 540,167.5 537.7,171.1 536.2,170.1 535.1,171.9 531.9,177.3 528.5,182.8 528.5,182.9 
	522.9,179.2 523.5,178.1 526.6,172.9 529.4,168.2 530.5,166.4 529.1,165.5 530.8,162.9 531.9,161.2 "/>
<polygon fill="#D6D6D6" points="543.8,218 540.9,222.5 533.5,217.6 536.4,213.2 537.1,213.7 538.2,213.3 545.7,201.7 547.3,202.8 
	550.4,204.8 547.5,209.4 542.9,216.4 543,217.5 "/>
<polygon fill="#D6D6D6" points="469.6,306.3 467.8,307.1 465.6,302.5 462.7,303.8 459.5,296.8 464.2,294.6 "/>
<polygon fill="#D6D6D6" points="250.8,309.1 251.8,316 245.5,318.7 246.8,306.8 250.3,306.4 "/>
<polygon fill="#D6D6D6" points="520.3,320.1 514.8,322.7 511.1,314.7 508.5,308.8 507.5,306.7 513,304.1 "/>
<polygon fill="#D6D6D6" points="567.6,184.5 564.5,189.2 560.1,196 554.7,192.4 551.1,190.1 558.6,178.6 "/>
<polygon fill="#D6D6D6" points="441.1,273.8 441.3,274.3 441.1,275.2 442,277.2 441.3,277.6 442.5,280.1 443.2,279.8 444.8,283.1 
	445.8,283.7 447.9,288.3 442.4,290.9 440.2,286.4 440.4,285.2 438.8,281.9 439.7,281.4 438.5,278.9 437.8,279.2 436.9,277.2 
	436,276.8 433.8,272.1 439.1,269.6 "/>
<polygon fill="#D6D6D6" points="362.4,228.4 352.5,232.7 347.2,235 345.2,230.3 346.9,229.6 356.3,225.5 360.4,223.7 "/>
<polygon fill="#D6D6D6" points="237.3,205.5 232.5,207.7 230.6,208.5 229,204.8 235.6,201.9 "/>
<polygon fill="#D6D6D6" points="545.9,198.3 544,201.2 539.7,198.3 539.8,198.2 541.5,195.4 542.7,196.2 "/>
<polygon fill="#D6D6D6" points="220.1,218.5 219.7,221.6 225.1,222.3 224.9,224.3 208.8,222.3 208.9,221.3 209.5,217.2 "/>
<polygon fill="#D6D6D6" points="521.2,283 516.9,285 513.6,286.6 506.9,289.6 505.1,285.8 504.6,284.6 501.3,277.5 501.1,277 
	504.6,275.4 513.2,271.4 "/>
<polygon fill="#D6D6D6" points="376.9,365.5 379.5,371.5 380.6,374 382.5,378.3 383.4,380.4 383.3,380.4 384.5,383.3 379.2,385.6 
	377.9,382.8 371.4,367.9 369.3,363.1 374.8,360.7 "/>
<polygon fill="#D6D6D6" points="237.4,286.4 236.7,292.4 232.4,291.8 233.2,285.8 "/>
<polygon fill="#D6D6D6" points="347.4,255.6 342.5,257.7 340.7,253.5 345.6,251.4 "/>
<path fill="#D6D6D6" d="M357.6,187.2l4.2-1.8l0.9,0.5l1.7-0.7l-0.3-0.7l2.7-1.1l0.7,1.6l3-1.3l-0.7-1.6l4.9-2l1.1,5.8l-0.8,0.4
	l0.3,0.7l8.1-3.4l2.1,5l2.1-0.9l2.2,5.2l-24.9,10.4L357.6,187.2z M381.7,189.4l-14.5,6.1l-0.3,0.8l0.8,0.3l1.9-0.8l0.5-0.5l8.1-3.4
	l0.8,0.2l3.2-1.4l0.6-1.1L381.7,189.4z M368.5,187.2l1.6,3.7l2.8-1.2l-1.5-3.7L368.5,187.2z M364.2,190.9l0.7,0.4l1.9-0.7l-0.5-1.3
	l-1.9,0.7L364.2,190.9z"/>
<polygon fill="#D6D6D6" points="554.2,175.7 546.7,187.3 545.5,187.6 544.8,187.1 544,186.6 543.9,185.4 542,184.2 543.8,181.4 
	549.5,172.6 "/>
<polygon fill="#D6D6D6" points="646.2,235.6 645.8,236.2 645,237.4 644.2,238.7 643.4,240 642.6,241.2 642.2,241.9 640.6,244.3 
	639.5,246.1 639,246.8 633.6,255.2 633.8,255.4 634.7,255.9 635.7,256.6 636.7,257.3 637.7,257.9 637.8,258 630.9,268.8 
	630.9,268.7 629.9,268.1 628.9,267.4 627.9,266.8 627,266.2 626.6,266 626,266.8 625.1,268.3 625,268.5 623.9,270.2 622.8,271.9 
	621.7,273.6 621.1,274.5 612.1,268.6 611.6,268.3 611.6,268.2 612,267.6 611,266.9 610.7,267.4 610.5,267.7 605.2,264.3 
	607.5,260.3 607.8,260.5 608.4,259.5 608,259.3 608.6,258.2 624.9,228.6 625.3,228.8 625.8,227.9 625.5,227.7 627.7,223.6 "/>
<polygon fill="#D6D6D6" points="225.6,208.5 226.6,208.7 226.3,211 225.9,210.9 225.6,213.9 210.1,211.9 210.8,206.7 "/>
<polygon fill="#D6D6D6" points="322,250 317.3,252 314.3,245.2 312.3,240.3 317,238.3 319.1,243.4 "/>
<polygon fill="#D6D6D6" points="492,360.7 486.2,363.2 480.5,350 480.2,349.1 485.7,346.7 485.9,346.6 "/>
<polygon fill="#D6D6D6" points="243.3,219 234.4,223 233.2,220.2 242,216.2 "/>
<polygon fill="#D6D6D6" points="374.4,156 374.6,156.9 368.8,158.1 365.3,141.1 371.1,139.9 "/>
<polygon fill="#D6D6D6" points="233,372.2 232.9,373 232.6,375 232,379.9 231.8,381.9 231.7,382.3 225.5,381.6 225.6,380.9 
	226.5,374.1 226.8,370.9 233,371.7 "/>
<polygon fill="#D6D6D6" points="389.3,378.4 397.9,398 392,400.4 389.9,395.5 386.4,387.6 384.5,383.3 383.3,380.4 383.4,380.4 
	389.1,377.9 "/>
<polygon fill="#D6D6D6" points="448.1,334 443.7,336 441.6,331.3 446,329.3 "/>
<polygon fill="#D6D6D6" points="231.5,334.2 231.5,334.5 230.3,344.2 230.1,346.1 225.7,345.5 225.4,348.2 227.5,348.4 226.9,352.7 
	223.1,352.2 223.6,348.4 224.2,343.8 224.7,339.4 225.5,333.5 230.4,334.1 "/>
<polygon fill="#D6D6D6" points="279.8,349.8 281.4,353.2 278.1,354.7 277.3,355.1 279.7,360.5 282,359.5 283.1,359 284,361.1 
	283.5,361.4 279.8,363.1 276.4,355.5 277.1,355.2 275.1,350.8 273.8,347.9 273.3,346.8 277.6,344.9 277.7,345 "/>
<polygon fill="#D6D6D6" points="257.9,382.1 257.6,384.6 257.5,385.5 253.3,385 253.6,382.3 254.6,374 254.9,371.7 255.1,371.7 
	259.1,372.2 "/>
<polygon fill="#D6D6D6" points="337.8,295.8 333.3,297.7 331.1,292.4 335.5,290.5 "/>
<polygon fill="#D6D6D6" points="502.3,400.9 500.2,404.7 485.6,396.7 487.7,392.8 "/>
<polygon fill="#D6D6D6" points="307.7,255.6 303.4,257.5 300.4,250.3 300.1,249.6 298.6,246.2 302.9,244.4 304.4,247.9 "/>
<polygon fill="#D6D6D6" points="557,274.1 568.3,281.4 565.9,285.8 553.4,277.8 551.9,276.8 554.6,272.6 "/>
<polygon fill="#D6D6D6" points="495.8,167.8 496.6,169.6 495.9,169.9 494.4,170.5 492.9,171.2 492.2,171.5 488.7,163.3 488.3,162.4 
	491.6,161 492.6,160.5 "/>
<polygon fill="#D6D6D6" points="440.5,332.5 424.6,339.8 423.4,337.1 439.2,329.8 "/>
<polygon fill="#D6D6D6" points="548.8,284.2 548.3,285.5 547.5,286 544.5,288.1 543.9,288.5 540.3,290.9 539,288.9 537.7,286.9 
	538.1,286.6 546.3,281.2 546.6,280.9 "/>
<polygon fill="#D6D6D6" points="207,396.2 206.3,401.9 200.4,401.2 201,396.4 201.2,394.7 202.9,394.9 207.1,395.4 207.1,395.5 "/>
<polygon fill="#D6D6D6" points="252.9,402.1 252.8,402.9 251.2,416 251.2,416.5 247.3,416 246.9,415.9 248.6,401.5 "/>
<polygon fill="#D6D6D6" points="463.6,414.2 465.5,418.7 466.2,420.4 468.8,426.4 463.6,428.6 463.3,428.8 453.6,406.3 459.1,403.9 
	"/>
<polygon fill="#D6D6D6" points="216.5,275 217.8,275.2 218.7,275.3 221.1,275.6 222.7,275.8 222.2,279.5 218.1,279 217.1,279.2 
	217,279.9 216.9,280.7 210.9,280 211.1,278.1 202.3,277.1 204.2,261.6 204.3,261.7 205.7,261.8 215.5,263 215.4,263.6 214.4,272.1 
	214,274.7 "/>
<path fill="#D6D6D6" d="M379.2,325.9l1.6,4l0,0.6l1,2.5l-0.6,0.3l1,2.4l0.6-0.3l2,4.8l0.6,0.2l2,4.9l-11.2,4.7l-2-4.9l0.3-0.6
	l-2-4.9l1-0.4l-0.6-1.5l-1.2-0.2l5-11.8l2-0.8L379.2,325.9z M379.7,342.5l0.1,0.2l0.3-0.1l-0.1-0.2l0.2-0.4l-0.8-2l-1.1,0.5l0.8,2
	L379.7,342.5z"/>
<polygon fill="#D6D6D6" points="394.1,448.2 394.6,449.5 397,455.5 391.2,457.9 384.5,441.6 390.4,439.2 "/>
<polygon fill="#D6D6D6" points="615.2,331.1 614.1,332.8 613.3,332.3 612.5,333.5 612.9,334.7 609.8,339.6 603.9,335.7 606.8,331.2 
	607.9,331.1 609,329.4 608.2,328.9 609.3,327.4 610.6,326.9 611.6,325.4 611.7,324.7 615.2,319.2 620.1,322.4 616.4,328.2 
	615.7,328.4 614.9,329.7 615.3,330.9 "/>
<polygon fill="#D6D6D6" points="496.6,265.8 495.1,262.6 495.5,262.4 492.6,256.3 495.3,255 495.1,254.4 494.5,254.7 493.6,252.8 
	492.7,253.2 487.9,244.5 493.4,241.9 505.7,260.5 505.5,261.6 "/>
<path fill="#D6D6D6" d="M438.9,404.2l0.5,1.3l0.7-0.3l0.8-0.3l7.9,19.2l3.1,7.7l-13.1,5.4l-6.6,2.7l0.4,1l-2.8,1.1l-5.2-12.7
	l-0.7-1.6L413.4,402l2-0.8l19-7.8L438.9,404.2z M423.4,417.3l5.1,11.9l2.2-0.9l-5.1-11.9L423.4,417.3z"/>
<polygon fill="#D6D6D6" points="412,412.6 408.4,404 412.3,402.4 415.8,411 "/>
<polygon fill="#D6D6D6" points="374.8,423.7 378.5,432.6 375.9,433.6 373.8,428.4 372.3,429 369.3,421.7 368.8,420.5 372.8,418.9 
	373.9,421.5 "/>
<path fill="#D6D6D6" d="M571.7,224.1l-1.1,2l-6.4,11.7l-0.2,0.3l-10.8-7.1l0.1-0.1l0.1-0.2l0.1-0.1l8.4-12.9l0.4-0.6l3.7-5.8l8,5.3
	l-2.6,4.1l1.6,1L571.7,224.1z M560.4,227.2l3.9,2.6l2.7-4l-3.9-2.6L560.4,227.2z"/>
<polygon fill="#D6D6D6" points="467.3,339.2 469.5,343.9 460.1,348.3 457.9,343.5 459.7,342.7 459.9,341.6 459.6,341 459,341.2 
	453.3,328.8 459.5,325.9 465.5,339 464.6,339.4 465.6,340 "/>
<polygon fill="#D6D6D6" points="303.7,293.8 297,296.6 294.9,291.5 297.4,290.4 301.6,288.7 "/>
<polygon fill="#D6D6D6" points="322.9,213 325.3,218.4 307.3,226.4 307.1,226 304.8,220.7 305.2,219.8 304.8,218.9 299.9,207.7 
	305.2,205.4 307,209.4 307,210.6 309.6,216.4 310.1,217.6 311,218.2 311.3,217.1 310.9,216.2 308.1,210 307.6,209.3 305.8,205.1 
	311.3,202.7 313.2,207 313.1,208 316.2,215.1 317,215.5 317,215.6 317,215.5 317.3,214.7 314.2,207.5 313.7,206.8 311.8,202.4 
	317.1,200.1 322,212.8 322.5,212.9 "/>
<polygon fill="#D6D6D6" points="308.2,273.1 309.3,275.8 308.1,276.3 308.1,277 309.4,280.2 310.5,280.9 311.6,283.7 312.6,283.9 
	314.8,289.2 309.3,291.5 307.3,286.6 308.4,286.2 308.2,285.5 307.3,285.9 305.6,281.7 306.5,281.3 305.5,278.6 304.7,278.9 
	303.8,276.8 303.1,276.2 301.3,271.9 306.8,269.6 "/>
<polygon fill="#D6D6D6" points="416.5,283.4 402.2,290.2 399.7,285 414.6,277.8 417.1,283.1 "/>
<polygon fill="#D6D6D6" points="325.8,203.9 326.9,206.6 331,215.9 325.3,218.4 322.9,213 322.7,212.5 317.6,200.9 323.3,198.4 "/>
<polygon fill="#D6D6D6" points="370,394.2 369.5,395.5 370.5,397.8 369.9,398 371.2,401 371.8,400.8 372.7,402.9 373.9,403.2 
	375.6,407.3 370.2,409.6 368.4,405.6 368.7,404.7 367.6,402.3 368.4,401.9 367.2,399.2 366.5,399.5 365.5,397.3 364.5,396.6 
	364.4,396.4 362.8,392.7 368.3,390.3 "/>
<polygon fill="#D6D6D6" points="411.7,266.6 411.8,266.9 399.1,273 404.9,261 408.3,259.4 "/>
<polygon fill="#D6D6D6" points="607.1,355.2 605,358.3 604.4,359.3 602.7,359.6 596.6,369.1 597.1,370.5 595.4,373.2 594.4,374.7 
	587.8,370.4 589.5,367.7 590.5,368.3 593.6,363.5 594.3,364 596.3,361 595.5,360.5 599.7,354 598.8,353.4 600.5,350.9 603.2,352.6 
	"/>
<polygon fill="#D6D6D6" points="235.6,201.9 229,204.8 228.7,205 226.2,199.4 233.3,198 233.8,197.9 "/>
<polygon fill="#D6D6D6" points="437.2,234.8 432.9,225.6 428.2,215.4 434.2,212.5 438.3,210.6 443.9,208.1 448.6,205.9 453.5,203.6 
	464.1,198.6 476.2,216.7 "/>
<polygon fill="#D6D6D6" points="347.5,305.8 343.3,307.5 341,302.2 345.2,300.4 "/>
<polygon fill="#D6D6D6" points="239.1,178.5 239.3,179.7 239.7,181.6 240.2,183.6 240.3,184.2 234.5,185.4 234.4,184.7 234.4,184.6 
	231.7,185.2 231.2,185.3 231.4,186.1 224.5,187.6 224.3,186.6 221.2,187.3 221.4,188.2 213.7,189.9 212.9,189.3 214.8,172.1 
	214.9,171 224.2,172 228.7,172.5 229.1,172.5 229,173.3 228.9,174.3 229.5,174.5 229.6,174.5 231.8,174 234,173.5 234.7,176.7 
	234.2,176.8 234.6,178.6 238.9,177.7 238.9,177.7 "/>
<path fill="#D6D6D6" d="M296,188.6l-0.2,0.4l-0.5,0.9l1,2.2l0.7,0.5l0.6,1.3l-0.7,0.8l1,2.4l2.1,4.9l-3.7,1.6l-0.4-0.9l-6.5,2.9
	l-2.4-5.5L283,191l-1.4-3.2l12.9-2.6L296,188.6z M289.8,197.4l0.7,1.6l3.5-1.5l-0.7-1.6L289.8,197.4z M289.1,191.9l1.1,2.4l1.2-0.5
	l-1.1-2.4l-0.9-0.5L289.1,191.9z"/>
<polygon fill="#D6D6D6" points="313.1,187.9 308.5,190 308,190.2 309.5,193.4 312.7,192 314.2,195.4 303.7,200 300.5,201.5 
	298.9,198 298.9,197.9 301.9,196.7 300.6,193.8 302.1,193.1 300.9,190.4 297.5,192 296.3,189.2 296,188.6 294.5,185.2 310.4,182 "/>
<polygon fill="#D6D6D6" points="385.5,460.2 379.6,462.7 374,449 372.9,446.4 378.8,443.9 "/>
<polygon fill="#D6D6D6" points="534.5,206 528.9,214.6 524.6,211.8 527.2,207.8 529.7,203.8 532.3,205.5 534,202.9 535.8,204 "/>
<polygon fill="#D6D6D6" points="562.2,217.1 561.8,217.7 553.5,230.7 553,230.4 548.5,227.4 550,225 551.3,222.9 554.8,217.6 
	557.4,219.3 559.9,215.6 561.7,216.8 "/>
<polygon fill="#D6D6D6" points="530.8,267.9 526.6,270.7 521,262.1 525.1,259.4 525.8,260.5 526.3,260.2 530.3,257.4 535.5,260.5 
	536.5,262.1 533.7,264 529.9,266.6 "/>
<polygon fill="#D6D6D6" points="465.3,460.8 459.3,463.5 458.9,462.7 455.1,464.5 453,459.7 454.4,459 455,458.2 454.4,456.9 
	453.3,456.4 452.1,456.9 450.3,457.7 448,452.4 453.3,450 457.1,448.3 458.5,447.7 459.5,447.9 459.8,448.5 "/>
<polygon fill="#D6D6D6" points="346.3,325.8 345.2,326.2 345.5,327.2 340.7,329.1 337.4,320.7 343.4,318.3 "/>
<polygon fill="#D6D6D6" points="487,412.1 489.3,417.4 479.8,421.6 477.5,416.2 478.1,415.1 476.4,411.2 477.1,411 476,408.5 
	475,408.9 472.2,402.4 480.2,399 483.4,406.3 482.8,406.6 483.6,408.4 484.2,408.2 485.7,411.7 "/>
<polygon fill="#D6D6D6" points="477.5,416.2 479.8,421.6 474.4,423.9 471.8,417.9 473.1,417.4 472.4,415.7 471.1,416.2 469.3,412.1 
	470.4,411.6 469.6,409.7 468.6,409.4 466.2,403.9 470.7,402 472.8,406.9 472.1,407.3 473.4,410.4 474.7,409.8 476.5,414 
	475.1,414.6 475.8,416.3 477.2,415.7 "/>
<polygon fill="#D6D6D6" points="308,132.4 306.5,125.5 318,123 318.1,123 318.1,123.1 322.1,141.9 309.9,144.5 308.6,138.2 
	311.1,137.7 311.9,136.7 310.9,131.8 "/>
<polygon fill="#D6D6D6" points="257.7,212 258.7,214.2 252.4,217 252.3,217 248.2,207.5 243.2,196.3 243,195.7 249.3,194.4 
	250,194.3 "/>
<polygon fill="#D6D6D6" points="294.3,154.6 289.5,155.6 289.3,154.9 288.8,152.5 293.6,151.5 293.9,152.6 "/>
<polygon fill="#D6D6D6" points="415.3,447.9 409.9,434.6 413.2,433.3 418.6,446.6 "/>
<polygon fill="#D6D6D6" points="429.8,442 424.3,444.2 419.1,431.6 424.6,429.3 "/>
<polygon fill="#D6D6D6" points="585.4,341 582.3,345.7 580.2,348.9 578.6,351.4 574.5,348.7 573.4,348 579.3,338.9 579.8,339.2 
	581.9,340.6 582.8,339.3 "/>
<polygon fill="#D6D6D6" points="242,216.2 233.2,220.2 231.9,217.3 233.5,216.6 240.8,213.4 242,216.1 "/>
<polygon fill="#D6D6D6" points="396.3,439.1 399.1,446.1 397.1,447 397.6,448.2 399.6,447.4 402.1,453.4 397,455.5 394.6,449.5 
	396.1,448.8 395.6,447.6 394.1,448.2 390.4,439.2 389.5,437 393.6,435.3 395.1,439.1 "/>
<polygon fill="#D6D6D6" points="242.2,162 240.6,162.4 237.7,163 237.5,162 237,159.5 236.3,156.3 240.8,155.4 241.4,158.6 "/>
<polygon fill="#D6D6D6" points="304.7,358.6 295.8,362.3 295.5,362.4 293.7,357.8 302.7,354.1 "/>
<polygon fill="#D6D6D6" points="592.7,219.9 599.6,224.4 597.1,229.1 586.3,222 582.8,219.8 585,216.3 586.4,217.2 587.8,218.1 
	588.5,217.2 "/>
<polygon fill="#D6D6D6" points="513.5,251 512.1,248.9 510.7,246.8 511.2,246 514.2,241.4 518.1,243.9 "/>
<polygon fill="#D6D6D6" points="518.4,152.4 516.5,154.4 514,157.1 513.5,157.6 510.9,160.3 511.2,160.9 511.4,161.3 507.2,163.2 
	506.5,161.6 505.4,159 504.3,156.5 503.9,155.6 514.4,151 515.6,150.5 516.3,151 "/>
<polygon fill="#D6D6D6" points="582.8,219.8 586.3,222 597.1,229.1 592.5,237.7 587,234.1 589.1,230.9 582,226.3 580,225 579,226.4 
	577.9,228.2 575.4,226.6 574.1,225.6 579.3,217.5 576.1,215.5 578.8,211.3 583.3,214.2 580.6,218.3 "/>
<polygon fill="#D6D6D6" points="403.5,378.7 398.5,381 400.5,385.6 399.2,386.2 395.7,378.3 394.7,376 396.3,375.3 401.1,373.2 "/>
<polygon fill="#D6D6D6" points="356.7,394.9 358.3,398.4 357.6,398.7 359.2,402.4 358.4,402.7 358.7,403.5 359.2,403.3 359.4,403.9 
	359,404.1 359.4,405 360.2,404.7 361.9,408.5 362.6,408.3 364.2,412 357.2,415 355.5,411.1 357.6,410.2 356.8,408.2 357.5,407.9 
	356.6,405.8 355.9,406.1 353.4,400.5 352.9,400.7 351.9,398.4 351.3,397 356.6,394.6 "/>
<polygon fill="#D6D6D6" points="290.5,226.8 292.9,232.3 285.7,235.5 284.2,232.1 283.3,230 284,228.8 282.4,225.1 283.3,224.7 
	282.6,223.1 281.7,223.5 280.9,221.6 280.2,221.2 278.1,216.5 284.9,213.5 285,213.4 285.3,214 287.1,218.2 286.5,219.4 
	289.6,226.4 "/>
<polygon fill="#D6D6D6" points="419.8,165.9 417,160.7 421.3,159.9 421.8,161.1 421.7,161.4 420.2,164.9 "/>
<polygon fill="#D6D6D6" points="588.5,346 585.7,350.3 584.6,349.6 585.6,347.9 582.3,345.7 585.4,341 589.8,343.9 "/>
<polygon fill="#D6D6D6" points="328.4,186.3 330.7,191.5 330.1,191.7 331.4,194.9 328.1,196.4 327.8,195.8 326.6,193.1 321.2,180.7 
	320.8,179.9 325.2,179 326.7,182.5 "/>
<polygon fill="#D6D6D6" points="393.4,477.3 392.8,478.6 394.7,482.8 395.9,482.9 397.2,485.8 396.2,486.2 397.3,488.6 398.6,489 
	399,489.9 399.4,490.8 393.8,493.3 393.5,492.4 393,491.5 393.4,490.4 392,487.1 391.2,487.4 390.3,485.4 391,484.5 389.1,480.3 
	387.8,479.8 387,478.1 392.6,475.5 "/>
<polygon fill="#D6D6D6" points="468.8,138.6 467.4,138.9 464.2,139.5 461.9,128 462.4,127 466.4,126.2 467.8,133.4 "/>
<polygon fill="#D6D6D6" points="335.5,349.6 333.9,353.5 333.2,353.2 332.2,355.6 329.9,349.8 333.5,348.8 "/>
<polygon fill="#D6D6D6" points="414.3,391.2 411.8,392.2 409.4,393.2 406.4,386.3 411.3,384.1 412.7,387.5 "/>
<polygon fill="#D6D6D6" points="464.2,139.5 456.3,141.1 461.9,128 "/>
<polygon fill="#D6D6D6" points="531.9,161.2 530.8,162.9 529.1,165.5 527.6,164.5 526.9,164.7 527,165.4 526.3,166.6 523.6,171.3 
	520.9,175.9 520.1,177.4 515.7,174.6 515.1,172.3 514.9,171.6 517.5,167.5 520.4,163 521.3,161.6 521.8,161.4 521.5,160.5 
	520.4,159.8 522,157.3 523.1,155.5 "/>
<polygon fill="#D6D6D6" points="292.7,379.3 294.7,383.8 289.5,386.1 289.3,385.6 287.3,381.1 285.7,377.4 283.3,372 280.2,365 
	284.7,362.9 285.3,362.7 "/>
<polygon fill="#D6D6D6" points="321.5,487.3 316.2,489.6 316,489.2 310.9,477.3 310.8,477 314,469.8 "/>
<polygon fill="#D6D6D6" points="487.7,392.8 485.6,396.7 484.5,398.6 480.3,396.3 483.5,390.5 "/>
<polygon fill="#D6D6D6" points="409.5,469.1 414.4,480 417.1,486 412.8,488 410.5,482.7 405,470.4 409.3,468.5 "/>
<polygon fill="#D6D6D6" points="504.4,375.4 513.5,380.4 511.3,384.4 493.7,374.7 495.2,372.1 501.7,375.7 501,376.9 503,378 "/>
<polygon fill="#D6D6D6" points="561.7,253.4 558.7,258.1 556.5,261.5 552.3,258.8 557.5,250.7 "/>
<polygon fill="#D6D6D6" points="242.8,400.8 242.1,406.3 240.4,406.1 240.2,407.1 242,407.3 241.7,409.2 240.7,409.9 240.4,412.8 
	239.9,412.8 239.5,415.9 240.8,416 240.2,421.2 234.4,420.5 235,415.1 236.2,415.3 236.5,412.6 235.9,412.6 236.2,409.9 
	235.7,408.9 236,406.7 237.4,406.8 237.6,405.7 236.1,405.5 236.8,400.1 "/>
<polygon fill="#D6D6D6" points="433.6,464.7 433.8,465.1 435,467.7 429.4,470.2 429.2,470.3 429.2,470.2 427.7,466.7 426.1,463.3 
	426.3,463.2 431.8,460.7 431.9,460.7 "/>
<polygon fill="#D6D6D6" points="254.7,435.9 254.1,440.5 253.1,448.4 248.1,447.7 249.6,435.3 250.6,435.4 "/>
<polygon fill="#D6D6D6" points="459.1,403.9 453.6,406.3 453.3,405.6 451.6,401.8 467.8,394.8 468.9,397.5 466,398.7 466.8,400.6 
	"/>
<polygon fill="#D6D6D6" points="320.5,351.6 313.1,354.9 311.3,350.7 318.7,347.5 "/>
<polygon fill="#D6D6D6" points="297.8,342.9 289.3,346.4 288.5,344.5 287.2,341.2 294.9,338 295.7,337.6 "/>
<polygon fill="#D6D6D6" points="278.3,258 277.9,258.2 277.6,259 278.4,261.1 279.3,261.5 279.7,261.3 280.5,263.2 279,263.8 
	280.2,266.5 280.7,266.3 281,266.7 283.3,269.8 283.7,270.7 285.3,274.3 279.3,276.9 279.5,277.4 279.1,277.6 278.9,277.2 
	275.9,270.4 271,259 270.1,256.7 276.5,253.9 "/>
<polygon fill="#D6D6D6" points="530.2,233.1 525,241.2 523.5,243.5 522.9,243.1 520.2,241.3 520.3,241.1 524.7,234.3 526.8,230.9 
	"/>
<polygon fill="#D6D6D6" points="512.7,351.4 525.5,358.5 519.7,369.2 505.3,361.3 504.1,360.6 510,349.9 "/>
<polygon fill="#D6D6D6" points="453.5,203.6 448.6,205.9 446.6,201.6 451.6,199.3 "/>
<polygon fill="#D6D6D6" points="332.7,444.7 334.2,448.2 329.4,450.3 325.6,451.9 323.8,447.8 329.2,436.7 "/>
<polygon fill="#D6D6D6" points="396.9,351.8 399.7,358.3 400.8,360.8 395.4,363.2 393.7,359.2 391.3,353.8 396.7,351.5 "/>
<polygon fill="#D6D6D6" points="352.4,291.5 347.9,293.4 347.7,292.8 345,286.5 349.5,284.5 "/>
<polygon fill="#D6D6D6" points="360.4,223.7 356.3,225.5 346.9,229.6 345.2,230.3 344.6,228.9 344.1,227.7 346.3,226.7 346,226 
	349.1,224.7 348.6,223.6 358.5,219.3 359.8,222.3 "/>
<polygon fill="#D6D6D6" points="266.1,339.5 265,336.6 267.1,335.8 265.9,332.7 265.6,332.9 262.7,325.4 261,326 259.9,322.9 
	259.6,322.3 267.7,319.2 269,322.6 267.6,323.1 270.5,330.8 269.6,331.1 270.2,332.6 273,331.5 274.8,336.2 "/>
<polygon fill="#D6D6D6" points="431.6,296.1 431.9,296.7 426.6,299.2 423.7,293.2 418.6,282.3 423.9,279.8 "/>
<polygon fill="#D6D6D6" points="366.2,284.9 363.6,278.7 370.6,275.6 371.7,276.7 367.1,286.9 "/>
<polygon fill="#D6D6D6" points="237.5,167.8 231.5,169.1 230.6,164.5 236.5,163.2 237,165.2 "/>
<polygon fill="#D6D6D6" points="446,329.3 450.7,327.1 452.8,331.8 448.1,334 "/>
<polygon fill="#D6D6D6" points="571.8,210.2 576.4,203.1 577.4,201.5 578.5,201.4 579.1,200.5 578.7,199.6 582.2,194 586.7,196.9 
	582.1,204.1 580.7,203.2 580,204.2 578.9,206 580.3,206.8 577.3,211.4 574.9,209.9 573.5,212.1 571.5,210.7 "/>
<polygon fill="#D6D6D6" points="452.5,380.3 443.9,384 442.4,380.4 450.9,376.7 "/>
<polygon fill="#D6D6D6" points="451.5,282.2 453.2,285.8 447.9,288.3 445.8,283.7 444.4,280.7 446.6,279.7 445.5,277.3 448.5,275.9 
	"/>
<polygon fill="#D6D6D6" points="218.7,397.8 218.2,401.9 217.6,402.3 217.3,404.4 217.8,405.3 217.4,408.4 216.3,408.3 215.8,412.1 
	216.4,412.9 215.8,417.9 211,417.3 211.6,411.8 212.5,410.9 212.9,407.4 211.5,407.2 211.9,404.6 212.6,404.1 212.9,401.7 
	212.3,400.9 212.8,396.8 212.8,396.5 212.9,395.9 218.8,396.7 218.7,397.6 "/>
<polygon fill="#D6D6D6" points="347,209.4 345.8,206.9 347.5,206.1 347.1,205.2 351.6,203.2 354,208.6 347.8,211.4 "/>
<polygon fill="#D6D6D6" points="361.8,300.1 357.1,301.9 354.9,296.7 359.5,294.8 "/>
<polygon fill="#D6D6D6" points="279.8,349.8 277.7,345 277.6,344.9 278.3,344.6 280,343.9 285.2,341.8 286.3,344.6 287.2,346.7 "/>
<polygon fill="#D6D6D6" points="232.1,264.8 231.1,272.6 230.2,272.5 228.7,272.3 228.3,275.1 226.3,274.8 226.7,271.8 227.6,264.2 
	229.4,264.4 "/>
<polygon fill="#D6D6D6" points="351.4,322.8 351.7,323.6 346.3,325.8 343.4,318.3 348.8,316.2 "/>
<polygon fill="#D6D6D6" points="533.9,235.5 528.7,243.6 525,241.2 530.2,233.1 "/>
<polygon fill="#D6D6D6" points="278.6,196.7 278.2,195.9 275.2,189.1 281,187.9 282.4,191 286.4,200.2 289.3,206.8 284.9,208.8 
	284.1,209.2 "/>
<polygon fill="#D6D6D6" points="222.3,283.2 221,294 211.3,292.8 211.5,291 209.7,290.8 207.8,306.3 209.7,306.5 209.9,304.8 
	219.8,306 218.6,316.5 197.8,314 201.8,280.7 "/>
<polygon fill="#D6D6D6" points="437.8,326.8 430.1,330.3 430.3,330.8 422.2,334.5 419.5,328.7 431.7,323.1 436.7,320.8 439.2,326.1 
	"/>
<polygon fill="#D6D6D6" points="287.3,381.1 282.3,383.3 281.7,382 278.2,374.2 283.3,372 285.7,377.4 "/>
<polygon fill="#D6D6D6" points="559.7,441.6 554.3,438 559.1,430.7 561.6,426.8 567,430.4 563.5,435.7 "/>
<polygon fill="#D6D6D6" points="486.2,363.2 487.1,365.3 481.8,367.6 475.6,353.3 474.8,351.5 480.2,349.1 480.5,350 "/>
<polygon fill="#D6D6D6" points="407.3,301.1 417.7,296.1 420.5,302.1 409.6,307.2 406.8,301.3 "/>
<polygon fill="#D6D6D6" points="328.1,196.4 327.9,196.5 324,198.2 321.3,192.1 319.4,187.9 316.3,180.8 316.8,180.7 320.8,179.9 
	321.2,180.7 326.6,193.1 327.8,195.8 "/>
<polygon fill="#D6D6D6" points="383,420.3 382.4,420.5 381.7,420.8 381.8,421.1 385.9,430.9 380.4,433.1 376.7,424.2 375.9,423.2 
	374.8,423.7 373.9,421.5 372.8,418.9 381,415.5 382.7,419.7 "/>
<polygon fill="#D6D6D6" points="499.9,319 503.9,327.7 498.3,330.3 494.1,320.9 499.6,318.3 "/>
<polygon fill="#D6D6D6" points="399.9,170.7 401,176 389.3,178.5 389.2,178.2 386.8,166.7 398,164.3 398.6,164.2 399.1,166.9 "/>
<polygon fill="#D6D6D6" points="572.1,187.4 570.2,190.2 564.6,198.9 560.1,196 564.5,189.2 567.6,184.5 "/>
<polygon fill="#D6D6D6" points="279,234.4 281.2,239.3 280.2,239.7 279.4,240.1 271.2,243.8 271.1,243.5 270.8,242.9 269.1,239.1 
	269.6,238.9 269.3,238.2 268,235.2 267.5,235.4 265.8,231.5 271.6,229 271.1,227.9 275.4,226 "/>
<polygon fill="#D6D6D6" points="536.4,213.2 533.5,217.6 528.9,214.6 534.5,206 539.1,209 "/>
<polygon fill="#D6D6D6" points="346.3,453.2 342.9,454.6 340.7,455.6 340.1,455.3 338.2,456.1 338,456.8 337.5,457 333.1,458.9 
	331.8,455.9 330.7,456.4 330.3,455.3 329.6,453.8 330.7,453.3 329.4,450.3 334.2,448.2 334.3,448.2 334.8,448.3 336.7,447.5 
	337,447 338.2,446.5 342.3,444.7 342.6,444.6 "/>
<polygon fill="#D6D6D6" points="351.3,474.9 344.1,478 338.3,464.4 339.8,463.7 343.2,462.2 345.4,461.3 "/>
<polygon fill="#D6D6D6" points="476.2,370 476.5,370.7 478.3,374.9 472.7,377.4 471.3,374.1 470.9,373.2 469.1,369.2 468.4,367.4 
	468,366.5 473.7,364.1 "/>
<polygon fill="#D6D6D6" points="398.7,340.3 396.5,335 399.6,333.7 399.7,333 397.8,328.5 397.2,328 394.1,329.3 391.7,323.5 
	394.7,322.6 403.1,320 408.9,334 409.2,333.9 409.8,335.4 409.3,336.4 407.8,337 407.6,336.5 401.9,338.9 "/>
<polygon fill="#D6D6D6" points="327.4,484.7 321.5,487.3 314,469.8 319.8,467.2 "/>
<polygon fill="#D6D6D6" points="438.8,254 441.8,260.2 436.4,262.7 436,261.8 429.9,249 435.2,246.4 "/>
<polygon fill="#D6D6D6" points="523.1,155.5 522,157.3 520.4,159.8 519.1,161.7 517.7,163.9 513.3,161.1 515.3,158 515.3,158 
	514,157.1 516.5,154.4 518.4,152.4 "/>
<polygon fill="#D6D6D6" points="496.2,225.4 492.9,219.9 492.8,219.8 494.4,219.1 502.6,215.4 "/>
<polygon fill="#D6D6D6" points="324.9,331.9 326.1,334.9 323.7,335.8 322.6,333.1 321.5,333.6 319.3,328 319.5,327.9 322.8,326.6 
	324.4,330.6 "/>
<polygon fill="#D6D6D6" points="462.7,303.8 457.7,306.1 454.5,299.1 459.5,296.8 "/>
<polygon fill="#D6D6D6" points="601.1,394 593.4,405.9 579.3,396.7 585.2,387.6 590.9,378.8 599.2,384.2 604.4,387.6 600.6,393.6 
	"/>
<polygon fill="#D6D6D6" points="368.8,158.1 368.9,158.7 362.9,159.9 359.3,142.3 365.3,141.1 "/>
<polygon fill="#D6D6D6" points="493.6,177.6 487.3,180.3 486.4,180.7 485.8,181 481.7,171.5 479.8,167.2 479.4,166.3 488.3,162.4 
	488.7,163.3 492.2,171.5 492.8,172.8 494.6,177.1 494.1,177.3 493.6,177.6 "/>
<polygon fill="#D6D6D6" points="266.2,161.5 269.8,178.4 264.2,179.6 263.1,174.4 261.2,165.8 260.1,160.4 265.7,159.2 "/>
<polygon fill="#D6D6D6" points="361.5,444.5 353.8,447.7 351.9,443.3 355,442 359.6,440.1 361.1,443.8 "/>
<polygon fill="#D6D6D6" points="576.6,190.3 575.4,192.1 573.1,195.8 569.1,201.9 568.1,201.2 566.9,203.1 563.9,201.2 565.1,199.3 
	564.6,198.9 570.2,190.2 572.1,187.4 "/>
<polygon fill="#D6D6D6" points="269.4,225 268,221.8 265.4,222.9 264.7,221.5 261.3,223.1 261.9,224.4 256.6,226.8 254.2,221.2 
	252.5,217.4 252.6,217.4 266.5,214.1 265.7,212.2 268.3,211 271.4,218 269.5,218.8 271.8,224 "/>
<polygon fill="#D6D6D6" points="244.8,287.3 244.1,293.3 240.6,292.9 241.4,286.9 "/>
<polygon fill="#D6D6D6" points="518.5,225.6 513.2,233.9 511,232.5 509.2,231.3 514.5,223 "/>
<polygon fill="#D6D6D6" points="378,178.8 373.2,179.8 371.6,172.3 371.1,169.9 376,168.9 "/>
<polygon fill="#D6D6D6" points="431.7,316.9 429.1,318.1 428.5,316.9 426.2,317.9 426.6,318.7 421.5,321.1 421.7,321.5 417.2,323.6 
	414.4,317.6 430.7,310.1 433.5,316.1 "/>
<polygon fill="#D6D6D6" points="290.4,430.8 290.3,431.5 291.2,433.7 292,435.5 292.5,436 294.4,440.7 290.7,442.1 289.1,442.8 
	287.2,438.2 287.5,437.2 285.8,433.1 285.2,433.3 283.2,428.1 288.5,426 "/>
<polygon fill="#D6D6D6" points="460.4,382.6 461.1,384.3 459.8,384.9 460.5,386.5 452.8,389.8 447.5,392.2 445.5,387.5 454,383.8 
	459.8,381.3 460.3,382.6 "/>
<polygon fill="#D6D6D6" points="563.3,261.1 567,263.4 575.2,268.7 573,272.8 556.9,262.4 556.2,262 556.5,261.5 558.7,258.1 "/>
<polygon fill="#D6D6D6" points="469.3,412.1 471.1,416.2 469.3,417 470,418.7 471.8,417.9 474.4,423.9 468.8,426.4 466.2,420.4 
	468.1,419.5 467.4,417.8 465.5,418.7 463.6,414.2 464.8,413.6 463.8,411.2 462.8,410.7 460.9,406.3 465.5,404.3 467.4,408.7 
	465.8,409.4 466.2,410.2 467,409.8 468,412.2 469.1,411.7 "/>
<polygon fill="#D6D6D6" points="342.5,293.7 337.8,295.8 335.5,290.5 340.2,288.5 "/>
<polygon fill="#D6D6D6" points="419.4,470.8 420.6,473.6 422,476.6 414.4,480 409.5,469.1 417.1,465.7 "/>
<polygon fill="#D6D6D6" points="364.3,232.8 354.4,237.1 352.5,232.7 362.4,228.4 "/>
<polygon fill="#D6D6D6" points="399.2,386.2 403.3,395.8 397.9,398 389.3,378.4 392.5,377 394.7,376 395.7,378.3 "/>
<polygon fill="#D6D6D6" points="278.5,298.9 269.4,302.8 267.9,299.4 271.1,298.1 271.2,298.4 271.9,298.1 271.5,297.3 276.7,295 
	"/>
<polygon fill="#D6D6D6" points="386.6,402.7 375.6,407.3 373.9,403.2 370,394.2 368.3,390.3 367.1,387.7 367.1,387.6 358.4,367.9 
	358.5,367.8 366.4,364.4 369.3,363.1 371.4,367.9 377.9,382.8 379.2,385.6 381.1,390 384.5,397.9 "/>
<polygon fill="#D6D6D6" points="439.2,329.8 423.4,337.1 422.2,334.5 430.3,330.8 430.1,330.3 437.8,326.8 "/>
<polygon fill="#D6D6D6" points="269.1,239.1 270.8,242.9 264.9,245.5 261.7,238.4 262.8,237.9 267.7,235.8 268.7,238.2 "/>
<polygon fill="#D6D6D6" points="277.4,464.2 278.4,471.3 278.8,473.8 279.8,481.5 283.7,479.8 280.8,486.6 280.8,486.6 269,486.2 
	268.1,486.2 263.4,486 263.9,482.7 264.8,476.8 266.7,464.4 266.8,463.8 266.9,463.4 267.4,463.1 274.4,460.2 276.7,459.2 "/>
<polygon fill="#D6D6D6" points="518.9,348.2 527.4,352.9 528.3,353.4 528.2,353.7 525.5,358.5 512.7,351.4 515.5,346.3 "/>
<polygon fill="#D6D6D6" points="397.4,307.6 391.2,310.2 390.3,307.9 388.4,308.7 389.4,311 385.5,312.6 381.6,314.2 383.1,310.6 
	387.7,299.9 393.2,297.5 "/>
<polygon fill="#D6D6D6" points="420.6,360.1 408.4,365.4 406.8,361.7 418.9,356.4 "/>
<polygon fill="#D6D6D6" points="440.2,286.4 442.4,290.9 436.9,293.5 429.2,277.3 434.7,274.7 "/>
<polygon fill="#D6D6D6" points="354.5,410.1 351.6,411.4 350.9,411.7 350.6,410.9 343.4,414 343.7,414.8 340.6,416.2 339.8,416.6 
	339.7,416.6 338.1,412.9 338.2,412.6 339.6,410.8 347.6,407.3 352.4,405.2 "/>
<polygon fill="#D6D6D6" points="258.7,307 260.9,312 256.7,313.8 252.1,303.2 255.7,301.6 257.8,306.4 257.4,306.5 257.8,307.3 "/>
<polygon fill="#D6D6D6" points="274.3,408.1 277.3,415.3 269.3,418.7 266.9,405 270.8,403.4 272.1,402.8 "/>
<polygon fill="#D6D6D6" points="344.2,140.6 339.1,141.7 337.3,137 343.2,135.8 "/>
<polygon fill="#D6D6D6" points="273.6,444.1 274.4,449 269.9,450.1 268.7,450.3 268.8,449.4 269.9,440.9 272.9,440.2 "/>
<polygon fill="#D6D6D6" points="551.3,222.9 550,225 548.5,227.4 540.9,222.5 543.8,218 544.6,218.5 545.8,218.4 547.6,215.6 
	553.3,206.7 557.9,209.7 550.4,221.3 550.6,222.4 "/>
<polygon fill="#D6D6D6" points="476.4,335 478.4,339.5 478.5,339.8 469.5,343.9 467.3,339.2 468.9,338.5 469.1,337.3 468.8,336.7 
	468,337 462.4,324.6 468.6,321.7 474.2,334 473.4,334.4 473.8,335.3 474.7,335.8 "/>
<polygon fill="#D6D6D6" points="259.9,271 255.6,272.7 254.2,268.9 252.1,263.4 256.4,261.7 257.3,264.2 "/>
<polygon fill="#D6D6D6" points="420.4,503.2 417,504.6 413,495.8 411.9,493.3 410.1,489.3 412.5,488.2 414.2,492.2 415.3,491.7 "/>
<polygon fill="#D6D6D6" points="308.2,273.1 306.8,269.6 305.9,267.5 311.5,265.1 313.8,270.7 "/>
<polygon fill="#D6D6D6" points="449.5,373.4 441,377.1 439.6,373.9 448.1,370.2 "/>
<polygon fill="#D6D6D6" points="293,218.9 297.9,230.1 292.9,232.3 290.5,226.8 288.1,221.3 290.2,220.4 288.4,216.1 288.7,216 
	291.2,214.8 292.2,217.2 "/>
<polygon fill="#D6D6D6" points="319.4,285.3 320.1,287 314.8,289.2 312.6,283.9 310.8,279.4 316.1,277.2 "/>
<polygon fill="#D6D6D6" points="492.6,183.9 490.4,178.9 493.6,177.6 493.7,177.8 495.7,182.6 495.4,182.7 "/>
<polygon fill="#D6D6D6" points="454.9,468.1 466.4,464 467,465.8 465.3,471.2 462.7,472.1 456.4,474.3 455.6,474.2 451.5,473.4 
	450.2,469.8 "/>
<polygon fill="#D6D6D6" points="265,336.6 266.1,339.5 260.2,341.8 258.3,336.8 264.2,334.5 "/>
<polygon fill="#D6D6D6" points="446.6,305.3 447.3,306.8 449.5,311.7 448.1,312.4 448.7,313.5 449.4,313.2 451.7,318.4 447.6,320.2 
	445.6,315.9 440.9,305.4 445.7,303.2 "/>
<polygon fill="#D6D6D6" points="580.5,379.3 576.7,377.2 580,371.1 580.8,369.6 584.9,371.9 580.8,379.4 "/>
<polygon fill="#D6D6D6" points="318.7,347.5 311.3,350.7 309.2,345.8 309.3,345.7 317.3,342.3 319.4,347.2 "/>
<polygon fill="#D6D6D6" points="444.3,183.5 448.3,192.1 449.3,194.3 445.7,196 444.3,196.6 439.1,185.3 444.1,183 "/>
<polygon fill="#D6D6D6" points="276.4,355.5 279.8,363.1 279.9,363.2 273.7,366.1 266.3,349.8 272.6,347 "/>
<polygon fill="#D6D6D6" points="336.7,443 332.7,444.7 329.2,436.7 333.2,435 "/>
<polygon fill="#D6D6D6" points="489.9,265.1 491.4,268.3 486,270.8 484.1,266.8 484.1,265.8 482.6,262.7 482.2,262.9 481.7,261.7 
	483.1,261 481.9,258.4 480.4,259 476.9,251.6 482.5,248.9 484.6,253.3 484.3,254.1 485.4,256.5 484.3,257 485.6,259.8 486.5,259.4 
	488.4,263.5 489.1,263.7 489.8,265.1 "/>
<polygon fill="#D6D6D6" points="409,417.1 407,418 406.1,415.7 403.4,416.8 401.7,412.8 399.6,407.7 404.3,405.7 407.4,413.1 "/>
<polygon fill="#D6D6D6" points="427.9,259.2 424.9,260.6 428.4,268 430.6,267 430.2,266.1 431,265.8 432.4,268.8 420.3,274.6 
	415.6,264.8 411.7,266.6 408.3,259.4 424.3,251.8 "/>
<polygon fill="#D6D6D6" points="298.7,344.9 290.1,348.4 289.3,346.4 297.8,342.9 "/>
<polygon fill="#D6D6D6" points="392.8,141 394.9,151.8 382.6,154.3 379,136.4 378.5,134.1 390.8,131.6 "/>
<polygon fill="#D6D6D6" points="399.5,312.6 390.9,316.3 390,316.6 383.7,319.3 381.6,314.2 385.5,312.6 389.4,311 391.2,310.2 
	397.4,307.6 "/>
<polygon fill="#D6D6D6" points="329.4,281.2 324.7,283.1 321.1,274.3 325.8,272.4 "/>
<polygon fill="#D6D6D6" points="457.9,343.5 460.1,348.3 455.6,350.4 450.9,339.9 449.5,336.9 453.9,334.9 "/>
<polygon fill="#D6D6D6" points="486.1,317.9 488.6,323.4 492.9,332.8 487.5,335.3 483.5,326.4 480.4,319.8 478.2,314.8 483.6,312.3 
	"/>
<polygon fill="#D6D6D6" points="549,245.3 543.8,253.4 539.6,250.6 544.8,242.5 "/>
<polygon fill="#D6D6D6" points="357.2,289.4 352.4,291.5 349.5,284.5 354.2,282.5 "/>
<polygon fill="#D6D6D6" points="410.5,482.7 409,483.3 410.3,486.3 407.9,487.3 405.2,481.3 401.2,472.2 405,470.4 "/>
<polygon fill="#FF8517" points="436.9,293.5 431.6,296.1 423.9,279.8 429.2,277.3 "/>
<polygon fill="#D6D6D6" points="446.7,354.5 445.5,352.1 444.9,350.7 446.4,350 449.2,348.7 451,352.5 "/>
<polygon fill="#D6D6D6" points="351.4,322.8 348.8,316.2 355.8,313.4 "/>
<polygon fill="#D6D6D6" points="444.5,267.3 446.4,271.3 441.1,273.8 439.1,269.6 438,267.2 443.2,264.7 "/>
<polygon fill="#D6D6D6" points="526.8,230.9 524.7,234.3 520.3,241.1 516.1,238.4 517.3,236.5 522.6,228.2 525.4,230.1 "/>
<polygon fill="#D6D6D6" points="609.3,327.4 608.2,328.9 607,329.2 606,330.7 606.8,331.2 603.9,335.7 600.4,333.5 606.2,324.4 
	606.6,324.7 611.6,316.9 614.1,318.6 610.3,324.5 610,324.3 608.4,326.8 "/>
<polygon fill="#D6D6D6" points="212.8,396.8 212.3,400.9 211.9,404.6 211.5,407.2 211.2,410.3 205.4,409.4 206.3,401.9 207,396.2 
	207.8,395.6 208.6,395 209.9,395.2 210.7,396.1 211,396.5 "/>
<polygon fill="#D6D6D6" points="338.3,464.4 344.1,478 338.3,480.5 338.2,480.1 331,463.5 336.8,461 "/>
<polygon fill="#D6D6D6" points="270,383.6 271.5,387.5 261.4,386.1 257.5,385.5 257.6,384.6 257.9,382.1 258.8,382.2 259.7,374.8 
	262.1,375.1 262.3,373.5 265.5,373.9 265.1,376.5 266.6,376.7 267.5,378.4 266.9,383.3 "/>
<polygon fill="#D6D6D6" points="298.1,218.5 298.3,219.1 302.3,228.2 297.9,230.1 293,218.9 294.8,218.1 297.4,217 "/>
<rect x="227.9" y="286.7" transform="matrix(0.1251 -0.9921 0.9921 0.1251 -84.3011 481.5578)" fill="#D6D6D6" width="6" height="3.8"/>
<polygon fill="#D6D6D6" points="237.3,335 237.1,336.7 236,345.2 235.9,346.3 235.7,347.9 234.9,354.8 229.1,354.1 230.1,346.1 
	230.3,344.2 231.5,334.5 231.5,334.2 "/>
<polygon fill="#D6D6D6" points="316.8,363.4 322.3,361 323,362.5 322.3,362.8 323.5,363.9 329.1,361.4 327.9,358.7 330.6,357.5 
	333.8,364.9 333.9,365 332.2,368.6 321.1,373.5 320.9,373 "/>
<polygon fill="#D6D6D6" points="301.5,375.6 310.4,371.9 312.5,376.6 312.5,376.6 312.4,376.6 304.2,380 301.3,381.2 301.2,381.1 
	299.3,376.5 "/>
<polygon fill="#D6D6D6" points="416.5,173.9 413.4,181.2 411.5,177.6 407,169.1 403.8,163.2 410.1,162 "/>
<polygon fill="#D6D6D6" points="500.2,404.7 497.8,409.1 489,404.2 484.5,401.8 485.8,399.4 484.5,398.6 485.6,396.7 "/>
<polygon fill="#D6D6D6" points="383,177.8 378,178.8 376,168.9 380.9,167.9 "/>
<polygon fill="#D6D6D6" points="322.6,144.2 327.4,166.5 317.3,168.7 317.1,167.9 315.2,168.3 311,169.3 311.1,170 300.9,172.2 
	298.9,163.1 300.3,162.8 299.3,157.8 301,157.5 299.4,149.9 301.2,149.5 301.2,149.4 301.1,148.8 306,147.8 307,152.3 307,152.4 
	307.2,152.4 315,150.7 314,146 "/>
<polygon fill="#D6D6D6" points="312.5,254.1 307.9,256.1 307.7,255.6 304.4,247.9 302.9,244.4 307.5,242.4 309.3,246.6 "/>
<polygon fill="#D6D6D6" points="557.5,250.7 552.3,258.8 548.1,256.1 553.3,248 "/>
<polygon fill="#D6D6D6" points="423.8,501.8 420.4,503.2 415.3,491.7 418.6,490.2 "/>
<polygon fill="#D6D6D6" points="414.6,277.8 399.7,285 396.9,279.1 397.7,278.7 413,271.4 415.8,277.3 "/>
<polygon fill="#D6D6D6" points="434.2,212.5 428.2,215.4 432.9,225.6 437.2,234.8 431.8,237.3 429.8,233 428.6,230.3 428,229.1 
	427.2,227.4 423,218.1 429.9,203.1 "/>
<polygon fill="#D6D6D6" points="531.2,315.1 529,310.4 529.5,309.9 526.5,303.3 525.6,302.8 524.2,299.8 530.6,296.8 539.7,310.2 
	538.9,311.5 "/>
<polygon fill="#D6D6D6" points="239,209.3 232.7,212.2 231.7,209.9 233.1,209.2 232.5,207.7 237.3,205.5 "/>
<polygon fill="#D6D6D6" points="436,261.8 430.8,264.3 428.4,259.2 428,259.4 427.9,259.2 424.3,251.8 424.3,251.6 429.9,249 "/>
<polygon fill="#D6D6D6" points="495.6,355.1 497.1,358.5 492,360.7 485.9,346.6 491,344.4 "/>
<polygon fill="#D6D6D6" points="355.5,411.1 357.2,415 355.5,415.7 344,420.4 342.1,419.7 340.6,416.2 343.7,414.8 350.9,411.7 
	351.6,411.4 354.5,410.1 355,409.9 "/>
<polygon fill="#D6D6D6" points="476.1,321.8 479.1,328.4 483.2,337.3 478.4,339.5 476.4,335 469,319 470.4,318.4 473.8,316.8 "/>
<polygon fill="#D6D6D6" points="570.6,277.3 568.3,281.4 557,274.1 559.5,270.2 "/>
<polygon fill="#D6D6D6" points="279.3,438 279.1,439 280.1,441.5 280.9,442 282.3,445.6 274.4,449 273.6,444.1 275.7,443.2 
	273.3,437.2 278.2,435.3 "/>
<polygon fill="#D6D6D6" points="344.2,275.1 339.4,277 334.4,264.9 339.2,262.9 "/>
<polygon fill="#D6D6D6" points="366.9,267.1 359.7,270.2 358.2,266.5 360.3,265.6 365.3,263.4 367,262.6 374,259.6 375.6,258.9 
	377.2,262.6 375,263.5 "/>
<polygon fill="#D6D6D6" points="426.8,481.5 433.5,496.7 433.9,497.6 432.3,498.3 429.3,499.5 422.7,484.8 421.6,482.3 426.2,480.2 
	"/>
<polygon fill="#D6D6D6" points="285.2,403.7 284.9,404.7 286.9,409.6 286.5,409.8 287.8,413 288.8,412.5 290.8,417.2 285.6,419.4 
	283.4,414.1 283.2,413.8 284.5,413.2 283.5,411 282.6,411.4 280.5,406.4 280.2,406.5 279.9,405.6 277.8,400.7 277.9,400.7 
	283.1,398.7 "/>
<polygon fill="#D6D6D6" points="351.4,253.8 347.4,255.6 345.6,251.4 348.8,250 349.6,249.6 351.3,253.7 "/>
<polygon fill="#D6D6D6" points="356.5,264.4 359,269.8 354.8,271.8 350.2,261.7 353.1,260.3 355.2,264.9 "/>
<polygon fill="#D6D6D6" points="339.4,277 334.5,279.1 330.8,270.3 329.5,267 334.4,264.9 "/>
<polygon fill="#D6D6D6" points="453.7,367.1 447.9,369.6 448.1,370.2 439.6,373.9 438,370.3 438.3,368.8 451.8,362.9 "/>
<polygon fill="#D6D6D6" points="290.8,462.7 283.7,479.8 279.8,481.5 278.8,473.8 278.4,471.3 280.8,471 281.7,469.3 281.1,465.2 
	279.3,463.9 277.4,464.2 276.7,459.2 287.4,454.7 289.6,460 "/>
<polygon fill="#D6D6D6" points="241.4,286.9 240.6,292.9 236.7,292.4 237.4,286.4 "/>
<path fill="#D6D6D6" d="M560.9,294.7l-2.6,4.9l-2.9,5.3l-10.8-6.9l0.3-0.4L544,297l-3.7-6.1l3.5-2.4l0.7-0.4l3-2l2.4,1.5l2.7,1.7
	L560.9,294.7z M550.5,292.7l-4.7-3.2l1.7,2l-0.5,0.8l2.7,1.7L550.5,292.7z"/>
<polygon fill="#D6D6D6" points="269.4,225 269.8,226 258.2,231.1 258.2,231.2 256.3,226.9 256.5,226.9 256.6,226.8 261.9,224.4 
	265.4,222.9 268,221.8 "/>
<polygon fill="#D6D6D6" points="521.6,251.5 516.3,255.1 513.5,251 518.9,247.5 520.4,249.7 522.4,248.3 522.5,248.3 523.7,250.1 
	522.6,250.8 "/>
<polygon fill="#D6D6D6" points="261.4,403.1 260,414.2 259.7,417.1 255.5,416.6 257.2,402.6 "/>
<polygon fill="#D6D6D6" points="302,396.8 301.4,397.6 303.3,402.3 302.6,402.6 303.4,404.7 305,404 307.3,409.5 301.5,411.9 
	299.2,406.3 300.4,405.8 299.7,404.1 298.9,403.8 297.1,399.5 296.2,399.2 294.2,394.3 300,391.9 "/>
<polygon fill="#D6D6D6" points="265,310.2 260.9,312 258.7,307 259.4,306.6 259.1,305.8 258.7,306 256.6,301.2 260.3,299.6 "/>
<polygon fill="#D6D6D6" points="509.3,388.2 507.2,392 500.5,388.3 500.5,388.3 491.2,383.1 493.3,379.4 "/>
<polygon fill="#D6D6D6" points="245.1,293.4 244.1,293.3 244.8,287.3 248.2,287.7 248.2,293.8 "/>
<polygon fill="#D6D6D6" points="321.3,192.1 315.9,194.5 313.5,189 313.1,187.9 310.4,182 316.3,180.8 319.4,187.9 "/>
<polygon fill="#D6D6D6" points="445.6,315.9 441,318 436.3,307.5 440.9,305.4 "/>
<polygon fill="#D6D6D6" points="288.6,255.5 285.5,256.8 288.1,263 291.3,261.7 293.7,267.2 294,268 285.9,271.5 285.2,270 
	283.7,270.7 283.3,269.8 282,266.7 280.5,263.2 279.7,261.3 278.3,258 276.5,253.9 285.1,250.2 286.1,249.7 286.3,250.2 "/>
<polygon fill="#D6D6D6" points="374.2,344.9 376.3,349.8 371,352 366.2,354 365.4,354.4 364.6,352.6 367.9,346.1 368.6,344.8 
	371.1,338.9 373.6,345.1 "/>
<polygon fill="#D6D6D6" points="580,371.1 576.7,377.2 574,382.1 571.1,387.3 569.5,390.3 564.7,387.2 565,386.7 575,368.4 "/>
<polygon fill="#D6D6D6" points="441.6,335 425.7,342.3 424.6,339.8 440.5,332.5 "/>
<polygon fill="#D6D6D6" points="225.6,208.5 210.8,206.7 211.4,202.2 224,199.7 "/>
<polygon fill="#D6D6D6" points="345.2,135.4 343.2,135.8 337.3,137 335.7,132.7 344.3,131 "/>
<polygon fill="#D6D6D6" points="493.5,289.7 494,290.9 497.6,298.7 498.5,300.7 482.1,308.3 480.5,304.7 476.3,295.6 473.8,290.2 
	490.3,282.6 "/>
<polygon fill="#D6D6D6" points="278.6,196.7 278.4,196.8 275.5,198.1 278.1,204.1 278.9,203.8 279.4,203.2 279.6,203.1 280.7,202.6 
	283.1,208.2 281.8,208.8 275.9,211.4 274.7,208.6 271.1,210.2 269.6,206.8 268.9,205.1 271.6,203.9 268.8,197.4 267.9,197.5 
	265.9,198.4 265.4,197.1 263,191.6 275.2,189.1 278.2,195.9 "/>
<polygon fill="#D6D6D6" points="436,191 437.4,194.1 440.7,201.3 443.9,208.1 438.3,210.6 434.2,212.5 429.9,203.1 435.4,189.8 "/>
<polygon fill="#D6D6D6" points="229.4,285.3 228.6,291.3 224.6,290.8 225.3,284.8 "/>
<polygon fill="#D6D6D6" points="227.6,264.2 226.7,271.8 223.1,271.4 222.1,271.2 223,263.6 226.6,264.1 "/>
<polygon fill="#D6D6D6" points="542.2,462.1 539.9,465.7 531.5,460.2 533.8,456.6 "/>
<polygon fill="#D6D6D6" points="228.8,433.4 227.3,445.1 222.1,444.4 223.6,432.8 "/>
<polygon fill="#D6D6D6" points="368.9,467.1 363.7,469.2 363.5,469.3 360.8,462.6 360.1,460.8 365.4,458.6 "/>
<polygon fill="#D6D6D6" points="404.5,187.1 399.7,189 397.5,182.6 402.3,180.9 "/>
<polygon fill="#D6D6D6" points="249.4,430.3 249.4,430.5 249.8,430.5 249.5,432.8 249.2,435.2 249.6,435.3 248.1,447.7 242.6,447 
	244.1,435.3 244.7,430.2 245.1,430.2 245.2,429.8 "/>
<polygon fill="#D6D6D6" points="379.6,462.7 369,467 368.9,467.1 365.4,458.6 363.7,454.4 363.3,453.4 367.2,451.8 374,449 "/>
<polygon fill="#D6D6D6" points="379,136.4 378.1,136.6 379.1,141.3 377.6,141.6 380.3,154.8 374.4,156 371.1,139.9 370.3,135.8 
	378.5,134.1 "/>
<polygon fill="#D6D6D6" points="280.9,153.2 276.8,153.8 275.7,145.7 279.8,144.8 "/>
<polygon fill="#D6D6D6" points="250.9,350.6 243.3,353.7 241.2,353.4 241.3,352.4 243,339 243,339 243.4,335.7 248.2,336.3 
	248.2,336.3 248.5,337 252.4,347.3 253.3,349.7 "/>
<polygon fill="#D6D6D6" points="365.3,263.4 360.3,265.6 359.4,263.5 361.2,262.8 360.7,261.5 362.1,260.9 362,260.6 363.6,260 
	363.1,258.9 365.1,258.1 370.1,255.9 373.6,254.4 375.6,258.9 374,259.6 367,262.6 "/>
<polygon fill="#D6D6D6" points="600.5,350.9 598.8,353.4 598,352.9 588.7,367.2 589.5,367.7 587.8,370.4 581.3,366.2 584,362 
	585.4,361.8 587.1,359.3 588.2,360 590.1,357 589,356.3 591.6,352.3 591.3,350.7 592.6,348.7 594,346.6 "/>
<polygon fill="#D6D6D6" points="541.1,240.1 535.9,248.2 534.5,250.5 531.1,248.3 532.5,246.1 537.7,238 "/>
<polygon fill="#D6D6D6" points="419.8,165.9 416.5,173.9 410.1,162 417,160.7 "/>
<polygon fill="#D6D6D6" points="476.3,295.6 476,295.7 477.8,299.6 476.8,300.1 477.9,302.5 478.9,302.1 479.8,304 480.5,304.7 
	482.1,308.3 482.5,309.1 477.4,311.5 475.3,306.9 475.4,306 474.5,304.1 475.3,303.7 474.2,301.3 473.4,301.6 471.6,297.7 
	470.9,297.2 468.7,292.6 473.8,290.2 "/>
<polygon fill="#D6D6D6" points="411.6,449.5 407.5,451.1 402.1,437.8 406.1,436.2 "/>
<polygon fill="#D6D6D6" points="373.6,254.4 370.1,255.9 365.1,258.1 363.1,258.9 363,258.8 356.1,261.8 354.9,259.1 361.9,256.1 
	361.3,254.9 357.6,256.5 355.3,257.5 353.4,253 355.6,252 356.6,251.5 369.9,245.8 371.9,250.3 "/>
<polygon fill="#D6D6D6" points="502.3,182.5 500.3,183.4 498.2,184.3 497.6,182.9 497.2,181.9 501.3,180.1 "/>
<polygon fill="#D6D6D6" points="290.8,280 281.7,283.8 279.5,278.4 288.6,274.6 "/>
<polygon fill="#D6D6D6" points="353.8,447.7 361.5,444.5 362.4,444.2 366.5,442.5 368.8,447.9 367.1,448.6 363.7,450 363.4,449.3 
	356.2,452.2 355.9,452.4 "/>
<polygon fill="#D6D6D6" points="230.8,399.3 229.3,412.3 223.1,411.5 224.7,398.6 "/>
<polygon fill="#D6D6D6" points="350.3,298.7 352.5,303.8 347.5,305.8 345.2,300.4 344.7,299.2 349.6,297.1 "/>
<polygon fill="#D6D6D6" points="467.8,394.8 451.6,401.8 449.7,397.3 449.4,396.6 450,396.4 465.5,389.6 "/>
<polygon fill="#D6D6D6" points="400,421 395.5,422.9 395.2,422.1 392.8,416.3 390.8,411.4 392.4,410.7 395.3,409.5 396.1,411.5 "/>
<path fill="#D6D6D6" d="M250.6,374.6l-0.3,2.5l-0.8,0.3l-0.5,4.3l0.7,0.6l-0.3,2.3l-17.7-2.2l0.1-0.5l0.2-2l0.9-0.3l0.5-4.2
	l-0.8-0.4l0.2-2l0.1-0.8l0.3,0l1.2,0.1l0.3-2.4l-0.1,0l-0.8-0.1l0.3-2.3l-0.5-0.7l0.6-4.8l1.8,0.2l8.5,1l7.4,0.9l-0.6,4.8l-0.7,0.4
	l-0.3,2.6l-0.9-0.1l-0.3,2.5L250.6,374.6z M246.1,373.9l0.2-2.5l-0.3,0l0.2-2.3l-0.6-0.8l-0.3,0l-0.7,0.6l-0.2,2.3l-0.7-0.1l-0.3,0
	l-0.1,0.9l-0.1,1.7L246.1,373.9z M240.2,373l0.2-2.7l-0.3,0l0.1-2.1l-0.4-0.7l-0.3,0l-0.9,0.5l-0.1,2.3l-0.5,0l-0.2,2.5L240.2,373z
	 M243.5,376.8l-0.4,4.2l0.8,0.5l0.8-0.3l0.4-4.1l-0.8-0.7L243.5,376.8z M237.2,380.2l0.6,0.5l0.8-0.3l0.2-1.1l0.4-2.8l-0.8-0.6
	l-0.7,0.3l-0.5,4L237.2,380.2z"/>
<polygon fill="#D6D6D6" points="357.1,301.9 352.5,303.8 350.3,298.7 354.9,296.7 "/>
<polygon fill="#D6D6D6" points="393.1,184.1 395.3,190.7 390.3,192.7 386.8,182.3 391.9,180.6 "/>
<polygon fill="#D6D6D6" points="206.8,358.6 206.1,364.2 206,364.8 201.2,364.2 200.3,371.7 205.1,372.3 204.6,376.8 204.3,379 
	197.2,378.1 190.2,377.2 190.1,377.2 192.1,360.8 192.6,356.2 201.4,357.3 204.2,357.6 204.2,358.2 "/>
<polygon fill="#D6D6D6" points="273.7,366.1 264.2,370.4 261.9,365.3 263.7,364.5 262.7,362.4 261.4,352.8 261.3,352.1 266.3,349.8 
	"/>
<polygon fill="#D6D6D6" points="503.9,327.7 499.9,319 505.1,316.6 509.1,325.3 "/>
<polygon fill="#D6D6D6" points="265.4,197.1 265.2,197.8 266.8,201.3 267.4,201.8 268.9,205.1 269.6,206.8 263.9,209.3 257.4,192.7 
	263,191.6 "/>
<polygon fill="#D6D6D6" points="601.4,321.4 595.6,330.4 589.1,326.2 593.3,319.7 594.9,317.3 595.5,316.3 596.7,317.1 602,320.5 
	"/>
<polygon fill="#D6D6D6" points="496.9,312.4 494.5,307.3 499.7,304.9 503,312 497.8,314.4 "/>
<polygon fill="#D6D6D6" points="415.2,245.1 411.1,247 413.5,241.3 414.3,239.3 420,225.6 421,227.8 422,229.8 423.3,232.8 
	423.5,233.2 424.6,235.5 426.5,239.8 "/>
<polygon fill="#D6D6D6" points="361.6,390.1 356.9,391.5 355.2,390.8 354.5,392.2 353,391.6 352.7,392.3 353.2,392.6 352.7,393.6 
	350.8,392.8 349.1,396.9 351.9,398.4 351.3,399.6 354.5,404.2 352.4,405.2 347.6,407.3 339.6,410.8 343.1,402.9 348.1,391.7 
	349.5,392.3 350.3,390.4 348.9,389.8 355.1,375.5 "/>
<polygon fill="#D6D6D6" points="446.7,354.5 433.3,360.6 431.6,356.8 432.3,356.5 436.4,354.6 440.4,352.8 441,354.1 445.5,352.1 
	"/>
<polygon fill="#D6D6D6" points="349.1,459.7 345.7,461.2 345.6,460.8 343.1,461.9 343.2,462.2 339.8,463.7 339.6,463.2 340.1,463 
	337.5,457 338,456.8 340.4,455.7 340.8,456.5 343.2,455.4 342.9,454.6 346.3,453.2 "/>
<polygon fill="#D6D6D6" points="366.2,237.1 356.2,241.4 354.4,237.1 364.3,232.8 "/>
<polygon fill="#D6D6D6" points="265.3,232.4 260.1,234.7 258.8,231.6 263.9,229.3 "/>
<polygon fill="#D6D6D6" points="345.6,189.4 339.4,192.2 339,192.3 336,193.7 335.9,193.4 334.1,189.3 334.4,189.2 343.7,185.1 "/>
<polygon fill="#D6D6D6" points="525.1,259.4 521,262.1 518.4,258.3 523.7,254.7 523.7,254.7 525,256.6 528,254.5 529.3,256.5 
	525.7,259 "/>
<polygon fill="#D6D6D6" points="491.3,314.9 491.5,315.3 486.1,317.9 483.6,312.3 489,309.8 "/>
<polygon fill="#D6D6D6" points="244.1,435.3 242.6,447 237.5,446.4 239,434.7 "/>
<polygon fill="#D6D6D6" points="300.7,349.4 291.4,353.2 289.6,348.6 290.1,348.4 298.7,344.9 299.9,347.5 "/>
<polygon fill="#D6D6D6" points="372.3,429 372.9,430.6 373.3,430.4 373.6,431.1 373.2,431.3 374.8,435.1 371.6,436.4 371.8,436.8 
	371,437.2 370.8,436.7 369.9,437.1 367.6,431.6 368.2,431.4 366.8,428.1 366.1,428.4 363.8,422.6 365.7,421.8 368.8,420.5 
	369.3,421.7 "/>
<polygon fill="#D6D6D6" points="343.7,185.1 334.4,189.2 334.1,189.3 333.8,188.6 332,184.7 341.6,180.4 "/>
<polygon fill="#D6D6D6" points="495.6,355.1 491,344.4 496.8,341.9 497.7,341.5 502.3,352.1 "/>
<polygon fill="#D6D6D6" points="347.1,148.8 344.9,149.5 342.3,150.4 340.2,144.8 339.1,141.7 344.2,140.6 345.8,140.3 346.5,140.2 
	347.1,143.4 346.2,143.6 345.5,143.8 345.9,145 "/>
<polygon fill="#D6D6D6" points="464.2,251 465.3,253.3 460.1,255.8 455.9,246.8 451.9,238.4 457.1,236 "/>
<polygon fill="#D6D6D6" points="545.1,169.8 545.1,169.9 542.3,174.3 541.6,173.8 540.2,176.1 540,176.2 540.7,176.6 540.7,176.7 
	540.7,176.7 538.6,179.9 537.1,178.9 535.2,181.9 533.2,185 530.5,183.2 533,178.4 533.6,177.3 536.5,172.9 537.7,171.1 540,167.5 
	540.4,166.8 "/>
<polygon fill="#D6D6D6" points="497.8,409.1 494.5,415.2 489.3,417.4 487,412.1 484.5,406.2 489,404.2 "/>
<polygon fill="#D6D6D6" points="412,412.6 413.4,416.2 413,416.3 409.3,417.9 409,417.1 407.4,413.1 404.3,405.7 408.4,404 "/>
<polygon fill="#D6D6D6" points="259.8,436.5 258.8,444 258.2,449 253.1,448.4 254.1,440.5 254.7,435.9 "/>
<polygon fill="#D6D6D6" points="276.7,295 271.5,297.3 271.1,296.4 270.4,296.7 270.6,297.1 267.5,298.5 265.9,294.7 270.2,292.8 
	274.8,290.8 "/>
<polygon fill="#D6D6D6" points="367.1,387.7 361.6,390.1 355.1,375.5 358.4,367.9 367.1,387.6 "/>
<polygon fill="#D6D6D6" points="357.3,435.9 349.9,439 347.8,434.3 356.9,430.6 357.8,432.7 356.5,434 "/>
<polygon fill="#D6D6D6" points="486.2,380.4 488.3,381.5 491.2,383.1 500.5,388.3 500.5,388.3 507.2,392 506.3,393.6 505.2,395.5 
	482.6,383 483,382.2 484.5,379.4 "/>
<polygon fill="#D6D6D6" points="279.9,405.6 279.1,406.9 281.1,411.7 280.5,411.9 281.7,414.8 283.4,414.1 285.6,419.4 280,421.8 
	277.4,415.4 277.5,414.4 275.1,408.6 274.3,408.1 272.1,402.8 277.8,400.7 "/>
<polygon fill="#D6D6D6" points="386.9,495.4 387.4,496.7 377.9,500.9 377.6,501.1 373.6,492.2 370.6,485.4 371.3,485.1 372.9,484.4 
	380.4,481 "/>
<polygon fill="#D6D6D6" points="403.4,416.8 404,418.4 402.7,418.9 403,419.8 400,421 396.1,411.5 395.3,409.5 399.6,407.7 
	401.7,412.8 "/>
<polygon fill="#D6D6D6" points="347.7,292.8 343,294.8 342.5,293.7 340.2,288.5 345,286.5 "/>
<polygon fill="#D6D6D6" points="361.3,428.8 358,430.1 356.2,425.8 359.5,424.4 "/>
<polygon fill="#D6D6D6" points="573,272.8 570.6,277.3 559.5,270.2 554.2,266.7 556.9,262.4 "/>
<polygon fill="#D6D6D6" points="522.6,228.2 517.3,236.5 513.2,233.9 518.5,225.6 "/>
<polygon fill="#D6D6D6" points="233.8,434 232.3,445.7 227.3,445.1 228.8,433.4 "/>
<polygon fill="#D6D6D6" points="450.9,376.7 442.4,380.4 441,377.1 449.5,373.4 "/>
<polygon fill="#D6D6D6" points="208.8,222.3 224.9,224.3 232.8,225.3 232.3,223.9 234.4,223 243.3,219 256.6,248.9 251.5,250.6 
	242.1,253.7 241.3,253.6 205.5,249.1 205.4,249.1 "/>
<polygon fill="#D6D6D6" points="379.2,325.9 378.8,324.7 378,322.8 381.2,315.3 384.6,323.6 "/>
<polygon fill="#D6D6D6" points="499,287.1 497.7,287.7 498.3,289 499.5,288.4 503.1,296.2 497.6,298.7 494,290.9 495.6,290.2 
	495,289 493.5,289.7 490.3,282.6 495.7,280.1 "/>
<polygon fill="#D6D6D6" points="441,338.2 436.8,340.1 431,342.8 426.9,344.7 425.7,342.3 441.6,335 442.7,337.4 "/>
<polygon fill="#D6D6D6" points="359.6,440.1 355,442 351.9,443.3 350.7,440.8 349.9,439 357.3,435.9 361,434.4 362.8,438.8 "/>
<polygon fill="#D6D6D6" points="298.6,246.2 300.1,249.6 300.4,250.3 298.5,251.1 304.1,264.1 296.2,267.5 296.1,267.6 296,267.5 
	292.5,259.3 292.9,259.1 292.4,257.8 291.8,258.1 290.4,254.7 288.6,255.5 286.3,250.2 286.1,249.7 297.9,244.6 "/>
<polygon fill="#D6D6D6" points="382.3,243 386.9,240.8 384.2,247.1 "/>
<polygon fill="#D6D6D6" points="333.4,236.3 333.7,236.9 336.6,243.7 337.7,246.5 332.3,248.8 331.1,246.1 327.8,238.4 326.1,234.3 
	326.4,234.2 326,233.3 331.1,231.1 "/>
<polygon fill="#D6D6D6" points="363.3,453.4 363.7,454.4 365.4,458.6 360.1,460.8 358.4,456.6 356.9,453 362.2,450.8 "/>
<polygon fill="#D6D6D6" points="529,310.4 531.2,315.1 525.6,317.7 523.7,313.4 523.5,312.9 523.7,312.2 523.7,312.2 523.7,312.2 
	522.3,309.1 522.9,307.9 522.5,307.2 521.1,307.8 519.1,303.5 523.7,301.3 524.3,301.1 526.6,306.2 526.3,307.2 526.7,308.1 
	527.7,308.5 528.4,310 "/>
<polygon fill="#D6D6D6" points="221.5,365 221.3,366.1 218.3,365.8 217.6,371.7 217.4,372.8 216.9,372.7 216.7,374.3 220.3,374.7 
	219.6,380 219.5,380.8 204.3,379 204.6,376.8 205.1,372.3 208.7,372.8 209.5,366.7 209.7,365.2 206.9,364.9 206,364.8 206.1,364.2 
	206.8,358.6 222,360.4 "/>
<polygon fill="#D6D6D6" points="259.9,271 257.3,264.2 256.4,261.7 261.1,259.9 261.7,261.3 262,262.1 265.1,269 264.9,269.1 "/>
<polygon fill="#D6D6D6" points="426.6,299.2 421.7,301.5 418.9,295.5 421.6,294.2 423.7,293.2 "/>
<polygon fill="#D6D6D6" points="228.6,291.3 232.4,291.8 236.7,292.4 240.6,292.9 244.1,293.3 245.1,293.4 243.4,306.3 244.4,306.5 
	242.8,319.6 221.9,316.9 223.2,306.5 233.2,307.8 233,309.4 234.8,309.6 236.7,294.5 234.7,294.3 234.6,295.6 224.2,294.2 
	224.6,290.8 "/>
<polygon fill="#D6D6D6" points="616.6,361.4 613.5,366.2 612.6,365.6 612,365.2 603.4,378.4 595.4,373.2 597.1,370.5 599.7,366.5 
	602.3,368.2 605.9,362.7 603.3,361 604.4,359.3 605,358.3 607.1,355.2 "/>
<polygon fill="#D6D6D6" points="452,268.6 451.6,269.7 452.7,272.1 451.7,272.5 453,275.1 453.9,274.7 456,279.1 457.1,279.5 
	458.8,283.1 453.2,285.8 451.5,282.2 451.9,281.1 449.8,276.7 450.6,276.3 449.3,273.7 448.5,274 447.4,271.7 446.4,271.3 
	444.5,267.3 450.1,264.6 "/>
<polygon fill="#D6D6D6" points="574.1,225.6 575.4,226.6 577.9,228.2 587,234.1 592.5,237.7 585,251.6 584.9,251.7 578.5,247.6 
	564,238.1 564.2,237.8 570.6,226.1 571.7,224.1 "/>
<polygon fill="#D6D6D6" points="393.5,225.3 390.4,232.7 379.8,237.7 377.2,232.2 393.2,224.6 "/>
<polygon fill="#D6D6D6" points="441,318 441.7,319.5 437.5,321.5 432,309.5 436.3,307.5 "/>
<polygon fill="#D6D6D6" points="304.4,139.9 304.8,141.7 302.1,142.3 301.7,140.5 302.2,139.8 301.9,138.6 298.6,139.3 298.1,136.8 
	296.2,127.7 301.6,126.5 "/>
<polygon fill="#D6D6D6" points="322.3,361 316.8,363.4 316.4,362.6 316.4,362.6 314.9,359.2 323.8,355.3 325.6,359.6 "/>
<polygon fill="#D6D6D6" points="466,362 464.8,362.5 465.5,364.1 466.7,363.6 468,366.5 468.4,367.4 467.1,367.9 467.9,369.7 
	469.1,369.2 470.9,373.2 471.3,374.1 465.8,376.5 464.9,374.3 463.7,371.7 464.9,371.2 464.2,369.4 463,369.9 462.2,368.2 
	461.3,366.2 462.5,365.7 461.8,363.9 460.6,364.4 458.7,359.9 458.4,359.4 463.9,357 "/>
<polygon fill="#D6D6D6" points="584.7,351.8 577.8,362.5 573.3,359.5 578.6,351.4 580.2,348.9 "/>
<polygon fill="#D6D6D6" points="580.5,379.3 577.7,384.5 574,382.1 576.7,377.2 "/>
<polygon fill="#D6D6D6" points="496.9,312.4 491.3,314.9 489,309.8 494.5,307.3 "/>
<polygon fill="#D6D6D6" points="284.1,312.6 291.2,328.6 278.4,334.2 277.3,331.7 278.6,331.1 273.8,320.2 272.5,320.8 271.4,318.3 
	"/>
<polygon fill="#D6D6D6" points="478.2,314.8 480.4,319.8 476.1,321.8 473.8,316.8 473.5,316.1 477.8,314.1 "/>
<polygon fill="#D6D6D6" points="566.3,256.4 563.3,261.1 558.7,258.1 561.7,253.4 "/>
<polygon fill="#D6D6D6" points="480.4,259 481.7,261.7 482.2,262.9 484.1,266.8 486,270.8 480.8,273.3 478.8,268.9 473.3,257.3 
	471.7,254 476.9,251.6 "/>
<polygon fill="#D6D6D6" points="336.6,213.4 331,215.9 326.9,206.6 325.8,203.9 328.1,202.9 331.3,201.5 "/>
<polygon fill="#D6D6D6" points="542.2,462.1 533.8,456.6 534.4,455.7 531.8,454 535,449 532.8,447.6 531.7,449.3 530.1,449.8 
	528.1,452.8 526.1,451.5 522.8,444.4 522.5,443.8 523.1,442.8 530.3,431.7 530.3,431.7 532.1,432.9 532.1,432.9 539.4,437.6 
	536.3,442.4 535.9,444 539.1,446 540.4,445.1 543.5,440.2 550.2,444.6 552.5,446 552.4,446.1 "/>
<polygon fill="#D6D6D6" points="575.2,268.7 567,263.4 563.3,261.1 566.3,256.4 570,258.7 577.9,263.9 "/>
<polygon fill="#D6D6D6" points="333.4,236.3 331.1,231.1 339.8,227.3 340.1,227.2 340.2,227.4 342.3,232.4 341,233 344.6,241.3 
	347,246.9 341.1,249.5 335.6,236.7 335.1,235.5 "/>
<polygon fill="#D6D6D6" points="427.2,227.4 428,229.1 428.6,230.3 427.9,230.6 429,232.8 429.8,233 431.8,237.3 426.5,239.8 
	424.6,235.5 424.9,234.7 423.9,232.7 423.8,232.5 423.3,232.8 422,229.8 423.3,229.2 422.4,227.2 421,227.8 420,225.6 421.2,222.3 
	422.6,218.9 425.7,225.6 425.2,225.9 426.1,227.9 "/>
<polygon fill="#D6D6D6" points="256.7,313.8 251.8,316 250.8,309.1 251.9,308.6 250.8,306.2 252.3,305.5 251.4,303.5 252.1,303.2 
	"/>
<polygon fill="#D6D6D6" points="464.2,251 457.1,236 482,224.1 486.7,231.2 493,240.8 475.9,248.9 471.7,240 466.6,242.4 
	469.5,248.5 "/>
<polygon fill="#D6D6D6" points="485.8,181 488.2,186.6 486.4,187.4 478.4,182.2 466.5,174.4 466.5,173.1 479.8,167.2 481.7,171.5 
	"/>
<polygon fill="#D6D6D6" points="539.9,465.7 539.1,466.8 537.8,468.8 537.7,468.8 537.3,468.5 530.1,463.8 529.4,463.4 531.5,460.2 
	"/>
<polygon fill="#D6D6D6" points="546.6,280.9 546.3,281.2 538.1,286.6 535.4,282.6 540,279.6 543.3,277.4 544.5,276.5 547.2,280.5 
	"/>
<polygon fill="#D6D6D6" points="258,364.3 258.2,366 256.7,365.9 256.8,366.3 253.2,365.9 253.1,365.3 252.1,365.4 251.5,361.3 
	252.1,361.3 251.8,359.2 249,359.6 248.6,357 252.8,355.3 252.7,355 256.6,354.5 "/>
<polygon fill="#D6D6D6" points="466.4,464 454.9,468.1 453.8,465 455.1,464.5 458.9,462.7 459.3,463.5 465.3,460.8 "/>
<polygon fill="#D6D6D6" points="492.6,183.9 489.5,185.3 487.3,180.3 490.4,178.9 "/>
<polygon fill="#D6D6D6" points="351.6,203.2 347.1,205.2 346.6,204 344.9,204.8 341.9,197.9 343.6,197.1 342.7,194.9 340.9,195.7 
	339.4,192.2 345.6,189.4 "/>
<polygon fill="#D6D6D6" points="465.8,376.5 467.2,379.7 467.1,379.7 460.4,382.6 460.3,382.6 459.8,381.3 458,377.3 464.9,374.3 
	"/>
<polygon fill="#D6D6D6" points="455.6,350.4 451.7,352.2 446.9,341.7 450.9,339.9 "/>
<polygon fill="#D6D6D6" points="517.5,373.1 515.5,376.7 501.6,369 501.1,368.8 503.1,365.2 "/>
<polygon fill="#D6D6D6" points="236.8,400.1 236.1,405.5 236,406.7 235.7,408.9 235,414.5 229.1,413.7 229.3,412.3 230.8,399.3 "/>
<polygon fill="#D6D6D6" points="326.6,248 322,250 319.1,243.4 317,238.3 321.6,236.3 323.7,241.3 "/>
<polygon fill="#D6D6D6" points="527.2,207.8 524.6,211.8 515.7,206 518.3,202 520.3,203.3 521.5,201.4 521,201.1 521,201.1 
	526.7,192.3 527.9,190.4 530,191.7 533.6,194.1 529.7,200.2 525.5,206.7 "/>
<polygon fill="#D6D6D6" points="507.5,306.7 508.5,308.8 503.4,311.1 500.4,304.6 505.4,302.2 "/>
<polygon fill="#D6D6D6" points="387.4,210.4 370.9,218.1 369.4,214.4 386.2,207.6 "/>
<polygon fill="#D6D6D6" points="507.2,163.2 513.4,177.6 513.7,177.2 515.1,178.1 512.7,181.9 512.5,182.1 509.1,179.9 510,178.6 
	507.4,172.6 506.2,172.6 503.7,173.6 501.8,169.1 503.6,168.3 505.2,167.6 502.9,162.2 502.8,162.1 502.3,162.3 499.4,163.6 
	499.1,163 498.2,160.8 497.3,158.7 497.2,158.5 503.9,155.6 504.3,156.5 505.4,159 506.5,161.6 "/>
<polygon fill="#D6D6D6" points="319.2,270.4 314.7,272.3 311.8,265.4 316.3,263.5 "/>
<polygon fill="#D6D6D6" points="404,151.1 402.9,145.6 400.1,131.8 398.9,125.9 407,124.3 411.5,123.4 423.9,120.8 428.5,119.9 
	429.8,126.7 431.9,137 428.3,146 428.3,146.1 428.3,146.1 "/>
<polygon fill="#D6D6D6" points="236.5,265.3 235.5,273.2 235.2,275.9 235.1,276.3 233.7,276.2 230.7,275.8 231.1,272.6 232.1,264.8 
	236.1,265.2 "/>
<polygon fill="#D6D6D6" points="457.7,306.1 461.5,314.5 463.6,319 454.8,323.1 449.5,311.7 447.3,306.8 448.1,306.4 447.4,304.9 
	446.6,305.3 445.7,303.2 454.5,299.1 "/>
<polygon fill="#D6D6D6" points="342.6,444.6 342.3,444.7 338.2,446.5 336.7,443 333.2,435 337,433.3 337.6,433.1 342.5,444.4 "/>
<polygon fill="#D6D6D6" points="462.3,276.9 464.3,281.2 459.1,283.7 458.8,283.1 457.1,279.5 452,268.6 450.1,264.6 448.7,261.8 
	454,259.3 "/>
<polygon fill="#D6D6D6" points="527.2,291.8 523,293.8 521.6,290.8 518.2,292.4 516.9,293 516.3,294.1 517.2,296 513.9,297.6 
	510.3,289.9 514.7,287.9 517.1,286.7 517.3,286 516.9,285 521.2,283 "/>
<polygon fill="#D6D6D6" points="247.5,160.9 244.5,161.5 242.2,162 241.4,158.6 240.8,155.4 242.9,154.9 246.1,154.2 246.8,157.3 
	"/>
<polygon fill="#D6D6D6" points="415.2,348.4 409.7,350.8 407.7,351.7 403.5,353.6 401.8,349.7 401.7,349.5 402.1,349.3 413.4,344.3 
	"/>
<polygon fill="#D6D6D6" points="224.7,398.6 223.1,411.5 217.1,410.8 217.4,408.4 217.8,405.3 218.2,401.9 218.7,397.8 223.8,398.5 
	"/>
<polygon fill="#D6D6D6" points="534.2,342.6 531.1,348.4 521.7,343.2 517.3,340.8 514.2,333.6 520.4,331 522.6,336.2 "/>
<polygon fill="#D6D6D6" points="357.3,161.1 351.4,162.3 349.7,154 348.6,148.2 347.8,144.7 353.7,143.5 "/>
<polygon fill="#D6D6D6" points="473.3,257.3 472.9,258.5 474.2,261.3 473.4,261.6 474.7,264.3 475.4,264 477.7,268.8 478.8,268.9 
	480.8,273.3 475,276.1 472.9,271.7 473.6,270.8 471.3,266 472.2,265.5 470.9,262.8 470,263.3 468.7,260.5 467.9,259.9 466.3,256.6 
	471.7,254 "/>
<polygon fill="#D6D6D6" points="290.5,401.5 290.3,402.3 292.4,407.2 291.2,407.7 291.8,409.2 292.4,409 292.7,409.8 294,409.3 
	296.4,414.9 290.8,417.2 288.8,412.5 289.8,412.1 288.5,408.8 288,409 286,404.1 285.2,403.7 283.1,398.7 288.5,396.7 "/>
<polygon fill="#D6D6D6" points="351.3,474.9 345.4,461.3 345.7,461.2 349.1,459.7 354.9,473.3 354.8,473.3 "/>
<polygon fill="#D6D6D6" points="349.7,154 344.4,156 343.8,154.2 342.3,150.4 344.9,149.5 347.1,148.8 348.6,148.2 "/>
<polygon fill="#D6D6D6" points="419.2,289.1 404.8,295.9 402.2,290.2 416.5,283.4 "/>
<polygon fill="#D6D6D6" points="391.2,457.9 385.5,460.2 378.8,443.9 384.5,441.6 "/>
<polygon fill="#D6D6D6" points="398.6,152.2 397.7,152.4 395.2,152.9 394.9,151.8 392.8,141 396.2,140.3 398.4,151.1 "/>
<polygon fill="#D6D6D6" points="361.6,286.9 361.8,287.4 360.1,288.1 360.3,288.6 357.7,289.7 357.4,289.9 357.2,289.4 354.2,282.5 
	358.8,280.5 "/>
<polygon fill="#D6D6D6" points="534.2,342.6 522.6,336.2 520.4,331 524.8,328.9 545.3,319.4 546.4,320.5 539.2,333.5 "/>
<polygon fill="#D6D6D6" points="473.7,364.1 468,366.5 466.7,363.6 466,362 463.9,357 466.3,356 469.6,354.6 470,355.6 "/>
<polygon fill="#D6D6D6" points="509.9,234.2 512.2,235.7 511.2,237.3 508.5,241.5 505.4,237.2 508.1,233 "/>
<polygon fill="#D6D6D6" points="455.9,246.8 450.1,249.5 446.2,241.2 451.9,238.4 "/>
<polygon fill="#D6D6D6" points="317.3,252 312.5,254.1 309.3,246.6 307.5,242.4 312.3,240.3 314.3,245.2 "/>
<polygon fill="#D6D6D6" points="248.6,401.5 246.9,415.9 241,415.2 241.7,409.2 242,407.3 242.1,406.3 242.8,400.8 "/>
<polygon fill="#D6D6D6" points="287.2,438.2 289.1,442.8 282.3,445.6 280.9,442 281.1,440.8 280.4,438.9 279.3,438 278.2,435.3 
	283.8,433 286.1,438.7 "/>
<polygon fill="#D6D6D6" points="454,383.8 445.5,387.5 443.9,384 452.5,380.3 "/>
<polygon fill="#D6D6D6" points="300.7,312.7 302.6,317.2 307.2,315.2 306.7,314.2 307.8,313.7 306.2,310 309.2,308.7 310.4,308.2 
	310.7,308.8 315.1,319 300.2,325.4 293.1,308.8 295,308 300.9,305.5 302.5,309.4 303.4,311.5 "/>
<polygon fill="#D6D6D6" points="284.1,152.8 280.9,153.2 279.8,144.8 281.8,144.3 282.9,144.1 "/>
<polygon fill="#D6D6D6" points="598.1,311.7 601.2,306.9 607.3,310.8 607.4,311.1 607.7,311.6 604.8,316 602.2,314.3 "/>
<polygon fill="#D6D6D6" points="422.5,364.5 411.8,369.2 410.4,369.8 408.4,365.4 420.6,360.1 "/>
<polygon fill="#D6D6D6" points="498.3,330.3 492.9,332.8 488.6,323.4 494.1,320.9 "/>
<polygon fill="#D6D6D6" points="563.3,424.3 561.6,426.8 559.1,430.7 554.3,438 541.6,429.6 549.1,415.6 550.2,416.3 550.5,415.8 
	557.1,420.1 "/>
<polygon fill="#D6D6D6" points="262.7,362.4 262.9,363.6 258,364.3 256.6,354.5 256.4,353.5 261.4,352.8 "/>
<path fill="none" stroke="#E0E0E0" stroke-width="2.6793" stroke-linecap="round" stroke-linejoin="round" stroke-miterlimit="10" d="
	M557.5,445.6"/>
<line fill="none" stroke="#E0E0E0" stroke-width="2.6793" stroke-linecap="round" stroke-linejoin="round" stroke-miterlimit="10" x1="385.5" y1="263.8" x2="484.2" y2="218.5"/>
<line fill="none" stroke="#E0E0E0" stroke-width="2.6793" stroke-linecap="round" stroke-linejoin="round" stroke-miterlimit="10" x1="416.8" y1="339" x2="344.9" y2="368.5"/>
<line fill="none" stroke="#E0E0E0" stroke-width="2.6793" stroke-linecap="round" stroke-linejoin="round" stroke-miterlimit="10" x1="549.5" y1="310.8" x2="429.9" y2="367.8"/>
<line fill="none" stroke="#E0E0E0" stroke-width="2.6793" stroke-linecap="round" stroke-linejoin="round" stroke-miterlimit="10" x1="461.3" y1="438.8" x2="438.1" y2="387.3"/>
<line fill="none" stroke="#E0E0E0" stroke-width="2.6793" stroke-linecap="round" stroke-linejoin="round" stroke-miterlimit="10" x1="339.7" y1="428.1" x2="329.2" y2="404.3"/>
<line fill="none" stroke="#E0E0E0" stroke-width="2.6793" stroke-linecap="round" stroke-linejoin="round" stroke-miterlimit="10" x1="329.2" y1="404.3" x2="318.2" y2="379.4"/>
<line fill="none" stroke="#E0E0E0" stroke-width="2.6793" stroke-linecap="round" stroke-linejoin="round" stroke-miterlimit="10" x1="297.5" y1="332.1" x2="286.3" y2="306.6"/>
<line fill="none" stroke="#E0E0E0" stroke-width="2.6793" stroke-linecap="round" stroke-linejoin="round" stroke-miterlimit="10" x1="342.8" y1="170.1" x2="236" y2="191.8"/>
<line fill="none" stroke="#E0E0E0" stroke-width="2.6793" stroke-linecap="round" stroke-linejoin="round" stroke-miterlimit="10" x1="342.8" y1="170.1" x2="361.4" y2="212.1"/>
<line fill="none" stroke="#E0E0E0" stroke-width="2.6793" stroke-linecap="round" stroke-linejoin="round" stroke-miterlimit="10" x1="531.2" y1="374.4" x2="561.8" y2="317.9"/>
<line fill="none" stroke="#E0E0E0" stroke-width="2.6793" stroke-linecap="round" stroke-linejoin="round" stroke-miterlimit="10" x1="406.5" y1="315.2" x2="416.8" y2="339"/>
<line fill="none" stroke="#E0E0E0" stroke-width="2.6793" stroke-linecap="round" stroke-linejoin="round" stroke-miterlimit="10" x1="514.8" y1="264.3" x2="484.2" y2="218.5"/>
<line fill="none" stroke="#E0E0E0" stroke-width="2.6793" stroke-linecap="round" stroke-linejoin="round" stroke-miterlimit="10" x1="406.5" y1="315.2" x2="514.8" y2="264.3"/>
<line fill="none" stroke="#E0E0E0" stroke-width="2.6793" stroke-linecap="round" stroke-linejoin="round" stroke-miterlimit="10" x1="314.1" y1="439.1" x2="284.3" y2="509.3"/>
<line fill="none" stroke="#E0E0E0" stroke-width="2.6793" stroke-linecap="round" stroke-linejoin="round" stroke-miterlimit="10" x1="286.3" y1="306.6" x2="262.7" y2="253"/>
<line fill="none" stroke="#E0E0E0" stroke-width="2.6793" stroke-linecap="round" stroke-linejoin="round" stroke-miterlimit="10" x1="557.5" y1="445.6" x2="512.8" y2="417.6"/>
<line fill="none" stroke="#E0E0E0" stroke-width="2.6793" stroke-linecap="round" stroke-linejoin="round" stroke-miterlimit="10" x1="286.3" y1="306.6" x2="246.6" y2="324.8"/>
<line fill="none" stroke="#E0E0E0" stroke-width="2.6793" stroke-linecap="round" stroke-linejoin="round" stroke-miterlimit="10" x1="424" y1="185.8" x2="361.4" y2="212.1"/>
<line fill="none" stroke="#E0E0E0" stroke-width="2.6793" stroke-linecap="round" stroke-linejoin="round" stroke-miterlimit="10" x1="284.3" y1="509.3" x2="362.7" y2="479.7"/>
<line fill="none" stroke="#E0E0E0" stroke-width="2.6793" stroke-linecap="round" stroke-linejoin="round" stroke-miterlimit="10" x1="262.7" y1="253" x2="361.4" y2="212.1"/>
<line fill="none" stroke="#E0E0E0" stroke-width="2.6793" stroke-linecap="round" stroke-linejoin="round" stroke-miterlimit="10" x1="342.8" y1="170.1" x2="322.5" y2="116.3"/>
<line fill="none" stroke="#E0E0E0" stroke-width="2.6793" stroke-linecap="round" stroke-linejoin="round" stroke-miterlimit="10" x1="297.5" y1="332.1" x2="246.6" y2="324.8"/>
<line fill="none" stroke="#E0E0E0" stroke-width="2.6793" stroke-linecap="round" stroke-linejoin="round" stroke-miterlimit="10" x1="185.7" y1="321.1" x2="193.9" y2="254.9"/>
<line fill="none" stroke="#E0E0E0" stroke-width="2.6793" stroke-linecap="round" stroke-linejoin="round" stroke-miterlimit="10" x1="200.1" y1="199.9" x2="236" y2="191.8"/>
<path fill="none" stroke="#E0E0E0" stroke-width="2.6793" stroke-linecap="round" stroke-linejoin="round" stroke-miterlimit="10" d="
	M264.5,458"/>
<line fill="none" stroke="#E0E0E0" stroke-width="2.6793" stroke-linecap="round" stroke-linejoin="round" stroke-miterlimit="10" x1="193.9" y1="254.9" x2="262.7" y2="253"/>
<line fill="none" stroke="#E0E0E0" stroke-width="2.6793" stroke-linecap="round" stroke-linejoin="round" stroke-miterlimit="10" x1="185.7" y1="321.1" x2="246.6" y2="324.8"/>
<line fill="none" stroke="#E0E0E0" stroke-width="2.6793" stroke-linecap="round" stroke-linejoin="round" stroke-miterlimit="10" x1="178.2" y1="384.3" x2="276.4" y2="395.5"/>
<line fill="none" stroke="#E0E0E0" stroke-width="2.6793" stroke-linecap="round" stroke-linejoin="round" stroke-miterlimit="10" x1="531.2" y1="374.4" x2="512.8" y2="417.6"/>
<line fill="none" stroke="#E0E0E0" stroke-width="2.6793" stroke-linecap="round" stroke-linejoin="round" stroke-miterlimit="10" x1="454.4" y1="172.1" x2="458.9" y2="179.2"/>
<line fill="none" stroke="#E0E0E0" stroke-width="2.6793" stroke-linecap="round" stroke-linejoin="round" stroke-miterlimit="10" x1="440" y1="150.6" x2="342.8" y2="170.1"/>
<line fill="none" stroke="#E0E0E0" stroke-width="2.6793" stroke-linecap="round" stroke-linejoin="round" stroke-miterlimit="10" x1="557.5" y1="445.6" x2="592" y2="468.3"/>
<line fill="none" stroke="#E0E0E0" stroke-width="2.6793" stroke-linecap="round" stroke-linejoin="round" stroke-miterlimit="10" x1="591.2" y1="264.6" x2="561.8" y2="317.9"/>
<line fill="none" stroke="#E0E0E0" stroke-width="2.6793" stroke-linecap="round" stroke-linejoin="round" stroke-miterlimit="10" x1="429.9" y1="367.8" x2="438.1" y2="387.3"/>
<line fill="none" stroke="#E0E0E0" stroke-width="2.6793" stroke-linecap="round" stroke-linejoin="round" stroke-miterlimit="10" x1="339.7" y1="428.1" x2="314.1" y2="439.1"/>
<line fill="none" stroke="#E0E0E0" stroke-width="2.6793" stroke-linecap="round" stroke-linejoin="round" stroke-miterlimit="10" x1="339.7" y1="428.1" x2="362.7" y2="479.7"/>
<line fill="none" stroke="#E0E0E0" stroke-width="2.6793" stroke-linecap="round" stroke-linejoin="round" stroke-miterlimit="10" x1="483.2" y1="485.1" x2="461.3" y2="438.8"/>
<line fill="none" stroke="#E0E0E0" stroke-width="2.6793" stroke-linecap="round" stroke-linejoin="round" stroke-miterlimit="10" x1="512.8" y1="417.6" x2="483.2" y2="485.1"/>
<line fill="none" stroke="#E0E0E0" stroke-width="2.6793" stroke-linecap="round" stroke-linejoin="round" stroke-miterlimit="10" x1="344.9" y1="368.5" x2="318.2" y2="379.4"/>
<line fill="none" stroke="#E0E0E0" stroke-width="2.6793" stroke-linecap="round" stroke-linejoin="round" stroke-miterlimit="10" x1="549.5" y1="310.8" x2="561.8" y2="317.9"/>
<line fill="none" stroke="#E0E0E0" stroke-width="2.6793" stroke-linecap="round" stroke-linejoin="round" stroke-miterlimit="10" x1="505.3" y1="209.1" x2="591.2" y2="264.6"/>
<line fill="none" stroke="#E0E0E0" stroke-width="2.6793" stroke-linecap="round" stroke-linejoin="round" stroke-miterlimit="10" x1="505.3" y1="209.1" x2="484.2" y2="218.5"/>
<line fill="none" stroke="#E0E0E0" stroke-width="2.6793" stroke-linecap="round" stroke-linejoin="round" stroke-miterlimit="10" x1="385.5" y1="263.8" x2="361.4" y2="212.1"/>
<line fill="none" stroke="#E0E0E0" stroke-width="2.6793" stroke-linecap="round" stroke-linejoin="round" stroke-miterlimit="10" x1="373.7" y1="301.5" x2="385.5" y2="263.8"/>
<line fill="none" stroke="#E0E0E0" stroke-width="2.6793" stroke-linecap="round" stroke-linejoin="round" stroke-miterlimit="10" x1="344.9" y1="368.5" x2="373.7" y2="301.5"/>
<line fill="none" stroke="#E0E0E0" stroke-width="2.6793" stroke-linecap="round" stroke-linejoin="round" stroke-miterlimit="10" x1="329.2" y1="404.3" x2="344.9" y2="368.5"/>
<path fill="none" stroke="#E0E0E0" stroke-width="2.6793" stroke-linecap="round" stroke-linejoin="round" stroke-miterlimit="10" d="
	M440,150.6"/>
<path fill="none" stroke="#E0E0E0" stroke-width="2.6793" stroke-linecap="round" stroke-linejoin="round" stroke-miterlimit="10" d="
	M440,150.6"/>
<line fill="none" stroke="#E0E0E0" stroke-width="2.6793" stroke-linecap="round" stroke-linejoin="round" stroke-miterlimit="10" x1="440" y1="150.6" x2="454.4" y2="172.1"/>
<line fill="none" stroke="#E0E0E0" stroke-width="2.6793" stroke-linecap="round" stroke-linejoin="round" stroke-miterlimit="10" x1="424" y1="185.8" x2="440" y2="150.6"/>
<line fill="none" stroke="#E0E0E0" stroke-width="2.6793" stroke-linecap="round" stroke-linejoin="round" stroke-miterlimit="10" x1="454.4" y1="172.1" x2="424" y2="185.8"/>
<line fill="none" stroke="#E0E0E0" stroke-width="2.6793" stroke-linecap="round" stroke-linejoin="round" stroke-miterlimit="10" x1="484.2" y1="218.5" x2="458.9" y2="179.2"/>
<line fill="none" stroke="#E0E0E0" stroke-width="2.6793" stroke-linecap="round" stroke-linejoin="round" stroke-miterlimit="10" x1="515.4" y1="142.8" x2="454.4" y2="172.1"/>
<line fill="none" stroke="#E0E0E0" stroke-width="2.6793" stroke-linecap="round" stroke-linejoin="round" stroke-miterlimit="10" x1="385.5" y1="263.8" x2="424" y2="185.8"/>
<line fill="none" stroke="#E0E0E0" stroke-width="2.6793" stroke-linecap="round" stroke-linejoin="round" stroke-miterlimit="10" x1="264.5" y1="458" x2="314.1" y2="439.1"/>
<line fill="none" stroke="#E0E0E0" stroke-width="2.6793" stroke-linecap="round" stroke-linejoin="round" stroke-miterlimit="10" x1="276.4" y1="395.5" x2="318.2" y2="379.4"/>
<line fill="none" stroke="#E0E0E0" stroke-width="2.6793" stroke-linecap="round" stroke-linejoin="round" stroke-miterlimit="10" x1="200.1" y1="199.9" x2="193.9" y2="254.9"/>
<path fill="none" stroke="#E0E0E0" stroke-width="2.6793" stroke-linecap="round" stroke-linejoin="round" stroke-miterlimit="10" d="
	M185.7,321.1"/>
<line fill="none" stroke="#E0E0E0" stroke-width="2.6793" stroke-linecap="round" stroke-linejoin="round" stroke-miterlimit="10" x1="185.7" y1="321.1" x2="178.2" y2="384.3"/>
<line fill="none" stroke="#E0E0E0" stroke-width="2.6793" stroke-linecap="round" stroke-linejoin="round" stroke-miterlimit="10" x1="514.8" y1="264.3" x2="549.5" y2="310.8"/>
<line fill="none" stroke="#E0E0E0" stroke-width="2.6793" stroke-linecap="round" stroke-linejoin="round" stroke-miterlimit="10" x1="458.9" y1="179.2" x2="505.3" y2="209.1"/>
<line fill="none" stroke="#E0E0E0" stroke-width="2.6793" stroke-linecap="round" stroke-linejoin="round" stroke-miterlimit="10" x1="286.3" y1="306.6" x2="385.5" y2="263.8"/>
<line fill="none" stroke="#E0E0E0" stroke-width="2.6793" stroke-linecap="round" stroke-linejoin="round" stroke-miterlimit="10" x1="297.5" y1="332.1" x2="373.7" y2="301.5"/>
<path fill="none" stroke="#E0E0E0" stroke-width="2.6793" stroke-linecap="round" stroke-linejoin="round" stroke-miterlimit="10" d="
	M440,150.6"/>
<line fill="none" stroke="#E0E0E0" stroke-width="2.6793" stroke-linecap="round" stroke-linejoin="round" stroke-miterlimit="10" x1="297.5" y1="332.1" x2="318.2" y2="379.4"/>
<line fill="none" stroke="#E0E0E0" stroke-width="2.6793" stroke-linecap="round" stroke-linejoin="round" stroke-miterlimit="10" x1="236" y1="191.8" x2="262.7" y2="253"/>
<line fill="none" stroke="#E0E0E0" stroke-width="2.6793" stroke-linecap="round" stroke-linejoin="round" stroke-miterlimit="10" x1="591.2" y1="264.6" x2="684.2" y2="324.8"/>
<line fill="none" stroke="#E0E0E0" stroke-width="2.6793" stroke-linecap="round" stroke-linejoin="round" stroke-miterlimit="10" x1="620.6" y1="210.8" x2="591.2" y2="264.6"/>
<line fill="none" stroke="#E0E0E0" stroke-width="2.6793" stroke-linecap="round" stroke-linejoin="round" stroke-miterlimit="10" x1="561.8" y1="317.9" x2="651.4" y2="375.9"/>
<line fill="none" stroke="#E0E0E0" stroke-width="2.6793" stroke-linecap="round" stroke-linejoin="round" stroke-miterlimit="10" x1="461.3" y1="438.8" x2="362.7" y2="479.7"/>
<line fill="none" stroke="#E0E0E0" stroke-width="2.6793" stroke-linecap="round" stroke-linejoin="round" stroke-miterlimit="10" x1="531.2" y1="374.4" x2="616.9" y2="429.5"/>
<line fill="none" stroke="#E0E0E0" stroke-width="2.6793" stroke-linecap="round" stroke-linejoin="round" stroke-miterlimit="10" x1="512.8" y1="417.6" x2="461.3" y2="438.8"/>
<line fill="none" stroke="#E0E0E0" stroke-width="2.6793" stroke-linecap="round" stroke-linejoin="round" stroke-miterlimit="10" x1="329.2" y1="404.3" x2="314.1" y2="439.1"/>
<line fill="none" stroke="#E0E0E0" stroke-width="2.6793" stroke-linecap="round" stroke-linejoin="round" stroke-miterlimit="10" x1="429.9" y1="367.8" x2="416.8" y2="339"/>
<line fill="none" stroke="#E0E0E0" stroke-width="2.6793" stroke-linecap="round" stroke-linejoin="round" stroke-miterlimit="10" x1="339.7" y1="428.1" x2="438.1" y2="387.3"/>
<line fill="none" stroke="#E0E0E0" stroke-width="2.6793" stroke-linecap="round" stroke-linejoin="round" stroke-miterlimit="10" x1="385.5" y1="263.8" x2="406.5" y2="315.2"/>
<line fill="none" stroke="#E0E0E0" stroke-width="2.6793" stroke-linecap="round" stroke-linejoin="round" stroke-miterlimit="10" x1="382.5" y1="524.6" x2="362.7" y2="479.7"/>
</svg>
