<?xml version="1.0" encoding="utf-8"?>
<!-- Generator: Adobe Illustrator 18.1.1, SVG Export Plug-In . SVG Version: 6.00 Build 0)  -->
<!DOCTYPE svg PUBLIC "-//W3C//DTD SVG 1.1//EN" "http://www.w3.org/Graphics/SVG/1.1/DTD/svg11.dtd">
<svg version="1.1" xmlns="http://www.w3.org/2000/svg" xmlns:xlink="http://www.w3.org/1999/xlink" x="0px" y="0px" width="155px"
	 height="527px" viewBox="0 0 155 527" enable-background="new 0 0 155 527" xml:space="preserve">
<g id="Layer_1">
</g>
<g id="boroughboundscliptest_x5F_area">
</g>
<g id="boroughbounds_x5F_area">
	<path fill="none" stroke="#CFCFCF" stroke-width="2" stroke-linecap="round" stroke-linejoin="round" stroke-miterlimit="10" d="
		M32.2,340l0.3,0l0,0.1L32.2,340L32.2,340z M35.2,341.4l0.3,0l0,0.1L35.2,341.4L35.2,341.4z M36.1,341.5l0,0.2l-0.1,0l-0.1-0.1
		l0-0.2L36.1,341.5z M31.4,339.9l0.3,0l0,0.1L31.4,339.9L31.4,339.9z M31.2,337.3l0.3,0l0,0.1l-0.3,0L31.2,337.3z M32.3,337.3
		l0.3,0.1l0,0.1L32.3,337.3L32.3,337.3z M33.8,337.6l0-0.1l0.3,0l0,0.1L33.8,337.6z M33,337.5L33,337.5l0.3-0.1l0,0.1L33,337.5z
		 M33.6,340.2L33.6,340.2l0.6,0l0,0.1L33.6,340.2z M34.8,341.3l0.3,0l0,0.1l-0.3,0L34.8,341.3z M34.3,347.8l0-0.2l0.7,0l0,0.2
		L34.3,347.8z M35,346.2l-0.1,0.1l-0.1,0l-1.6-0.1l0-0.3l1.2,0.1l0,0l0.4,0l0.1,0.1L35,346.2z M31.2,345.7l0.3,0l0,0.3l0.4,0l1-0.1
		l-0.1,0.5l-1.7-0.2L31.2,345.7z M34.5,348.8l0,0.2l-0.6-0.1l0-0.2L34.5,348.8z M34.5,340.3L34.5,340.3l0.3-0.1l0,0.1L34.5,340.3z
		 M33.1,341.1l0.3,0.1l0,0.1L33.1,341.1L33.1,341.1z M34.1,343.1L34.1,343.1l2.3,0.3l0.1,0l0-0.1l0.2,0l-0.1,0.9l-0.2,0l0.1-0.6
		l-0.1,0l-2.2-0.3l-0.1-0.1L34.1,343.1z M31.3,341l0.3,0l0,0.1l-0.3,0L31.3,341z M30,340.9L30,340.9L30,340.9l-0.2,0l0-0.1L30,340.9
		z M32.5,341.1l0.3,0l0,0.1L32.5,341.1L32.5,341.1z M34.9,333.9L34.9,333.9l0.3-0.1l0,0.1L34.9,333.9z M122,229.6l-0.2-0.1l0.3-0.7
		l0.2,0.1L122,229.6z M35.2,336.6l0-0.1l0.3,0l0,0.1L35.2,336.6z M32,353.6l0-0.2l0.9,0.1l0,0.2L32,353.6z M36.3,336.5l0,0.2l-0.3,0
		l0-0.2l0.1,0L36.3,336.5z M34.5,336.5l0-0.1l0.3,0l0,0.1L34.5,336.5z M32.3,336.2l0.3,0l0,0.1L32.3,336.2L32.3,336.2z M35.2,333.9
		l0-0.1l0.3,0l0,0.2l-0.1,0L35.2,333.9z M33,336.3l0.3,0l0,0.1L33,336.3L33,336.3z M35.9,337.6l0,0.1l-0.2,0l-0.1-0.1l0-0.1
		L35.9,337.6z M35,340.2l0.1,0l0.1,0.1l0,0.1l-0.3,0L35,340.2L35,340.2z M34.4,333.7l0.3,0.1l0,0l0.2,0.1l0,0.1L34.4,333.7
		L34.4,333.7z M34.3,333.7l0,0.1l-0.3,0l0-0.1L34.3,333.7z M33.3,333.6l0.3,0l0,0.1L33.3,333.6L33.3,333.6z M32.9,333.6l0.3,0l0,0.1
		L32.9,333.6L32.9,333.6z M34.5,337.7L34.5,337.7l0.3-0.1l0,0.1L34.5,337.7z M31.9,360.6L31.9,360.6l0.5-0.1l0,0.1L31.9,360.6z
		 M30.1,337.1L30.1,337.1l-0.2-0.1l0,0L30.1,337.1z M35.9,327.9l-2.9-0.3l-1.8-0.2l0-0.4l4.7,0.5L35.9,327.9z M30,336.2l0,0.2
		l-0.1,0L30,336.2L30,336.2z M30.3,333.3L30.3,333.3l-0.2-0.2l0,0L30.3,333.3z M40.4,413l0.4,1.1l-1.4,0.5l0-0.1l0.1-0.1l0-0.1l0,0
		l-0.1-0.2l-0.1,0l-0.1-0.1l-0.1-0.2l0,0l0.1,0l-0.1-0.2l0,0l0,0l-0.2,0l0-0.1l0-0.1L40.4,413z M41.9,423.5l-0.1-0.3l0.2-0.1l0-0.1
		l0.2-0.1l0,0l3.8-1.4l0.3,0.8l-4.2,1.6l-0.1,0l-0.1-0.2L41.9,423.5z M44.6,44.1l-0.4,0.1l0-0.1L44.6,44.1L44.6,44.1z M32.3,359.9
		L32.3,359.9l-0.3,0l0-0.1L32.3,359.9z M32.5,360.2l0.1,0l0,0.1L32.5,360.2L32.5,360.2z M44.7,41.9l-0.3,0l0,0l0,0.1l0.1,0l0,0.1
		l-0.1,0l0-0.1l0,0l0,0.1l0.1,0l0,0l-0.1,0l0,0l0,0.1l0.2,0l0,0l-0.2,0l0,0.1l0,0l0.1,0l0,0l-0.2,0l0,0.1l0,0l0.1,0l0,0l-0.2,0
		l0,0.1l0.1,0l0,0l-0.2,0l0,0.1l0,0l0.1,0l0,0l-0.1,0l0,0l0,0.1l0.1,0l0,0l-0.1,0l0,0l0,0.1l0.1,0l0,0l-0.2,0l0,0.1l0.2,0l0,0
		l-0.2,0l0,0.1l-0.1,0l0-2.3L44.7,41.9L44.7,41.9z M33,353.6l0-0.2l0.9,0.1l0,0.2L33,353.6z M31.3,354.4l0-0.3l1.7,0.2l0,0.3
		L31.3,354.4z M33.8,354.8l-0.6,0l0-0.2l-0.2,0l0-0.3l0.9,0.1l0,0.1l0,0L33.8,354.8z M31.9,360.3L31.9,360.3l0.3-0.1l0,0L31.9,360.3
		l0.5,0.1l0,0L31.9,360.3z M108.9,373.1l0-0.8l0.2,0l0,0.8L108.9,373.1z M118.6,316.5l-3,10.8l-0.3,1.5l0,0.8l-0.1,0.2l-0.1,0.8
		l-0.2,1.4l-0.1,1.5l-0.2,1l0,0.2l0.1,0l0,0.1l0,0.2l0,0.1l-0.2,0.1l-0.1,0.1l-0.5,1.3l-0.2,0.4l-0.3,2l-0.1,0l0,0.2l-0.4,2.2l0.1,0
		l-0.3,1.8l-0.3,1.7l-0.7,3.6l-0.6,3.8l-0.9,6.4L110,361l0.3,0l-0.4,2.6l-0.1,0l-0.4,3.3l-0.2,0l-0.2,1.3l0,0.1l0,0.4l-0.1,0.1
		l-0.1,1.3l-0.3,0l0,0.8l1,0.1l0,0.2l-1-0.1l0,0.8l0.3,0l-0.1,3.1l0.3,0l0,1l1.1,4.1l0.2-0.1l0.1,0l0.5,1.7l0,0.1l-0.2,0.1l0.5,2.1
		l2.2,4.7l1.8,3.4l-0.6,0.3l-0.2,0l-3.4-0.3l0.1,0.3l0.1,0l0,0l0.9,0.1l0,0.1l-0.9-0.1l0.2,0.5l0.1,0l0,0.1l0.6,0l0,0.1l-0.6,0
		l0.1,0.3l-0.1,0l0,0.1l0,0l0.3,0.6l0.1,0l0,0l0.1,0l0-0.3l0,0l0,0.3l0.1-0.1l0-0.3l0,0l0,0.3l0.1-0.1l0.2,0l0-0.4l0,0l0,0.4
		l2.4,0.2l0.1-1l0.1,0l-0.1,1l0.1,0l0-0.1l0,0l0.1,0l0-0.1l0.1,0l0,0.4l-0.1,0l0-0.1l-0.1,0l0,0l0-0.1l-0.1,0l0,0.1l-0.6-0.1l0,0.1
		l0.1,0.1l0.1,0.1l0.1,0.2l0,0.1l-0.1,0.1l-0.1,0.1l-0.1,0l0,0.1L113,395l1.4,2l-0.4,0.3l-0.4,0l1.4,2l0.4,0.1l0.2,0l0.2,0.1
		l0.1,0.1l0,0.1l-0.3,0.3l2.7,3.8l0.6,0.5l0.6,0.3l1.3,0.5l0.9,0.3l0.6,0.3l0.5,0.3l0.4,0.3l0.4,0.4l0.4,0.4l0.4,0.5l0.3,0.6
		l0.9,2.6l0.3,0l0,0.1l-0.4,0.1l0.2,0.6l0.3-0.1l0.5,1.8l0.7,2.3l-0.1,0l0.6,1.9l0.6,2.2l2.7,10.8l0.6,3.1l1,6.4l0.3,1.9l0.2,1.7
		l0.6,6.6l0.1,2.2l0,0.8l-0.2,1.1l-0.2,0.8l-0.5,1.2l-0.4,0.7l-0.2,0.3l-0.2,0.2l-3.7,2l0.1,0.2l-1.6,0.9l0.5,0.9l-12.1,7.4l-0.1,0
		l-0.1-0.1l-1-1.6l-0.1,0l-0.1-0.1l-1.7,1.2l-3.1,2.2l-3.3,2.4l-0.9,0.5l-4.7,3.3l-1.3,1.2l-0.4,0.4l-0.4,0.6l-0.1,0.1l0.2,0.1
		l0,0.1l-0.1,0.2l0,0.2l-0.8,1.1l-0.4,0.4l0.1,0.1l-0.1,0.1l-0.2-0.1l-0.3,0.2l-0.1,0.2l0.1,0.4l-0.2,0.6l-0.9,1.3l-0.2,0.2
		l-0.1,0.1l0,0.2l-0.1,0.2l0.2,0.1l-0.1,0.2l0.2,0.1l0,0.1l0.6,0.4l-0.5,0.9l2.2,1.1l0,0.1l-0.9,2l-0.1,0l-1.6-0.8l-0.1,0.2
		l-0.9-0.1l-0.1,0.3l0.9,0.4l-0.1,0.1l1.2,0.6l-0.2,0.5l-0.5-0.2l0,0l0.1,0l-0.1,0.2l-0.2-0.1l0.1-0.2l0,0l0,0l-2.6-1.3l-0.6,1.2
		l2.6,1.2l0,0l0.7,0.4l-0.2,0.5l-2.6-1.3l0,0l-0.7-0.3l0,0.1l0,0l-0.2,0.4l0,0l-0.4,0.8l3.5,1.8l-0.2,0.4l-0.1-0.1l0,0.1l-0.2-0.1
		l-0.1,0l-3.1-1.5l0,0l0,0l-0.6,1.2l3.3,1.6l0,0.1l0.2,0.1l-0.2,0.4l-0.1,0l-2.5-1.2l-1-0.3l0,0l-0.3,0.6l-0.3-0.2l-0.6,1.3l0.9,0.4
		l0.1-0.1l0.1,0l0.1-0.2l0.7,0.3l-0.1,0.2l0.1,0.1l0.1,0l0.1-0.2l0.7,0.3l-0.1,0.1l0.1,0.1l0.1,0l0.1-0.2l0.7,0.3l-0.1,0.2l-0.7-0.4
		l0,0l0.8,0.4l-0.2,0.4l-3.5-1.7l-0.7,1.4l0.4,0.2l0,0.1l0.1,0l0-0.1l1.3,0.6l0,0l0.1,0l0,0l0.8,0.3l0,0l0.9,0.3l0,0.2l-0.2,0.6
		l-0.1,0l-0.6-0.3l0,0.1l-1.1-0.4l0,0l-0.1,0l0,0l-0.6-0.2l0,0.1l-0.5-0.2l0,0l-0.1,0l0,0l-0.2-0.1l0,0l-0.1,0l0,0l-0.3-0.1
		l-1.6,3.2l-0.3,0.3l2,1.5l1.3-1.7l0.5,0.4l-1.2,1.7l0.6,0.5l-0.4,0.5l-3.1-2.3l-2.4,2.2l0.2,0.3l0,0.2l-0.2,0.1l0.4,0.4l0.1-0.1
		l0.3,0.3l-0.1,0.1l1.4,1.5l-0.1,0.1l-1.4-1.5l-0.3,0.3l0.4,0.5l0,0.1l0,0.1l-0.1,0l-0.1,0l-0.5-0.4l-0.3,0.3l0.3,0.4l0,0.1l0,0.1
		l-0.1,0l-0.3-0.3l-0.3,0.3l0.5,0.7l0.4,0.5l0,0.2l-0.1,0.2l-0.2,0l-0.1-0.1l-0.6-0.5l-0.4-0.4l-0.3-0.2l-0.2,0.2l0,0.1l0.1,0.3
		l0.5,0.7l0,0.2l-0.1,0.1l-0.1,0l-0.1-0.1l-0.5-0.4l-0.3-0.3l-0.3,0.2l0.1,0.3l0.3,0.5l0.6,0.8l0,0.1L81,511l-0.1,0l-0.1-0.1
		l-0.7-1.1l-0.3-0.4l-0.3,0.2l0.2,0.5l0.1,0.3l-0.1,0.2l-0.2,0l0-0.4l0.1,0l-0.2-0.6l0,0l0-0.1l0.1,0l-0.2-0.3l0.1-0.1l-0.4-0.7
		l-0.8,0.2l0.4,2.3l-0.1,0l-0.2-1.2l-0.3,0l-0.1,1l0,0.2l-0.1,0l0-0.2l0.1-1l-0.7-0.1l-0.2,1.5l-0.1,0l0.2-1.5l-0.6-0.1l-0.1,0.1
		l0,0.1l-0.1,0l0,0.2l-1.1-0.4l-1.3-0.6l-0.8-0.4l-1.5-0.9l-1.5-1l-0.4-0.3l-0.3-0.3l-0.3-0.4l-0.3-0.4l-0.2-0.6l-0.2-1.2l-0.4,0.3
		l0.1,0.6l-0.1,0l-0.1-0.7l-1.2,0.8l-0.1,0l-0.2-0.2l0-0.1l1.6-1.1l-0.1-0.4l-0.3,0.1l-0.7,0.4l0,0.2l-1.5,0.2l-0.1,0l-0.1-0.1
		l-2.1-2.8l-0.6-2.3l0.1-0.1l0.2,0l0-0.2l0.1-0.2l0.1-0.1l0.2-0.1l0.1,0.2l-0.2,0.1l0,0l-0.1,0.1l0,0.1l0.1,0l0-0.1l0.2-0.1l0.1,0
		l0.2,0.2l0,0l-0.3-2.5l-1,0.1l0-0.1l-0.3,0l-0.1-0.1l-1.6-6.8l-0.4-1.6l-1.1-4l0,0l0,0l0.4,1.2l1.1-0.2l-0.1-0.5l0.1,0l0.1,0.4l0,0
		l0,0.1l0.4-0.1l0-0.1l0,0l-0.1-0.4l0.1,0l0.1,0.4l0,0l0,0.1l0.4-0.1l0-0.1l0,0l-0.1-0.4l0.1,0l0.1,0.4l0.3-0.1l0-0.1l-0.1,0
		l-0.1-0.6l-0.3,0.1l-0.4-1.6l0,0l0.1,0.5l0-0.4l0.1-0.3l-0.2-0.8l-0.2,0l0.1,0.6l-0.1,0l-0.1-0.6L60,481l0,0.1l0,0l0.1,0.4l-0.1,0
		l-0.1-0.5l-0.3,0.1l0.2,0.6l-0.1,0l-0.1-0.6l-0.5,0.1l0,0.1l0,0l0.1,0.4l-0.1,0l-0.1-0.5l-0.5,0.1l0,0.2l0.1,0l0.1,0.4l-0.1,0
		l-0.1-0.4l0,0l0-0.2l-0.5,0.1l0.4,1.3l0,0l-0.1,0l-0.8-2.6l-0.1,0l-0.3-0.9l0,0l0.1,0.4l-0.3,0.1l-0.2-0.7l0.3,0l0.1,0.2l0.1,0
		l-0.1-0.3l-0.1,0l-0.1-0.5l0.1,0l-2.8-9.7l0.1-0.1l0.4-0.1l0.1-0.1l1.4-0.4l0.1,0l1.2-0.3l0-0.2l0.1-0.1l3.3-0.8l-0.9-3.6l-1,0.3
		l-0.2-0.7l-0.7,0.2l0-0.2l-0.1,0l0,0.2l-2.5,0.6l0-0.1l-0.1,0l0,0.1l-0.2,0l0-0.1l-0.1,0l0,0.1l-0.4,0.1l0,0l-0.1,0l0,0l-0.8,0.2
		l0-0.1l-0.1,0l0,0.1l-0.6,0.1l-0.1,0l-0.2-0.8l0-0.1l0.8-0.2l0,0.1l0.1,0l0-0.1l0.2-0.1l0,0.1l0.1,0l0-0.1l0,0l0,0.1l0.1,0l0-0.1
		l0.3-0.1l0,0.1l0.1,0l0-0.1l0.2,0l0,0.1l0.1,0l0-0.1l2.1-0.5l0,0.1l0.1,0l0-0.1l0.2,0l0,0.1l0.1,0l0-0.1l0,0l0,0.1l0.1,0l0-0.1
		l0.3-0.1l0,0.1l0.1,0l0-0.1l0.2,0l0,0.1l0.1,0l0-0.1l1-0.3l-0.4-1.3l-5.5,1.4l0,0l-0.1,0.1l-0.9,0.2l-0.1-0.6l0.1-0.1l0-0.1
		l0.2-0.2l0-0.1l0.8-0.2l0.1,0l0.1-0.1l0.9-0.2l0.1,0.2l0.1,0l0-0.1l0.3-0.1l2.4-0.6l0,0.1l0.1,0l0-0.1l0.8-0.2l-0.2-0.7l0,0l0-0.1
		l0.9-0.3l-2.2-8.1l-0.1-0.1l-6.4,1.9l-0.3-0.1l-0.1-0.3l0-0.1l-0.1-0.3l0.2-0.1l0.1,0.1l0.1-0.1l0-0.1l0.4-0.1l5.8-1.7l0-0.1
		l-0.5-1.8l-0.1-0.3l-0.6,0l-0.5,0.1l-5,1.4l-0.1,0.1L49,449l-0.2,0l-0.1-0.1l-0.3-1l0-0.1l0.6-0.2l0.1,0l5.9-1.8l-1.6-4.4l0,0
		l-6.4,2.1l-0.1,0l-0.1-0.3l0,0l0,0l0.1-0.1l0.9-0.2l-1.7-5.1l0-0.1l5.4-1.7l-0.7-2l-5.8,1.9l0-0.1l0,0l0-0.1l0.1-0.1l0-0.1l5.8-1.9
		l-1.4-3.9l-5.5,2.4l-0.1,0l-0.2-0.4l0.1-0.3l0.1,0l0,0l5.3-2.3l-0.6-1.7l-3.3,1.2l0-0.1l-0.1,0l0,0.1l-1.7,0.6l-0.1-0.3l0.1-0.1
		l0-0.1l0-0.1l0.2-0.1l0-0.1l0-0.1L44,428l0.1,0.1l0.6-0.3l0,0.1l0.1,0l0-0.1l3.3-1.2l0-0.2l-0.9-2.6l-2.5-6.6l-1,0.4l0,0l-0.2,0.1
		l0,0l0,0l0,0l-0.1,0l0,0l-0.1,0l0-0.1l-0.1-0.3l0,0l0,0l0,0l-0.1-0.3l0,0l0,0l1.5-0.6l-0.7-1.9l-0.9,0.3l-1,0.3l-0.2,0.1l-0.1-0.1
		l-0.2,0.1l-0.3-0.7l0.1-0.1l-0.9-2.5l-1.3,0.5l-0.1-0.2l-0.9,0.3l0-0.1l0.4-0.1l0-0.1l0.1,0l0-0.1l0.3-0.1l-0.1-0.2l4.7-1.8
		l-0.3-1.2l-5.5,1.6l-0.1,0l-0.1-0.4l0.1,0l0,0l0-0.1l0.1-0.1l5.4-1.6l-0.3-1l-0.1-0.4l0-0.3l-0.1-0.1l-0.1-0.3l-5.5,1.6l-0.1-0.1
		l-0.1-0.5l0-0.1l0.1-0.1l5.5-1.6l0,0l-0.3-0.8l-0.7,0.2l-0.2-0.8l-4.8,1.4l-0.1-0.1l-0.3-0.9l0-0.1l4.8-1.4l-0.2-0.7l0.1,0
		l-0.2-0.9l0.5-0.2l-0.1-0.4l0.1-0.1l0,0l0.1,0l0,0l0.1,0l0.4,1.3l0.1,0l-0.7-2.5l-0.1,0l0.3,0.8l-0.1,0l-0.1-0.2l-0.2,0l-0.2-0.6
		l-0.7,0.2l0,0.1l0.1,0l0,0l-0.2,0.1l0,0l-0.1,0l0-0.1l-0.6,0.2l-0.2-0.7l0,0l-0.1,0l0,0.1l-0.1,0l0-0.1l-0.5,0.2l0,0.1l0.2-0.1l0,0
		l-0.2,0.1l0,0l0,0.1l0,0l0.2-0.1l0,0l-0.2,0.1l0,0l0,0.1l0,0l0.2-0.1l0,0l-0.2,0.1l0,0l0.1,0.2l0.2-0.1l0,0l-0.2,0.1l0,0.2l0,0
		l0.2-0.1l0,0l-0.6,0.2l0,0l0.2-0.1l-0.1-0.2l-0.2,0.1l0,0L38,400l-0.1-0.2l-0.2,0.1l0,0l0.2-0.1l0,0l0-0.1l0,0l-0.2,0.1l0,0
		l0.2-0.1l0,0l0-0.1l0,0l-0.2,0.1l0,0l0.2-0.1l0-0.1l0,0l-0.9,0.3l0,0l0,0.1l0.2-0.1l0,0l-0.2,0.1l0,0l0,0.1l0.3-0.1l0,0l-0.2,0.1
		l0,0.2l0,0l0.2-0.1l0,0l-0.2,0.1l0,0.2l0,0l0.2-0.1l0,0l-0.2,0.1l0,0.2l0,0l0.2-0.1l0,0l-0.6,0.2l0,0l0.3-0.1l-0.1-0.2l0,0
		l-0.3,0.1l0,0l0.3-0.1l-0.1-0.2l0,0l-0.3,0.1l0,0l0.3-0.1l-0.1-0.2l0,0l-0.3,0.1l0,0l0.3-0.1l0-0.1l0,0l-1.1,0.3l0,0l0,0.2l0.3,0
		l0,0l-0.2,0.1l0,0l0,0.2l0,0l0.2-0.1l0,0l-0.2,0.1l0,0l0.1,0.2l0,0l0.2-0.1l0,0l-0.2,0.1l0.1,0.2l0.3-0.1l0,0l-0.6,0.2l0,0l0.3-0.1
		l0,0l-0.1-0.2l-0.3,0.1l0,0l0.3-0.1l0,0l-0.1-0.2l0,0l-0.3,0.1l0,0l0.3-0.1l0,0l-0.1-0.2l0,0l-0.3,0.1l0,0l0.3-0.1l0-0.1l0,0
		l-1.1,0.3l0,0l0,0.2l0,0l0.2-0.1l0,0l-0.2,0.1l0,0l0.1,0.2l0.2-0.1l0,0l-0.2,0.1l0,0l0.1,0.2l0.3,0l0,0l-0.2,0.1l0,0l0,0.2l0.3,0
		l0,0l-0.3,0.1l-0.3-1.1l4.3-1.2l0,0l-4.2,1.2l-0.1,0l-0.3-0.9l0-0.1l2.9-0.9l1.3-0.3l-0.1-0.1l-0.2,0.1l0,0l0.2-0.1l0,0l0-0.2l0,0
		l-0.2,0.1l0,0l0.2-0.1l0,0l0-0.2l0,0l-0.2,0.1l0,0l0.2-0.1l0,0l0-0.2l0,0l-0.2,0.1l0,0l0.2-0.1l0,0l0-0.2l0,0l-0.2,0.1l0,0l0.2-0.1
		l-0.1-0.4l0.1,0l0,0l-4.2,1.2l-0.1-0.1l-0.3-0.9l0-0.1l4.3-1.2l-0.4-1.4l0,0l0.2,0.6l0,0l0-0.1l-0.2,0l0,0l0.2,0l-0.1-0.2l-0.2,0
		l0,0l0.2,0l-0.1-0.2l-0.1,0l0,0l0.2,0l0,0l0-0.1l-4.2,1.2l-0.1,0l0,0l-0.3-0.9l0-0.1l4.3-1.2l-0.5-1.6l-4.3,1.2l-0.1,0l-0.2-0.8
		l0-0.1l2.2-0.6l-0.5-3l0.1-0.1l0.6,0l-0.2-1.1l-3.6-0.3l-0.1-0.1l-0.1-0.6l0-0.1l0.1,0l3.5,0.3l-0.5-3.1l-0.1-0.2l-1.2-0.1l0-0.1
		l0.5,0.1l0.6,0l-0.7-0.1l0-0.3l0.2,0l0,0l-1.2-0.1l0-0.1l1.8,0.1l0-0.3l-3.5-0.3l-0.1-0.1l-0.1-0.5l3.6,0.4l-0.7-5.2l-0.3,0l0-0.6
		l0.3,0l0.1-0.8l-0.3,0l0-0.6l0.3,0l0.2-2.7l-3.4-0.3l0.1-0.7l3.4,0.3l0.2-2.4l0.1-1.4l0.1,0l0.1,0l0.1-0.2l0.1-0.3l0-0.8l-0.1-0.2
		l-0.2-0.2l-0.6-0.1l0.1-1l-4.4-0.4l-0.1-0.1l0-0.1l0.2-1.9l0.1-0.1l4.4,0.4l0.1-1.2l0.6,0.1l0-0.1l-0.5,0l0,0.1l-0.7-0.1l0-0.1
		l0.5,0.1l0,0l0,0l-0.1-0.1l-0.2,0l0-0.2l0.2,0l0,0l0.1,0l0,0l-0.4,0l0-0.2l-0.2,0l0,0l-0.1,0l0-0.2l0.1,0l0,0l0.2,0l0-0.2l-0.2,0
		l0,0l-0.1,0l0-0.1l0.2,0l0,0l0.2,0l0-0.1l1,0.1l0-0.4l-0.8-0.1l0.3-3.2l0.8,0.1l0.1-1.9l-5-0.5l0,0l0-0.5l0.1,0l5,0.5l0.2-2.7
		l-5-0.4l-0.1-0.1l0-0.5l0.1,0l5,0.5l0.1-1.4l0-0.3l-4.8-0.5l0-0.4l0.3,0l0,0l0.1,0l0-0.1l-0.1,0l0-0.4l-0.6,0l-0.1,0.1l0,0.1
		l-0.1,0l0,0l0-0.2l0,0l0-0.1l0.1,0l0,0l5.3,0.5l1.9,0.2l0.2-0.3l0.1-1.2l-1.7,0l-0.1-0.1l-0.1-0.1l0.1-0.1l0.1,0l0,0l0.2,0l0,0
		l0.1,0l0.1-0.1l0.8,0.1l0-0.1l0.5,0l0.1-0.7l-1.8-0.2l0,0l-0.2,0l0,0l-0.1-0.1l-0.8-0.1l0-0.2l-0.7-0.1l-0.1,0l0,0l-1.1,0l-0.5,0
		l-0.3,0l0-0.1l0,0l0,0.1l-0.3,0l-0.1-0.1l0,0l-0.7-0.1l-0.1,0l0-0.1l0.1-0.9l0.1-0.1l7,0.7l0.1-1.4l0,0l-0.2,0l-0.1-0.1l-0.1-0.1
		l0-0.1l0.1-0.2l0.3-0.2l0.1-0.1l0-1.4l-0.1,0.8l-7.3-0.7l-0.1,0l0-0.1l0.1-0.7l0-0.1l0.1,0l7.3,0.7l0,0l0.2-2.8l-0.1,0l0,0L30,337
		l-0.1-0.1l0.1-0.7l0.1-0.1l7.3,0.7l0.2-2.8l-1.9-0.2l-5.4-0.5l-0.1,0l0-0.1l0.1-0.7l0.1-0.1l5.4,0.5l0.1-2.1l-5.4-0.5l-0.1-0.1
		l0-0.1l0.1-0.8l0-0.1l0.1,0l5.3,0.5l0.2-1.8l-0.1-0.2l0-0.2l0.1-0.1l0.1,0l0.1-1.6l-0.1,0.1l-4.8-0.4l0-0.2l0.2-0.2l0.2,0l0.2,0.1
		l0.6,0l0,0l0.2,0l0,0l1.2,0.1l0,0.1l0.1,0.1l0.2,0l0.1-0.1l1.9,0.2l0.1-0.8l0.3-0.1l0.1-0.1l0-0.1l-0.2-0.1l0-0.2l-4.8-0.4l0-0.8
		l4.8,0.5l0.1-1.4l-4-0.4l-0.1,0l0,0l0.1,0l0-0.3l-0.9-0.1l-0.3-0.1l0,0l5.2,0.5l0,0l0.2,0l0.2,0l0.1-1.3l-0.1,0l-0.1,0.1l0,0.1l0,0
		l-0.8-0.1l0,0l0-0.3l-1.2-0.2l-0.4,0l0,0.3l0.1,0l0,0l0,0.1l0,0l-2.5-0.2l0,0l0-0.1l0-0.1l0.1,0l0-0.2l-0.1,0l0-0.1l0,0l0-0.3
		l4.7,0.4l0-0.1l0-0.1l-0.1-0.6l0.1-0.3l0.2-0.6l0-0.3l0-0.1l0.2-3.2l0.1,0l0.1-0.2l0.2-0.1l0.1-0.4l-0.1-0.4l-0.3-0.3l-0.3-0.2
		l0.5-6l0.4-0.2l0.1-0.2l0.3-0.1l0.1-0.1l0.1-1.6l-0.4,0.2l-0.1-0.2l-0.2,0.1l0-0.4l0.7-0.4l0.1-0.5l0-0.7l-1,0.5l-0.8,0.5l0-0.1
		l0.8-0.6l0.8-0.4l0-0.1l-0.2,0.1l0,0l-0.2,0.1l0-0.1l-0.4,0.2l0-0.1l0.5-0.3l0.1,0.2l0.6-0.3l0-0.3l-0.7,0.4l-0.1-0.3l-0.9,0.5
		l-0.3,0.1l-0.1-0.1l0.5-0.2l0.9-0.5l-0.1-0.2l-0.5,0.1l0-0.1l0.5-0.2l0-0.1l0.6-0.3l0.2,0.3L38,302l0,0.1l0.6-0.3l0.1-1.7l-1,0.5
		l-0.1-0.1l0.2-0.1l0-0.1l-0.4,0.2l-0.1-0.1l0.5-0.3l0.2-0.3l0-0.1l-0.2,0l0.3-3.8l0.1,0l-0.1-1.6l0.5-8.6l-0.1,0l0,0l-0.1,0l0,0.4
		l-0.3,0l0,0.1l0,0l0-0.2l-0.2,0l0,0.1l0,0l0-0.1l-0.2,0l0,0.2l0,0l0-0.2l-0.2,0l0,0.1l0,0l0-0.1l-0.2,0l0,0.2l0,0l0-0.2l-0.2,0
		l0,0.1l0,0l0-0.1l-0.5,0l0,0.1l0,0l0,0.2l0,0l0.1-0.3l0,0l0-0.1l0.2,0l0,0l0.4,0l0-0.2l0,0l0,0.2l0.2,0l0-0.1l0,0l0,0.1l0.2,0
		l0-0.1l0,0l0,0.1l0.2,0l0-0.1l0,0l0,0.1l0.2,0l0-0.1l0,0l0,0.1l0-0.1l0.1,0l0,0.1l0.1,0l0.1-0.7l0,0l0-0.3l-0.2,0l0,0.2l0,0l0-0.2
		l-0.3-0.1l0,0.1l0,0l0-0.1l-0.3,0l0,0.2l0,0l0-0.1l-0.3,0l0,0.1l0,0l0-0.1l-0.3,0l0,0.1l0,0l0-0.1l-0.3,0l0-0.1l0.2,0l0-0.1l0,0
		l0,0.1l0.1,0l0-0.1l0,0l0,0.1l0.3,0l0-0.1l0,0l0,0.1l0.2,0l0-0.1l0,0l0,0.1l0.3,0l0-0.1l0,0l0,0.1l0.3,0l0-0.2l0,0l0,0.2l0.3,0
		l0.2-1.2l0,0l0,0l0,0l-0.2,0.3l0,0l0.2-0.3l-0.2-0.1l-0.2,0.4l0,0l0.2-0.3l-0.3-0.2l-0.2,0.3l0,0l0.2-0.3l-0.3-0.2l-0.2,0.3l0,0
		l0.2-0.3l-0.3-0.2l-0.2,0.4l0,0l0.2-0.3l-0.4-0.2l-0.3,0.6l-0.3,2.3l-0.1,0l0.3-2.3l0.4-0.7l0-0.3l0.2,0l0.1,0.5l0.2,0.1l0,0
		l-0.1-0.4l0,0l0.1,0.4l0,0l0,0l0.3,0.2l-0.1-0.4l0.1,0l0.1,0.4l0.3,0.2l0-0.4l0,0l0.1,0.4l0,0l0,0l0.3,0.2l0,0l-0.1-0.4l0,0
		l0.1,0.4l0.2,0.1l0-0.8l-0.1,0l0,0l0.1,0l0-0.3l-0.1,0l0,0l0.1,0l0-0.3l0,0l0-0.1l-0.1,0l0,0.2l0,0l0-0.2l-0.2,0l0,0.1l0,0l0-0.1
		l-0.3,0l0,0.1l0,0l0-0.1l-0.7-0.1l0,0l0.5,0l0-0.1l0,0l0,0.2l0.2,0l0-0.1l0,0l0,0.1l0.2,0l0-0.2l0,0l0,0.2l0.2,0l0-0.1l0,0l0-0.8
		l-0.1,0l0,0l0.1,0l0-0.3l0-0.1l0,0l0.1,0l-0.1,1.3l0.2,0l0.1-1.3l-0.2-0.1l0-0.1l-0.1,0.1l0,0.1l0-0.1l0,0l0,0.1l0,0l-0.1,0.2l0,0
		l0.1-0.2l-0.2,0.1l-0.1,0.3l0,0l0.1-0.2l-0.2,0.1L38,281l0,0l0.1-0.3l-0.2,0.1l-0.1,0.3l0,0l0.1-0.3l-0.6,0.2l0,0.1l0.1,0l0,0.4
		l-0.1,0l0-0.4l-0.1,0l-0.1,0.5l-0.2-0.1l0.1-0.5l0,0l0-0.1l0.2-0.1l0,0.1l1.9-0.7l1.1-17.8l-0.1-0.2l0-0.3l0-0.2l0.2-0.4l0.8-12.4
		l0-1.2l0.3-4.3l0-0.3l-0.1-0.1l0-0.3l0.1-0.4l0-0.4l0.1-0.4l0-1.1l0.2-2.7l0-0.2l0.2-1.6l0-1.5l0.1-0.8l0.1-2l0.1-0.7l0-0.2
		l0.1-1.2l0.1-1.4l0-0.7l0.1-0.4l0.2-0.4l-0.1-0.2l0-0.3l0-0.8l0.1-0.6l0.1-1.2l0.7-6.7l0.1-1.8l0.2-1.2l-0.1-1.2l0.1-3.6l0-1
		l0.2-3.1l0.4-5.4l0.2-5.6l0.3-2.6l0.4-1.6l0.5-2.7l1.2-7.4l0.4,0.1l0.1-0.9l0.1-1l0.1-0.7l-0.3,0l0,0.1l-0.3,0l0.1-1l0.3,0.1
		l-0.1,0.7l0.3,0.1l0.2-0.9l-0.3,0l0.1-1.1l0.3,0.1l0.1-1.2l0-0.2L48,173l0.1-0.8l-0.6,0l0-0.4l-3-0.3l-0.1-0.1l-0.1-0.1l0.4-10.1
		l0.7,0l0.1-2.8l0.2,0l0,0.1l2.6,0.1l0.1-1.5l0.3,0l0.1-1.3l0.2-0.9l0.1-2l0-3l0.1-1.3l0-0.7l0.1-0.6l0.1-1.8l0.2-2.4l0-0.4
		l-0.1-0.6l-0.1-0.7l0.1-1l0-1.3l0.1-0.8l-0.1-0.6l-0.1-0.4l-0.2-0.9l-0.1-0.4l0-0.8l-0.2-0.4l0-0.3l-0.3-0.6l-0.1-0.7l-0.1-0.4
		l0-0.3l0-0.2l0-0.1l0.5-0.2l-0.1-0.1l-0.6,0.1l-0.2-0.1l0-0.1l-0.3-2.1l-0.6-3.3l0-0.6l-0.2-1.4l-0.1-0.8l0-0.6l-0.3-3.2l0-0.5
		l-0.2-1.3l0.2-0.7l0-0.3l0-1.8l0.1-0.4l0-0.3l-0.1-1l0-0.9l-0.1-0.4l-0.6-1.5l-0.9-1.5l-0.2-0.4l-0.5-0.6l-0.3-0.2l-0.1-0.2l-0.1,0
		l-0.1,0l-0.1-0.1l0-0.2l0.2-0.2l0-0.1l0-0.1l-0.1-0.2l-0.2-0.3L43,106l-0.2-0.1l-0.2-0.1l-0.7-0.7l-0.3-0.6l-0.1-0.4l0-0.4
		l-0.2-0.3l-0.1-0.8l-0.1-0.2l-0.5-0.8l-0.3-0.6l-0.2-0.6l-0.8-0.8l-0.6-0.8l-0.1-0.3l-0.5-0.7L38,97.4l0-0.5l0.1-1.1l0.1-0.4
		l0.1-0.1l0.1,0l0.3,0l0.1-0.1l0-0.1l-0.1-0.1l0,0l0.1,0l-0.1-0.1l-0.1-0.1l0-0.1l0.4-0.2l0.1,0l0.1-0.1l0.1-0.2l0.1-0.1l0.1-0.5
		l0.1-0.1l0.1-0.2l0-0.1l0-0.2l0.1-0.1l0.2-0.5l0.3-0.3l0.1-0.2l-0.1-0.2l0-0.1l0.1-0.1l0.2-0.1l0.1,0.1l0.1,0l0.1,0.1l0.1,0l0-0.1
		l0-0.3l0-0.2l0.3-0.1l0-0.2l0.1-0.2l0.4-0.3l0.3-0.3l0.4-1.1l0.2-0.5l0.4-1.8l0.2-1.3l0.1-1.7l-0.1-0.7l0-0.7l0-0.3l0-1l-0.1-0.4
		l0-0.9l0.1-1.3l-0.1-0.9l0-0.3l0.2-1.4l0.2-0.9l0.1-1.4l0.2-0.9l-0.1-0.1l0-0.6l0.1-1.5l0-1.1l0.2-0.9l0.1-0.7l0.2-0.4l0.2-0.5
		l-0.2-0.1l0-0.2l0.2-1.7l-0.1-0.3l0-0.5l0.2-0.6l-0.1-0.1l0-0.2l0-1.4l0.2-1.6l0-0.1l0.3-1.9l0.3-3.3l0.1-0.9l-0.1-0.7l0.2-0.8
		l0-0.2l-0.1-0.3l0-0.2l0.2-1l0-0.4l-0.1-0.4l0-0.3l0-0.5l0.1-0.4l0-0.3l0-0.9l0-0.5l0-1.1l-0.5,0l0-0.3l0.2,0l0,0.1l0.3,0l0-0.6
		l-0.1-0.7l0-0.1l-0.1-0.2l-0.1-0.3L45.3,42l-0.4,0l-0.3-0.7l-0.2-0.2l-0.2,0L44,41.2l-0.1-0.1l0-0.3l0.1-0.2l0.2-0.3l0-0.4l-0.6,0
		l-0.1-0.8l0.2,0l0.1,0.6l0.5,0l0-0.5L44,39l-0.3-0.2l-0.3-0.6l-0.2-0.5L43.1,37L43,36.5l0-0.3l-0.3-1l0-0.3l0.1-0.6l0-0.7l-0.2-0.9
		l0-0.5l0-1.1l0.1-1l0-2.1l0-1.2l0.2-1.4l0-3.2l0.3-0.7l0.3-1.2l0.3-1l0.1-0.1l0.5-0.4l0.3-0.4l0.3-0.8l0.5-1.9l0.1-0.1l0.1,0l0.2,0
		l0.2,0.1l0.1,0.2L46,16.2l0,0.1l0.1,0.2l0.2,0.2l0.1,0l0.2,0l0.6-0.1l0.3-0.1l0.6-0.6l0.2-0.3l0.1-0.5l0.2-0.2l0.3-0.1l0.5,0
		l0.5-0.1l0.4,0l0.4,0l0.2,0l0.1-0.1l0.4-0.3l0.4-0.2l0.3,0l0.2,0l0.1,0l0.2,0.2l0.8,0.2l0.3,0.2l0.1,0.1l0.2,0.5l0.3,0.6l0.1,0.4
		l0.3,0.5l0.1,0.3l0,0.2l0,0.8l0,0.3l0.1,0.2l0.5,1l0.6,0.9l0.1,0.2l0.2,0.1l0.2,0l0.1,0.2l0.3,0.3l0.5,0.4l0.3,0.2l1.1,0.4l0.2,0
		l0.2,0l0.1-0.1l0.1-0.1l0.2,0l0.2,0.2l0.1,0.2l0.1,0.1L61,22l0.1-0.1l0.4-0.5l0.1-0.2l0.1-0.4l-0.2-0.8l-0.2-0.3l-0.2-0.2L60,19.1
		l-0.1,0.1l-0.1-0.1l-0.1-0.1l-0.2,0.3l-0.1-0.1l0.2-0.3l-0.4-0.5l-0.4-0.4l-1.1-0.8l0-0.2l0.1-0.5l0.1-0.3l0.1-0.1l0.2,0l2.3,0.2
		l1.1,0l0.6,0.1l0.3,0.1l0,0l0,0.1l-0.1,0.4l0,0.2l0,0.7l0.1,0.4l0.3,0.7l0,0.2l0.2,0.1l0.7,0.5l0.2,0l0.7,0l0.1,0l0-0.1l-0.4-0.3
		l0-0.1l0-0.2l0.3-1.1l0.1-0.2l0.3-0.3l0.1-0.1l-0.1-0.1l-0.1,0.1l-0.2-0.1l0.9-1.6l0.1,0.1l-0.2,0.3l-0.5,1l0.1,0l0,0.1l0.1,0.1
		l0.2-0.4l0.4-0.5l0.6-0.8l0.3-0.3l0.3-0.5l0.3-0.3l0.3,0l0.7-0.4l0.4-0.1l0.4-0.2l1.1-0.1l0.6,0l0.5-0.1l1.1,0l0.8-0.1l0.5,0
		l0.4-0.1l0.4-0.1l1.5,0.1l0.1-0.1l0.2,0l1.1,0.4l0.2,0.1l0.5,0.1l0.5,0.4l0.3,0.3l0.6,0.3l0.6,0.6l0.2,0.2l0.7,1.1l0.1,0.3l0.1,0.1
		l-0.1,0.4l0,0.9l0.2,0.2l0.3,1.1l0.3,0.6l0.3,0.9l0,0.1l0.2,0.2l0,0.3l0.1,0.3l0,0.1l-0.2,0l-0.6,0l-0.1,0l0,0.1l0,0.2l0.1,0.1
		l0.5,0.1l0.2,0l0.1,0.1l0.2,0l0.1,0.7l0,0.1l-0.1,0.1l-0.1,0.2l0.2,0.5l0.1,1l-0.2,0.5l0.1,0.4l0,0.3l-0.1,0.2l0.1,0.1l0,0.1
		l-0.1,0.9l-0.2,1.1L82,31l0,0.1l0.3,0l0,0.1L81.9,36l-0.1,0.4l-0.3,0.3l-0.4,0.3l-0.9,0.6L80.1,38l-0.6,0.4l-0.3,0.4l-0.4,0.3
		l0,0.1l0.2,0.2l0.2-0.1l0.4,0l0.3-0.2l0.1,0l0.1,0l0.4,0.2l0.1,0.1l0.2,0.5l-0.2,0.5l0,0.6l0.2,0.3l0.2,0l-0.2,0.8l-0.1,0l-0.1,0.4
		l-0.2,0.8l-0.3,0.8l-0.3,0.6l-0.1,0.4l-0.3,0.3l-0.2,0.4L79,46.9l0,0.6l-0.2,0.9l0.1,0.4l0,0.3l0,0.1l0,0l0,0.1l-0.1,0.6l-0.2,1.1
		l0.1,0.1l0.1,0.4l0,0.2l-0.1,0.4l0,0.2l-0.1,0.2l0,0.1l0,0.4L78.5,54l-0.2,1.1l0,0L76.6,55l-0.1,0l0-0.2l-0.2,0L76.2,55l-0.1,0
		l-0.2-0.1l-0.2,0l-1.7-1.4l-0.6-0.4l-0.1,0l-0.1,0l-0.1,0.3l0,0.4l0.1,0.2l0,0.3l-0.1,0.1l0,0.2l0.1,0.1l0,0.2l0.1,0.1l0,0.2
		l0.2,0.3l-0.1,0.3l0,0.2l0.1,0.1l0.1,0.1l0.5,0l0.4,0l0.5,0.1l0.1,0.1l0,0.2l0,0.1l0.3,0l0.1,0l0.1,0.3l0.2,0.3l0.1,0.1l0.2,0
		l0.3,0.2l0.2,0l0,0.2l0.1,0.3l0,0.1l-0.2,0.2l0,0.2l-0.1,0.1l0,0.7l0,0.5l-0.2,0.2l-0.1,0.3l0,0.1l0.2,0.3l0,0.1l-0.1,0.1L76,61.4
		l-0.1,0.2l-0.1,0.5l0.2,0l0.1,0.1l0,0.1l-0.3,0.2l-0.1,0.2l0.1,0.1l0.1,0l0,0.1l0,0.1L75.8,63l0,0.1l0.1,0.4l0.2,0.5l0.1,0.1
		l0.3,0.2l0,0.2l0,0.2l0.2,0.1l-0.2,1.5l-0.3,3l-0.3,3.4l-0.2,3.5L75.3,83l-0.1,1.2l-0.3,5.5l-0.4,6.4l0,1.2l0.1,1.2l0.7,4.7
		l0.1,5.5l0.2,9.7l0.1,1.4l0.1,1l0.1,0.7l0,0.2l-0.1,0.2l0,0.1l0,0.6l0.1,1.2l0.5,1.2l0.2,0.9l0.9,2.5l0.3,0.7l0.1,0.1l0.1,0.3
		l0.1,0.1l0,0.2l0.8,1.7l2.7,4.8l0.2,0.1l0.4,0.6l0.3,0.3l0.1,0.2l0.1,0l0.1,0.3l0,0.1l0.2,0.2l0.5,1l0.4,0.9l1.6,2.8l-0.1,0.1
		l2.1,3.7l1.2,2.5l2.3,4.5l3.1,6.3l0.3,0l1.7,3.6l1.5,3.5l1.1,2.6l0,0.1l-0.2,0.1l0,0.1l0.1,0.1l0.3,0.7l0.6,1.7l0.1,0.1l0.2-0.1
		l0.4,0.9l1.4,3.7l0.6,1.7l0.7,2.4l0.9,2.4l0.5,1.1l0.7,1.1l0.1,0.1l0.4,0.5l0.2,0.3l0.3,0.3l0.2,0.3l1.7,1.6l1.9,1.2l4.8,2.9
		l0.8,0.6l2.7,2.1l0.4,0.4l0.6,0.5l0,0.4l1.1,1l1,1.1l1,1.2l0.5,0.7l0.4,0l1.6,2.9l1.5,3.7l1.5,3.7l0.5,2.4l-0.3,3.8l-2.8,4.8
		l-1,1.8l-0.3,0.7l-1.3,3l-0.4,1l-0.5,1.5l-0.4,5.1l0,0.1l2.1,0.2l0,0.4l-2-0.2l0.4,4.1l0,1.5l-1,6l-0.9,1.6l-1.3,2l-1,1.7l-0.8,1.8
		l-0.1,1.3l0,0.4l0,0.3l0.1,0.5l0.6,2.3l0.4,0.9l1.7,2.5l1.7,1.8l0-0.1l-0.1,0l0-0.4l0-0.1l0.1,0l0-0.5l0.1,0l0.1,0.1l0.3,0l0-0.1
		l0.1,0l0.3,0.4l0,0.3l0.4,0l0.1,0.1l-0.1,1.4l0.9,1l1.1,1.6l0.9,0.1l0.4,0.1l0,0l0,0.3l-0.5,0l0.3,0.1l0.2,0.2l0.6,1.1l0.2,0.2
		l0.2,1.1l-0.4,0.7l0.2,1.5l0,0.8l-0.1,1.3l-0.2,1.3l-0.5,2.9l-0.4,2l-1.2,3.6l-0.1,0.5l-0.6,3.2l-0.8,4.4l-0.3,3.5l-0.1,0.6l0.1,0
		l-0.5,2.8l-0.1,0l-2.3,13.8L118.6,316.5z M67.6,503.8L67.6,503.8L67.6,503.8l0.4-0.3l0,0L67.6,503.8z M54.8,447.1l-0.6,0.1
		l-4.7,1.4l-0.1-0.1l-0.2-0.7l0-0.1l5.9-1.8l0.3,1.2L54.8,447.1z M89.3,496.8L89.3,496.8l0.8,0.3l0,0l0,0L89.3,496.8L89.3,496.8z
		 M90.2,497.2l0.7,0.4l0-0.1l0.1,0.1l0,0L90.2,497.2L90.2,497.2z M63.4,498.5l-0.1,0.1l0,0l0-0.2l0.1,0L63.4,498.5L63.4,498.5l0-0.1
		l0.1,0L63.4,498.5z M63.2,498.5L63.2,498.5l-0.1,0l-0.1,0l-0.1-0.1l0.1,0l0,0.1l0-0.1l0.1,0L63.2,498.5z M60.8,483.4l-0.2-0.7
		l0.2,0.3l0.3,0.3L60.8,483.4z M33.1,353.3L33.1,353.3l0.2,0.1l0-0.1L33.1,353.3z M32.6,378l0,0.5l-0.1,0l0,0.3l0.3,0l0-0.3l-0.1,0
		L32.6,378L32.6,378z M32.4,377.5l-0.5-0.1l0,0L32.4,377.5l0.1-0.1l0,0l0-0.1L32.4,377.5z M91.9,491.3l0.1-0.1l-0.6-0.3l0,0.1
		L91.9,491.3z M94.7,489.8l0.7,0.3l0-0.1L94.7,489.8L94.7,489.8z"/>
</g>
</svg>
