<?xml version="1.0" encoding="utf-8"?>
<!-- Generator: Adobe Illustrator 18.1.1, SVG Export Plug-In . SVG Version: 6.00 Build 0)  -->
<!DOCTYPE svg PUBLIC "-//W3C//DTD SVG 1.1//EN" "http://www.w3.org/Graphics/SVG/1.1/DTD/svg11.dtd">
<svg version="1.1" id="Layer_1" xmlns="http://www.w3.org/2000/svg" xmlns:xlink="http://www.w3.org/1999/xlink" x="0px" y="0px"
	 width="272.2px" height="213px" viewBox="-259 200 272.2 213" enable-background="new -259 200 272.2 213" xml:space="preserve">
<polygon fill="none" stroke="#CBCDCE" stroke-width="2" stroke-linecap="round" stroke-linejoin="round" stroke-miterlimit="10" points="
	-57.7,401.6 -59.1,402.1 -58.6,397.8 -56.3,395.3 -55.2,395.5 -54.8,396.8 -54.9,398.1 -56.3,400.4 "/>
<polygon fill="none" stroke="#CBCDCE" stroke-width="2" stroke-linecap="round" stroke-linejoin="round" stroke-miterlimit="10" points="
	-10.5,369.9 -12.1,373.1 -10,372.8 -8.5,371.6 -7.3,369.7 -4.1,366.6 -1.2,364.8 -0.2,364.4 1.7,365.5 4.3,363.5 7.3,362 
	-4.3,372.3 -6.9,373.8 -10.3,376.8 -13.6,379.2 -16.2,380.4 -28.2,388.8 -29.2,389.1 -30.5,388.9 -40.9,394.2 -45.3,395.6 
	-49.2,397.5 -46.7,394.6 -46.8,393.8 -47.6,393.4 -49.2,393.9 -50.4,396.5 -52.9,397.9 -54,395.6 -53.5,393.6 -52.7,391.6 
	-50.7,388.2 -47.4,385.6 -45.8,383.6 -44.2,384.6 -44.3,382.8 -43.5,381.5 -42.6,380.7 -39.9,380 -38.6,379.4 -37.7,378.5 
	-36.6,378.2 -33.5,378.3 -30.7,377.3 -28.7,375.7 -26.4,374.7 -20.2,372.9 -14.1,370.5 -12,368.4 -7.8,363.1 -5.1,361.2 -8.6,367.1 
	"/>
<polygon fill="#FFFFFF" stroke="#CBCDCE" stroke-width="2" stroke-linecap="round" stroke-linejoin="round" stroke-miterlimit="10" points="
	-76.6,210.9 -75.7,213.6 -75.5,216.9 -74.2,220.3 -73.1,227.8 -69.9,233 -69.4,236.9 -68.3,240.9 -68.4,242 -69.3,244.7 
	-69.6,247.2 -69.5,249.6 -69.1,251.1 -66.2,257.5 -65.3,260.4 -64.9,262.1 -64.7,267.9 -64.4,269.5 -63.9,269.8 -63.5,269.8 
	-62.7,267.7 -62.2,267.3 -61.4,267.6 -59,269.8 -57.9,274.5 -57.2,277.9 -56.3,281.7 -55.1,287.3 -54.2,291.5 -53.3,295.3 
	-52.7,298.2 -52.6,300.4 -51.1,302.8 -51.2,306.4 -51.4,310.1 -51.5,313.8 -51.6,317.5 -51.7,321.2 -51.8,324.9 -51.9,328.6 
	-52.1,332.3 -51,333.1 -50.3,337.1 -49.6,341.1 -48.9,345 -48.2,349 -47.5,353 -46.8,357 -46.1,360.9 -45.4,364.9 -44.1,366.3 
	-42.8,367.6 -43.8,368.7 -45.3,370.2 -46.9,371.9 -49,374.1 -47.2,375.9 -45,378.1 -46,379.5 -48.5,383.9 -50.3,386.3 -51.9,387.4 
	-52.7,389.3 -53.7,390.6 -53.3,386.8 -52.8,383.4 -53.1,377.3 -54.5,372.6 -56.3,370.9 -58,369.9 -55.3,374.3 -53.7,380 
	-53.6,380.1 -57,379 -60.5,377.8 -64,376.6 -67.5,375.4 -71,374.2 -74.5,373.1 -77.9,371.9 -81.4,370.7 -82.4,369.3 -83.8,368.3 
	-89.7,367.5 -91.5,366.4 -93.2,364.8 -94.5,362.7 -95.5,360.4 -96,358.5 -96.1,356.3 -97.6,355.1 -98,353.8 -99,353.1 -102.9,352.2 
	-104.5,350.2 -107.3,348.6 -111.5,349.5 -115.7,350.4 -119.9,351.4 -124.1,352.3 -128.3,353.1 -132.5,354 -136.7,354.9 
	-140.9,355.8 -145.1,356.7 -149.4,357.5 -153.6,358.4 -157.8,359.3 -162,360.1 -166.2,360.9 -170.4,361.8 -174.7,362.6 
	-178.9,363.4 -183.1,364.2 -187.3,365.1 -191.5,365.9 -195.8,366.7 -200,367.5 -204.2,368.2 -208.4,369 -212.7,369.8 -216.9,370.6 
	-221.1,371.3 -225.4,372.1 -229.6,372.8 -233.8,373.6 -238.1,374.3 -242.3,375 -243.3,369.4 -244.3,363.8 -244.3,363.6 
	-242.7,362.2 -237.5,357.4 -235,354.1 -232.3,351.3 -229.4,348.9 -227.3,346.1 -225.9,342.9 -224.2,340.4 -222.2,338.6 
	-221.2,336.9 -221.3,335.4 -222.1,333.4 -223.6,330.9 -224.1,328.9 -223.6,327.3 -223.7,326.2 -224.2,325.8 -229.2,325.2 
	-229.2,325.2 -230.3,318 -230.4,317.8 -230.2,317.6 -219.8,312.5 -213,310.1 -204.6,308.2 -194.2,307.8 -190,308.5 -187.1,309.8 
	-184.2,309.7 -181.1,308.2 -176.6,307.1 -170.8,306.2 -167.7,306 -167.1,306.5 -166.8,306.2 -166.6,305.2 -165.2,303.9 
	-161.2,301.5 -160.6,301.7 -159.9,300.8 -159,298.7 -157.3,296.2 -154.5,293.4 -151.9,291.6 -149.3,291 -147.7,290.1 -147.1,288.9 
	-147,288 -147.5,287.3 -147.5,286.4 -147.4,285.9 -147.6,285.6 -148.1,285 -149.1,281.4 -150,279.8 -150.9,278.7 -152,278.1 
	-152.1,277.2 -150.7,275.8 -150.7,276.8 -150.2,277 -149.6,276.4 -148.4,273.9 -148.3,273.1 -147.4,272 -146.9,270.5 -147.8,270.5 
	-149.9,271.4 -150.5,271.1 -149.7,269.1 -150.2,268.2 -150.6,267.8 -151.4,267.8 -153.5,269.8 -154.2,270.1 -154.5,269.4 
	-156.1,267.8 -153.4,263.9 -143.3,252.5 -142.4,250.9 -142.2,249.6 -142.8,248.6 -143.2,248.5 -143,248.2 -134.1,234.3 
	-128.7,227.6 -124,223.5 -120.3,221.2 -117.5,220.8 -116,220.2 -114.7,219.9 -107.9,218.4 -95.8,215.5 -83.7,212.6 "/>
</svg>
