<?xml version="1.0" encoding="utf-8"?>
<!-- Generator: Adobe Illustrator 18.1.1, SVG Export Plug-In . SVG Version: 6.00 Build 0)  -->
<!DOCTYPE svg PUBLIC "-//W3C//DTD SVG 1.1//EN" "http://www.w3.org/Graphics/SVG/1.1/DTD/svg11.dtd">
<svg version="1.1" id="Layer_1" xmlns="http://www.w3.org/2000/svg" xmlns:xlink="http://www.w3.org/1999/xlink" x="0px" y="0px"
	 width="345px" height="248px" viewBox="-223 183 345 248" enable-background="new -223 183 345 248" xml:space="preserve">
<polygon fill="none" stroke="#919191" stroke-linecap="round" stroke-linejoin="round" stroke-miterlimit="10" points="52.5,290.5 
	52.6,291.5 52.8,292.4 52.9,293.4 53.1,294.4 53.7,293.7 54.1,293.4 55.1,292 55.3,291.9 55.8,292 56.5,291 56.5,290.6 56.6,290.5 
	56.7,290.5 56.8,290.6 56.8,290.8 56.9,290.8 57.3,291 57.8,291 57.9,291 58.4,290.9 58.6,290.7 58.6,290.3 58.8,290.1 59.2,289.9 
	60,289.4 60.5,289.4 60.9,289.7 61.4,289.7 61.8,289.7 62,289.7 61.9,289.9 62,290.1 62.4,290.3 62.6,290.5 62.5,290.7 62.6,290.8 
	62.7,290.9 62.9,291.1 63,291.4 63.1,291.5 62.9,292.5 62.7,293.1 62,292.7 60.8,292.1 60.4,291.8 59.5,291.3 59.4,291.7 
	59.4,292.3 59.3,292.9 59.3,293.7 58.6,295 58.1,295.7 57.9,295.8 57.7,295.9 57.5,296.3 57.2,296.7 56.5,296.8 56.3,297.1 
	56.1,297.5 56,298.1 55.8,298.5 55.7,299.3 55.5,299.7 55.2,300 54.6,300 54,299.9 53.8,299.6 53.6,299.4 53.3,299.3 53.1,299.4 
	52.9,299.6 52.8,300.7 52.5,301.3 52.4,301.9 52,302.6 51.8,303.7 50.8,305.6 50.6,306.2 50.4,306.8 50.6,307 50.7,307.2 
	50.5,307.7 50.5,308.1 50.2,308.5 49.7,308.8 49.5,308.6 49.4,308.6 48.2,309.3 47.9,309.4 47.6,309.3 47.4,309.3 47.3,309.4 
	47.3,309.5 47.4,309.9 47.1,310.2 47,310.3 46.3,310.5 45.6,310.8 45.3,310.9 44.5,310.4 44.2,310.9 43.8,311.2 43.4,311.6 
	43.2,311.6 42.8,311.6 42.2,311.3 41.7,311.1 41.4,311 41.1,310.7 40.9,310.2 40.7,309.9 40.7,309.7 40.6,309.4 39.8,309.3 
	38.6,308.6 37.8,307.6 37.5,307.1 37.2,306.8 37.1,306.5 36.3,305.7 36.1,305.3 36,305.1 36.2,304.6 36.2,304.4 36,303.3 
	35.8,303.1 36.5,303.2 37.1,303 37.5,302.6 37.6,302 37.7,301.7 38,301.5 38.1,301.3 38,300.7 37.8,300.3 38,299.7 38.4,298.7 
	38.8,298.3 39.1,298.4 39.3,298.6 39.4,299 39.5,299.1 39.6,299 39.8,298.7 39.9,298.6 40,298.6 40.1,298.6 40.1,298.4 39.9,297.8 
	39.8,297.5 40,297.4 40.1,297 40.2,296.3 40.5,296 40.7,295.9 41,295.6 41.3,295.1 41.6,294.9 41.9,295 42.2,295 42.6,294.8 
	43.2,294.1 44.1,293.1 44.5,292.3 44.4,291.7 44.6,290.4 45.1,288.1 45.2,286.7 45.1,286.1 44.9,285.6 44.6,285.3 44.7,284.9 
	45.3,284.5 45.5,285.4 45.6,286.2 45.8,287.1 45.9,288 46.1,288.9 46.2,289.8 46.3,290.6 46.5,291.5 47.2,291.4 48,291.3 
	48.7,291.1 49.5,291 50.2,290.9 51,290.8 51.7,290.6 "/>
<polygon fill="none" stroke="#919191" stroke-linecap="round" stroke-linejoin="round" stroke-miterlimit="10" points="77,272.7 
	76.6,273.1 76.5,273.3 76.4,273.6 76.2,274.5 75.7,275.4 75.2,275.9 75.3,276.2 75.7,276.7 75.7,277 75.6,277.4 75.3,277.7 
	75.3,277.9 75.4,278.4 75.5,279.1 75.7,279.2 76.2,279.3 76.7,280.2 77.1,280.2 78.9,281.8 78,282.6 77.5,283.2 77.2,283.5 
	76.8,284.3 76,284.7 75.6,285.1 75.5,285.2 75,285.1 74.3,285.3 74.1,285.4 73.9,285.7 73.6,286.4 72.3,286.6 71,286.9 69.7,287.2 
	68.3,287.5 67,287.7 65.7,288 64.4,288.3 63.1,288.5 61.7,288.8 60.4,289 59.1,289.3 57.8,289.5 56.5,289.8 55.1,290 53.8,290.3 
	52.5,290.5 51.7,290.6 51,290.8 50.2,290.9 49.5,291 48.7,291.1 48,291.3 47.2,291.4 46.5,291.5 46.3,290.6 46.2,289.8 46.1,288.9 
	45.9,288 45.8,287.1 45.6,286.2 45.5,285.4 45.3,284.5 45.2,283.7 45.1,282.9 44.9,282.1 44.8,281.3 44.7,280.5 44.5,279.7 
	44.4,278.9 44.3,278.1 44.2,277.3 44,276.5 43.9,275.7 43.8,274.9 43.7,274.3 44.6,273.8 45,273.4 45.5,273.1 45.7,272.9 
	45.9,272.7 47.5,271.4 47.5,271.5 47.7,272.5 47.9,273.5 48.6,273.4 49.4,273.3 50.2,273.1 50.9,273 51.7,272.8 52.5,272.7 
	53.2,272.6 54,272.4 54.8,272.3 55.5,272.1 56.3,272 57.1,271.9 57.8,271.7 58.6,271.6 59.3,271.4 60.1,271.3 60.9,271.1 61.6,271 
	62.4,270.8 63.2,270.7 63.9,270.5 64.7,270.3 65.5,270.2 66.2,270 67,269.9 67.7,269.7 68.5,269.6 69.3,269.4 70,269.2 70.8,269.1 
	71.6,268.9 72.3,268.7 72.8,269 73.1,269.4 73.8,269.5 74,269.7 74.1,269.9 74.3,270.1 74.4,270.5 74.4,270.9 74.6,271.3 
	74.9,271.7 75.2,272 75.5,272.1 76.6,272.3 76.8,272.5 "/>
<polygon fill="none" stroke="#919191" stroke-linecap="round" stroke-linejoin="round" stroke-miterlimit="10" points="45.3,284.5 
	44.7,284.9 44.6,285.3 44.9,285.6 45.1,286.1 45.2,286.7 45.1,288.1 44.6,290.4 44.4,291.7 44.5,292.3 44.1,293.1 43.2,294.1 
	42.6,294.8 42.2,295 41.9,295 41.6,294.9 41.3,295.1 41,295.6 40.7,295.9 40.5,296 40.2,296.3 40.1,297 40,297.4 39.8,297.5 
	39.9,297.8 40.1,298.4 40.1,298.6 40,298.6 39.9,298.6 39.8,298.7 39.6,299 39.5,299.1 39.4,299 39.3,298.6 39.1,298.4 38.8,298.3 
	38.4,298.7 38,299.7 37.8,300.3 38,300.7 38.1,301.3 38,301.5 37.7,301.7 37.6,302 37.5,302.6 37.1,303 36.5,303.2 35.8,303.1 
	35.7,303.1 34.8,302.5 34.2,301.9 33.9,301.3 33.2,301.4 32.1,302.1 31.2,302.3 30.6,302 30.1,301.9 29.7,302.1 29.3,302.4 
	28.9,302.3 28.4,301.9 27.6,301.6 26.6,301.6 25.9,301.1 25.4,300.4 25,299.8 24.5,299.6 24,299.5 23.5,299.7 23.1,299.7 
	22.8,299.5 22.5,299.5 22.2,299.8 21.9,297.3 21.6,294.8 21.4,292.3 21.1,289.8 20.8,287.3 20.5,284.9 20.3,282.4 20,279.9 
	21.9,279.6 23.7,279.3 25.6,279 27.5,278.7 27.5,278.6 27.5,278.6 27.6,278.8 28.1,278.8 28.5,278.9 28.8,279.1 29.8,279.4 
	30.2,279.7 30.5,279.8 30.8,279.8 31,279.7 31,279.4 31.2,279.4 31.4,279.6 32,279.7 32,279.7 30.5,280.3 30.2,280.5 30.6,280.6 
	31,280.5 31.4,280.3 31.8,280.2 32.2,280.2 32.3,280.1 32.4,280.1 33.1,280.5 33.4,280.5 33.6,280.4 33.8,280.2 34.4,279.9 
	35.3,279.5 36.1,279.2 37,279.2 37.5,279 37.9,278.7 38.9,277.6 40,276.6 41.8,275.4 43.7,274.3 43.8,274.9 43.9,275.7 44,276.5 
	44.2,277.3 44.3,278.1 44.4,278.9 44.5,279.7 44.7,280.5 44.8,281.3 44.9,282.1 45.1,282.9 45.2,283.7 "/>
<path fill="none" stroke="#919191" stroke-linecap="round" stroke-linejoin="round" stroke-miterlimit="10" d="M81.3,278.3l-0.3,0.1
	l0.1-0.8l0.4-0.4h0.2l0.1,0.3v0.2l-0.3,0.4L81.3,278.3z M89.8,272.6l-0.3,0.6h0.4l0.3-0.2l0.2-0.4L91,272l0.5-0.3l0.2-0.1l0.3,0.2
	l0.5-0.4l0.5-0.3l-2,1.9l-0.5,0.3l-0.6,0.5l-0.6,0.4l-0.5,0.2l-2.2,1.5l-0.2,0.1h-0.2l-1.9,1l-0.8,0.2l-0.7,0.3l0.5-0.5v-0.1
	l-0.2-0.1l-0.3,0.1l-0.2,0.5l-0.5,0.2l-0.2-0.4l0.1-0.4l0.1-0.4l0.4-0.6l0.6-0.5l0.3-0.4l0.3,0.2v-0.3l0.1-0.2l0.2-0.1l0.5-0.1
	l0.2-0.1l0.2-0.2l0.2-0.1h0.6l0.5-0.2l0.4-0.3l0.4-0.2l1.1-0.3l1.1-0.4l0.4-0.4l0.8-1l0.5-0.3l-0.6,1.1L89.8,272.6z M51.1,265
	l-0.1,0.3h-0.2l-0.1-0.1l-0.1-0.2v-0.2l0.1-0.1h0.4v0.1L51.1,265z M64.1,254.9L64.1,254.9l-0.1-0.1l0.1-0.1l0.1-0.1v0.1L64.1,254.9z
	 M64.5,252.5l-0.2,0.1l-0.1-0.1v-0.1l0.1-0.1h0.2v0.1V252.5z M77.9,243.8l0.2,0.5v0.6l0.2,0.6l0.2,1.4l0.6,0.9l0.1,0.7l0.2,0.7v0.2
	l-0.2,0.5l-0.1,0.5v0.4l0.1,0.3l0.5,1.2l0.2,0.5l0.1,0.3v1l0.1,0.3l0.1,0.1h0.1l0.2-0.4l0.1-0.1h0.1l0.4,0.4l0.2,0.8l0.1,0.6
	l0.2,0.7l0.2,1l0.2,0.8l0.2,0.7l0.1,0.5v0.4l0.3,0.4v0.7v0.7v0.7v0.7v0.7v0.7v0.7v0.7l0.2,0.1l0.1,0.7l0.1,0.7l0.1,0.7l0.1,0.7
	l0.1,0.7l0.1,0.7l0.1,0.7l0.1,0.7l0.2,0.2L84,272l-0.2,0.2l-0.3,0.3l-0.3,0.3l-0.4,0.4l0.3,0.3l0.4,0.4l-0.2,0.2l-0.4,0.8l-0.3,0.4
	l-0.3,0.2l-0.1,0.3L82,276l0.1-0.7l0.1-0.6l-0.1-1.1l-0.3-0.8l-0.3-0.3l-0.3-0.2l0.5,0.8l0.3,1l0,0l-0.6-0.2l-0.6-0.2l-0.6-0.2
	l-0.6-0.2l-0.6-0.2l-0.6-0.2l-0.6-0.2l-0.6-0.2l-0.2-0.3l-0.3-0.2l-1.1-0.2l-0.3-0.2l-0.3-0.3l-0.3-0.4l-0.2-0.4l-0.1-0.3v-0.4
	l-0.3-0.2l-0.1-0.2l-0.2-0.1l-0.7-0.1l-0.3-0.4l-0.5-0.3l-0.8,0.2l-0.8,0.2l-0.8,0.2l-0.8,0.2l-0.8,0.2l-0.8,0.2l-0.8,0.2l-0.8,0.2
	l-0.8,0.2l-0.8,0.2l-0.8,0.2l-0.8,0.2l-0.8,0.2l-0.8,0.2l-0.8,0.2l-0.8,0.2l-0.8,0.1l-0.8,0.1l-0.8,0.1l-0.8,0.1l-0.8,0.1l-0.8,0.1
	l-0.8,0.1l-0.8,0.1l-0.8,0.1l-0.8,0.1l-0.8,0.1l-0.8,0.1l-0.8,0.1l-0.8,0.1l-0.8,0.1l-0.8,0.1l-0.2-1l-0.2-1l0,0l0.3-0.2l0.9-0.9
	l0.4-0.6l0.5-0.5l0.5-0.4l0.4-0.5l0.3-0.6l0.3-0.5l0.4-0.3l0.2-0.3v-0.3l-0.1-0.4l-0.3-0.4L50,265l0.1-0.3v-0.2l-0.1-0.1l-0.9-0.1
	l0,0l-0.2-1.3l0,0l0,0l1.9-0.9l1.2-0.4l1.5-0.3l1.9-0.1l0.8,0.1l0.5,0.2h0.5l0.6-0.3l0.8-0.2l1.1-0.2h0.6l0.1,0.1h0.1v-0.2l0.2-0.2
	l0.7-0.4h0.1l0.1-0.2l0.1-0.4l0.3-0.4l0.5-0.5l0.5-0.3l0.5-0.1l0.3-0.2l0.1-0.2v-0.2l-0.1-0.1v-0.2v-0.1v-0.1l-0.1-0.1l-0.2-0.6
	l-0.2-0.3l-0.2-0.2l-0.2-0.1v-0.2l0.2-0.2v0.2h0.1l0.1-0.1l0.2-0.5v-0.2l0.2-0.2l0.1-0.3h-0.2l-0.4,0.2l-0.1-0.1l0.1-0.4l-0.1-0.2
	l-0.1-0.1h-0.1l-0.4,0.4l-0.1,0.1l-0.1-0.1l-0.3-0.3l0.5-0.7l1.8-2.1L66,251v-0.2l-0.1-0.2h-0.1v-0.1l1.6-2.5l1-1.2l0.8-0.7l0.7-0.4
	l0.5-0.1l0.3-0.1l0.2-0.1l1.2-0.3l2.2-0.5l2.2-0.5L77.9,243.8z"/>
<polygon fill="none" stroke="#919191" stroke-linecap="round" stroke-linejoin="round" stroke-miterlimit="10" points="20,279.9 
	20.3,282.4 20.5,284.9 20.8,287.3 21.1,289.8 21.4,292.3 21.6,294.8 21.9,297.3 22.2,299.8 22.1,299.9 22,300.3 22.2,300.6 
	22.2,300.9 22.1,301.1 22.2,301.2 22.5,301.3 22.6,301.5 22.6,301.9 22,302.4 21,302.9 20.7,303.1 20.5,303.1 20.4,303.1 
	20.4,303.1 20.3,303.1 20,302.9 19.7,302.9 19.1,303 18.9,303.4 19.1,304 19,304.6 18.5,305 18.2,305.5 18,306.1 17.7,306.5 
	17.2,306.7 16.9,307.2 16.7,308.2 16.4,308.8 16.1,309.1 15.6,309.1 14.9,308.8 14.5,308.5 14.4,308.1 14.2,307.9 14,307.8 
	13.9,307.8 13.9,307.9 14,308 13.9,308.1 13.5,308.2 13.4,308.3 13.5,308.6 13.4,308.8 13.2,308.9 13.1,309.2 13.1,309.6 13,309.9 
	12.7,310.3 12.3,310.2 11.7,309.7 11.1,309.7 10.5,310 10.1,310.5 9.8,311 9.6,311.1 9.1,310.8 8.1,310.4 7.6,310.3 7.2,310.4 
	7,310.4 6.9,310.3 6.8,310.2 6.7,310.3 6.8,310.8 6.7,311.1 6.5,311.2 6.4,311.1 6.3,310.8 6.1,310.7 5.8,310.9 5.4,310.8 
	5.1,310.7 5,310.7 4.9,310.8 5,311.2 5,311.4 4.8,311.6 4.6,311.7 4.3,311.6 4.2,311.7 3.8,311.1 3.8,310.9 4,310.9 4.1,310.6 
	4,310 4.1,309.7 4.3,309.5 4.3,309.4 4.2,309.3 4.2,309.2 4.5,309 4.5,308.7 4.3,308.4 4.3,308.2 4.4,307.9 4.6,307.8 4.9,307.8 
	5.1,307.4 5.3,306.8 5.6,306.4 5.9,306.2 6.1,305.7 6.3,304.7 6.6,304.2 6.6,303.6 6.5,302.9 6.2,302.2 5.8,301.4 5.6,301 
	5.8,300.8 5.8,300.4 5.8,300 5.9,299.6 6.1,299.3 6.1,299.3 6,297.1 5.8,294.8 5.6,292.5 5.4,290.2 5.2,287.9 5,285.6 4.8,283.3 
	4.6,281.3 4.6,281.3 4.9,281.5 5.1,281.6 5.2,281.6 5.3,281.8 5.6,281.9 6.2,281.8 6.7,281.7 7.2,281.5 8.3,280.7 9.7,280.6 
	11.4,280.4 13.1,280.2 14.8,280 16.5,279.8 18.2,279.6 19.9,279.4 "/>
<path fill="none" stroke="#919191" stroke-linecap="round" stroke-linejoin="round" stroke-miterlimit="10" d="M5,254.2l-0.1,0.1
	H4.7l-0.1,0.1l0.1,0.3v0.2H4.6v0.1l0.1,0.1v0.2l-0.1,0.2l-0.1,0.1H4.4l-0.1,0.2l-0.2,0.5v0.3l0.1,0.1v0.1l-0.4,0.7l-0.2,0.1
	l-0.2-0.1l-0.2-0.2L3.1,257v-0.2v-0.2l0.4-0.6l0.2-0.4l0.1-0.4l0.2-0.3l0.3-0.1l0.2-0.3l0.1-0.4l0.2-0.2H5l0.1,0.1L5,254.2z
	 M5.7,253.3l-0.2,0.1H5.2l-0.1-0.2l0.1-0.4l0.1,0.1h0.3h0.1v0.1L5.7,253.3z M-15.6,244l-0.3,0.1H-16V244l0.1-0.2l0.7-0.5h0.1v0.1
	l-0.3,0.2l-0.1,0.1v0.1L-15.6,244z M-14.8,242.9L-15,243h-0.4v-0.1l0.4-0.2l0.2-0.1v0.1V242.9z M-16,243.4l-0.2,0.5l-0.1,0.4v0.3
	l-0.1,0.3l-0.3,0.5l0.1,0.1l0.8-0.4l0.1-0.1v-0.1l-0.1-0.1h0.1l0.7,0.4l0.4,0.2l0.4,0.1l0.3-0.1v0.1l0.1,0.3l0.3-0.1l0.1,0.2
	l0.2,0.1l0.3,0.1l0.2,0.3l0.2,0.3l0.2,0.3l0.2,0.3l0.7,0.1l0.7,0.1l0.7,0.1l0.7,0.1l0.7,0.1l0.7,0.1l0.7,0.1l0.7,0.1l0.4,0.2
	l0.4,0.2l0.4,0.2l0.4,0.2h0.6l0.5,0.1l0.7-0.1l0.7,0.1l1.1,0.3l0.3,0.3l0.1,0.2l-0.1,0.5l1.1,0.3l0.5,0.3l0.2,0.2v0.2l0.1,0.5
	l-0.1,0.3v0.4L0.6,253l-0.1,0.3v0.2l0.1,0.1h0.1l0.4-0.1l0.4-0.2l0.2,0.1v0.1v0.1l-0.2,0.8v0.3l0.2,0.3l0.2,0.3l0.3,0.1v0.2L2.1,256
	l-0.3,0.3L1,256.8l-0.1,0.3v0.2l-0.4,0.9l-0.2,0.6l-0.1,0.6l0.1,0.4l0.3,0.1l0.2-0.1l0.1-0.3l0.2-0.3l0.3-0.2l0.2-0.3l0.3-0.8
	l0.4-0.5h0.2h0.1l0.4-0.2h0.3l0.2,0.3l0.2,0.2l0.1,0.2l-0.1,0.4l-0.1,0.5l-0.2,0.5L3.2,260l-0.1,1v0.7l0.2,0.5l-0.1,0.4L2.9,263
	l-0.3,0.5l-0.2,0.6l-0.1,0.5v0.4l0.1,0.3l0.2,0.4v0.2l-0.3,1l-0.1,0.5v0.4l-0.1,0.4L1.8,269l-0.1,0.4v0.4l0.1,0.6v0.2v0.2l0.1,0.1
	v0.2l-0.1,0.3l0.1,0.2l0.2,0.1l0.1,0.3l0.1,0.4l0.1,0.4l0.2,0.3l0.1,0.4l-0.1,0.6v1.1v0.4l-0.7,0.1l-2.5,0.2l-2.5,0.2l-2.5,0.2
	l-2.5,0.2l-2.5,0.1l-2.6,0.1v-0.1l-0.2-0.7l-0.6-0.5l-1-0.3l-0.6-0.5l-0.3-0.7l-0.2-0.8l-0.1-0.9v-0.7l0.2-0.6l-0.1-0.4l-0.3-0.2
	L-17,270l-0.1-0.3l-0.1-0.5l-0.3-2.2l-0.3-1.1l-0.4-0.4l-0.7-0.5l-1.1-0.5l-0.7-0.5l-0.4-0.7l-0.8-0.8l-0.5-0.3l-0.5-0.1l-0.4-0.3
	l-0.3-0.4l-0.4-0.2l-0.5-0.1l-0.6-0.3l-0.7-0.6l0,0l-0.2-0.4l0.1-0.3l0.1-0.9v-0.3l-0.2-0.8l0.2-0.3l-0.1-1l0.1-0.3l0.3-0.8v-0.4
	l-0.1-0.5l-0.3-0.4l-0.7-0.4v-0.5l0.1-0.4l0.4-0.7l0.2-0.6l0.2-0.3l1.4-1l0.3-0.1l0.2-0.3l0.2-0.1v-1.1v-1.1v-1.1V245l0.4-0.1
	l0.1-0.3l0.3-0.4h0.1l0,0l0.2,0.2l0.5,0.3h0.4l0.4-0.1l1.7-0.6l0.5,0l0.7-0.6h0.1l0.3,0.1h0.1l0.9-0.7l0.3-0.1h0.2l0.3,0.2l0.1,0.2
	L-16,243.4z M-15.6,242.9L-15.6,242.9l-0.3-0.1v-0.1v-0.1h0.1l0.1,0.1L-15.6,242.9z M-14.2,242.1l-0.2,0.1l-0.1-0.1v-0.2l0.1-0.1
	h0.1l0.1,0.1L-14.2,242.1L-14.2,242.1z"/>
<path fill="none" stroke="#919191" stroke-linecap="round" stroke-linejoin="round" stroke-miterlimit="10" d="M-182,221.8l-0.1,0.2
	h-0.1l-0.1-0.3v-0.2l0.2-0.1L-182,221.8L-182,221.8z M-179.3,221.1l-0.1,0.2l-0.2,0.1l-0.1-0.1v-0.2l0,0l-0.3,0.2l0.1-0.5l0.2-0.5
	h0.1v0.4L-179.3,221.1z M-179.4,219.5l-0.1,0.1l-0.2-0.2v-0.2l0.1-0.3l0.1-0.2h0.1l0.1,0.1v0.1L-179.4,219.5z M-178.6,215.3v1
	l0.2-0.4l0.5,0.9l-0.1,0.4l-0.1,0.1h-0.2l-0.1-0.1l-0.1-0.3l-0.1-0.2l-0.3-0.2l-0.1-0.3V216l0.1-0.5v-0.2l-0.1-0.1l-0.1-0.2
	l-0.1-0.4v-0.1l0.2-0.3l0.4-0.4l0.3-0.2l0.1,0.1l0.1,0.2l0.1,0.3l-0.1,0.2l-0.9,0.1v0.1l0.3,0.2l0.1,0.1V215.3z M-179.2,213
	L-179.2,213l-0.3-0.1l-0.1-0.2v-0.2l0.2-0.4l0.2-0.1h0.1l-0.1,0.3l0.1,0.4L-179.2,213z M-180,212.2l0.1,0.3l-0.5-0.3l-0.2-0.2v-0.2
	v-0.5l0.1-0.1h0.3l0.3,0.7L-180,212.2z M-178.5,211.3v0.2l-0.2,0.1h-0.1l-0.2-0.3l-0.1-0.1v0.4l-0.1,0.1l-0.4-0.4v-0.2l0.2-0.2
	l0.3-0.1h0.1L-178.5,211.3z M-179.2,208.6l-0.1,0.1h-0.1v-0.1H-179.2z M-149.8,217.4l-0.3,1.2l-0.3,1.2l-0.3,1.2l-0.3,1.2l-0.3,1.2
	l-0.3,1.2l-0.3,1.2l-0.3,1.2l-0.3,1.2l-0.3,1.2l-0.3,1.2l0.1,1l-0.3,1.2l-0.2,1.2l-0.3,1.2l-0.1,0.1l-0.1,0.2v0.5l0.2,0.8v0.5
	l-0.2,0.3v0.5l0.1,0.4l-1.3-0.3l-1.4-0.3l-1.4-0.3l-1.4-0.3l-1.2-0.3l-1.4-0.4l-1.4-0.3l-1.3-0.3h-0.1h-0.2l-0.7,0.1l-1.3-0.2h-2.8
	l-1.3,0.3h-1.1l-2-0.2l-1.8-0.1l-0.7-0.2l-0.2-0.4l-0.8-0.4l-1.3-0.5l-1.2-0.1l-1.2,0.3h-0.4l0,0l-0.3-0.1l-1.8-0.8l-0.5-0.1
	l-0.3-0.5l0.1-0.6v-1.8l-0.2-1.1l-0.4-0.5l-0.4-0.3h-0.6l-0.1-0.1l-0.2-0.1l-0.4-0.5l-0.2-0.5l-1-0.3l-0.1-0.3l-1.1-0.1l-0.3-0.3
	h-0.6l0.3-0.6l0.2-0.9l0.3-0.8v0.7l0.2,0.8l0.4-0.7l0.4-0.9l-0.2-0.5l-0.5-0.4l0.1-0.9l1.6-0.3l-0.7-0.4l-0.2-0.4l-0.3-0.1l-0.1,0.2
	l-0.3,0.3v-0.5l0.1-0.5l0.1-0.9l-0.1-1.6l0.2-1.9l-0.1-1l-0.5-1.1l-0.1-0.6l0.2-1.3l0.4-0.9l0.1-0.7l0.4,0.2l0.8,0.8l1.1,0.8
	l0.3,0.4l0.5,0.4l3.3,1.4h0.2l0.5-0.1l0.2,0.1l0.3,0.6l0.2,0.1l0.3,0.1h0.3l0.5-0.2v0.1l-0.1,0.3v0.5l0.1,0.7v0.4l-0.9,0.9h-0.1
	l0.1-0.4l-0.1-0.1l-1.4,1.3l-0.6,0.7l-0.2,0.4l-0.1,0.2l0.1,0.1h0.4l0.6-0.2v-0.1h-0.5l-0.2-0.1l0.1-0.4l0.1-0.2l0.5-0.5l0.4-0.2
	l0.6-0.2l0.4-0.2l0.3-0.4l0.7-0.4l0.1-0.1l0.1-0.4l0.1-0.1l0.2,0.1l0.1,0.9l-0.2,0.3l-0.6,0.3l-0.1,0.1l-0.1,0.6h-0.1l-0.2-0.1h-0.1
	l0.3,0.7v0.5l-0.1,0.4l-0.4,0.8l-0.2,0.1l-0.2-0.1v-0.3l-0.1,0.1l-0.4,0.6l-0.1-0.1l0.1-0.8l-0.1-0.1l-0.6,0.2l-0.3,0.3l-0.3,0.5
	l-0.2,0.2l0.6,0.2h0.5l0.3,0.4h0.1l0.4-0.1l0.2-0.1l0.5-0.7l0.2-0.1l0.2,0.1l0.3-0.1l0.5-0.3l0.1-0.2l0.2-1l0.2-0.5v-0.2l-0.1-0.2
	l0.1-0.2l0.2-0.3l0.1-0.3v-0.3l0.1-0.3l0.5-0.5l0.1-0.2l0.5-0.5v-0.3l-0.2-0.4l-0.1-0.3l-0.1-0.4l-0.1-0.2h-0.1v0.7h-0.1l-0.4-0.5
	l-0.1-0.2v-0.3l0.1-0.2l0.3-0.1h0.3v-0.2l-0.2-0.7l-0.2-0.3l-0.2-0.2l-0.3-0.1l-0.1-0.1v-0.1l0.1-0.2h0.2l0.4,0.2l0.3-0.1v-0.2v-0.1
	l0.2-0.8v-0.7l-0.1-0.1h-0.1l-0.1,0.1l-0.3-0.1l-0.1-0.3l0.3-0.5v-1.1l0.5,0.1l2.1,0.6l2.1,0.6l2.1,0.6l2.1,0.6l2.1,0.6l2.1,0.5
	l2.1,0.5l2.1,0.5l2.1,0.5l2.1,0.5l2.1,0.5l2.1,0.5l2.1,0.5l0.5,0.1L-149.8,217.4z"/>
<path fill="none" stroke="#919191" stroke-linecap="round" stroke-linejoin="round" stroke-miterlimit="10" d="M-51.5,402.5
	l-0.1,0.3l-0.6-1.6l-0.9-3.7v-2.1l0.2-0.7l0.2,3l1,3.8L-51.5,402.5z M-52.7,393.9l-0.2,0.4l0.1-0.6l0.6-1.5l1.1-1.9l0.5-0.3
	l-1.3,2.1L-52.7,393.9z M-50.3,389.4h-0.1l0.3-0.6l0.1-0.2l0.5-0.8l0.3-0.1l0.1,0.3l-0.6,0.5L-50.3,389.4z M-48.6,387.5h-0.2
	l0.3-0.4l0.5-0.2l1.1-0.8l0.4-0.1l0.2-0.3h0.1l-0.1,0.3l-0.9,0.5L-48.6,387.5z M-37,379.9l-0.3,0.1l1.4-1.2l0.3-0.4h0.4l-0.6,0.7
	L-37,379.9z M-84.9,322.2l1.1,0.1l1.1,0.1l1.1,0.1l1.1,0.1l1.1,0.1l1.1,0.1l1.1,0.1l1.1,0.1l1.1,0.1l1.1,0.1l1.1,0.1l1.1,0.1
	l1.1,0.1l1.1,0.1h1.1v0.9v0.9v0.9v0.9v0.9v0.9v0.9v0.9v0.9v0.9v0.9v0.9v0.9v0.9v0.9v0.9l0.4,0.1l0.4,0.3l1.1,1l0.3,0.2l0.6-0.1
	l0.6,0.1h0.2l0.1-0.4l0.1-0.1h0.1l0.6,0.4l0.1,0.2l0.3,0.5l0.1,0.6l0.2,0.1l0.3,0.1l0.8,0.1l1.1,0.4l0.4,0.1l0.8-0.1l0.7,0.6
	l0.3,0.1l0.2-0.1l0.4-0.4l0.9,0.1l0.7-0.1v0.5l0.1,0.3l0.6,0.4l0.1,0.2v0.6l0.2,0.1l0.2,0.1h0.3l0.3-0.2l0.7-0.5l0.2-0.1h0.1h0.1
	l0.1,0.1l0.2,0.4l0.6,0.2l0.3,0.4l0.2,0.1l0.2-0.1l0.4-0.2h0.3l0.3-0.2l0.1,0.1l0.1,0.2l-0.1,0.5l0.1,0.2l0.1,0.2l0.2,0.1h0.2
	l0.1-0.1l0.2-0.6v-0.2l0.3-0.1l0.1-0.1l0.2-0.4l0.3-0.1h0.1l0.1,0.1l0.3,0.4l0.6,0.2h0.2l0.2-0.1l0.3-0.3h0.1h0.1h0.1v0.4l0.7,0.4
	l0.5,0.1l0.5,0.4l0.1,0.1l0.2-0.4l0.5-0.1l0.4-0.4l1.2-0.5l0.5,0.1h0.5l0.1-0.2l0.9-0.3l0.2-0.1l0.2,0.1l0.1,0.2l0.1,0.1l0.6,0.1
	h0.3l0.6-0.3l0.2-0.4h0.1l0.4,0.2l1.2,0.7l0.6,0.6l0.7,0.3l0.4,0.2l1.4,0.4l0.3,0.4l0.3,0.1l0.1,0.1h0.1h0.2l0.2-0.2h0.4l0.3-0.1
	l0.6,0.1l0.3,0.2v1v1v1v1v1v1v1v1v1v1v1v1l0.9,0.9l0.4,0.6l0.1,0.3l0.1,1.1l0.1,0.3l0.5,0.4v0.3l0.5,0.8v0.4l0.5,0.9l0.3,0.2
	l0.1,0.6l0.1,0.4l-0.2,0.3l0.1,0.4l-0.1,0.4l-0.1,0.5l-0.3,0.8l-0.3,0.4l-0.3,0.8v0.6l-0.2,0.7v0.3l0.2,0.5l0.1,1.3l-0.1,0.3
	l-0.4,0.8h-0.3l-0.7,1.3l0.4,0.7v0.3l-1.4,0.2l-3.1,1.5l-1.2,0.8l0.1-0.3l1.5-1l-0.5-0.1l-0.8,0.3l-0.3-0.1l0.3-0.8l-0.1-0.7h-0.6
	l-0.4,0.6h-0.3l-0.4-0.2l-0.3,0.1l0.2,1.3l0.4,0.5l0.3,0.7l-0.9,0.9l-0.8,0.7l-0.1,0.7l-0.8,0.9l-0.8,0.5l-1.8,1.2l-0.5,0.3
	l-0.8,0.5l-1.1,0.4l-1.1,0.6l-0.4,0.1l0.7-0.5l0.8-0.5l-0.7,0.1l-1.1-0.3h-0.7v0.2l-0.5,0.3l-0.5-0.4l-0.2-0.3l-0.1-0.2l-0.2-0.1
	l-0.2,0.1l0.8,1.7l0.3,0.1l0.4,0.2l-0.5,0.4l-0.5,0.3L-48,386l-0.7-0.6l-0.1,0.8l-0.1,0.8l-0.2,0.2l-0.4,0.3l-0.2-0.2l-0.1-0.3
	l-0.2,0.3l-0.3,0.2h-0.5l-0.4,0.1v0.3l0.1,0.3l0.7-0.2l-0.3,0.8l-0.7,0.8l-0.5,0.2l-0.8-0.1l-0.2,0.1l-0.2,0.2l1,1.3l-0.7,1.9
	l-0.4,0.7l-0.3,0.1h-0.3l-1.1-0.6l-0.6-0.5l0.5,1.3l1.4,0.4l0.1,0.5v0.4l-0.3,0.5l-0.3,0.6l0.2,0.5l0.2,1.1l0.2,0.5l0.2,1.6l0.2,0.7
	l1.3,2.5h0.4l0.1,0.3v0.5l-0.9,0.1l-0.4,0.2l-0.1,0.2l-0.1,0.1h-0.1l-0.4-0.1l-1-0.7l-1.5-0.5l-1.9-0.2L-59,403l-0.7-0.6l-0.7-0.3
	l-0.8-0.1l-0.6-0.3l-0.5-0.5l-0.7-0.3l-1-0.2l-0.6-0.4l-0.4-0.9l0,0l-0.3-1.5l-0.5-0.9l-0.9-1.2l-0.1-0.2l0,0v-0.2l0.1-0.7L-67,394
	l-0.3-0.4l-0.1-0.4l0.2-0.4v-0.5l-0.1-0.6l-0.6-0.7l-1.1-0.8l-0.9-1.1l-0.7-1.4l-0.7-1l-0.7-0.6l-0.5-0.7l-0.2-0.8l-0.1-0.4l0.1-0.1
	l-0.4-0.9l-0.9-1.6l-0.5-1.2l-0.1-0.7l-0.6-0.9l-1.1-1.1l-0.6-0.7l-0.1-0.5l0,0l-1.7-1.4l-0.5-0.9l-0.4-0.3h-0.5l-0.2-0.1v-0.2h-0.1
	l-0.3,0.2h-0.9l-1.6-0.2l-1.1-0.3l-0.7-0.4h-0.5l-0.3,0.4l-0.6,0.2l-0.9,0.1l-0.8,0.8l-0.8,1.5l-0.4,1v0.4l-0.2,0.3l-0.4,0.2
	l-0.5,0.4l-0.5,0.7l-0.5,0.3l-0.6-0.1l-1.1-0.6l-1.5-1.2l-1.2-0.7l-0.9-0.3l-0.8-0.5l-0.6-0.8l-0.6-0.5l-0.6-0.3l-0.6-0.8l-0.7-1.4
	l-0.3-1.1l0.1-1.1l-0.8-2.5l-0.4-1.1l-0.4-0.5l-0.7-0.6l-1.1-0.8l-1.4-1.5l-1.7-2.2l-1.2-1.3l-0.8-0.5l-0.6-0.8l-0.5-1.1l-0.5-0.7
	h-0.1l-0.7-0.5l0,0l-0.5-1.5l0,0l1.4,0.2l1.4,0.2l1.4,0.2l1.4,0.1l1.4,0.1l1.4,0.1l1.4,0.1l1.4,0.1l1.4,0.1l1.4,0.1l1.4,0.1l1.4,0.1
	l1.4,0.1l1.4,0.1l1.4,0.1l1.4,0.1l0.2-2.1l0.2-2.1l0.2-2.1l0.2-2.1l0.2-2.1l0.2-2.1l0.2-2.2l0.2-2.2l0.2-2.2l0.2-2.2l0.2-2.2
	l0.2-2.2l0.2-2.2l0.2-2.2l0.2-2.2l0.2-2.2h0.3L-84.9,322.2z"/>
<path fill="none" stroke="#919191" stroke-linecap="round" stroke-linejoin="round" stroke-miterlimit="10" d="M62,292.7l0.8,0.4
	l0.1-0.7l0.2-1l0.4,0.2l0.8,0.2l0.4,0.3l-0.1,0.4v0.3l0.2,0.2l1.1,0.2l0.8,0.5l0.4,0.1h0.1l0.3,0.1l0.2,0.2l0.1,0.9l-0.2,0.5
	l-0.4,0.4l-0.4,0.7v0.6v1l0.3,0.3h0.3l0.7-0.4h0.4l1.1,1l1.6,0.2l0.6,0.2l0.6,0.5l0.8,0.2l0.6,0.4l0.1,0.3l-0.1,0.4v0.6l-0.2,0.4
	l-0.5,0.2h-0.3l-2.2-1.6l-0.2-0.1l-0.9-0.9l-0.9-0.4l-0.2,0.1l1.3,0.8l0.6,0.6l1,0.8l0.6,0.3l0.5,0.6l0.4,0.2l1.1,0.2l-0.3,0.4
	l0.6,0.1l0.2,0.5l0.1,0.6h-0.9l0.1,0.4l0.1,0.2l-0.3,0.3l-0.6-0.2l-1.6-1.2l0.1,0.2l0.2,0.2l0.9,0.8l0.8,0.4l0.6,0.1l0.5,0.4
	l0.2,0.3l0.2,0.4l-0.3,0.4l-0.3,0.2l-0.4-0.2l-0.3-0.3l-0.7-0.4l-0.3-0.6l-0.4,0.1l-1.9-0.4l-1.5,0.2l0.2,0.1l0.2,0.1h1.2l0.5,0.3
	l1,0.1h0.6l0.4,0.9l0.9,0.5l0.2,0.5l0.5-0.1l0.8-0.7h0.6h0.9L77,308l0.3,0.7l0.5,0.8l0.4,0.8H78l-0.5,0.1l-1.5,0.3l-2.2,0.4
	l-2.2,0.4l-2.2,0.4l-2.2,0.4l-2.2,0.4l-2.2,0.4l-2.2,0.4l-2.2,0.4l-2.2,0.4l-2.2,0.4l-2.2,0.3l-2.2,0.3l-2.2,0.3l-2.2,0.3l-2.2,0.3
	l-0.1-0.1l-0.9,0.1l-0.6,0.1l-0.3,0.2l-1.3,0.2l-1,0.1l-1.7,0.2l-2.1,0.3l-2.9,0.4l-1.4,0.2l0.6-0.4l0.9-0.3l1.5-0.8l0.6-0.7
	l0.8-0.6l0.3-0.6l0.5-0.6l0.1-0.6l0.1-0.1l0.9-0.7l0.9-0.8l2-2.2l0.1,0.2v0.3l0.2,0.3l0.2,0.5l0.3,0.3l0.3,0.2l0.5,0.1l0.6,0.3h0.4
	h0.1l0.4-0.4l0.4-0.3l0.4-0.5l0.8,0.4h0.3l0.7-0.3l0.7-0.2l0.2-0.1l0.2-0.3l-0.1-0.4v-0.1l0.1-0.1h0.1l0.3,0.1h0.3l1.2-0.7h0.1
	l0.2,0.2l0.5-0.4l0.3-0.3l0.1-0.5l0.2-0.5l-0.1-0.2l-0.2-0.2l0.1-0.6l0.2-0.6l1-1.9l0.2-1.1l0.4-0.7l0.1-0.6l0.3-0.6l0.1-1.1
	l0.1-0.2l0.2-0.1l0.3,0.1l0.2,0.2l0.2,0.3l0.7,0.2l0.5-0.1l0.3-0.3l0.2-0.4l0.2-0.8l0.2-0.5l0.1-0.6l0.1-0.4l0.2-0.3l0.7-0.1
	l0.3-0.4l0.2-0.4l0.1-0.1h0.2l0.5-0.7l0.6-1.4v-0.8l0.1-0.6v-0.6l0.1-0.3l0.9,0.5l0.5,0.3L62,292.7z M79.2,299.6l-0.2,0.2l0.5-1.4
	l0.2-0.1l0,0L79.2,299.6z M77.1,304.7l-0.2,1.2l-0.4-0.4l-0.2-0.4l-0.1-1l0.2-1.8l0.3-1.2l0.3-0.6l0.1-1.1l0.2-0.4l0.9-0.3l0.5-0.2
	l-0.6,3.2l0.2,0.5l-0.2,0.2l-0.4,0.2l-0.3,0.4l-0.2,0.4L77.1,304.7z"/>
<polygon fill="none" stroke="#919191" stroke-linecap="round" stroke-linejoin="round" stroke-miterlimit="10" points="31.4,318 
	32.8,317.8 35.7,317.4 37.8,317.1 39.5,316.9 40.5,316.8 41.8,316.6 42,316.4 42.7,316.3 43.5,316.2 43.3,316.8 43.4,317.2 
	43.3,317.8 43.4,318.2 42.9,318.3 42.7,318.5 42.4,318.8 41.7,320.3 41.4,320.5 40.9,320.2 40.2,320.4 39.8,320.7 39.2,321.5 
	39,321.8 38.8,321.9 38.7,321.9 38.6,321.8 38.5,321.5 38.4,321.4 38.2,321.4 37.9,321.6 37.6,321.8 37.3,322.3 36.8,322.3 
	36.7,322.4 36.7,322.9 36.6,323.3 36.4,323.6 35.6,323.9 34.7,324.7 33.4,325.6 32.1,326 31.6,326.2 31.3,326.4 30.5,327.3 
	30.3,328.3 29.9,328.6 29.3,328.7 29.1,328.8 29,329.2 29,330.8 27,331 25,331.2 23,331.5 21,331.7 20,331.8 19,331.8 18,331.9 
	17,332 16,332.1 15,332.2 14,332.3 13,332.4 12,332.5 11,332.5 10,332.6 9,332.7 8,332.8 7,332.8 6.1,332.9 5.1,333 5,333 
	5.1,333.1 5.2,333.2 3.5,333.3 1.9,333.4 0.2,333.6 -1.4,333.7 -3.1,333.8 -4.7,333.9 -6.4,334 -8,334.1 -8,334.1 -7.8,333.7 
	-7.1,333.2 -6.8,332.5 -7,331.6 -6.8,330.9 -6.2,330.1 -6,329.4 -6.1,328.8 -5.9,328.2 -5.2,327.7 -5.1,327.6 -5.1,327.4 
	-5.2,327.3 -5.1,327.2 -5.1,327.1 -5,327 -4.8,326.9 -4.7,326.8 -4.7,326.6 -4.8,326.3 -4.8,326.2 -4.8,326 -4.5,325.4 -4.5,324.9 
	-4.7,324.5 -4.6,324.3 -4.5,324.2 -4.3,324.2 -4.2,324.1 -4.2,324 -4.4,323.7 -4.4,323.5 -4.1,323.3 -4,322.9 -4.2,322.3 
	-3.8,322.3 -3.7,322.3 -3.7,322.4 -3.5,322.3 -3.5,322.3 -2.3,322.2 -1.3,322.1 -0.2,322 0.8,322 1.9,321.9 2.9,321.8 4,321.7 
	4.9,321.6 4.9,321.6 4.9,320.9 4.6,320.2 4.6,320.2 5.4,320.2 6,320.2 6.2,320.4 8.2,320.2 10.2,320 12.2,319.7 14.2,319.5 
	16.3,319.4 18.4,319.2 20.5,319.1 22.6,318.9 24.7,318.7 26.9,318.5 29,318.4 31.1,318.2 31.1,318.1 31.2,318.1 31.2,318.1 
	31.2,318.1 31.3,318 31.3,318 "/>
<polygon fill="none" stroke="#919191" stroke-linecap="round" stroke-linejoin="round" stroke-miterlimit="10" points="-46.4,251.1 
	-46.6,251.9 -46.7,252.2 -47,252.6 -47.8,253.3 -48,253.6 -47.9,253.8 -47.8,254.1 -47.4,254.8 -47.1,255 -46.3,255.5 -45.9,256.1 
	-45.9,257.8 -45.9,259.5 -45.9,261.2 -45.9,262.9 -45.9,264.7 -45.9,266.4 -45.9,268.1 -45.9,269.8 -46.7,269.8 -46.6,270.3 
	-46.4,270.8 -46.4,271.1 -46.4,271.3 -46.6,271.5 -46.5,271.8 -46.5,271.9 -46.1,272.1 -46,272.4 -46,272.7 -46,272.9 -46.2,273.3 
	-46.3,273.9 -46.5,274.7 -46.8,275.3 -46.9,275.5 -46.9,275.7 -46.4,276.3 -46.4,276.5 -46.2,276.8 -46.1,277.4 -46.5,277.3 
	-47,277 -47.2,276.4 -47.9,275.9 -49.1,275.5 -49.9,275.1 -50.3,274.7 -51.3,274.5 -52.9,274.5 -53.9,274.7 -54.4,275 -55.4,274.7 
	-57,273.5 -59.2,273.4 -61.1,273.4 -63.1,273.3 -65,273.2 -66.9,273.1 -68.8,273 -70.8,272.9 -72.7,272.8 -74.6,272.7 -76.5,272.6 
	-78.4,272.5 -80.4,272.4 -82.3,272.2 -84.2,272.1 -86.1,271.9 -88.1,271.8 -87.9,269.9 -87.7,267.9 -87.6,266 -87.4,264.1 
	-87.3,262.2 -87.1,260.3 -87,258.4 -86.8,256.5 -86.8,256.5 -86.7,256.5 -86.7,256.5 -86.6,256.5 -86.6,256.5 -86.6,256.5 
	-86.6,256.5 -86.6,256.4 -86.5,254.7 -86.3,252.9 -86.2,251.1 -86.1,249.4 -84.8,249.5 -83.6,249.6 -82.4,249.7 -81.1,249.8 
	-79.9,249.8 -78.6,249.9 -77.4,250 -76.2,250.1 -74.9,250.2 -73.7,250.3 -72.4,250.3 -71.2,250.4 -70,250.5 -68.7,250.5 
	-67.5,250.6 -66.2,250.6 -65,250.7 -63.8,250.7 -62.5,250.8 -61.3,250.8 -60,250.9 -58.8,250.9 -57.5,251 -56.3,251 -55.1,251 
	-53.8,251.1 -52.6,251.1 -51.3,251.1 -50.1,251.1 -48.9,251.1 -47.6,251.1 "/>
<path fill="none" stroke="#919191" stroke-linecap="round" stroke-linejoin="round" stroke-miterlimit="10" d="M78.2,311.7l0.5,0.8
	l0.5,1.1l-0.5-0.4l-0.5-0.2l-0.7-0.1l-0.6-0.2l0.1,0.5l0.1,0.5l-0.5-0.1l-0.3-0.1l0.4,0.5h-0.6l-0.4,0.1l-0.1,0.5l-0.3,0.4l-0.5,0.2
	l-0.8-0.3l-0.3-0.5l-0.2-0.6l0.1,0.7l0.3,0.7l0.1,0.6h0.7l0.6-0.2l0.9-0.2l0.5-0.2l0.3-0.3h0.9l0.2,0.7l0.1,0.7l0.1,0.7l0.2-0.1
	l0.2-0.3l-0.1-1.3l0.6-0.6h0.3l0.3,0.4l0.2,0.4l0.2,0.6v0.9l-0.9,1.3l-0.6,1.1l-0.4,0.3h-0.6l-0.7-0.1h-0.4l-0.2,0.1l-0.2-0.3
	l-0.2-0.5l-0.3-0.1l-0.2,0.1v0.6l-0.6,0.3l-0.9-0.1l-1-0.3l0.5,0.4l2.5,0.5l0.3,0.1l0.3,0.2l-0.2,0.5l-0.2,0.5v0.4v0.3l-0.8,0.8
	h-0.5l-1.5-0.9l0.8,0.9l0.5,0.3h1l1.7-0.7l0.7,0.3l-0.3,0.8l-0.4,0.6l-0.6,0.2l-0.5,0.2l-0.1,0.4l-0.4,0.1l-0.6,0.1l-0.9,0.2h-0.5
	l-0.6,0.8l-0.3,0.1l-0.4-0.1l-0.3-0.5l-0.2-0.2l0.2,1l0.1,0.3l0.2,0.2l-0.7,0.7l-0.7,0.9l-0.3,0.2l-0.3,0.4l-0.5,1.2v0.8l-0.1,0.9
	l-0.1-0.4l-0.1-0.6l-0.3-0.7l0.1,1.3l-0.1,0.7L67,333l-0.9,0.5l-1.1-0.7l-1-0.7l-1-0.7l-1-0.7l-1-0.7l-1-0.7l-1-0.7l-1-0.7l-0.9,0.1
	l-0.9,0.1l-0.9,0.1l-0.9,0.1l-0.9,0.1l-0.9,0.1l-0.9,0.1l-0.9,0.1l-0.1-0.6l-0.1-0.4l-0.7-0.6l-0.4-0.4l-0.6,0.5l-0.1-0.2v-0.3
	l-0.1-0.1h-0.2l-1,0.1l-1,0.1l-1,0.1l-1,0.1l-1,0.1l-1,0.1l-1,0.1l-1,0.1h-0.2l-0.4,0.3l-1.1,0.5l-0.5,0.4h-0.2l-0.9,0.5l-0.9,0.5
	h-0.1l-1.9,0.3l-1.9,0.3l-1.9,0.3l-1.9,0.3v-1.7l0.1-0.4l0.2-0.1l0.6-0.1l0.4-0.2l0.2-1l0.7-0.9l0.3-0.2l0.5-0.2l1.3-0.4l1.3-0.9
	l0.9-0.8l0.8-0.3l0.2-0.3l0.1-0.4v-0.5l0.1-0.1h0.5l0.3-0.4l0.3-0.3l0.3-0.2h0.2l0.1,0.1l0.1,0.3l0.1,0.1h0.1l0.2-0.1l0.2-0.3
	l0.6-0.8l0.4-0.3l0.7-0.3l0.5,0.3l0.3-0.2l0.7-1.5l0.3-0.3l0.2-0.1l0.4-0.1l-0.1-0.4l0.1-0.6v-0.4l0.2-0.6l0.1,0.1l2.2-0.3l2.2-0.3
	l2.2-0.3l2.2-0.3l2.2-0.3l2.2-0.4l2.2-0.4l2.2-0.4l2.2-0.4l2.2-0.4l2.2-0.4l2.2-0.4l2.2-0.4l2.2-0.4l2.2-0.4l1.5-0.3v0.6l0.2,0.3
	L78.2,311.7z M81.2,315l0.2,0.4l-0.4-0.3l-1.3-1.5l-0.8-1.2l-0.9-2h0.2l1.1,2.3L81.2,315z M80.8,315.2l-0.1,0.2l-0.6-0.7l0.5,0.2
	l0.1,0.2L80.8,315.2z M82.4,319.7l-0.8,0.4h-0.1l0.8-0.6v-1.6l-0.1-0.7l-0.4-1.2l-0.1-0.3l0.2,0.4l0.4,1.1l0.1,0.9v1.3V319.7z
	 M81,320.4l-1,0.8h-0.1l0.6-0.5L81,320.4z M77.5,325.5l-0.1,0.1l0.4-1.1l0.9-1.4l0.3-0.2l-0.7,1.2L77.5,325.5z M77.2,325.4h-0.1
	h-0.3l-0.4-0.1l-0.1-0.1h0.3L77.2,325.4z"/>
<polygon fill="none" stroke="#919191" stroke-linecap="round" stroke-linejoin="round" stroke-miterlimit="10" points="-35,323.6 
	-34.8,324.6 -34.7,325.7 -34.5,326.8 -34.4,327.9 -34.2,328.9 -34.1,330 -33.9,331.1 -33.8,332.1 -33.8,333 -33.8,333.8 
	-33.8,334.6 -33.8,335.5 -33.8,336.3 -33.8,337.1 -33.8,338 -33.8,338.8 -33.8,339.6 -33.8,340.5 -33.8,341.3 -33.8,342.1 
	-33.8,343 -33.8,343.8 -33.8,344.6 -33.8,345.5 -35.3,345.1 -35.6,344.9 -36.3,344.6 -36.9,344 -38,343.3 -38.5,343.1 -38.6,343.2 
	-38.8,343.5 -39.5,343.8 -39.8,343.8 -40.4,343.7 -40.5,343.6 -40.6,343.4 -40.9,343.3 -41,343.4 -41.9,343.7 -42,343.9 
	-42.5,343.9 -43,343.8 -44.3,344.2 -44.7,344.6 -45.2,344.7 -45.4,345.1 -45.5,345 -46,344.6 -46.5,344.4 -47.1,344 -47.2,343.6 
	-47.2,343.6 -47.3,343.5 -47.5,343.6 -47.8,343.9 -48,344 -48.1,344 -48.8,343.7 -49,343.3 -49.1,343.2 -49.3,343.2 -49.6,343.3 
	-49.7,343.7 -49.9,343.8 -50.1,343.9 -50.1,344.1 -50.3,344.7 -50.5,344.8 -50.6,344.8 -50.8,344.7 -50.9,344.5 -51,344.3 
	-50.9,343.8 -50.9,343.6 -51.1,343.6 -51.4,343.8 -51.7,343.8 -52,344 -52.2,344.1 -52.4,344 -52.7,343.7 -53.3,343.4 -53.5,343 
	-53.6,342.9 -53.7,342.8 -53.9,342.8 -54.1,343 -54.7,343.5 -55,343.7 -55.3,343.7 -55.5,343.7 -55.7,343.5 -55.7,343 -55.8,342.8 
	-56.4,342.4 -56.5,342.1 -56.6,341.6 -57.3,341.7 -58.2,341.6 -58.6,342 -58.8,342.1 -59.1,342 -59.8,341.4 -60.6,341.5 -61,341.4 
	-62,341 -62.9,340.9 -63.2,340.8 -63.4,340.7 -63.5,340.1 -63.8,339.5 -63.9,339.4 -64.4,339 -64.5,339 -64.6,339 -64.7,339.5 
	-64.9,339.5 -65.6,339.3 -66.2,339.4 -66.5,339.2 -67.6,338.2 -68,337.9 -68.4,337.8 -68.4,336.9 -68.3,336 -68.3,335.1 
	-68.2,334.2 -68.2,333.2 -68.2,332.3 -68.1,331.4 -68.1,330.5 -68.1,329.6 -68,328.6 -68,327.7 -67.9,326.8 -67.9,325.9 -67.9,325 
	-67.8,324 -67.8,323.1 -68.9,323.1 -70.1,323 -71.2,323 -72.4,322.9 -73.5,322.9 -74.6,322.8 -75.8,322.7 -76.9,322.7 -78.1,322.6 
	-79.2,322.5 -80.3,322.5 -81.5,322.4 -82.6,322.3 -83.7,322.2 -84.9,322.2 -86,322.1 -86,321.1 -85.9,320.2 -85.8,319.2 
	-85.7,318.2 -84.3,318.3 -82.8,318.4 -81.3,318.5 -79.8,318.6 -78.4,318.7 -77,318.8 -75.6,318.9 -74.2,319 -72.8,319 -71.4,319.1 
	-70,319.2 -68.6,319.2 -67.2,319.3 -65.8,319.4 -64.4,319.4 -63,319.5 -61.6,319.5 -60.2,319.5 -58.8,319.6 -57.4,319.6 -56,319.7 
	-54.6,319.7 -53.2,319.7 -51.8,319.7 -50.4,319.8 -49,319.8 -47.6,319.8 -46.2,319.8 -44.8,319.8 -43.4,319.8 -42,319.8 
	-40.6,319.8 -39.2,319.8 -37.8,319.8 -36.4,319.8 -35,319.7 -35,320.7 -35,321.7 -35,322.6 "/>
<polygon fill="none" stroke="#919191" stroke-linecap="round" stroke-linejoin="round" stroke-miterlimit="10" points="-86.1,249.4 
	-86.2,251.1 -86.3,252.9 -86.5,254.7 -86.6,256.4 -86.6,256.5 -86.6,256.5 -86.6,256.5 -86.6,256.5 -86.7,256.5 -86.7,256.5 
	-86.8,256.5 -86.8,256.5 -88,256.4 -89.2,256.3 -90.4,256.2 -91.5,256.1 -92.7,256 -93.9,255.9 -95.1,255.7 -96.2,255.6 
	-97.4,255.5 -98.6,255.4 -99.8,255.2 -101,255.1 -102.1,255 -103.3,254.8 -104.5,254.7 -105.7,254.6 -106.8,254.4 -108,254.3 
	-109.2,254.1 -110.4,254 -111.5,253.8 -112.7,253.6 -113.9,253.5 -115.1,253.3 -116.2,253.2 -117.4,253 -118.6,252.8 -119.8,252.6 
	-120.9,252.5 -122.1,252.3 -123.3,252.1 -124.4,251.9 -124.6,252.9 -124.7,253.8 -124.9,254.8 -125,255.7 -125.4,255.4 
	-125.6,255.2 -125.7,254.9 -126,254.1 -126.1,253.8 -126.3,253.6 -126.5,253.6 -126.7,253.6 -126.9,253.8 -127,254.1 -127.3,254.4 
	-127.3,254.7 -127.2,254.8 -127.3,254.9 -127.4,255 -128.2,254.7 -129,254.7 -129.5,254.5 -130.5,254.4 -131.3,254.2 -131.6,254.2 
	-131.8,254.3 -132.1,254.7 -132.2,254.7 -132.3,254.7 -133.6,254.3 -134,254.2 -134.4,254.4 -134.6,254.6 -134.6,254.8 
	-134.7,254.9 -134.9,254.8 -135.1,254.6 -135.4,254.3 -135.5,254.1 -135.5,253.6 -135.7,253.1 -135.6,252.6 -135.7,252.2 
	-135.9,251.8 -136.1,251.5 -136.3,251.4 -136.8,251.3 -136.9,251.3 -137.3,250.7 -137.4,250.4 -137.4,250.2 -137.2,249.8 
	-137.2,249.5 -137.2,249.1 -137.4,248.8 -137.6,248.6 -137.8,248 -138.1,247.2 -138.1,246.6 -138.2,246.1 -138.2,245.6 
	-138.3,245.3 -138.2,245 -138.2,244.9 -138.3,244.8 -138.6,244.5 -138.9,244.1 -139,244 -139.1,244 -139.2,244.1 -139.2,244.2 
	-139.9,244.7 -140.5,244.9 -140.8,245.1 -141,245.2 -141.1,245.2 -141.3,245.1 -141.7,244.6 -142.1,244.3 -142.1,244.2 -142,243.9 
	-141.8,243.5 -141.8,242.8 -141.7,242.5 -141.5,242.4 -141,242.2 -140.9,242.1 -140.9,241.4 -141.1,241.1 -141.2,240.9 -141,240.4 
	-141,240 -140.8,239.7 -140.6,239.2 -140.4,238.7 -140,237.9 -140,237.5 -139.7,237.2 -139.6,236.8 -139.5,236.6 -139.5,236.4 
	-139.6,236.3 -139.7,236.3 -140.5,236.3 -140.7,236.2 -140.9,236.1 -141,236 -140.9,235.7 -141.1,235.4 -141.1,235.4 -141.5,235.4 
	-141.6,235.4 -141.6,235.3 -141.7,235.1 -142.1,234.5 -142.2,233.8 -142.6,233.2 -142.9,232.4 -143.6,231.1 -143.8,230.9 
	-144.4,230.4 -144.9,229.7 -145.3,229.2 -145.4,229.1 -145.4,229.1 -145.3,229 -145.2,229 -145.1,228.8 -145.2,228.3 -145,227.9 
	-145,227.4 -145.1,227.2 -145.4,226.6 -145.5,226 -145.8,225.5 -146.2,224.6 -145.8,222.8 -145.4,220.9 -145,219.1 -144.6,217.3 
	-143.7,217.5 -141.6,217.9 -139.5,218.4 -137.4,218.8 -135.2,219.2 -134.7,219.3 -133.1,219.6 -131,220 -128.8,220.4 -126.7,220.8 
	-124.6,221.2 -122.4,221.5 -120.3,221.9 -118.1,222.2 -116,222.5 -114.4,222.8 -113.8,222.9 -111.7,223.2 -109.6,223.5 
	-107.4,223.8 -105.3,224.1 -103.1,224.3 -100.9,224.6 -98.8,224.8 -96.6,225.1 -94.5,225.3 -92.3,225.5 -90.2,225.8 -88,226 
	-85.8,226.2 -84.2,226.3 -84.3,227.7 -84.5,229.2 -84.6,230.6 -84.7,232 -84.8,233.5 -84.9,234.9 -85,236.4 -85.1,237.8 
	-85.3,239.2 -85.4,240.7 -85.5,242.1 -85.6,243.6 -85.7,245 -85.8,246.5 -85.9,247.9 "/>
<path fill="none" stroke="#919191" stroke-linecap="round" stroke-linejoin="round" stroke-miterlimit="10" d="M5.8,362.8l0.2,1.4
	l0.2,1.4l0.2,1.4l0.2,1.6l-1.9,0.3l-0.9-0.3H3.4H3.2l-1,0.4l-1.1,0.4l-0.3-0.1H0.4l-0.7,1l-0.5,0.3l-0.2-0.1l-0.2-0.1l-0.1-0.1
	l-0.3-0.5l-0.1-0.4l-0.4-0.8l-0.4-0.5l-0.4-0.3l-0.2-0.3v-0.2l-0.1-0.4v-0.3l0.4-1.2l0.1-0.9l-1.6,0.1l-1.6,0.1l-1.6,0.1l-1.6,0.1
	l-1.6,0.1l-1.6,0.1l-1.6,0.1l-1.6,0.1v-0.2l0.3-0.3l0.1-0.3l-0.3-0.8l0.1-0.5l0.4-0.1l0.2-0.4v-0.8l0.1-0.5l0.3-0.3l0.3-0.7l0.2-1
	l0.5-0.9l0.8-0.7l0.4-0.6v-0.4l0.1-0.2l0.2-0.1l0.3-0.3l0.3-0.4v-0.3v-0.2v-0.2l-0.3-0.4l-0.5-0.3l-0.3-0.5v-0.4l-0.1-0.3l-0.2-0.3
	v-0.3l0.3-0.3v-0.2l-0.3-0.2v-0.4l0.2-0.6v-0.4l-0.3-0.2l-0.1-0.4v-0.2l0.2-1.4l-0.1-0.2l-0.3-0.4l-0.1-0.5l0.1-0.6l-0.1-0.5
	l-0.3-0.2l-0.1-0.2l-0.1-0.3l0.3-0.3v-0.2l-0.2-0.2l0.1-0.3l0.5-0.4l0.1-0.2l0.1-0.2l0.1-0.6l-0.1-0.3l-0.1-0.2l0.1-0.1l0.1-0.1
	l0.6-0.2l0.2-0.2v-0.2l-0.2-0.4l0.2-0.5l0.6-0.5l0.3-0.4v-0.4l0.3-0.3l0.5-0.2l0.3-0.7l0.1-1.2l0.1-0.5l0.3-0.1l0.1-0.2V336l0.3-0.4
	l0.6-0.4l0.2-0.4l-0.1-0.2v-0.2l1.6-0.1l1.6-0.1l1.6-0.1l1.6-0.1l1.6-0.1l1.6-0.1l1.6-0.1l1.7-0.1l0.6,0.5v0.2v0.1v0.4v1.4v1.4v1.4
	v1.4v1.4v1.4v1.4v1.4v1.4v1.4v1.4v1.4v1.4v1.4v1.4v1.4l0.2,1.4l0.2,1.4l0.2,1.4L5.8,362.8z M5.7,369.9L5.7,369.9H5l-0.4-0.1
	l-0.1-0.1l1,0.2L5.7,369.9z"/>
<polygon fill="none" stroke="#919191" stroke-linecap="round" stroke-linejoin="round" stroke-miterlimit="10" points="-17.1,293.2 
	-17.4,294.4 -17.3,295.3 -17.1,296.5 -16.8,297.4 -16.5,298 -15.4,299.1 -13.7,300.6 -12.5,302.2 -12,303.6 -11.4,304.2 
	-10.9,303.9 -10.1,304 -9.3,304.2 -8.9,304.4 -8.8,304.5 -8.8,304.6 -8.8,304.7 -8.9,305 -9.7,307.6 -10,308.7 -9.9,309.2 
	-9.5,309.7 -8.7,310.5 -8,311 -7.4,311.2 -6.5,311.8 -5.2,312.8 -4.6,313.5 -4.5,314 -4.4,314.6 -4.1,315.1 -4.1,315.6 -4.3,316.2 
	-4.1,316.8 -3.6,317.6 -3.2,318.1 -2.9,318.3 -2.8,318.3 -2.8,318.2 -2.9,318.1 -2.9,318 -2.9,317.8 -2.8,317.8 -2.8,317.7 
	-2.5,317.9 -2,318.4 -1.8,319 -1.8,319.7 -1.9,320.5 -2.1,321.2 -2.4,321.5 -2.5,321.4 -2.9,321.3 -3,321.4 -3.3,321.6 -3.5,322.3 
	-3.5,322.3 -3.7,322.4 -3.7,322.3 -3.8,322.3 -3.8,322.1 -4,321.9 -4.1,321.9 -4.2,321.9 -4.2,322 -4.2,322.2 -4.2,322.3 -4,322.9 
	-4.1,323.3 -4.4,323.5 -4.4,323.7 -4.2,324 -4.2,324.1 -4.3,324.2 -4.5,324.2 -4.6,324.3 -4.7,324.5 -4.5,324.9 -4.5,325.4 
	-4.8,326 -4.8,326.2 -5.9,326.3 -6.9,326.4 -8,326.5 -9,326.5 -8.5,325.7 -8.2,325.4 -8,325 -7.6,324.7 -7.2,324.1 -7.2,323.8 
	-7.3,323.5 -7.6,323.1 -7.9,322.5 -9.6,322.6 -11.2,322.7 -12.9,322.8 -14.6,322.9 -16.3,323 -18,323.1 -19.7,323.2 -21.4,323.2 
	-23.1,323.3 -24.8,323.3 -26.5,323.4 -28.2,323.4 -29.9,323.5 -31.6,323.5 -33.3,323.6 -35,323.6 -35,322.6 -35,321.7 -35,320.7 
	-35,319.7 -35.1,318.7 -35.1,317.7 -35.1,316.7 -35.1,315.7 -35.1,314.7 -35.1,313.7 -35.2,312.7 -35.2,311.7 -35.2,310.7 
	-35.2,309.7 -35.2,308.7 -35.2,307.7 -35.3,306.7 -35.3,305.7 -35.3,304.7 -35.3,303.7 -35.3,303.4 -36.2,302.9 -36.6,302.4 
	-36.9,301.7 -37.3,301.1 -37.9,300.5 -38,299.8 -37.6,299.1 -37.3,298.7 -37,298.7 -37,298.4 -37.2,297.7 -37.5,297.5 -37.9,297.7 
	-38.3,297.7 -39.6,296.7 -39.7,296.6 -40.1,296 -40.3,295.2 -40.6,294.7 -41.1,294.4 -41.5,293.9 -41.6,293.1 -41.9,292.3 
	-42.1,292.1 -40.6,292.1 -39.2,292.1 -37.7,292 -36.3,292 -34.8,292 -33.4,291.9 -31.9,291.9 -30.4,291.8 -29,291.8 -27.5,291.7 
	-26.1,291.7 -24.6,291.6 -23.2,291.6 -21.7,291.5 -20.3,291.4 -18.8,291.4 -18.5,291.9 -18.2,292.1 -18.1,292.2 -17.7,292.5 
	-17.6,292.8 "/>
<path fill="none" stroke="#919191" stroke-linecap="round" stroke-linejoin="round" stroke-miterlimit="10" d="M-7,234.7v0.1h0.2
	v0.1L-7,235l-0.6,0.3l-0.4,0.1l-0.2-0.1v-0.2l0.1-0.2v-0.1h-0.2v-0.1l0.2-0.2l1.9-1.3l0.8-0.5l0.4-0.2l0.1,0.1l-0.5,0.5l-0.1,0.2
	v0.1l-0.1,0.2l-1.4,0.9V234.7z M-2.8,239.8l-0.1,0.3v0.1l-0.6,0.7l-0.2,0.4l-0.2,0.1l-0.2-0.3v-0.2l0.1-0.2l0.1-0.3v-0.3L-4,240
	l-0.2,0.3l0.1,0.1l0,0v0.1l-0.7-0.1l-0.2-0.2v-0.3l0.2-0.4l0.8-1l0.4-0.3l1.1-0.5l0.6-0.1l0.6-0.1l0.4,0.1l0.3,0.2l-0.2,0.2
	l-1.2,0.2l0,0l0.2,0.1l0.1,0.1l-0.2,0.3L-2.8,239.8z M-3.8,243L-3.8,243h0.2l0.1-0.2v-0.1v-0.1l0.8-0.7h0.2l0.3,0.1l1.3,0.1l0.5,0.1
	l0.6,0.3l0.2,0.1l0.8,1l0.3,0.4l0.2,0.1l0.1,0.2l0.1,0.4l0.1,0.1h1l0.4-0.1l0.3-0.2l0.3,0.1l0.4,0.3l0.3,0.1l0.3-0.2h0.3l0.3,0.1
	l0.1,0.1h0.1l0.5-0.6l0.6-0.5l0.8-0.6l0.5-0.3h0.1l0.8-0.3l0.7-0.1h1l0.9-0.2l0.8-0.4l0.7-0.3l0.6-0.1l0.3,0.1L14,242v0.4l0.1,0.6
	v0.4l-0.1,0.2v0.1l0.1,0.1h0.6l0.4,0.1h0.4l0.4-0.2h0.3l0.3,0.3h0.3l0.3-0.3l0.2-0.2l0.2-0.1h0.1l0.2,0.1l0.1,0.2l0.3,0.4l0.2,0.3
	l0.1,0.5l0.1,0.1v0.3l-0.2,0.2v0.2l0.1,0.1h0.6l0.3,0.1l0.1,0.1v0.2l0.1,0.2l0.2,0.2l0.5,0.2l0.1,0.1v0.2l-0.1,0.1l-0.3,0.1h-2h-0.6
	l-0.1,0.1h-0.1h-0.1h-0.2l-0.1-0.1l-0.1-0.2l-0.2-0.1h-0.3l-0.2,0.2l-0.2,0.6l0.1,0.1v0.4l0.1,0.1v0.1l-0.1,0.1h-0.2l-0.2-0.1
	l-1-0.8l-0.7-0.4l-0.9-0.2l-0.7-0.1l-0.5,0.1l-0.4,0.3l-0.3,0.5l-0.5,0.3l-0.7,0.1l-0.4,0.2v0.2H9.2l-0.4-0.1H8.4L8,248.7l-0.3,0.2
	l-0.3,0.6v0.3l-0.2,0.3l-0.6,0.4v0.1L6.3,251l-0.1,0.2v0.2H6.1l-0.3-0.2v-0.3l0.2-0.4l0.2-0.2h0.2l0.1-0.2v-0.4l-0.1-0.2l-0.3,0.1
	l-0.2,0.2l-0.2,0.1l-0.3-0.1L5.2,250L5,250.5l-0.2,0.4l-0.3,0.2l-0.2-0.2l-0.1-0.5V250l0.1-0.5l-0.1-0.1l-0.1,0.2L4,250l-0.2,0.9
	l-0.1,0.3l-0.2,0.1l-0.3,0.6l-0.4,1l-0.4,1l-0.5,0.9l-0.3,0.5l-0.1,0.1v0.2v0.4l-0.3-0.1L1,255.6l-0.2-0.3V255l0.2-0.8v-0.1V254
	l-0.2-0.1l-0.4,0.2L0,254.2h-0.1l-0.1-0.1v-0.2l0.1-0.3l0.2-0.5v-0.4l0.1-0.3l-0.1-0.5v-0.2l-0.2-0.2l-0.5-0.3l-1.1-0.3l0.1-0.5
	l-0.1-0.2l-0.3-0.3l-1.1-0.3l-0.7-0.1l-0.7,0.1l-0.5-0.1h-0.6l-0.4-0.2l-0.4-0.2l-0.4-0.2l-0.4-0.2l-0.7-0.1l-0.7-0.1l-0.7-0.1
	l-0.7-0.1l-0.7-0.1l-0.7-0.1l-0.7-0.1l-0.7-0.1l-0.2-0.3l-0.2-0.3l-0.2-0.3l-0.2-0.3l-0.3-0.1l-0.2-0.1l-0.1-0.2l-0.3,0.1l-0.1-0.3
	V246l0.3-0.1l1-0.5l0.8-0.5l0.7-0.6l0.8-0.4l1-0.2l0.7-0.3l0.4-0.3l0.6-0.6l0.3-0.2l0.4-0.1l0.3-0.2l0.2-0.4l0.4-0.4l0.6-0.5
	l0.3-0.2l0.1,0.1v0.2v0.2l0.2,0.2l0.3,0.1l0.2,0.2v0.2l0.1,0.2l0.2,0.2l0.1,0.4v0.6v0.4L-3.8,243z M19.3,244v0.2h-0.2l-0.1-0.1
	l-0.1-0.2l-0.2-0.4l-0.2-0.3l0.3-0.4l0.2-0.1l0.2,0.1l0.1,0.2l-0.1,0.4l0.1,0.4V244z M19.5,244.9L19.5,244.9l-0.4-0.2l-0.1-0.2v-0.2
	h0.1l0.2,0.1l0.1,0.1v0.2L19.5,244.9z M22.9,246.3l0.1,0.2l-0.1,0.3l-0.4,0.2l-0.8,0.1h-0.5L21,247l-0.1-0.1v-0.2H21l0.2,0.1
	l0.2-0.1l0.3-0.2L22,246v-0.1l-0.1-0.2l0.1-0.1h0.4l0.2,0.1l0.3,0.4V246.3z M17.6,248.4h0.7l0.1-0.1l0.2,0.2l0.1,0.2l-0.1,0.2
	l-0.1,0.1h-0.2l-0.3-0.1l-0.4-0.3V248.4z M16.9,248.9l0.7,0.4l0.7,0.2h0.6l0.5,0.1l0.3,0.2l0.2,0.3l0.2,0.3l0.3,0.1h0.5l0.4,0.1
	l0.3,0.2l1.5,0.4l0.7,0.2l0.4,0.3l0.1,0.2v0.2l0.1,0.2l0.3,0.4h0.1l0.1,0.2l0.1,0.3l0.1,0.2l0.1,0.1l-0.1,0.1l-0.5-0.1l-0.2,0.1
	l-0.1,0.3v0.2l0.1,0.2l0.7,0.6l0.2,0.6l0.1,0.8v0.3v0.7l0.1,1v0.4l-0.1,0.4l-0.5,0.6v-0.1h-0.1l-0.1,0.1l-0.1,0.4l-0.1,0.8l-0.1,0.4
	l-0.2,0.1l-0.1,0.1v0.2l-0.2,0.1l-0.4,0.1L23,262l-0.1,0.7L23,263l-0.1,0.4l0.1,0.3l0.2,0.3l0.4,0.2l0.7,0.2h0.4l0.2-0.2l0.2-0.5
	l0.2-0.2l0.3-0.1l0.1-0.2l0.4-1V262l-0.2-0.1v-0.1l0.2-0.1l0.2-0.2l0.2-0.2l0.3-0.2l0.7-0.3l0.4-0.3l0.3-0.1l0.4,0.1l0.5,0.3
	l0.5,0.4l0.4,0.6l0.6,1.6l0.8,2.6l0.5,1.5l0.2,0.3l0.1,0.1l0,0l0,0l-0.1,2.2l-0.2,0.9l-0.5,0.6v-0.1v-0.2l-0.1-0.5l-0.1-0.2H31
	l-0.2,0.1l-0.3,0.2l-0.1,0.2l0.1,0.2v0.2l-0.2,0.2l-0.1,0.4v0.6l-0.1,0.4l-0.1,0.2l-0.5,0.3l-0.2,0.2l-0.2,0.3l-0.1,0.5l-0.1,0.6
	v0.5L29,276l-0.1,0.2l-0.2,0.4v0.1v0.2v0.1h-0.1l-0.1,0.1l-0.2,0.4l-0.3,0.9l-0.1,0.2v0.1L26,279l-1.9,0.3l-1.9,0.3l-1.9,0.3
	l-0.1-0.4l-1.7,0.2l-1.7,0.2l-1.7,0.2l-1.7,0.2l-1.7,0.2l-1.7,0.2l-1.4,0.1l0.3-0.2l0.6-0.6l0.3-0.5l0.3-0.6L10,278l0.5-1.1l0.2-0.7
	l0.2-0.9l0.1-0.9l0.1-0.9v-0.9l-0.1-1l-0.3-1l-0.4-1l-0.2-0.5L10,269l-0.7-1.2l-0.8-1.7v-0.2l0.4-1.1v-0.1l-0.1-0.8l-0.2-0.4
	L8.3,263v-0.1l0.5-0.8l0.3-0.6l0.2-0.7l0.1-0.8v-0.9l-0.1-0.6l-0.1-0.3V258l0.1-0.2l0.6-0.3l0.2-0.4v-0.6l0.1-0.3h0.2l0.2-0.1
	l0.1-0.3l0.2-0.1l0.3,0.1l0.4-0.4l0.4-0.9l0.3-0.5l0.3-0.1l0.1,0.1l-0.1,0.3v0.3l0.1,0.3v0.3l-0.1,0.4l0.1,0.1l-0.1,0.7v0.3l0.2,0.2
	l0.1-0.1l0.1-0.5v-0.2h-0.1v-0.2l0.1-0.4l0.1-0.2h0.1v0.2v0.4l-0.2,0.9v0.3l0.1,0.1l0.3-0.6l0.2-0.9l0.2-0.7v-0.3l-0.2-0.9v-0.4
	l0.1-0.3l0.3-0.3l0.5-0.4l0.5-0.2l0.5-0.1l0.3-0.1l0.2-0.2l-0.1-0.1l-0.3-0.1l-0.3-0.2l-0.2-0.3l-0.1-0.3v-0.4l0.2-0.4l0.3-0.4
	l0.1-0.3l-0.2-0.2l0.2-0.1h0.5l0.3-0.1l0.2-0.2L16.9,248.9z M12.5,250.7l-0.2,0.1l-0.1-0.1v-0.4l0.1-0.6l0.2-0.3l0.3,0.1v0.1
	l0.1,0.7l-0.1,0.3L12.5,250.7z M10.6,254.7l-0.1,0.1h-0.1l-0.1-0.1l-0.2-0.3v-0.1h0.3l0.1,0.1L10.6,254.7z"/>
<polygon fill="none" stroke="#919191" stroke-linecap="round" stroke-linejoin="round" stroke-miterlimit="10" points="-10.3,234.4 
	-10.4,234.5 -10.5,234.5 -10.7,234.6 -11,234.9 -11.5,235.2 -12.4,235.7 -13.3,236.2 -15.4,237.1 -16.6,237.9 -17.2,238.4 
	-19.3,240.9 -20.6,242.2 -22.7,244.1 -22.9,244.3 -22.9,244.5 -23,244.5 -23.4,244.9 -23.5,245.2 -23.9,245.3 -23.8,246.4 
	-23.8,247.5 -23.7,248.6 -23.7,249.7 -23.9,249.8 -24.1,250.1 -24.4,250.2 -25.8,251.1 -26,251.4 -26.2,252 -26.7,252.7 
	-26.8,253.1 -26.8,253.5 -26,253.9 -25.7,254.3 -25.6,254.7 -25.6,255.1 -25.9,255.9 -26,256.2 -25.9,257.2 -26.1,257.5 
	-25.9,258.3 -25.9,258.6 -26,259.4 -26.1,259.7 -25.9,260.1 -25.9,260.1 -25.2,260.7 -24.6,261.1 -24.1,261.2 -23.6,261.4 
	-23.3,261.8 -22.9,262.1 -22.4,262.2 -21.9,262.5 -21.1,263.3 -20.7,264 -20,264.5 -18.8,265 -18.1,265.5 -17.7,265.9 -17.4,266.9 
	-17.1,269.2 -19,269.2 -20.8,269.3 -22.6,269.4 -24.3,269.5 -26.1,269.5 -27.9,269.6 -29.7,269.6 -31.5,269.7 -33.3,269.7 
	-35.1,269.8 -36.9,269.8 -38.7,269.8 -40.5,269.8 -42.3,269.8 -44.1,269.8 -45.9,269.8 -45.9,268.1 -45.9,266.4 -45.9,264.7 
	-45.9,262.9 -45.9,261.2 -45.9,259.5 -45.9,257.8 -45.9,256.1 -46.3,255.5 -47.1,255 -47.4,254.8 -47.8,254.1 -47.9,253.8 
	-48,253.6 -47.8,253.3 -47,252.6 -46.7,252.2 -46.6,251.9 -46.4,251.1 -46.4,250.6 -46.4,249.7 -46.6,249 -46.6,248.6 -46.7,248.2 
	-47.3,247.1 -47.4,246.2 -47.6,245.8 -47.6,244.6 -47.6,244.3 -47.5,243.7 -47.7,243.3 -47.7,242.9 -47.8,240.3 -47.9,239.9 
	-47.9,238.6 -48.3,237.3 -48.5,236.9 -48.6,236.3 -48.6,236.1 -49,235.2 -49.2,234.2 -49.2,233.3 -49.2,232.7 -49.2,232.2 
	-49.3,231.4 -49.2,231 -49.2,230.3 -49.6,228 -49,228 -46.9,228 -44.7,228 -42.5,228 -40.3,228 -39.1,228 -39.1,226.4 -39.1,225.2 
	-38,225.3 -37.7,225.5 -37.6,225.6 -37.6,226 -37.5,227 -37.3,227.9 -36.8,229 -36.8,229 -36.8,229.4 -36.6,229.6 -36.4,229.9 
	-35.3,230.1 -33.5,230.4 -32.4,230.8 -32.2,231.2 -31.7,231.4 -30.9,231.3 -30.4,231.1 -30,230.7 -29.4,230.6 -28.9,230.6 
	-28.3,230.6 -28,230.7 -27.2,231 -26.7,231.2 -25.9,231.7 -25.5,231.9 -25.2,232.4 -25,233.1 -24.6,233.1 -24.4,232.7 -23.7,232.6 
	-22.9,232.8 -22.1,233.6 -21,234.2 -20.3,234.5 -19.6,234.5 -18.8,234.1 -17.9,233.4 -17.2,233.2 -16.8,233.3 -16.6,233.8 
	-16.3,234 -15.6,233.9 -14.1,233.9 -13,233.7 -12.7,234 -12.4,234.4 -11.9,234.6 -11.3,234.4 "/>
<path fill="none" stroke="#919191" stroke-linecap="round" stroke-linejoin="round" stroke-miterlimit="10" d="M96.2,221.5h0.3
	l0.3-0.1l0.7-0.6l0.9-0.5l0.5-0.4v-0.2l0.2-0.1l0.4-0.1l0.8,0.3l1,0.5l0.8,0.4l0.3,1.1l0.4,1.1l0.4,1.2l0.3,0.9l0.4,1.2l0.3,0.9
	l0.4,1.2l0.2,0.6l0.1,0.2v0.3v0.1v0.1l0.1,0.1v0.2v0.2v0.2v0.1l-0.3,0.2l0.6,0.4l0.9,0.3l0.6-0.1l0.3-0.2l0,0h0.1l0.2,0.2v0.3
	l-0.1,0.2l-0.1,0.1v0.2l0.1,0.2l0.2,0.1l0.2,0.3v0.3v0.3v0.3l0.2,0.2l0.4,0.2l0.3,0.2l0.4-0.1l0.1-0.1l0.1-0.2l0.1-0.1h0.2h0.2h0.3
	v0.2l0.3,0.3l0.3,0.7l-0.1,0.4l0.2,0.4h0.5l0.2,0.1l0.1,0.2l-0.7,1.4l-0.9,0.1l-0.4,0.4L109,238l-0.1,0.6l-0.2,0.2l-0.4,0.1h-0.4
	l-0.2,0.1l-0.1,1h-0.3v0.4l-0.1,0.2l-0.2,0.2l-0.3-0.3l-0.2-0.3h-0.2H106l-0.2,0.1l-0.1,0.1l-0.1,0.3l-0.2,0.3l-0.3-0.1l-0.3-0.2
	v0.5l-0.1,0.5l0.2,0.5v0.4h-0.2l-0.3-0.2l-0.7-0.1l-0.5,0.2v-0.3l0.3-0.6h-0.2l-0.2,0.1H103v-0.5l-0.1-0.5l-0.1,0.2l-0.1,0.5
	l-0.5,0.6l0.2,0.6l-0.2,1.5l0.1,0.6L102,245l-0.4,0.5l-0.7,0.1l-0.4,0.5l-0.1,0.4l-0.2,0.1l-0.2-0.4l-0.1-0.1v0.8l-0.2,0.1l-0.2-0.5
	l-0.2-0.3l-0.2,0.4l0.1,0.8H99l-0.1-0.3l-0.1-0.1v0.3l0.2,0.4v0.3l-0.2-0.1l-0.2-0.2l-0.2,0.2l-0.2,0.1l-0.1-0.2v-0.3l-0.5,0.3
	l-0.5,0.7l-0.3,0.8l0.2,0.1l0.2,0.2l-0.5,1.3l-0.6,1.2l-0.2,1.8l-0.2,0.3l-0.1,0.4L95,254l-0.2-0.5l-0.7-0.5l-0.3-0.4l-0.2-0.5
	l-0.1-0.6l-0.3-0.8l-0.3-0.8l-0.3-0.8l-0.3-0.8l-0.3-0.8l-0.3-0.8l-0.3-0.8l-0.3-0.8l-0.3-0.8l-0.3-0.8l-0.3-0.8l-0.3-0.8l-0.3-0.8
	l-0.3-0.8l-0.3-0.8l-0.2-0.7l0.1-0.1l0.3-0.3h0.2l0.3,0.3l0.2,0.2l0.2-0.1l0.1-0.3l-0.1-0.4l0.1-0.3l0.2-0.1l0.2-0.1l0.1-0.2
	l-0.1-0.2l-0.2-0.3l-0.1-0.4l0.4-0.8l0.5-0.6l0.2-0.3l-0.1-0.5l0.2-0.6L92,233v-0.3l-0.2-0.3l-0.1-0.6l-0.1-0.7v-0.8l0.2-0.8
	l0.4-0.9l-0.1-1l-0.1-1.1l0.4-1.2l0.5-1.3l0.3-0.8l0.5-1.4l0.3-1l0.2-0.5l0.2-0.5h0.5h0.5l0.1,0.7l0.1,0.3l0.1,0.1l0.3,0.2
	L96.2,221.5z M106.3,241.4l-0.3,0.2h-0.4l0.1,0.4v0.2l-0.4-0.1l-0.2-0.1l-0.1-0.5l0.2-0.6l0.2-0.3h0.4l0.4,0.5L106.3,241.4z
	 M104.3,243.1l-0.2,0.2h-0.2l-0.1-0.4v-0.1l0.1-0.1l0.1,0.1L104.3,243.1z"/>
<path fill="none" stroke="#919191" stroke-linecap="round" stroke-linejoin="round" stroke-miterlimit="10" d="M95.9,257.2l0.4,0.3
	h0.2l0.2-0.1h0.2l0.2,0.1v0.2l-0.2,0.1l-0.4,0.5l-0.4,0.2L96,259l-0.2,0.6l-0.4,0.9l0.3,0.2h1l0.5,0.1l1,1.2l-0.1,0.2v0.3l0.7,0.2
	l0.5,1l0.6,0.2h0.8l0.8-0.5l0.6-0.6l-0.1-0.3l-0.7-0.7l-0.2-0.3l-0.4-0.1l-0.1,0.2l-0.3-0.2l-0.1-0.1l0.2-0.1h0.2l0.3,0.1l1,0.7
	l0.5,1.1l0.2,0.7v0.3h-0.2l-0.4,0.2l-1.8,0.9l-0.3,0.4l-0.9,0.6l-0.1-0.2v-0.4l-0.3-0.7h-0.2l-1.2,1.6l-0.6,0.2l-0.4,0.5L96,267
	l-0.3-0.9l0.1-0.9l-0.2,0.1l-0.2,0.4l-0.3-0.3L95,265l-0.2-0.1l-0.1-0.3l-0.1-0.4h-0.2l-0.2-0.5l-0.1-0.3l-0.4,0.1l-0.3,0.1
	l-0.5,0.2l-0.6,0.2l-0.4,0.1V264l-0.7,0.2l-0.7,0.2l-0.7,0.2l-0.7,0.2l-0.7,0.2l-0.7,0.2l-0.7,0.2l-0.7,0.2v0.2l-0.2,0.1l-0.1-0.2
	l-0.5,0.1l-0.5,0.1l-0.5,0.1l-0.5,0.1l-0.5,0.1l-0.5,0.1l-0.5,0.1l-0.5,0.1l-0.2-0.1v-0.7V265v-0.7v-0.7v-0.7v-0.7v-0.7v-0.7
	l0.5-0.1l0.5-0.1l0.5-0.1l0.5-0.1l0.5-0.1l0.5-0.1l0.5-0.1l0.5-0.1l0.8-0.2l0.8-0.2l0.8-0.2l0.8-0.2l0.8-0.2l0.8-0.2l0.8-0.2
	l0.8-0.2l0.4-0.3l0.4-0.7l0.3-0.2l0.5-0.5l0.3-0.1l0.6-0.1v0.4l0.3,0.3H95.9z M100.1,266.8l-1.4,0.8l-0.3-0.2l0.3-0.2l0.3-0.7
	l0.3-0.2l0.6,0.2L100.1,266.8z M103.3,266.8l-0.4,0.2h-1.1l0.7-0.5l0.1-0.1V266v-0.2l0.5,0.6L103.3,266.8z"/>
<path fill="none" stroke="#919191" stroke-linecap="round" stroke-linejoin="round" stroke-miterlimit="10" d="M-11.9,365l1.6-0.1
	l1.6-0.1l1.6-0.1l1.6-0.1l1.6-0.1l1.6-0.1l-0.1,0.9l-0.4,1.2v0.3l0.1,0.4v0.2l0.2,0.3l0.4,0.3l0.4,0.5l0.4,0.8l0.1,0.4l0.3,0.5
	l0.1,0.1l0.2,0.1l0.2,0.1l-0.4,0.2l-2.5-0.6l-0.6-0.6l-0.5-0.1h-0.7l-0.7,0.8l-0.5,1.1l0.9,0.5l0.7,0.2l1.2-0.3l0.6-0.5h0.5l0.3-0.1
	l0.2-0.3l0.5,0.2v0.2l-0.3,0.3l-0.4,0.3l-0.2,0.3l0.5,0.6l0.8,0.1l0.3-0.1l0.1-0.7l0.4-0.5h0.6l-0.1,0.3l0.1,0.2l0.3,0.4v0.6
	l0.1,0.1l-0.6,0.3l-0.5,0.1l-0.4,0.4l0.2,0.2l-0.4,0.2l-0.3-0.1l-0.1,0.1v0.2l-0.2,0.2l0.3,0.6l0.7,0.4l0.5,0.5l1.8,0.5h0.4l0.5,0.6
	l0.4,0.2l0.3,0.1v0.5l-0.6,0.4l-0.1,0.4l-0.1,0.2l-0.3-0.3L2,378.6l-0.6,0.7l-0.3,0.2l0.1-0.7l-0.3-0.2l-0.4-0.7l-0.6-0.4l-0.4-0.1
	l-0.3-0.2l-0.4-0.1h-0.3L-2,377l-0.1-0.4l-0.2-0.3l-0.4-0.3l-1.9-0.5v0.2l0.1,0.2l0.3,0.1l0.3,0.2v0.7l-0.1,0.3v0.4l-0.1,0.4
	l-0.2,0.4l-0.5,0.3l-0.2-0.2l-0.4-0.9l-0.5-0.3h-0.8l-0.5,0.2l-0.6,1l-0.5,0.2l-1.7-0.4l-2-0.6v-0.2l0.3-0.1l0.6,0.1v-0.2l-0.6-0.8
	l-0.1-0.4l0.1-0.5h-0.2l-0.3,0.4l-1.2-0.3l-0.4-0.4l-0.8-1h-1l-0.5-0.6l-0.8,0.3l-0.4,0.3l-0.3,0.5l0.2,0.2l0.4,0.4l-0.2,0.2
	l-1.2,0.3l-2.7-0.2l-0.8-0.3l-1.1-0.6l-1.5-0.4l-0.7-0.1l-0.7,0.1l-2,0.1l-0.5,0.1l-0.4,0.2l-0.3-0.2l-0.1-0.4l0.2-0.1l0.3-0.2
	l0.2-0.5v-0.3l-0.2-0.2l0.4-0.8l0.1-0.3l-0.1-1.3l-0.2-0.5v-0.3l0.2-0.7v-0.6l0.3-0.8l0.3-0.4l0.3-0.8l0.1-0.5l0.1-0.4l-0.1-0.4
	l0.2-0.3l-0.1-0.4l-0.1-0.6l-0.3-0.2l-0.5-0.9v-0.4l-0.5-0.8v-0.3l-0.5-0.4l-0.1-0.3l-0.1-1.1l-0.1-0.3l-0.4-0.6l-0.9-0.9v-1v-1v-1
	v-1v-1v-1v-1v-1h1.1h1.1h1.1h1.1h1.1h1.1h1.1h1.1h1.1h1.1h1.1l1.1-0.1l1.1-0.1l1.1-0.1l1.1-0.1l1.2-0.1l0.1,0.4l0.3,0.2v0.4
	l-0.2,0.6v0.4l0.3,0.2v0.2l-0.3,0.3v0.3l0.2,0.3l0.1,0.3v0.4l0.3,0.5l0.5,0.3l0.3,0.4v0.2v0.2v0.3l-0.3,0.4l-0.3,0.3l-0.2,0.1
	l-0.1,0.2v0.4l-0.4,0.6l-0.8,0.7l-0.5,0.9l-0.2,1l-0.3,0.7l-0.3,0.3l-0.1,0.5v0.8l-0.2,0.4l-0.4,0.1l-0.1,0.5l0.3,0.8l-0.1,0.3
	l-0.3,0.3v0.2l1.6-0.1L-11.9,365z M1.3,371.2v0.4L1,371.4H0.5l0.2-0.1l0.1-0.1l0.1-0.1l0.6-0.5l-0.1,0.3L1.3,371.2z M4.1,373.1
	l-0.2,0.3l0.1-1.2l-0.3-1l0.3,0.4l0.1,0.5L4.1,373.1z M3.8,373.9l-0.3,0.4v-0.2l0.2-0.4l0.2-0.2L3.8,373.9z M-15.4,376.6l-0.2,0.1
	l-1.1-0.6l-0.1-0.3l0.5-0.3h0.3l0.5,0.3l0.2,0.1l0.1,0.1v0.2L-15.4,376.6z"/>
<path fill="none" stroke="#919191" stroke-linecap="round" stroke-linejoin="round" stroke-miterlimit="10" d="M73.6,286.4l0.3,1.2
	l0.3,1.2l0.3,1.2l0.3,1.2l0.3,1.2l0.3,1.2l0.3,1.2L76,296l0,0l0,0l0,0l0,0l0,0l0,0l0,0l0,0l0.6-0.1l1.3-0.3l1.3-0.3l0.6-0.1v0.2v0.3
	l-0.1,0.2l-0.1-0.3l-0.1-0.1l-0.1,0.2l-0.1,0.2l0.1,0.7v0.3l-0.4,0.2l-0.2,0.9l-0.3,0.6l-0.1,0.3l-0.5,0.2l-0.9,0.3l-0.2,0.4
	l-0.5-0.1l-0.7,0.2v-0.5l0.1-0.4l-0.4-0.3h-0.2l-0.2-0.1l0.2-0.4v-0.4l-0.2-0.4v-0.3l-0.2,0.1l-0.2,0.4l-0.1,0.2l-0.2-0.3l-0.1,0.1
	v0.2l-0.2,0.2l-0.4-0.2l-0.6-0.2l-0.4-0.5l-0.3-0.4v-0.8l0.4-0.2h0.5l0.6-0.1l-0.1-0.2l-0.2,0.1l-0.8-0.5l-0.3-0.3h-0.4l-0.1,0.4
	l-0.2,0.1l0.1-0.9l0.3-0.1l0.4-0.3l-0.2-0.4l-0.3-0.1l-0.5,0.4l-0.1-0.3v-0.4l0.4-0.1l0.4,0.1l0.1-0.7l-0.1-0.3l-0.4,0.5l-0.3-0.9
	l0.3-1l0.4-0.5l0.6-0.1l0.6-0.2l-0.4-0.1h-0.4l0.2-0.4l0.2-0.1l0.2-0.4l-0.5,0.2l-0.1-0.6l-0.2,0.2l-0.3,0.1l-0.1,0.3l0.1,0.4v0.3
	l-0.2,0.3l-0.4,0.3l-0.1-0.3l-0.2-0.1l0.1,0.7l-0.1,0.2l-0.4-0.5l-0.1,0.1v0.2v0.3l-0.2,0.2l0.1,0.4l-0.1,0.2l-0.9-0.2v0.1l0.6,0.6
	l0.4,0.2l0.1,0.4l-0.2,0.4l-0.5-0.2h-0.1l0.3,0.4l0.2,0.4l-0.1,0.4l0.1,0.4v0.4v0.4l0.5,1.5l0.3,0.4l0.3,0.4l0.2,0.4l-0.2,0.1
	l-0.5-0.2l-0.4-0.2l-0.6-0.7l-0.1-0.3l-0.2-0.2l0.2,0.6l0.3,0.6l1.6,1.1l0.4,0.5l0.3,0.4v0.4l-0.4-0.2l-0.4-0.3l-0.9-0.2h-1.1
	l-0.8-0.8l0.1,0.4l-0.1,0.4l-0.4-0.3l-0.3-0.3l-0.2-0.4l-0.4,0.1l-0.4,0.4h-0.5l-0.2-0.6l0.1-0.4l0.3-0.9l0.4-0.5l0.1-0.6l-0.2-0.8
	l0.2,0.6l0.4-0.7l-0.4-0.4l-0.4-0.4l-0.4,0.6l-0.4-0.1l-0.8-0.5l-1.1-0.2L64,294v-0.3l0.1-0.4l-0.4-0.3l-0.8-0.2l-0.4-0.2h-0.1
	l-0.1-0.3l-0.1-0.2L62,292l-0.1-0.1l0.1-0.2l-0.1-0.2l-0.4-0.2l-0.1-0.2l0.1-0.2l-0.2-0.1l-0.4,0.1l-0.4-0.1l-0.5-0.3h-0.5l-0.8,0.5
	l-0.5,0.2l-0.2,0.2v0.4l-0.2,0.2l-0.5,0.1h-0.1h-0.5l-0.4-0.1l-0.1-0.1v-0.2l-0.1-0.1H56l-0.1,0.1v0.3l-0.7,1l-0.5-0.1h-0.2l-1,1.5
	l-0.3,0.3l-0.6,0.7l-0.2-1l-0.2-1l-0.2-1l-0.2-1l1.3-0.2l1.3-0.2l1.3-0.2l1.3-0.2l1.3-0.2l1.3-0.3l1.3-0.3l1.3-0.3l1.3-0.3l1.3-0.3
	l1.3-0.3l1.3-0.3l1.3-0.3l1.3-0.3l1.3-0.3L73.6,286.4z M79.6,298.3l-0.2,0.1l0.1-0.3l0.2-1.4l0.1-0.5v0.9l-0.2,0.9V298.3z"/>
<path fill="none" stroke="#919191" stroke-linecap="round" stroke-linejoin="round" stroke-miterlimit="10" d="M23.1,299.7h0.4
	l0.5-0.2h0.5l0.5,0.3l0.5,0.5l0.5,0.8l0.7,0.4l1,0.1l0.7,0.2l0.5,0.4l0.4,0.1l0.4-0.3l0.4-0.2l0.5,0.1l0.7,0.3l0.9-0.2l1.1-0.7
	l0.7-0.1l0.3,0.6l0.6,0.6l0.9,0.6h0.1l0.2,0.2l0.2,1.1v0.2l-0.1,0.5v0.2l0.2,0.4l0.8,0.8l0.1,0.3l0.3,0.3l0.3,0.5l0.8,1l1.2,0.7
	l0.9,0.1l-2,2.2l-0.9,0.8L37,313l-0.1,0.1l-0.1,0.6l-0.5,0.6l-0.3,0.6l-0.8,0.6l-0.6,0.7l-1.5,0.8l-0.9,0.3l-0.6,0.4l0,0l0,0l0,0
	l0,0l0,0l0,0l0,0l0,0l-2.1,0.2l-2.1,0.2l-2.1,0.2l-2.1,0.2l-2.1,0.2l-2.1,0.2l-2.1,0.1l-2.1,0.1l-2,0.2l-2,0.2l-2,0.2l-2,0.2
	l-0.2-0.2H6.1H5.3l0,0l0.3,0.8l0.1,0.7l0,0l-0.9,0.1l-1,0.1l-1,0.1l-1,0.1l-1,0.1l-1,0.1l-1,0.1l-1.2,0.1l0.3-0.7l0.3-0.2h0.1
	l0.3,0.1h0.1l0.3-0.3l0.2-0.7l0.1-0.7v-0.8l-0.2-0.6l-0.1-0.4l0.2-0.5l0.5-0.7l1-0.1l1.6,0.5l0.9,0.1l0.1-0.3l-0.1-0.4l-0.3-0.6
	l-0.1-0.5v-0.3l0.6-0.4l1.2-0.5l0.5-0.6l-0.3-0.6v-0.6l0.3-0.6l0.2-0.2l0.1-0.1l0.3,0.1l0.2-0.1l0.1-0.2v-0.3l-0.1-0.4l0.1-0.1h0.1
	l0.3,0.2h0.3l0.3-0.1l0.2,0.1l0.1,0.3l0.1,0.1l0.2-0.1l0.1-0.3V310l0.1-0.1l0.1,0.1l0.1,0.1h0.3l0.4-0.2l0.5,0.1l1,0.4l0.4,0.3
	l0.3-0.1l0.2-0.5l0.4-0.4l0.6-0.3l0.6,0.1l0.6,0.5l0.5,0.1l0.3-0.4l0.1-0.4v-0.4l0.1-0.3l0.2-0.1l0.1-0.2l-0.1-0.3l0.1-0.2l0.4-0.1
	v-0.1l-0.1-0.1v-0.1H15l0.2,0.1l0.2,0.2l0.1,0.4l0.4,0.3l0.7,0.3h0.5l0.3-0.3l0.3-0.6l0.2-1l0.3-0.6l0.5-0.2l0.3-0.4l0.2-0.6
	l0.3-0.5l0.5-0.4l0.1-0.5l-0.2-0.6l0.2-0.4l0.6-0.1h0.4l0.2,0.2l0.2,0.1l0,0h0.1l0.2-0.1l0.2-0.2l1.1-0.6l0.5-0.5V301l-0.1-0.2
	l-0.3-0.1l-0.1-0.1l0.1-0.2v-0.3l-0.2-0.3l0.1-0.3l0.1-0.1l0.3-0.3l0.3-0.1L23.1,299.7z M-3.8,322.3h-0.4v-0.1V322v-0.1h0.1H-4
	l0.2,0.2L-3.8,322.3z"/>
<polygon fill="none" stroke="#919191" stroke-linecap="round" stroke-linejoin="round" stroke-miterlimit="10" points="-186.1,229 
	-185.5,228.9 -185.2,229.2 -184.7,229.7 -184.5,230.8 -184.5,232.6 -184.6,233.2 -184.3,233.7 -183.8,233.8 -182.1,234.6 
	-181.8,234.7 -181.8,234.7 -181.4,234.7 -180.2,234.3 -179,234.4 -177.7,234.9 -176.9,235.3 -176.7,235.7 -176,235.9 -174.2,236 
	-172.2,236.2 -171.1,236.2 -169.9,235.9 -167.1,235.9 -165.7,236.1 -165,236 -164.8,235.9 -164.7,236 -163.4,236.3 -162,236.6 
	-160.6,237 -159.2,237.3 -157.9,237.6 -156.5,237.9 -155.1,238.2 -153.8,238.5 -153.7,238.9 -153.3,239.6 -152.7,240.4 -152.3,241 
	-152.2,241.7 -152.9,243 -154.4,244.9 -155.2,246.2 -155.4,246.7 -156.1,247.6 -157.4,248.9 -158,249.8 -158.2,250.5 -158,251 
	-157.4,251.2 -157,251.5 -156.9,251.9 -157,252.3 -157.2,252.5 -157.4,252.8 -157.3,253.1 -157.5,253.6 -158.1,254.7 -158.1,254.7 
	-158.5,256.6 -158.9,258.2 -159.3,259.9 -159.7,261.6 -160,263.2 -160.4,264.9 -160.8,266.6 -161.2,268.3 -163.2,267.8 
	-165.3,267.3 -167.3,266.8 -169.4,266.3 -171.4,265.9 -173.5,265.3 -175.5,264.8 -177.5,264.3 -179,263.9 -180.4,263.6 
	-181.9,263.2 -183.3,262.8 -184.7,262.4 -186.2,262 -187.6,261.6 -189,261.2 -190.5,260.8 -191.9,260.4 -193.3,260 -194.8,259.6 
	-196.2,259.1 -197.6,258.7 -199,258.3 -200.5,257.8 -200.9,256.7 -200.8,255.3 -200.7,254.7 -200.2,253.3 -200.2,252.6 
	-200.4,251.4 -199.9,250.5 -199.4,250 -198.1,247.8 -197.9,247.6 -197.7,247.7 -197.2,247.4 -197.3,247.3 -197.7,247.4 
	-197.1,246.5 -196.6,245.8 -196.3,245.6 -195.4,242.9 -194.6,240.9 -194.1,240.3 -194,239.6 -193.6,238.7 -193.4,237.7 
	-191.5,233.4 -191.4,232.8 -191,232.1 -190.5,230.1 -189.8,228 -189.9,227.6 -189.9,227.3 -189.7,227.3 -189.5,227.7 -188.3,228.1 
	-187.5,228 -187.2,228.2 -187,228.7 -186.6,228.9 "/>
<polygon fill="none" stroke="#919191" stroke-linecap="round" stroke-linejoin="round" stroke-miterlimit="10" points="2.5,275.5 
	2.6,276.7 2.7,277.7 2.9,278.1 3.2,278.5 3.4,278.6 3.7,279.3 4.1,280.3 4.4,281 4.6,281.3 4.8,283.3 5,285.6 5.2,287.9 5.4,290.2 
	5.6,292.5 5.8,294.8 6,297.1 6.1,299.3 6.1,299.3 5.9,299.6 5.8,300 5.8,300.4 5.8,300.8 5.6,301 5.8,301.4 6.2,302.2 6.5,302.9 
	6.6,303.6 6.6,304.2 6.3,304.7 6.1,305.7 5.9,306.2 5.6,306.4 5.3,306.8 5.1,307.4 4.9,307.8 4.6,307.8 4.4,307.9 4.3,308.2 
	4.3,308.4 4.5,308.7 4.5,309 4.2,309.2 4.2,309.3 4.3,309.4 4.3,309.5 4.1,309.7 4,310 4.1,310.6 4,310.9 3.8,310.9 3.8,311.1 
	4.2,311.7 4,311.9 3.7,312.5 3.7,313.1 4,313.7 3.5,314.3 2.4,314.8 1.8,315.2 1.7,315.5 1.8,316 2.1,316.6 2.2,317.1 2.1,317.3 
	1.2,317.2 -0.4,316.8 -1.5,316.9 -1.9,317.5 -2.1,318 -2,318.4 -2.5,317.9 -2.8,317.7 -2.8,317.8 -2.9,317.8 -2.9,318 -2.9,318.1 
	-2.8,318.2 -2.8,318.3 -2.9,318.3 -3.2,318.1 -3.6,317.6 -4.1,316.8 -4.3,316.2 -4.1,315.6 -4.1,315.1 -4.4,314.6 -4.5,314 
	-4.6,313.5 -5.2,312.8 -6.5,311.8 -7.4,311.2 -8,311 -8.7,310.5 -9.5,309.7 -9.9,309.2 -10,308.7 -9.7,307.6 -8.9,305 -8.8,304.7 
	-8.8,304.6 -8.8,304.5 -8.9,304.4 -9.3,304.2 -10.1,304 -10.9,303.9 -11.4,304.2 -12,303.6 -12.5,302.2 -13.7,300.6 -15.4,299.1 
	-16.5,298 -16.8,297.4 -17.1,296.5 -17.3,295.3 -17.4,294.4 -17.1,293.2 -16.8,293 -16.7,292.6 -16.9,291.9 -16.6,291.4 -15.9,291 
	-15.3,290.2 -14.7,289 -14.5,288.1 -14.6,287.6 -14.8,287.2 -15.2,286.7 -15.4,286.1 -15.2,285.5 -14.6,285 -13.6,284.7 
	-12.6,284.3 -11.8,283.8 -11.3,283.2 -11.2,282.6 -11,282.1 -10.7,281.8 -10.5,281.2 -10.4,280.5 -10.4,279.9 -10.5,279.6 
	-10.9,279.2 -11.6,278.7 -12,278.3 -12.1,277.9 -12.4,277.5 -13.1,277.1 -13.4,276.6 -10.9,276.4 -8.3,276.3 -5.8,276.1 -3.3,276 
	-0.8,275.8 1.7,275.6 "/>
<polygon fill="none" stroke="#919191" stroke-linecap="round" stroke-linejoin="round" stroke-miterlimit="10" points="-46.1,277.4 
	-45.9,277.4 -45.6,278.1 -45.4,279.3 -45.1,280.3 -44.5,281.1 -44.3,281.6 -44.3,282 -44.2,282.3 -43.9,282.7 -43.8,283.4 
	-43.9,284.3 -43.7,284.8 -43.5,284.9 -43.4,285 -43.4,285.2 -43.3,285.4 -43.1,285.5 -43,285.8 -43.1,286.2 -43,286.5 -42.8,286.6 
	-42.7,286.8 -42.9,287.1 -42.9,287.4 -42.7,287.6 -42.5,288.4 -42.5,289.9 -42.5,290.7 -42.6,291 -42.4,291.5 -42.1,292.1 
	-41.9,292.3 -41.6,293.1 -41.5,293.9 -41.1,294.4 -40.6,294.7 -40.3,295.2 -40.1,296 -39.7,296.6 -39.6,296.7 -40.7,296.7 
	-41.9,296.7 -43.1,296.7 -44.3,296.7 -45.5,296.7 -46.7,296.7 -48,296.7 -49.2,296.7 -50.4,296.7 -51.6,296.6 -52.8,296.6 
	-54.1,296.6 -55.3,296.6 -56.5,296.6 -57.7,296.5 -58.9,296.5 -60.1,296.5 -61.4,296.4 -62.6,296.4 -63.8,296.3 -65,296.3 
	-66.2,296.2 -67.4,296.2 -68.7,296.1 -69.9,296.1 -71.1,296 -72.3,295.9 -73.5,295.9 -74.7,295.8 -76,295.7 -77.2,295.7 
	-78.4,295.6 -78.3,294.6 -78.3,293.7 -78.2,292.7 -78.1,291.8 -78.1,290.8 -78,289.8 -78,288.9 -77.9,287.9 -79.3,287.8 
	-80.8,287.7 -82.2,287.6 -83.6,287.5 -85,287.4 -86.5,287.3 -87.9,287.2 -89.3,287.1 -89.2,285.2 -89,283.2 -88.8,281.3 
	-88.7,279.4 -88.5,277.5 -88.4,275.6 -88.2,273.7 -88.1,271.8 -86.1,271.9 -84.2,272.1 -82.3,272.2 -80.4,272.4 -78.4,272.5 
	-76.5,272.6 -74.6,272.7 -72.7,272.8 -70.8,272.9 -68.8,273 -66.9,273.1 -65,273.2 -63.1,273.3 -61.1,273.4 -59.2,273.4 -57,273.5 
	-55.4,274.7 -54.4,275 -53.9,274.7 -52.9,274.5 -51.3,274.5 -50.3,274.7 -49.9,275.1 -49.1,275.5 -47.9,275.9 -47.2,276.4 -47,277 
	-46.5,277.3 "/>
<polygon fill="none" stroke="#919191" stroke-linecap="round" stroke-linejoin="round" stroke-miterlimit="10" points="-125,255.7 
	-125.2,256.9 -125.4,258.1 -125.6,259.2 -125.8,260.4 -126,261.6 -126.2,262.8 -126.4,264 -126.6,265.2 -126.7,266.3 -126.9,267.5 
	-127.1,268.7 -127.3,269.9 -127.5,271.1 -127.7,272.2 -127.9,273.4 -128.1,274.6 -129.1,274.4 -130.1,274.3 -131.2,274.1 
	-132.2,273.9 -133.3,273.8 -134.3,273.6 -135.4,273.4 -136.4,273.2 -137.4,273 -138.5,272.8 -139.5,272.7 -140.6,272.5 
	-141.6,272.3 -142.6,272.1 -143.7,271.9 -144.7,271.7 -146.8,271.3 -148.8,270.9 -150.9,270.5 -152.9,270 -155,269.6 -157.1,269.2 
	-159.1,268.7 -161.2,268.3 -160.8,266.6 -160.4,264.9 -160,263.2 -159.7,261.6 -159.3,259.9 -158.9,258.2 -158.5,256.6 
	-158.1,254.7 -158.1,254.7 -157.5,253.6 -157.3,253.1 -157.4,252.8 -157.2,252.5 -157,252.3 -156.9,251.9 -157,251.5 -157.4,251.2 
	-158,251 -158.2,250.5 -158,249.8 -157.4,248.9 -156.1,247.6 -155.4,246.7 -155.2,246.2 -154.4,244.9 -152.9,243 -152.2,241.7 
	-152.3,241 -152.7,240.4 -153.3,239.6 -153.7,238.9 -153.8,238.5 -153.9,238.1 -153.9,237.5 -153.7,237.3 -153.7,236.8 -153.9,236 
	-153.9,235.4 -153.8,235.3 -153.8,235.2 -153.5,234 -153.2,232.8 -153,231.6 -152.7,230.4 -152.4,229.2 -152.2,228.1 -151.9,226.9 
	-151.7,225.7 -151.4,224.5 -151.1,223.3 -150.9,222.1 -150.6,220.9 -150.3,219.8 -150.1,218.6 -149.8,217.4 -149.6,216.2 
	-148,216.6 -145.9,217 -144.6,217.3 -145,219.1 -145.4,220.9 -145.8,222.8 -146.2,224.6 -145.8,225.5 -145.5,226 -145.4,226.6 
	-145.1,227.2 -145,227.4 -145,227.9 -145.2,228.3 -145.1,228.8 -145.2,229 -145.3,229 -145.4,229.1 -145.4,229.1 -145.3,229.2 
	-144.9,229.7 -144.4,230.4 -143.8,230.9 -143.6,231.1 -142.9,232.4 -142.6,233.2 -142.2,233.8 -142.1,234.5 -141.7,235.1 
	-141.6,235.3 -141.6,235.4 -141.5,235.4 -141.1,235.4 -141.1,235.4 -140.9,235.7 -141,236 -140.9,236.1 -140.7,236.2 -140.5,236.3 
	-139.7,236.3 -139.6,236.3 -139.5,236.4 -139.5,236.6 -139.6,236.8 -139.7,237.2 -140,237.5 -140,237.9 -140.4,238.7 -140.6,239.2 
	-140.8,239.7 -141,240 -141,240.4 -141.2,240.9 -141.1,241.1 -140.9,241.4 -140.9,242.1 -141,242.2 -141.5,242.4 -141.7,242.5 
	-141.8,242.8 -141.8,243.5 -142,243.9 -142.1,244.2 -142.1,244.3 -141.7,244.6 -141.3,245.1 -141.1,245.2 -141,245.2 -140.8,245.1 
	-140.5,244.9 -139.9,244.7 -139.2,244.2 -139.2,244.1 -139.1,244 -139,244 -138.9,244.1 -138.6,244.5 -138.3,244.8 -138.2,244.9 
	-138.2,245 -138.3,245.3 -138.2,245.6 -138.2,246.1 -138.1,246.6 -138.1,247.2 -137.8,248 -137.6,248.6 -137.4,248.8 -137.2,249.1 
	-137.2,249.5 -137.2,249.8 -137.4,250.2 -137.4,250.4 -137.3,250.7 -136.9,251.3 -136.8,251.3 -136.3,251.4 -136.1,251.5 
	-135.9,251.8 -135.7,252.2 -135.6,252.6 -135.7,253.1 -135.5,253.6 -135.5,254.1 -135.4,254.3 -135.1,254.6 -134.9,254.8 
	-134.7,254.9 -134.6,254.8 -134.6,254.6 -134.4,254.4 -134,254.2 -133.6,254.3 -132.3,254.7 -132.2,254.7 -132.1,254.7 
	-131.8,254.3 -131.6,254.2 -131.3,254.2 -130.5,254.4 -129.5,254.5 -129,254.7 -128.2,254.7 -127.4,255 -127.3,254.9 -127.2,254.8 
	-127.3,254.7 -127.3,254.4 -127,254.1 -126.9,253.8 -126.7,253.6 -126.5,253.6 -126.3,253.6 -126.1,253.8 -126,254.1 -125.7,254.9 
	-125.6,255.2 -125.4,255.4 "/>
<polygon fill="none" stroke="#919191" stroke-linecap="round" stroke-linejoin="round" stroke-miterlimit="10" points="-86,322.1 
	-86.3,322.1 -86.5,324.2 -86.6,326.4 -86.8,328.5 -87,330.7 -87.1,332.8 -87.3,335 -87.5,337.1 -87.6,339.3 -87.8,341.4 -88,343.6 
	-88.1,345.7 -88.3,347.9 -88.5,350 -88.6,352.2 -88.8,354.3 -89,356.5 -90.4,356.4 -91.9,356.2 -93.3,356.1 -94.8,356 -96.2,355.9 
	-97.7,355.8 -99.1,355.6 -100.6,355.5 -102,355.4 -103.4,355.2 -104.9,355.1 -106.3,354.9 -107.8,354.8 -109.2,354.6 -110.7,354.5 
	-112.1,354.3 -112.1,354.3 -111.6,355.8 -111.6,355.8 -110.9,356.2 -111,356.2 -112.4,356.1 -113.8,355.9 -115.2,355.7 
	-116.6,355.5 -118,355.4 -119.4,355.2 -120.8,355 -122.3,354.8 -122.4,355.6 -122.5,356.5 -122.6,357.4 -122.7,358.2 -125,357.9 
	-127.3,357.6 -128.1,357.5 -127.7,354.8 -127.4,352.1 -127,349.4 -126.6,346.7 -126.2,344.1 -125.9,341.4 -125.5,338.7 -125.1,336 
	-124.7,333.3 -124.4,330.6 -124,327.9 -123.6,325.2 -123.3,322.5 -122.9,319.8 -122.5,317.1 -122.1,314.4 -119.9,314.7 -117.6,315 
	-115.3,315.3 -113.1,315.6 -110.8,315.8 -108.5,316.1 -106.2,316.4 -104,316.6 -101.7,316.8 -99.4,317.1 -97.1,317.3 -94.9,317.5 
	-92.6,317.7 -90.3,317.9 -88,318.1 -85.7,318.2 -85.8,319.2 -85.9,320.2 -86,321.1 "/>
<polygon fill="none" stroke="#919191" stroke-linecap="round" stroke-linejoin="round" stroke-miterlimit="10" points="-13.4,276.6 
	-13.1,277.1 -12.4,277.5 -12.1,277.9 -12,278.3 -11.6,278.7 -10.9,279.2 -10.5,279.6 -10.4,279.9 -10.4,280.5 -10.5,281.2 
	-10.7,281.8 -11,282.1 -11.2,282.6 -11.3,283.2 -11.8,283.8 -12.6,284.3 -13.6,284.7 -14.6,285 -15.2,285.5 -15.4,286.1 
	-15.2,286.7 -14.8,287.2 -14.6,287.6 -14.5,288.1 -14.7,289 -15.3,290.2 -15.9,291 -16.6,291.4 -16.9,291.9 -16.7,292.6 -16.8,293 
	-17.1,293.2 -17.6,292.8 -17.7,292.5 -18.1,292.2 -18.2,292.1 -18.5,291.9 -18.8,291.4 -20.3,291.4 -21.7,291.5 -23.2,291.6 
	-24.6,291.6 -26.1,291.7 -27.5,291.7 -29,291.8 -30.4,291.8 -31.9,291.9 -33.4,291.9 -34.8,292 -36.3,292 -37.7,292 -39.2,292.1 
	-40.6,292.1 -42.1,292.1 -42.4,291.5 -42.6,291 -42.5,290.7 -42.5,289.9 -42.5,288.4 -42.7,287.6 -42.9,287.4 -42.9,287.1 
	-42.7,286.8 -42.8,286.6 -43,286.5 -43.1,286.2 -43,285.8 -43.1,285.5 -43.3,285.4 -43.4,285.2 -43.4,285 -43.5,284.9 -43.7,284.8 
	-43.9,284.3 -43.8,283.4 -43.9,282.7 -44.2,282.3 -44.3,282 -44.3,281.6 -44.5,281.1 -45.1,280.3 -45.4,279.3 -45.6,278.1 
	-45.9,277.4 -46.1,277.4 -46.2,276.8 -46.4,276.5 -46.4,276.3 -46.9,275.7 -46.9,275.5 -46.8,275.3 -46.5,274.7 -46.3,273.9 
	-46.2,273.3 -46,272.9 -46,272.7 -46,272.4 -46.1,272.1 -46.5,271.9 -46.5,271.8 -46.6,271.5 -46.4,271.3 -46.4,271.1 -46.4,270.8 
	-46.6,270.3 -46.7,269.8 -45.9,269.8 -44.1,269.8 -42.3,269.8 -40.5,269.8 -38.7,269.8 -36.9,269.8 -35.1,269.8 -33.3,269.7 
	-31.5,269.7 -29.7,269.6 -27.9,269.6 -26.1,269.5 -24.3,269.5 -22.6,269.4 -20.8,269.3 -19,269.2 -17.1,269.2 -17.1,269.6 -17,270 
	-16.7,270.2 -16.4,270.4 -16.3,270.8 -16.5,271.4 -16.5,272.2 -16.4,273.1 -16.2,273.9 -15.9,274.6 -15.2,275.1 -14.3,275.3 
	-13.7,275.8 -13.5,276.5 "/>
<path fill="none" stroke="#919191" stroke-linecap="round" stroke-linejoin="round" stroke-miterlimit="10" d="M45.7,362.7l1-0.1
	v0.2l0.2,0.4l0.1,0.4l0.1,0.2l0.2,0.1h0.3l0.3-0.3L48,363v-0.6l-0.2-0.7l-0.1-0.6l0.1-0.4l0.2-0.1l0.1-0.2l0.1-0.1h0.4l1.4,0.3
	l1.1-0.1l0.4,0.6l0.9,2.7l0.5,0.9l1,2.5l1.4,2.4l1.8,2.8l2.8,3.3l0.4,0.5l-0.2,0.5v0.5l0.1,0.7l0.2,0.7l0.4,0.8l0.7,1.2l-0.3-0.2
	l-1-1.7l-0.3-1.1l-0.1-1.5l-0.2,0.1l-0.1,0.5v0.6l-0.2,0.3l-0.4-0.8v-0.4l0.2-0.5l-0.1-0.2l-0.5-0.2l-0.2-0.4v-0.4l-0.3-0.2h-0.2
	l0.3,0.9l0.3,0.5l0.5,1.3l0.5,0.7l0.4,0.6l4,6.8l0.8,0.8l0.4,0.6l0.5,1.3l0.4,1.8l0.1,3.3l0.3,2.2l-0.1-0.1l-0.1-0.2H66l-0.2,1.1
	l-0.4,1l0.1,1.5l-0.2,0.8l-0.7,0.9l-0.5,0.1l-1.1,0.8h-0.9l-1,0.5l-0.7,0.1l-0.5-0.6v-0.3l0.1-0.3l0.3-0.1l1,0.6l0.1-0.3l-0.3-0.3
	l-0.6-0.1l-0.4-0.2l-1-1.5l-1-1l-0.3-0.7l-1.5-0.2l-1.1-0.5l-0.8-1.1l-0.7-2.1l-0.5-0.2l-0.2-0.1l0.3-0.9l0.4-0.7l-0.3,0.2l-0.2,0.3
	l-0.2,0.6l-0.2,0.1l-0.2-0.1l-0.4-1.1l-0.1-1.4l0.3-0.6l-0.6,0.1l-0.6,0.3l0.2,0.5v0.3H51l-0.3-0.1l-0.5-0.4l-0.7-0.8l-1.6-2.4
	l-0.3-0.3l-0.5-0.3l0.2-0.1l0.3-0.1l0.6-1.3l0.5-0.8l0.1-0.5l-0.1-0.2l-0.3-0.3l-0.3,0.3l-0.2-0.1l-0.5-0.5l-0.4-0.1l-0.2,0.2
	l0.3,0.5l0.3,0.1v0.7l-0.1,0.2l-0.2,0.2l-0.4-0.1l-0.2,0.2l-0.2-0.2l-0.3-0.3l-0.3-0.5l0.2-3l0.3-2l-0.2-2.1V376l-0.1-0.6l-1-1.1
	L41,372l-3.1-3.2l-2.5-1l-1.7,0.5l-0.3,0.3l-0.1,0.4l0.2,0.4l-0.1,0.2h-0.5l-0.6,0.2l-1.5,1.1h-0.6l-0.5,0.3l-0.4,0.2l-1,0.2
	l-0.9,0.3l-0.4-0.1l-0.3-0.5l-0.1-0.6l0.2,0.4l0.3,0.3l0.1-0.2v-0.3l-0.4-0.6l-1.1-0.6l-1.2-1h0.3l0.1-0.2l-0.4-0.3l0.1-0.4l0.2-0.4
	l-0.5,0.1l-0.4,0.3v0.3l-0.1,0.3h-0.2l-0.5-0.3l-2.2-0.7l-1.9-0.3l1.4-0.4l0.8,0.1l-0.1-0.3l-0.2-0.2l-0.6-0.2l-0.8,0.2l-0.5-0.1
	l-0.5,0.3l-0.5,0.4l-0.5,0.2l-1.9,0.4l-1.5,0.4l0.2-0.3l0.2-0.2l0.9-0.3l0.1-0.6l-0.3-0.5l-0.2,0.1l-0.2,0.4l-0.3-0.3h-0.3v0.7
	l-0.4,0.5l-0.2,0.5l-1.2,0.5l-0.2-0.1l0.3-0.4l-0.1-0.2l-0.3,0.1v-0.3l0.2-0.3l0.1-0.3l-0.1-0.5l0.1-0.7l-0.1-0.2l-1-0.9l-0.3-0.5
	l-0.1-0.5V363l2.1-0.2l2.1-0.2l2.1-0.2l2.1-0.2l2.1-0.2l2.1-0.2l2.1-0.2l2.1-0.2L28,362l0.7,1.2l0.1,0.3h0.6l1-0.1l1-0.1l1-0.1
	l1-0.1l1-0.1l1-0.1l1-0.1l1-0.1l1-0.1l1-0.1l1-0.1l1-0.1l1-0.1l1-0.1L45.7,362.7z M30.1,371.9l-0.6,0.3l-0.7-0.1l0.4-0.1h0.3
	l0.8-0.5l0.4-0.3l0.5-0.2L30.1,371.9z M64.2,385.1l0.2,0.5l-0.8-1.2l-1.1-1.9l-0.7-1.5l0.3,0.4l0.4,0.8L64.2,385.1z M52.2,392.6
	l0.1,0.4l-0.5-0.7l-0.3-0.8l0.4,0.2L52.2,392.6z M52.6,393.3l-0.2,0.2l-0.5-0.1l-0.3-0.2l-0.2-0.5l0.5,0.5l0.2,0.1H52.6z
	 M65.5,401.3l-1.1,1.6l0.1-0.4l0.4-0.8l0.1-0.4l0.3-0.3l0.3-0.5l-0.1-0.5l0.4-0.4l0.2-0.1L65.5,401.3z M64,403.3l-0.2,0.1L64,403
	h0.1L64,403.3z M62.8,404.3h-0.1H62.8L63,404l0.1,0.1v0.1L62.8,404.3z M61.4,405.2l-0.3,0.2l-0.3-0.1l0.3-0.2l1-0.4l-0.4,0.3
	L61.4,405.2z M59.5,406l-0.2,0.2h-0.1V406l-0.4-0.4v-0.1l0.8,0.4L59.5,406L59.5,406z M57.9,406.6l-0.4,0.1l0.3-0.3l0.1-0.5l0.3,0.3
	v0.2L57.9,406.6z M56.5,407.2h-0.2v-0.1l0.3-0.2h0.2v0.2L56.5,407.2z"/>
<polygon fill="none" stroke="#919191" stroke-linecap="round" stroke-linejoin="round" stroke-miterlimit="10" points="
	-128.1,274.6 -128.2,275.6 -128.4,276.5 -128.5,277.5 -128.7,278.4 -128.8,279.4 -129,280.3 -129.1,281.3 -129.3,282.2 
	-127.9,282.4 -126.4,282.6 -125,282.9 -123.6,283.1 -122.2,283.3 -120.8,283.5 -119.3,283.7 -117.9,283.9 -118.2,285.8 
	-118.4,287.7 -118.7,289.6 -119,291.5 -119.2,293.4 -119.5,295.3 -119.8,297.2 -120,299.1 -120.3,301 -120.6,302.9 -120.8,304.9 
	-121.1,306.8 -121.3,308.7 -121.6,310.6 -121.9,312.5 -122.1,314.4 -124,314.1 -125.9,313.8 -127.7,313.6 -129.6,313.3 -131.5,313 
	-133.3,312.7 -135.2,312.4 -137.1,312.1 -138.9,311.8 -140.8,311.5 -142.7,311.1 -144.5,310.8 -146.4,310.5 -148.2,310.1 
	-150.1,309.8 -151.9,309.4 -151.7,308.3 -151.5,307.1 -151.3,305.9 -151,304.7 -150.8,303.5 -150.6,302.4 -150.4,301.2 -150.1,300 
	-149.9,298.8 -149.7,297.6 -149.5,296.5 -149.2,295.3 -149,294.1 -148.8,292.9 -148.6,291.7 -148.3,290.6 -148.1,289.4 
	-147.9,288.2 -147.6,287 -147.4,285.8 -147.2,284.7 -147,283.5 -146.7,282.3 -146.5,281.1 -146.3,279.9 -146.1,278.8 -145.8,277.6 
	-145.6,276.4 -145.4,275.2 -145.2,274 -144.9,272.9 -144.7,271.7 -143.7,271.9 -142.6,272.1 -141.6,272.3 -140.6,272.5 
	-139.5,272.7 -138.5,272.8 -137.4,273 -136.4,273.2 -135.4,273.4 -134.3,273.6 -133.3,273.8 -132.2,273.9 -131.2,274.1 
	-130.1,274.3 -129.1,274.4 "/>
<polygon fill="none" stroke="#919191" stroke-linecap="round" stroke-linejoin="round" stroke-miterlimit="10" points="-35,319.7 
	-36.4,319.8 -37.8,319.8 -39.2,319.8 -40.6,319.8 -42,319.8 -43.4,319.8 -44.8,319.8 -46.2,319.8 -47.6,319.8 -49,319.8 
	-50.4,319.8 -51.8,319.7 -53.2,319.7 -54.6,319.7 -56,319.7 -57.4,319.6 -58.8,319.6 -60.2,319.5 -61.6,319.5 -63,319.5 
	-64.4,319.4 -65.8,319.4 -67.2,319.3 -68.6,319.2 -70,319.2 -71.4,319.1 -72.8,319 -74.2,319 -75.6,318.9 -77,318.8 -78.4,318.7 
	-79.8,318.6 -79.7,317.2 -79.6,315.8 -79.5,314.3 -79.4,312.9 -79.3,311.4 -79.3,310 -79.2,308.6 -79.1,307.1 -79,305.7 
	-78.9,304.2 -78.8,302.8 -78.7,301.4 -78.6,299.9 -78.6,298.5 -78.5,297 -78.4,295.6 -77.2,295.7 -76,295.7 -74.7,295.8 
	-73.5,295.9 -72.3,295.9 -71.1,296 -69.9,296.1 -68.7,296.1 -67.4,296.2 -66.2,296.2 -65,296.3 -63.8,296.3 -62.6,296.4 
	-61.4,296.4 -60.1,296.5 -58.9,296.5 -57.7,296.5 -56.5,296.6 -55.3,296.6 -54.1,296.6 -52.8,296.6 -51.6,296.6 -50.4,296.7 
	-49.2,296.7 -48,296.7 -46.7,296.7 -45.5,296.7 -44.3,296.7 -43.1,296.7 -41.9,296.7 -40.7,296.7 -39.6,296.7 -38.3,297.7 
	-37.9,297.7 -37.5,297.5 -37.2,297.7 -37,298.4 -37,298.7 -37.3,298.7 -37.6,299.1 -38,299.8 -37.9,300.5 -37.3,301.1 -36.9,301.7 
	-36.6,302.4 -36.2,302.9 -35.3,303.4 -35.3,303.7 -35.3,304.7 -35.3,305.7 -35.3,306.7 -35.2,307.7 -35.2,308.7 -35.2,309.7 
	-35.2,310.7 -35.2,311.7 -35.2,312.7 -35.1,313.7 -35.1,314.7 -35.1,315.7 -35.1,316.7 -35.1,317.7 -35.1,318.7 "/>
<path fill="none" stroke="#919191" stroke-linecap="round" stroke-linejoin="round" stroke-miterlimit="10" d="M-200.5,257.8
	l1.5,0.5l1.4,0.4l1.4,0.4l1.4,0.4l1.4,0.4l1.4,0.4l1.4,0.4l1.4,0.4l1.4,0.4l1.4,0.4l1.4,0.4l1.4,0.4l1.4,0.4l1.4,0.4l1.4,0.4
	l1.4,0.4l-0.4,1.4l-0.4,1.4l-0.4,1.4l0.2,1.4l-0.4,1.4l-0.4,1.4l-0.4,1.4l-0.4,1.4l-0.4,1.4l-0.4,1.4l-0.4,1.4l-0.4,1.4l-0.4,1.4
	l-0.4,1.4l-0.4,1.4l-0.4,1.4l1,1.6l1,1.6l1,1.6l1,1.6l1.1,1.6l1.7,1.3l1.1,1.6l1.1,1.5l0.8,1.3l0.8,1.3l0.8,1.3l0.8,1.3l0.8,1.3
	l0.8,1.3l0.9,1.3l0.9,1.3l1.2,1.8l1.2,1.8l1.2,1.8l1.2,1.8l1.2,1.8l1.2,1.8l1.2,1.8l1.3,1.9l-0.1,0.6l0.2,0.9l0.7,1.7v0.4l0,0v0.4
	l0.3,0.5l0.8,0.8l0.2,0.3l0,0v0.2l-0.3,0.2l-1.2,0.6l-0.7,0.6l-0.8,1l-0.1,0.9l-0.2,0.7l-0.3,0.6l-0.3,0.5l-0.4,0.4l-0.4,0.2h-0.3
	l-0.2,0.6l-0.1,1.2l0.2,0.8l0.6,0.4l0.3,0.5v0.6l-0.2,0.5l-0.3,0.5l-0.5,0.2l-0.9-0.1l0,0v0.1l-0.7-0.1l-1.8-0.2l-1.8-0.2l-1.8-0.2
	l-1.8-0.2l-1.8-0.2l-1.8-0.2l-1.8-0.2l-1.8-0.2V339l0.1-0.8l-0.2-0.4l-0.4,0.1l0.1-1.1l0.2-0.5l0.1-0.5l-0.1-1.3l-0.6-1.7l-1.6-2.3
	l-0.9-0.8l-0.6-1l-0.4-0.3l-0.6-0.2l-0.3,0.3l-0.7-0.4l0.3-0.8l-0.4-1.4l-0.5-0.3l-1.4-0.3l-1.7-1.1l-0.5-0.5V323l-0.7-0.8l-1-0.9
	h-0.7l-0.8-0.3l-1.1-0.7l-0.7-0.2l-1.4-0.2l-0.5-0.2l-0.3-0.7l-0.4-0.4l0.3-0.6l0.1-0.6l0.2-0.4v-1.1l0.4-0.9l-0.1-0.4l-0.2-0.3
	l-0.8-0.6v-0.5l0.3-0.6l-0.1-0.5l-0.6-0.6l-0.4-1.1l-0.7-0.7l-0.1-1l-0.4-0.7l-0.1-0.5l-0.7-2l-0.9-1.7V303l0.2-1l0.7-0.5l0.4-0.5
	l0.1-0.5v-0.4l-0.2-0.8l-1.5-0.8l-0.9-2l0.3-1.2l-0.2-1.4l0.2-0.8l0.2-0.9l0.5-0.1l0.3,0.2l-0.1,0.3l-0.1,0.7l0.3,0.6l0.3,0.3
	l0.2,0.6l0.2,0.2l0.3,0.1l-0.1-0.3l-0.1-0.2v-0.7l-0.1-0.9l-0.3-0.6v-0.8l-0.5-0.6v-0.3l0.5-0.2l0.6-0.1l0.8,0.1l2.1,0.7l0.5-0.1
	l0.4,0.2h0.3l-0.5-0.4h-0.3l-0.4-0.1l-0.8-0.2l-0.3-0.2l-0.3-0.3l-0.2-0.1l-0.8,0.2l-0.3-0.1l-0.6-0.7l-0.3-0.2l-0.6,0.1l-0.4,1.1
	l-0.1,0.9h-0.3l-0.3-0.5l-0.5-0.4l-0.4-0.5l-0.5-0.8l-0.3-0.3l-0.5,0.4l0.1-0.2l0.4-0.5l0.2-1l0.4,0.9v-0.6l-0.3-0.7l-0.3-0.3
	l-0.1-1.2l-0.8-0.9l-0.5-1.3l-1.1-2.2l0.3-1.5v-2.1l0.6-1l0.2-0.8l0.1-1.2l-0.1-0.7l-0.7-1.9l-0.9-1.5l0.1-0.9l0.2-0.9l0.5-0.7
	l0.5-0.8l0.2-0.2v0.1l-0.1,0.2l0.2,0.1l0.2-0.3l0.2-0.2l-0.2-0.1l0.1-0.1l0.2-0.2l0.7-1l0.4-1.4l0.9-1.6l0.2-0.6l0.1-1.3v-0.8
	l-0.3-0.6l0.4-0.7l0.2-0.7H-200.5z M-192,323.5l1.1,0.7h0.7l0.1,0.2l-0.1,0.1l-1.6-0.1l-0.4-0.3v-0.3l-0.1-0.3H-192z M-194.7,323.2
	l-0.3-0.1l-0.5-0.2l0.2-0.1l0.3-0.1l0.1,0.1L-194.7,323.2z M-193.3,324.4h-0.5l-0.3-0.2l-0.3-0.8l1.1,0.2l0.4,0.4v0.1L-193.3,324.4z
	 M-183.9,331l0.2,0.6l-0.4-0.2l-0.5-0.1l-0.1-0.3v-0.4l-0.1-0.1l-0.3-0.1l0,0v-0.2l0.1-0.2l0.9,0.7L-183.9,331z M-190.9,330.6
	l-0.3-0.1l-0.4-0.2l-0.1-0.4l0.3,0.1l0.3,0.1l0.1,0.4L-190.9,330.6z M-184.9,335.1h-0.4l-0.4-0.2l-0.2-0.8l-0.2-0.7l0.2-0.1l0.2,0.6
	l0.6,1L-184.9,335.1z"/>
<path fill="none" stroke="#919191" stroke-linecap="round" stroke-linejoin="round" stroke-miterlimit="10" d="M36.4,329.8l-0.2,0.6
	l-0.8,1.1l-0.1,0.8l1.3,0.7l0,0l0.8,0.6l0.5,0.2h0.5l0.3,0.2l0.3,0.5l0,0l1.8,2.4l0,0l1.7,1.2l0.7,0.6l0.4,0.6l1.4,0.9l0.5,0.5
	l0.1,0.4l0.2,0.3l0.3,0.1l0.3,0.3l0.3,0.6l0.6,0.4l0.8,0.3l0.7,0.9l0.6,1.5l0.5,0.9l0.6,0.3l1,1.2l0.4,0.8l0.1,0.7l0.5,0.5l1.4,0.4
	l-0.2,0.7l-0.7,0.5h-0.2l-0.2,0.1l0.2,0.3l0.2,0.2v0.2l-0.2,0.3l-0.4,0.1l-0.2,0.3l0.1,0.3l0.2,0.1v0.3L52,354l-0.1,0.3h0.2l0.2-0.1
	h0.1l-0.2,0.5L52,355l-0.2,0.5l-0.5,0.2v0.2l0.3,0.1l0.3,0.3l-0.4,0.8h-0.3L51,357v0.6l0.1,0.3v0.6l-0.1,0.7l-0.1,0.3L51,360
	l0.2,0.5l-1.1,0.1l-1.4-0.3h-0.4l-0.1,0.1l-0.1,0.2l-0.2,0.1l-0.1,0.4l0.1,0.6l0.2,0.7v0.6l-0.1,0.6l-0.3,0.3h-0.3l-0.2-0.1
	l-0.1-0.2l-0.1-0.4l-0.2-0.4v-0.2l-1,0.1l-1,0.1l-1,0.1l-1,0.1l-1,0.1l-1,0.1l-1,0.1l-1,0.1l-1,0.1l-1,0.1l-1,0.1l-1,0.1l-1,0.1
	l-1,0.1l-1,0.1l-1,0.1h-0.6l-0.1-0.3l-0.7-1.2l-0.3-0.6l-0.5-0.8l-0.3-1.3v-2.1l-0.1-0.5l0,0l-0.5-1l-0.1-0.8l0.2-1.3l0,0l0.1-0.8
	l0.2-0.4l0.4-0.4v-0.3l-0.3-0.2l-0.1-0.3v-0.4l-0.4-0.9l-1.1-2l-0.2-0.7l-0.2-0.4l-0.3-1l-0.3-1l-0.3-1l-0.3-1l-0.3-1l-0.3-1l-0.3-1
	l-0.3-1l-0.3-1l-0.3-1l-0.3-1l-0.3-1l-0.3-1l-0.3-1l-0.3-1l-0.3-1l2-0.2l2-0.2l2-0.2l2-0.2l1.9-0.3l1.9-0.3l1.9-0.3L36.4,329.8
	L36.4,329.8z M51.6,358.7v1.9l-0.2-0.6l-0.1-0.6l0.2-0.4L51.6,358.7z"/>
<polygon fill="none" stroke="#919191" stroke-linecap="round" stroke-linejoin="round" stroke-miterlimit="10" points="-4.8,326.2 
	-4.8,326.3 -4.7,326.6 -4.7,326.8 -4.8,326.9 -5,327 -5.1,327.1 -5.1,327.2 -5.2,327.3 -5.1,327.4 -5.1,327.6 -5.2,327.7 
	-5.9,328.2 -6.1,328.8 -6,329.4 -6.2,330.1 -6.8,330.9 -7,331.6 -6.8,332.5 -7.1,333.2 -7.8,333.7 -8,334.1 -8,334.1 -8,334.3 
	-7.9,334.5 -8.1,334.9 -8.7,335.3 -9,335.7 -9,336 -9.1,336.2 -9.4,336.3 -9.5,336.8 -9.5,338 -9.8,338.7 -10.3,338.9 -10.6,339.2 
	-10.6,339.6 -10.9,340 -11.5,340.6 -11.6,341 -11.4,341.4 -11.4,341.6 -11.6,341.8 -12.2,342 -12.3,342.1 -12.4,342.2 -12.2,342.5 
	-12.1,342.8 -12.2,343.4 -12.3,343.6 -12.5,343.8 -13,344.3 -13.1,344.6 -12.9,344.8 -12.9,345 -13.1,345.3 -13,345.6 -13,345.7 
	-12.7,345.9 -12.6,346.4 -12.8,347 -12.7,347.5 -12.4,347.9 -12.3,348.1 -12.5,349.4 -12.5,349.6 -13.8,349.7 -14.9,349.7 
	-16,349.8 -17.2,349.8 -18.3,349.9 -19.5,349.9 -20.6,350 -21.8,350 -22.9,350.1 -24.1,350.1 -25.2,350.1 -26.3,350.2 -27.5,350.2 
	-28.6,350.2 -29.8,350.3 -30.9,350.3 -31,349.3 -31,348.2 -31,347.2 -31,346.1 -31.4,346 -32,345.9 -32.3,346 -32.6,345.9 
	-32.9,346.1 -33,346.1 -33.1,346.1 -33.2,345.9 -33.5,345.8 -33.8,345.5 -33.8,344.6 -33.8,343.8 -33.8,343 -33.8,342.1 
	-33.8,341.3 -33.8,340.5 -33.8,339.6 -33.8,338.8 -33.8,338 -33.8,337.1 -33.8,336.3 -33.8,335.5 -33.8,334.6 -33.8,333.8 
	-33.8,333 -33.8,332.1 -33.9,331.1 -34.1,330 -34.2,328.9 -34.4,327.9 -34.5,326.8 -34.7,325.7 -34.8,324.6 -35,323.6 -33.3,323.6 
	-31.6,323.5 -29.9,323.5 -28.2,323.4 -26.5,323.4 -24.8,323.3 -23.1,323.3 -21.4,323.2 -19.7,323.2 -18,323.1 -16.3,323 
	-14.6,322.9 -12.9,322.8 -11.2,322.7 -9.6,322.6 -7.9,322.5 -7.6,323.1 -7.3,323.5 -7.2,323.8 -7.2,324.1 -7.6,324.7 -8,325 
	-8.2,325.4 -8.5,325.7 -9,326.5 -8,326.5 -6.9,326.4 -5.9,326.3 "/>
<path fill="none" stroke="#919191" stroke-linecap="round" stroke-linejoin="round" stroke-miterlimit="10" d="M81.1,278.9l1.1-0.1
	l0.2-0.2l0.2,0.4l0.2,0.5l0.1,0.6v0.6v0.8l0.1,1.2l0.1,1.1l-0.1-0.3l-0.2-1.3l-0.1,0.2l-0.1,0.3v1.7l-0.3,1l-0.3,0.7h-0.5l0.2,0.4
	l-0.1,0.3v0.5l-0.2,0.4h-0.3l-0.3,0.3l-0.1,0.2l0.1,0.3l-0.2,0.4l-0.5,1.7l-0.6,0.6h-0.2v-0.8v-0.8l-0.5-0.2l-0.5-0.1l-0.5,0.1
	l-0.7-0.5l-0.8-0.3l-1.2-0.9v-0.3l-0.1-0.5l0.1-0.9l0.2-0.6l0.3-0.4l1.1-0.6l0.2-0.5l0.1-0.4l0.2-0.3l0.5-0.6l0.9-0.8l-1.8-1.6h-0.3
	l-0.6-0.8l-0.5-0.2l-0.1-0.1l-0.2-0.7L75,278v-0.3l0.3-0.3l0.1-0.5v-0.2l-0.4-0.6v-0.2l0.4-0.5l0.5-0.9l0.2-0.9l0.1-0.3l0.2-0.2
	l0.4-0.3l0.6,0.2l0.6,0.2l0.6,0.2l0.6,0.2l0.6,0.2l0.6,0.2l0.6,0.2l0.6,0.2v0.6l-0.3,1.3l-0.2,0.3l-0.2,0.3l-0.2,0.2l-0.1,0.2
	l-0.2,0.4l-0.1,0.6L81.1,278.9z M83.1,284.6l-0.4,1.3l-0.1-0.2l0.5-1.6V284.6z"/>
<path fill="none" stroke="#919191" stroke-linecap="round" stroke-linejoin="round" stroke-miterlimit="10" d="M11.8,364.9l1,0.9
	l0.1,0.2l-0.1,0.7l0.1,0.5l-0.1,0.3l-0.2,0.3v0.3l-0.1,0.1l-0.6,0.8l-2.5,0.5l0.1-0.2l0.5-0.1l0.7-0.3l-0.2-0.4l-0.3-0.4H9.9
	l-0.2-0.3l-0.1-0.9l-0.2-0.5L9,366l-0.1,0.1L8.7,367l-0.2,1.2l-0.1,0.4l-0.7,0.1H7H6.7l-0.2-1.6l-0.2-1.4l-0.2-1.4l-0.2-1.4
	l-0.2-1.4l-0.2-1.4l-0.2-1.4l-0.2-1.4v-1.4v-1.4v-1.4v-1.4v-1.4v-1.4v-1.4v-1.4v-1.4v-1.4v-1.4v-1.4v-1.4v-1.4v-1.4v-1.4v-0.4v-0.1
	v-0.2l-0.6-0.5l-0.1-0.1L5,333h0.1l1-0.1l1-0.1l1-0.1l1-0.1l1-0.1l1-0.1l1-0.1l1-0.1l1-0.1l1-0.1l1-0.1l1-0.1l1-0.1l1-0.1l1-0.1
	l1-0.1l0.3,1l0.3,1l0.3,1l0.3,1l0.3,1l0.3,1l0.3,1l0.3,1l0.3,1l0.3,1l0.3,1l0.3,1l0.3,1l0.3,1l0.3,1l0.3,1l0.2,0.4l0.2,0.7l1.1,2
	l0.4,0.9v0.4l0.1,0.3l0.3,0.2v0.3l-0.4,0.4l-0.2,0.4l-0.1,0.8l0,0l-0.2,1.3l0.1,0.8l0.5,1l0,0l0.1,0.5v2.1l0.3,1.3l0.5,0.8l-2.1,0.2
	l-2.1,0.2l-2.1,0.2l-2.1,0.2l-2.1,0.2l-2.1,0.2l-2.1,0.2l-2.1,0.2v0.6l0.1,0.5L11.8,364.9z M8.8,369.3l-0.6,0.2l-0.9,0.1H7.1
	l0.3-0.1l1-0.2H8.8z"/>
<polygon fill="none" stroke="#919191" stroke-linecap="round" stroke-linejoin="round" stroke-miterlimit="10" points="
	-122.1,314.4 -122.5,317.1 -122.9,319.8 -123.3,322.5 -123.6,325.2 -124,327.9 -124.4,330.6 -124.7,333.3 -125.1,336 -125.5,338.7 
	-125.9,341.4 -126.2,344.1 -126.6,346.7 -127,349.4 -127.4,352.1 -127.7,354.8 -128.1,357.5 -129.6,357.3 -131.8,357 -134.1,356.6 
	-136.4,356.3 -138.7,356 -140.9,355.6 -143.8,354 -146.7,352.4 -149.5,350.7 -152.3,349.1 -155.1,347.4 -157.9,345.7 -160.7,344.1 
	-163.5,342.4 -163.1,342 -162.5,340.9 -162.4,340.9 -162.4,340.9 -161.5,341 -161.1,340.8 -160.7,340.3 -160.6,339.8 -160.6,339.2 
	-160.9,338.7 -161.4,338.4 -161.7,337.5 -161.5,336.3 -161.3,335.7 -160.9,335.7 -160.6,335.4 -160.2,335 -159.9,334.5 
	-159.6,333.9 -159.4,333.2 -159.3,332.3 -158.6,331.3 -157.9,330.7 -156.7,330.1 -156.4,329.8 -156.4,329.6 -156.4,329.6 
	-156.5,329.3 -157.3,328.5 -157.6,328 -157.6,327.6 -157.6,327.6 -157.6,327.2 -158.3,325.5 -158.5,324.6 -158.3,324 -158.3,323.9 
	-157.7,321.3 -157.9,320.3 -157.8,319.7 -157.6,319.1 -157.6,318.7 -157.6,318.3 -157.6,317.7 -157.4,316.9 -157.6,316.3 
	-157.6,316.1 -157.3,315.6 -157,315.4 -156.5,315.3 -156,315.3 -155.4,315.5 -155,315.8 -154.8,316.3 -154.5,316.6 -154.2,316.6 
	-153.8,316.3 -153.3,315.7 -153.2,315.6 -152.5,312.4 -151.9,309.4 -150.1,309.8 -148.2,310.1 -146.4,310.5 -144.5,310.8 
	-142.7,311.1 -140.8,311.5 -138.9,311.8 -137.1,312.1 -135.2,312.4 -133.3,312.7 -131.5,313 -129.6,313.3 -127.7,313.6 
	-125.9,313.8 -124,314.1 "/>
<polygon fill="none" stroke="#919191" stroke-linecap="round" stroke-linejoin="round" stroke-miterlimit="10" points="95.5,254.6 
	95.5,255.6 95.5,256.1 94.8,256.2 94.6,256.4 94.1,256.9 93.8,257.1 93.4,257.8 93,258.1 92.2,258.3 91.4,258.5 90.7,258.7 
	89.9,258.8 89.1,259 88.3,259.2 87.6,259.4 86.8,259.5 86.6,259.3 86.2,258.9 86.1,258.7 86,258.5 86.1,257.8 86.1,257.6 
	86.2,257.2 86,255.8 86,255 85.7,253.5 85.7,253 85.8,252.7 85.8,252 86.1,251.3 86.2,250.6 86.3,249.9 86.3,249.5 86.3,248.7 
	86.1,247.3 86.2,247 86.9,246.6 87.1,246.4 87.7,245.7 87.9,245.4 88,245.1 88,244.7 88,244.6 88,244.4 87.5,243.5 87.4,243.2 
	87.7,242.1 87.4,241.5 87.5,241.3 87.6,239.8 87.9,239 88.6,239 89,238.9 89.2,238.6 89.4,239.3 89.7,240.2 89.9,241 90.2,241.8 
	90.5,242.6 90.7,243.4 91,244.2 91.2,245 91.5,245.8 91.8,246.6 92,247.4 92.3,248.2 92.5,249 92.8,249.8 93.1,250.7 93.3,251.5 
	93.4,252 93.6,252.5 94,252.9 94.6,253.4 94.9,254 "/>
<polygon fill="none" stroke="#919191" stroke-linecap="round" stroke-linejoin="round" stroke-miterlimit="10" points="
	-151.9,309.4 -152.5,312.4 -153.2,315.6 -153.3,315.7 -153.8,316.3 -154.2,316.6 -154.5,316.6 -154.8,316.3 -155,315.8 
	-155.4,315.5 -156,315.3 -156.5,315.3 -157,315.4 -157.3,315.6 -157.6,316.1 -157.6,316.3 -157.4,316.9 -157.6,317.7 -157.6,318.3 
	-157.6,318.7 -157.6,319.1 -157.8,319.7 -157.9,320.3 -157.7,321.3 -158.3,323.9 -158.3,324 -159.7,322 -160.9,320.2 -162.1,318.4 
	-163.4,316.6 -164.6,314.8 -165.8,313 -167,311.2 -168.2,309.3 -169,308.1 -169.9,306.8 -170.7,305.5 -171.6,304.2 -172.4,302.9 
	-173.2,301.7 -174.1,300.4 -174.9,299.1 -176,297.5 -177,296 -178.1,294.4 -179.2,292.9 -180.2,291.3 -181.2,289.8 -182.3,288.2 
	-183.3,286.6 -182.9,285.3 -182.6,283.9 -182.2,282.5 -181.9,281.1 -181.5,279.7 -181.1,278.3 -180.8,276.9 -180.4,275.5 
	-180.1,274.1 -179.7,272.7 -179.3,271.3 -179,269.9 -178.6,268.5 -178.3,267.1 -177.9,265.7 -177.5,264.3 -175.5,264.8 
	-173.5,265.3 -171.4,265.9 -169.4,266.3 -167.3,266.8 -165.3,267.3 -163.2,267.8 -161.2,268.3 -159.1,268.7 -157.1,269.2 
	-155,269.6 -152.9,270 -150.9,270.5 -148.8,270.9 -146.8,271.3 -144.7,271.7 -144.9,272.9 -145.2,274 -145.4,275.2 -145.6,276.4 
	-145.8,277.6 -146.1,278.8 -146.3,279.9 -146.5,281.1 -146.7,282.3 -147,283.5 -147.2,284.7 -147.4,285.8 -147.6,287 -147.9,288.2 
	-148.1,289.4 -148.3,290.6 -148.6,291.7 -148.8,292.9 -149,294.1 -149.2,295.3 -149.5,296.5 -149.7,297.6 -149.9,298.8 -150.1,300 
	-150.4,301.2 -150.6,302.4 -150.8,303.5 -151,304.7 -151.3,305.9 -151.5,307.1 -151.7,308.3 "/>
<polygon fill="none" stroke="#919191" stroke-linecap="round" stroke-linejoin="round" stroke-miterlimit="10" points="-88.1,271.8 
	-88.2,273.7 -88.4,275.6 -88.5,277.5 -88.7,279.4 -88.8,281.3 -89,283.2 -89.2,285.2 -89.3,287.1 -91.1,286.9 -92.9,286.8 
	-94.7,286.6 -96.5,286.4 -98.3,286.2 -100.1,286.1 -101.8,285.9 -103.6,285.7 -105.4,285.5 -107.2,285.3 -109,285.1 -110.8,284.8 
	-112.6,284.6 -114.4,284.4 -116.1,284.1 -117.9,283.9 -119.3,283.7 -120.8,283.5 -122.2,283.3 -123.6,283.1 -125,282.9 
	-126.4,282.6 -127.9,282.4 -129.3,282.2 -129.1,281.3 -129,280.3 -128.8,279.4 -128.7,278.4 -128.5,277.5 -128.4,276.5 
	-128.2,275.6 -128.1,274.6 -127.9,273.4 -127.7,272.2 -127.5,271.1 -127.3,269.9 -127.1,268.7 -126.9,267.5 -126.7,266.3 
	-126.6,265.2 -126.4,264 -126.2,262.8 -126,261.6 -125.8,260.4 -125.6,259.2 -125.4,258.1 -125.2,256.9 -125,255.7 -124.9,254.8 
	-124.7,253.8 -124.6,252.9 -124.4,251.9 -123.3,252.1 -122.1,252.3 -120.9,252.5 -119.8,252.6 -118.6,252.8 -117.4,253 
	-116.2,253.2 -115.1,253.3 -113.9,253.5 -112.7,253.6 -111.5,253.8 -110.4,254 -109.2,254.1 -108,254.3 -106.8,254.4 -105.7,254.6 
	-104.5,254.7 -103.3,254.8 -102.1,255 -101,255.1 -99.8,255.2 -98.6,255.4 -97.4,255.5 -96.2,255.6 -95.1,255.7 -93.9,255.9 
	-92.7,256 -91.5,256.1 -90.4,256.2 -89.2,256.3 -88,256.4 -86.8,256.5 -87,258.4 -87.1,260.3 -87.3,262.2 -87.4,264.1 -87.6,266 
	-87.7,267.9 -87.9,269.9 "/>
<polygon fill="none" stroke="#919191" stroke-linecap="round" stroke-linejoin="round" stroke-miterlimit="10" points="-78.4,295.6 
	-78.5,297 -78.6,298.5 -78.6,299.9 -78.7,301.4 -78.8,302.8 -78.9,304.2 -79,305.7 -79.1,307.1 -79.2,308.6 -79.3,310 -79.3,311.4 
	-79.4,312.9 -79.5,314.3 -79.6,315.8 -79.7,317.2 -79.8,318.6 -81.3,318.5 -82.8,318.4 -84.3,318.3 -85.7,318.2 -88,318.1 
	-90.3,317.9 -92.6,317.7 -94.9,317.5 -97.1,317.3 -99.4,317.1 -101.7,316.8 -104,316.6 -106.2,316.4 -108.5,316.1 -110.8,315.8 
	-113.1,315.6 -115.3,315.3 -117.6,315 -119.9,314.7 -122.1,314.4 -121.9,312.5 -121.6,310.6 -121.3,308.7 -121.1,306.8 
	-120.8,304.9 -120.6,302.9 -120.3,301 -120,299.1 -119.8,297.2 -119.5,295.3 -119.2,293.4 -119,291.5 -118.7,289.6 -118.4,287.7 
	-118.2,285.8 -117.9,283.9 -116.1,284.1 -114.4,284.4 -112.6,284.6 -110.8,284.8 -109,285.1 -107.2,285.3 -105.4,285.5 
	-103.6,285.7 -101.8,285.9 -100.1,286.1 -98.3,286.2 -96.5,286.4 -94.7,286.6 -92.9,286.8 -91.1,286.9 -89.3,287.1 -87.9,287.2 
	-86.5,287.3 -85,287.4 -83.6,287.5 -82.2,287.6 -80.8,287.7 -79.3,287.8 -77.9,287.9 -78,288.9 -78,289.8 -78.1,290.8 -78.1,291.8 
	-78.2,292.7 -78.3,293.7 -78.3,294.6 "/>
<polygon fill="none" stroke="#919191" stroke-linecap="round" stroke-linejoin="round" stroke-miterlimit="10" points="75.5,285.2 
	75.3,285.5 75.2,286 74.9,286.7 75,287.1 75.1,287.4 75.2,287.9 75.6,288.4 76.5,289.2 76.9,290.6 77.6,291.4 78.5,292.4 
	79.2,292.6 79.3,293 79.2,293.7 78.9,294.1 79.3,293.9 79.6,294.1 79.9,294.6 80,294.9 79.4,295.1 78.1,295.4 76.8,295.6 
	76.2,295.8 76.2,295.8 76.2,295.8 76.2,295.8 76.2,295.8 76.2,295.8 76.2,295.8 76.1,295.8 76.1,295.8 75.8,294.6 75.5,293.4 
	75.2,292.3 74.9,291.1 74.6,289.9 74.2,288.7 73.9,287.5 73.6,286.4 73.9,285.7 74.1,285.4 74.3,285.3 75,285.1 "/>
<polygon fill="none" stroke="#919191" stroke-linecap="round" stroke-linejoin="round" stroke-miterlimit="10" points="86.8,259.5 
	86.3,259.6 85.7,259.8 85.2,259.9 84.6,260 84.1,260.1 83.6,260.2 83,260.3 82.5,260.4 82.2,260 82.2,259.6 82.1,259.1 81.9,258.4 
	81.8,257.6 81.5,256.6 81.4,255.9 81.2,255.3 81.1,254.5 80.6,254.1 80.5,254 80.4,254.1 80.2,254.5 80.2,254.5 80.1,254.4 
	80,254.1 80,253.1 79.9,252.8 79.7,252.2 79.2,251.1 79.2,250.8 79.1,250.4 79.2,249.9 79.4,249.4 79.4,249.2 79.2,248.5 
	79.1,247.8 78.5,246.8 78.3,245.5 78.1,244.9 78,244.3 77.9,243.8 78.8,243.6 80.9,243 83.1,242.5 85.3,241.9 87.5,241.3 
	87.4,241.5 87.7,242.1 87.4,243.2 87.5,243.5 88,244.4 88,244.6 88,244.7 88,245.1 87.9,245.4 87.7,245.7 87.1,246.4 86.9,246.6 
	86.2,247 86.1,247.3 86.3,248.7 86.3,249.5 86.3,249.9 86.2,250.6 86.1,251.3 85.8,252 85.8,252.7 85.7,253 85.7,253.5 86,255 
	86,255.8 86.2,257.2 86.1,257.6 86.1,257.8 86,258.5 86.1,258.7 86.2,258.9 86.6,259.3 "/>
<path fill="none" stroke="#919191" stroke-linecap="round" stroke-linejoin="round" stroke-miterlimit="10" d="M94.7,264.9L95,265
	l0.2,0.1l0.3,0.3l-0.2,0.2l-0.3-0.2l-0.2-0.3l-0.2-0.1h-0.2l0.3,0.6l-0.2,0.6l0.3,1.4l-0.3,0.7l-1.3,0.7l-0.4,0.1v-0.4l0.1-0.2
	l-0.1-0.5l-0.1-0.3l-0.1-0.5l-0.2-0.6l-0.2-0.6l-0.2-0.6l-0.1-0.4l-0.1-0.6l-0.1-0.4l0.4-0.1l0.6-0.2l0.5-0.2l0.3-0.1l0.4-0.1
	l0.1,0.3l0.2,0.5h0.2l0.1,0.4L94.7,264.9z M95.9,267l-0.2,0.3h-0.3l0.1-0.3v-0.4v-0.5l0.1-0.2l0.1-0.2L95.9,267z M95.2,267.2
	l-0.1,0.2l-0.2-0.3v-0.4H95l0.1,0.2L95.2,267.2z"/>
<polygon fill="none" stroke="#919191" stroke-linecap="round" stroke-linejoin="round" stroke-miterlimit="10" points="65.9,333.7 
	65.8,333.8 64.4,335.2 64,335.8 63,337.9 62.9,339.2 62.5,338.8 62.5,338.4 62.4,338.1 62.2,338.8 62.7,339.7 62.5,340.1 61.7,341 
	61.2,341.2 60.7,341.5 60.7,342.2 60,343 59.6,343.4 58.8,343.3 59.2,343.9 58.9,344.4 58.5,344.8 57.9,345.2 57.5,345.2 
	57.2,345.4 57,345.7 56.5,346.1 55.8,346.1 55.1,346.1 54.7,346.3 55.5,346.5 55.9,346.8 55.9,347.4 55.7,347.6 55.4,347.9 
	55.2,347.9 55,347.7 54.8,347.2 54.6,347.3 54.6,347.6 54.5,347.7 53.8,347 53.9,347.6 54.2,348.1 54.4,348.3 54.6,348.4 
	54.7,348.6 54.4,349.2 54.2,349.4 53.9,349.5 53.7,349.9 53.8,350.2 52.4,349.8 52,349.3 51.9,348.6 51.5,347.9 50.5,346.6 
	49.9,346.3 49.4,345.5 48.8,344 48.1,343 47.3,342.7 46.7,342.3 46.4,341.7 46,341.4 45.7,341.2 45.5,340.9 45.4,340.5 44.9,340 
	43.5,339.1 43.1,338.5 42.4,337.9 40.7,336.8 40.7,336.8 38.9,334.3 38.9,334.3 38.7,333.8 38.3,333.6 37.8,333.6 37.3,333.4 
	36.5,332.9 36.5,332.8 35.2,332.2 35.4,331.4 36.2,330.3 36.4,329.8 36.4,329.7 36.5,329.7 37.5,329.3 38.4,328.8 38.6,328.8 
	39.1,328.4 40.2,327.8 40.6,327.5 40.9,327.6 41.9,327.5 42.8,327.4 43.8,327.3 44.8,327.2 45.8,327.1 46.7,327 47.7,326.8 
	48.7,326.7 48.9,326.8 49,326.9 49,327.2 49.1,327.4 49.7,326.9 50.1,327.3 50.7,327.9 50.8,328.3 51,328.9 51.8,328.8 52.7,328.7 
	53.6,328.6 54.5,328.5 55.3,328.4 56.2,328.2 57.1,328.1 58,328 58.9,328.7 59.9,329.4 60.9,330.2 61.9,330.9 62.9,331.6 
	63.9,332.3 64.9,333 "/>
<polygon fill="none" stroke="#919191" stroke-linecap="round" stroke-linejoin="round" stroke-miterlimit="10" points="-46.4,251.1 
	-47.6,251.1 -48.9,251.1 -50.1,251.1 -51.3,251.1 -52.6,251.1 -53.8,251.1 -55.1,251 -56.3,251 -57.5,251 -58.8,250.9 -60,250.9 
	-61.3,250.8 -62.5,250.8 -63.8,250.7 -65,250.7 -66.2,250.6 -67.5,250.6 -68.7,250.5 -70,250.5 -71.2,250.4 -72.4,250.3 
	-73.7,250.3 -74.9,250.2 -76.2,250.1 -77.4,250 -78.6,249.9 -79.9,249.8 -81.1,249.8 -82.4,249.7 -83.6,249.6 -84.8,249.5 
	-86.1,249.4 -85.9,247.9 -85.8,246.5 -85.7,245 -85.6,243.6 -85.5,242.1 -85.4,240.7 -85.3,239.2 -85.1,237.8 -85,236.4 
	-84.9,234.9 -84.8,233.5 -84.7,232 -84.6,230.6 -84.5,229.2 -84.3,227.7 -84.2,226.3 -83.7,226.3 -81.5,226.5 -79.4,226.7 
	-77.2,226.8 -75,227 -72.9,227.1 -70.7,227.3 -68.5,227.4 -66.4,227.5 -64.2,227.6 -62,227.7 -59.9,227.7 -57.7,227.8 -55.5,227.9 
	-53.4,227.9 -51.2,228 -49.6,228 -49.2,230.3 -49.2,231 -49.3,231.4 -49.2,232.2 -49.2,232.7 -49.2,233.3 -49.2,234.2 -49,235.2 
	-48.6,236.1 -48.6,236.3 -48.5,236.9 -48.3,237.3 -47.9,238.6 -47.9,239.9 -47.8,240.3 -47.7,242.9 -47.7,243.3 -47.5,243.7 
	-47.6,244.3 -47.6,244.6 -47.6,245.8 -47.4,246.2 -47.3,247.1 -46.7,248.2 -46.6,248.6 -46.6,249 -46.4,249.7 -46.4,250.6 "/>
<polygon fill="none" stroke="#919191" stroke-linecap="round" stroke-linejoin="round" stroke-miterlimit="10" points="91.8,263.9 
	91.9,264.3 92,264.9 92.1,265.3 92.3,265.9 92.5,266.5 92.6,267.1 92.8,267.6 92.8,267.9 92.9,268.4 92.8,268.6 92.9,269 
	92.4,269.1 91.6,269.4 90.6,270 90,270 89.5,270.4 87.4,271 87,270.9 86.6,271.6 85.7,272.1 83.8,273.8 83.6,274.1 83.2,273.7 
	82.9,273.4 83.3,273 83.5,272.6 83.8,272.4 84,272.2 83.8,271.9 83.5,271.7 83.4,271 83.3,270.2 83.1,269.5 83,268.8 82.9,268.1 
	82.8,267.4 82.6,266.6 82.5,265.9 83,265.8 83.4,265.7 83.9,265.6 84.4,265.6 84.8,265.5 85.3,265.4 85.8,265.3 86.2,265.2 
	86.3,265.4 86.5,265.3 86.5,265.1 87.2,265 87.8,264.8 88.5,264.6 89.1,264.5 89.8,264.3 90.4,264.2 91.1,264 "/>
<polygon fill="none" stroke="#919191" stroke-linecap="round" stroke-linejoin="round" stroke-miterlimit="10" points="67.8,294.1 
	67.6,294 67.3,293.9 67.2,293.8 67.5,293.2 67.9,293.6 68.3,294 68,294.7 "/>
</svg>
