<?xml version="1.0" encoding="utf-8"?>
<!-- Generator: Adobe Illustrator 18.1.1, SVG Export Plug-In . SVG Version: 6.00 Build 0)  -->
<!DOCTYPE svg PUBLIC "-//W3C//DTD SVG 1.1//EN" "http://www.w3.org/Graphics/SVG/1.1/DTD/svg11.dtd">
<svg version="1.1" id="Layer_1" xmlns="http://www.w3.org/2000/svg" xmlns:xlink="http://www.w3.org/1999/xlink" x="0px" y="0px"
	 width="792px" height="612px" viewBox="0 0 792 612" enable-background="new 0 0 792 612" xml:space="preserve">
<polygon fill="#F7921E" stroke="#FFFFFF" stroke-linecap="round" stroke-linejoin="round" stroke-miterlimit="10" points="
	427.9,360.4 428.7,365.7 429.6,371.1 430.4,376.5 431.3,381.8 434.8,378 436.8,376.5 442.5,368.4 443.4,368.2 445.9,368.8 450,363 
	450.3,361.1 450.8,360.4 451.4,360.4 451.9,360.8 451.8,361.8 452.3,362.2 454.5,363 457.5,363.1 457.9,363.1 460.5,362.6 
	461.4,361.5 461.6,359.5 462.5,358.2 465,357.2 469.2,354.4 471.9,354.2 474.5,355.8 477,356.3 479.3,355.7 480.2,356 479.9,357.1 
	480.7,358.2 482.7,359.1 483.5,360.2 483.2,361.4 483.5,362.2 484.6,362.6 485.3,363.7 485.9,365.5 486.4,365.8 485.3,371.2 
	484.5,374.9 480.4,372.6 474.1,369.2 471.3,367.6 466.6,365 466,366.9 466.1,370.1 465.5,373.4 465.3,377.9 461.9,385.5 
	458.9,389.4 457.8,389.5 457,390.3 455.8,392.6 454.1,394.7 450.1,395.4 448.7,396.9 448.1,399.1 447.6,402.2 446.4,404.7 
	445.5,408.9 444.7,411.2 442.8,412.6 439.8,413 436,412.1 435.1,410.4 433.9,409.5 432.4,409 431.1,409.4 430.4,410.8 429.9,416.9 
	428.2,420.1 427.7,423.2 425.4,427.3 424.1,433.3 418.7,443.8 417.3,447.2 416.5,450.5 417.7,451.7 418.2,452.6 417.1,455.2 
	416.7,457.7 415.1,459.5 412.4,461.7 411.3,460.6 410.7,460.4 404.2,464.4 402.6,464.7 400.7,464 400,464.2 399.4,464.6 
	399.2,465.3 399.6,467.8 398.4,469.2 397.5,469.8 393.8,470.7 390.1,472.6 388.5,472.8 384,470.5 382,473 380,474.4 377.7,476.8 
	376.9,477 374.4,476.8 371.1,475.2 368.4,474.4 366.7,473.3 365.2,471.9 363.9,469.3 362.6,467.8 362.9,466.3 362.4,464.9 
	357.7,464.3 351.2,460.3 346.6,454.9 345,452.3 343.4,450.6 342.8,448.8 338.6,444.4 337.4,442.4 337.1,441 337.9,438.3 
	337.9,437.1 336.7,430.9 335.7,429.8 339.7,430.7 343.2,429.4 345.1,427.1 345.6,423.9 346.5,422 348.1,421.3 348.6,419.8 
	347.9,416.6 347.1,414.4 347.9,411 350.1,405.6 352.1,403.3 353.9,403.9 355.1,405.3 355.8,407.5 356.2,407.7 356.6,407.6 
	357.6,405.7 358.6,404.9 359.1,405 359.6,404.9 359.5,403.8 358.2,400.9 358,399.2 358.9,398.5 359.7,396.3 360.3,392.6 
	361.5,390.7 363.1,390.3 364.6,388.6 366.1,385.6 367.7,384.5 369.3,385.5 371.2,385.2 373.4,383.9 376.8,380.4 381.7,374.6 
	383.9,370.3 383.5,367.3 384.5,359.6 386.9,347.4 387.8,339.5 387.1,336.1 386.1,333.5 384.6,331.5 385,329.7 388.4,327.3 
	389.2,332.1 390,336.9 390.8,341.8 391.6,346.6 392.4,351.5 393.2,356.3 394,361.2 394.8,366 398.9,365.3 403.1,364.6 407.2,363.9 
	411.3,363.2 415.5,362.5 419.6,361.8 423.7,361.1 "/>
<polygon fill="#F7921E" stroke="#FFFFFF" stroke-linecap="round" stroke-linejoin="round" stroke-miterlimit="10" points="
	563.3,262.3 561.2,264.2 560.3,265.4 559.7,266.9 558.6,272.1 555.9,277.2 553.6,280.1 553.8,281.2 556.1,284.5 556.4,285.6 
	555.7,288.1 554,289.7 554,291.1 554.3,293.3 555.3,297.2 556,297.9 558.6,298.8 561.7,303.4 563.6,303.6 573.5,312.3 568.8,316.7 
	565.8,320 564.5,321.8 562.2,326.2 557.9,328.4 555.7,330.4 555.2,331.2 552.1,330.6 548.2,331.7 547,332.5 546.2,333.7 
	544.6,337.5 537.3,339.1 530,340.6 522.8,342.2 515.5,343.7 508.2,345.2 500.9,346.6 493.6,348.1 486.3,349.5 479,350.9 
	471.7,352.3 464.4,353.7 457.1,355.1 449.8,356.4 442.5,357.8 435.2,359.1 427.9,360.4 423.7,361.1 419.6,361.8 415.5,362.5 
	411.3,363.2 407.2,363.9 403.1,364.6 398.9,365.3 394.8,366 394,361.2 393.2,356.3 392.4,351.5 391.6,346.6 390.8,341.8 390,336.9 
	389.2,332.1 388.4,327.3 387.7,322.8 386.9,318.4 386.2,314 385.5,309.7 384.8,305.3 384.1,300.9 383.3,296.5 382.6,292.1 
	381.9,287.7 381.2,283.3 380.4,278.9 379.7,274.5 379.1,271 384.5,267.9 386.8,266.1 389.1,264.2 390.3,263.2 391.7,262.2 
	400.4,255.2 400.4,255.4 401.4,261 402.4,266.6 406.6,265.9 410.8,265.2 415.1,264.4 419.3,263.7 423.5,262.9 427.8,262.2 
	432,261.4 436.2,260.6 440.5,259.8 444.7,259.1 448.9,258.3 453.1,257.5 457.4,256.7 461.6,255.8 465.8,255 470,254.2 474.2,253.4 
	478.5,252.5 482.7,251.7 486.9,250.9 491.1,250 495.3,249.1 499.5,248.3 503.7,247.4 508,246.5 512.2,245.6 516.4,244.8 
	520.6,243.9 524.8,243 529,242 533.2,241.1 537.4,240.2 540.2,241.8 541.8,243.8 545.7,244.7 546.7,245.4 547,246.7 548.6,247.9 
	548.7,250.1 549.1,252 550.1,254.3 551.5,256.4 553.2,258 554.9,259.1 560.9,259.9 562.3,260.9 "/>
<polygon fill="#F7921E" stroke="#FFFFFF" stroke-linecap="round" stroke-linejoin="round" stroke-miterlimit="10" points="
	388.4,327.3 385,329.7 384.6,331.5 386.1,333.5 387.1,336.1 387.8,339.5 386.9,347.4 384.5,359.6 383.5,367.3 383.9,370.3 
	381.7,374.6 376.8,380.4 373.4,383.9 371.2,385.2 369.3,385.5 367.7,384.5 366.1,385.6 364.6,388.6 363.1,390.3 361.5,390.7 
	360.3,392.6 359.7,396.3 358.9,398.5 358,399.2 358.2,400.9 359.5,403.8 359.6,404.9 359.1,405 358.6,404.9 357.6,405.7 
	356.6,407.6 356.2,407.7 355.8,407.5 355.1,405.3 353.9,403.9 352.1,403.3 350.1,405.6 347.9,411 347.1,414.4 347.9,416.6 
	348.6,419.8 348.1,421.3 346.5,422 345.6,423.9 345.1,427.1 343.2,429.4 339.7,430.7 335.7,429.8 335.5,429.7 330.5,426.6 
	327.2,423.3 325.5,420 321.6,420.4 315.5,424.4 310.6,425.6 306.9,423.8 304.3,423.3 301.9,424.4 299.7,426.1 297.5,425.5 
	294.7,423.2 290.6,421.9 285.1,421.6 281.1,419.2 278.5,414.8 275.9,411.9 273.4,410.5 270.8,410.3 268.1,411.4 265.9,411.3 
	264.3,410 262.4,410.4 260.7,412 259.1,398 257.6,384.2 256.1,370.5 254.6,356.7 253.1,343 251.6,329.3 250,315.6 248.5,301.8 
	258.8,300.2 269.1,298.5 279.4,296.8 289.7,295 290,294.7 289.9,294.9 290.5,295.6 293.3,295.6 295.4,296.3 297,297.4 302.8,299.2 
	304.6,300.6 306.4,301.2 308.1,301.2 309.1,300.5 309.5,299.3 310.3,299.1 311.4,300 314.6,300.6 314.7,301 306.5,304.1 
	304.9,305.2 307.1,305.5 309.2,305.1 311.2,303.9 313.7,303.6 315.9,303.7 316.6,303.2 316.8,303 320.8,305 322.3,305.2 
	323.7,304.7 325,303.5 328.1,301.8 332.9,299.6 337.6,298.2 342.3,297.8 345.1,297 347.6,295 352.7,288.9 358.8,283.7 369,276.8 
	379.1,271 379.7,274.5 380.4,278.9 381.2,283.3 381.9,287.7 382.6,292.1 383.3,296.5 384.1,300.9 384.8,305.3 385.5,309.7 
	386.2,314 386.9,318.4 387.7,322.8 "/>
<path fill="#F7921E" stroke="#FFFFFF" stroke-linecap="round" stroke-linejoin="round" stroke-miterlimit="10" d="M587,293.2
	l-1.4,0.5l0.6-4.3l2.3-2.4l1.1,0.1l0.4,1.4l-0.1,1.3l-1.4,2.3L587,293.2z M634.1,261.5l-1.5,3.2l2-0.2l1.5-1.2l1.2-2l3.2-3.1
	l2.9-1.7l0.9-0.4l1.9,1.1l2.7-2l2.9-1.5L640.2,264l-2.5,1.5l-3.4,3l-3.3,2.4l-2.5,1.2l-12,8.4l-1,0.4l-1.3-0.2l-10.3,5.3l-4.4,1.4
	l-3.9,1.9l2.5-2.8l-0.1-0.8l-1-0.7l-1.6,0.6l-1.1,2.6l-2.5,1.4l-1.1-2.3l0.5-2l0.8-2l2-3.4l3.4-2.6l1.6-2l1.6,1l-0.1-1.9l0.8-1.3
	l1-0.8l2.7-0.7l1.4-0.6l0.9-0.8l1-0.4l3.1,0.1l2.8-0.9l2-1.7l2.3-1l6.2-1.8l6-2.4l2.1-2.1l4.2-5.4l2.7-1.9l-3.5,5.9L634.1,261.5z
	 M420.2,219.5l-0.7,1.6h-0.9l-0.7-0.3l-0.4-0.9v-1.2l0.7-0.6h2.2l0.2,0.4L420.2,219.5z M492.2,163.7l-0.4,0.2l-0.1-0.9l0.3-0.7
	l0.8-0.4l0.1,0.4L492.2,163.7z M494.2,150.8l-0.9,0.5l-0.3-0.4l0.1-0.5l0.6-0.7l1.3-0.3l-0.1,0.5L494.2,150.8z M568.1,102.5l0.9,2.7
	l0.2,3.4l1.3,3.4l1.1,7.5l3.2,5.2l0.5,3.9l1.1,4l-0.1,1.1l-0.9,2.7l-0.3,2.5l0.1,2.4l0.4,1.5l2.9,6.4l1,2.9l0.4,1.7l0.2,5.8l0.3,1.6
	l0.4,0.4l0.4-0.1l0.8-2l0.5-0.4l0.8,0.3l2.4,2.2l1,4.7l0.8,3.4l0.8,3.8l1.3,5.7l0.9,4.2l0.8,3.8l0.6,2.9l0.1,2.2l1.4,2.3l-0.1,3.7
	l-0.1,3.7l-0.1,3.7l-0.1,3.7l-0.1,3.7l-0.1,3.7l-0.1,3.7l-0.1,3.7l1.1,0.8l0.7,4l0.7,4l0.7,4l0.7,4l0.7,4l0.7,4l0.7,4l0.7,4l1.3,1.4
	l1.3,1.4l-1,1l-1.5,1.6l-1.6,1.7l-2.1,2.2l1.7,1.8l2.2,2.2l-1,1.4l-2.5,4.4l-1.8,2.5l-1.7,1.1l-0.7,1.9l-1,1.3l0.3-3.9l0.6-3.4
	l-0.3-6.1l-1.4-4.7l-1.8-1.6l-1.7-1l2.7,4.3l1.6,5.7v0.2l-3.4-1.2L584,270l-3.5-1.2l-3.5-1.2l-3.5-1.2l-3.5-1.2l-3.5-1.2l-3.5-1.2
	l-1-1.4l-1.4-0.9l-6-0.8l-1.7-1.1l-1.7-1.6l-1.4-2.1l-1-2.3l-0.5-1.9l-0.1-2.2l-1.6-1.1l-0.3-1.3l-1-0.7l-3.9-0.8l-1.6-2L537,241
	l-4.2,0.9L529,242l-4.2,0.9l-4.2,0.9l-4.2,0.9l-4.2,0.9l-4.2,0.9l-4.2,0.9l-4.2,0.9l-4.2,0.9l-4.2,0.9L487,251l-4.2,0.8l-4.2,0.8
	l-4.2,0.8l-4.2,0.8L466,255l-4.2,0.8l-4.2,0.8l-4.2,0.8l-4.2,0.8L445,259l-4.2,0.8l-4.2,0.8l-4.2,0.8l-4.2,0.8L424,263l-4.2,0.8
	l-4.2,0.7l-4.2,0.7l-4.2,0.7l-4.2,0.7l-1-5.6l-1-5.6v-0.2l1.6-1.3l5.2-4.8l2.4-3.3l2.7-2.8l2.9-2.4l2.1-2.8l1.4-3.2l1.7-2.5l2-1.8
	l1-1.7l-0.1-1.6l-0.8-2l-1.5-2.4l-0.5-2l0.5-1.6v-1l-0.5-0.4l-5-0.6l0,0l-1.1-7.2l-0.1-0.2l0.2-0.1l10.4-5.2l6.8-2.4l8.4-1.9
	l10.4-0.4l4.2,0.7l2.8,1.3l3-0.1l3.1-1.5l4.4-1.2l5.8-0.9l3.2-0.2l0.5,0.5l0.4-0.3l0.2-1l1.3-1.3l4-2.4l0.6,0.2l0.7-0.9l0.8-2.1
	l1.8-2.5l2.7-2.9l2.6-1.8l2.6-0.6l1.6-0.9l0.7-1.2l0.1-0.9l-0.5-0.7V178l0.1-0.4l-0.2-0.3l-0.5-0.6l-1-3.6l-0.9-1.6l-1-1.1l-1.1-0.6
	l-0.1-0.9l1.3-1.4l0.1,1l0.5,0.2l0.6-0.6l1.2-2.5v-0.9l0.9-1.1l0.6-1.5h-1l-2.1,0.9l-0.6-0.3l0.8-2l-0.4-0.9l-0.4-0.3h-0.8l-2.1,2
	l-0.7,0.3l-0.3-0.8l-1.6-1.5l2.7-3.9l10.1-11.4l0.9-1.6l0.2-1.3l-0.5-1l-0.4-0.2l0.1-0.3l9-13.9l5.3-6.7l4.7-4.1l3.7-2.3l2.8-0.4
	l1.5-0.6l1.3-0.3l6.8-1.6l12.1-2.8l12.1-2.9L568.1,102.5z"/>
<polygon fill="#F7921E" stroke="#FFFFFF" stroke-linecap="round" stroke-linejoin="round" stroke-miterlimit="10" points="
	248.5,301.8 250,315.6 251.6,329.3 253.1,343 254.6,356.7 256.1,370.5 257.6,384.2 259.1,398 260.7,412 260.3,412.4 259.7,414.3 
	260.8,416.1 260.9,417.6 260.2,418.8 260.6,419.7 262.2,420 262.9,421.3 262.8,423.4 259.8,425.9 253.8,429 252.5,429.8 
	251.4,430.2 250.9,430.2 250.9,430.2 250,429.8 248.8,429 246.8,428.8 243.6,429.4 242.6,431.6 243.6,435.1 242.8,438.1 
	240.2,440.3 238.4,443.1 237.6,446.5 235.8,448.6 233.2,449.6 231.4,452.8 230.3,458.2 228.8,461.7 226.9,463.1 224.2,463.1 
	220.6,461.5 218.4,459.8 217.7,457.9 216.5,456.5 215.6,456 214.9,456 214.9,456.3 215.2,456.9 215,457.5 212.9,457.9 212.1,458.8 
	212.5,460.3 212.1,461.3 211,462.1 210.5,463.5 210.6,465.7 209.9,467.7 208.4,469.7 205.9,469.3 202.5,466.6 199.2,466.3 
	196,468.2 193.8,470.6 192.4,473.5 190.9,474.3 188.5,472.5 182.8,470 180,469.7 178,470.6 176.6,470.4 176,469.6 175.6,469.3 
	175.3,469.7 175.5,472.3 175.1,473.9 174.3,474.7 173.5,474.2 172.9,472.5 171.7,472.1 169.9,472.8 168.1,472.7 166.3,471.8 
	165.8,472 165.4,472.5 165.7,474.5 165.4,476.1 164.7,477.2 163.5,477.5 161.9,477.1 161.3,477.7 159.2,474.1 159.3,473.2 
	160.3,473.1 160.7,471.4 160.4,468.2 160.8,466.2 161.8,465.5 161.9,464.8 161.4,464.5 161.3,463.8 162.8,462.4 163,460.9 
	161.9,459.5 161.7,458 162.3,456.5 163.4,455.8 165,455.8 166.4,453.9 167.5,450.3 168.9,448 170.6,447.1 171.8,444.6 173,438.7 
	174.6,435.9 174.7,432.9 173.9,428.8 172.3,424.8 169.9,420.7 169.1,418.1 170.1,417 170.3,415.2 169.9,412.9 170.7,410.5 
	172.1,409.1 172,408.9 171,396.9 169.9,384.2 168.9,371.5 167.8,358.9 166.7,346.2 165.6,333.5 164.5,320.8 163.5,309.5 
	163.8,309.8 165,310.8 166,311.3 166.7,311.4 167.2,312.3 169,312.7 172.2,312.6 175.2,312 177.8,310.7 183.9,306.3 191.6,305.5 
	201.1,304.6 210.5,303.6 220,302.6 229.4,301.5 238.8,300.5 248.2,299.4 "/>
<path fill="none" stroke="#CFD0D2" stroke-linecap="round" stroke-linejoin="round" stroke-miterlimit="10" d="M166,160l-0.5,0.6
	l-1-0.3l-0.3,0.8l0.4,1.9l-0.2,0.9l-0.8-0.1v0.4l0.8,0.8l0.2,0.9l-0.5,1.1l-0.5,0.5h-0.5l-0.7,1.2l-0.9,2.5l-0.2,1.4l0.4,0.4
	l-0.2,0.8l-2.4,3.9l-1,0.4l-1.2-0.4l-0.9-1l-0.6-1.6l-0.3-1.2l0.1-0.9l2.1-3.5l0.9-2.2l0.4-2.4l1-1.6l1.6-0.8l1.2-1.6l0.8-2.4
	l1.1-1.1l1.3,0.2l0.6,0.8L166,160z M169.4,155l-0.8,0.5H167l-0.7-0.9l0.6-2.5l0.4,0.4l1.4-0.1l0.5,0.2l0.2,0.6L169.4,155z
	 M52.1,103.6l-1.6,0.7l-0.7-0.1l0.2-0.8l0.8-1l3.7-2.6h0.7l0.2,0.6l-1.8,1.3l-0.7,0.7v0.6L52.1,103.6z M56.5,97.6l-1,0.3l-2.1-0.2
	v-0.6l2.1-1l0.9-0.3l0.2,0.3L56.5,97.6z M49.6,100.1l-1.4,2.5l-0.6,2.1l0.1,1.7l-0.6,1.9l-1.5,2.5l0.6,0.6l4.4-2l0.6-0.7l0.1-0.4
	l-0.3-0.5l0.5-0.3l3.6,2.2l2.4,1.2l2,0.5l1.8-0.5l-0.1,0.3l0.7,1.5l1.5-0.5l0.7,0.9l0.9,0.3l1.7,0.6l0.9,1.7l0.9,1.7l0.9,1.7
	l0.9,1.7l3.7,0.8l3.7,0.8l3.7,0.8l3.7,0.8l3.7,0.8l3.7,0.8l3.7,0.8l3.7,0.7l2.1,1l2.2,1l2.2,1l2.2,1h3.2l2.9,0.5l4-0.3l4.1,0.6
	l6.1,1.5l1.5,1.6l0.3,1.1l-0.4,2.7l5.9,1.9l2.6,1.6l1,1.3v1.2l0.8,2.5l-0.5,1.4l0.2,2.4l-1.1,2.6l-0.3,1.4l0.1,1.2l0.3,0.7l0.7,0.2
	l2.2-0.3l2.1-1l1,0.4l0.2,0.4l-0.1,0.7l-1.3,4.5l0.2,1.7l0.9,1.6l1.3,1.5l1.5,0.4v1.1l-0.4,2.2l-1.5,1.8l-4.2,2.5l-0.6,1.5v1.2
	l-2.4,5.1l-1.1,3.1l-0.6,3.2l0.5,1.9l1.6,0.7l1.2-0.4l0.8-1.5l1.3-1.4l1.8-1.3l1.2-1.8l1.6-4.3l1.9-2.6l1.1-0.2h0.3l2.1-1.3l1.8,0.2
	l1.2,1.5l1.2,1l0.3,1l-0.3,2.4l-0.8,2.5l-1.3,2.7l-1,4l-0.8,5.3l0.1,3.9l0.9,2.6l-0.5,2.4l-1.9,2.3l-1.4,2.9l-1,3.6l-0.5,3v2.4
	l0.3,1.8l1,2.3l0.1,1.2l-1.8,5.5l-0.6,2.6v2l-0.4,2l-1.4,4.2l-0.3,2.3l0.1,2.1l0.7,3.4l-0.1,1.2l0.2,0.9l0.5,0.5l0.1,1.1l-0.3,1.6
	l0.3,1.2l0.9,0.8l0.6,1.6l0.4,2.4l0.8,2l1.1,1.5l0.4,2.3l-0.4,3.1l0.2,5.8l0.2,1.9l-3.9,0.3l-13.9,1l-13.9,1l-13.9,0.9l-13.9,0.8
	l-13.9,0.8l-14.2,0.7l-0.2-0.3l-1.2-3.7l-3.3-2.6l-5.4-1.6l-3.5-2.7l-1.7-3.9l-1.2-4.4l-0.7-4.9l0.2-4.1l1.1-3.4l-0.4-2.2l-1.9-1.1
	l-1.3-1.5l-0.7-1.9l-0.3-2.6l-1.6-12.4L40,224l-2-2.2l-4.1-2.5l-6.2-2.8l-3.9-2.7l-2.3-3.9l-4.5-4.5l-2.9-1.8l-2.8-0.6l-2-1
	l-1.7-2.2l-2.3-1.4l-2.9-0.5l-3.3-1.8l-3.9-3.3l-0.1-0.3l-0.9-2.4l0.4-1.4l0.5-4.7l-0.1-1.5l-1-4.3l1-1.7l-0.4-5.3l0.3-1.7l1.9-4.4
	v-2.2l-0.8-2.5l-1.6-2l-4.1-2l-0.2-2.7l0.6-2l2.5-3.8l1.3-3.4l1.2-1.5l7.7-5.3l1.7-0.4l1.2-1.5l0.9-0.7L7.1,129l-0.3-6l-0.2-6.1
	l-0.2-6l2-0.5l0.8-1.5l1.9-2.4h0.5l0,0l1,1l2.6,1.5l1.9,0.1l2.5-0.4l9.7-3.1l4-2.1l3.9-3.3l0.4-0.1l1.7,0.5l0.5,0.3l5.1-3.9l1.7-0.6
	H48l1.8,1.3l0.4,0.8L49.6,100.1z M51.8,97.5l-0.4,0.3l-1.1-0.6l-0.2-0.6l0.3-0.6l0.5,0.1l0.8,0.8L51.8,97.5z M59.7,92.9l-0.9,0.7
	l-0.4-0.3l0.2-1.3l0.4-0.8l0.7-0.3l0.4,0.3V92L59.7,92.9z"/>
<path fill="none" stroke="#CFD0D2" stroke-linecap="round" stroke-linejoin="round" stroke-miterlimit="10" d="M480.4,372.6l4.2,2.3
	l0.7-3.7l1.1-5.4l2.1,1.2l4.6,1l2.1,1.5l-0.4,2.1l0.2,1.4l1.1,1.1l6.2,1.3l4.2,2.8l2.4,0.6l0.7,0.2l1.7,0.5l0.9,0.9l0.5,4.8l-1,2.6
	l-2,2.3l-2.4,3.8l-0.2,3.1l0.1,5.7l1.7,1.6l1.4,0.2l3.7-2l2.1,0.2l5.9,5.7l9,0.9l3.4,1l3.2,2.9l4.2,1.2l3.5,2.3l0.5,1.9l-0.5,2.4
	l0.2,3.1l-0.8,2.2l-3,0.8l-1.9-0.1l-11.9-8.6l-1.4-0.7l-4.7-4.8l-4.8-2.1l-1.3,0.3l7.1,4.3l3.2,3.4l5.4,4.5l3.6,1.7l3,3.1l2.5,1.2
	l6.3,1.2l-1.7,2.1l3.5,0.8l1,2.6l0.3,3.1l-4.7-0.3l0.3,2.3l0.7,1.2l-1.8,1.5l-3.1-0.9l-8.8-6.7l0.3,1.1l0.8,1.1l5.2,4.4l4.4,2.4
	l3.4,0.8l3,2.1l1.2,1.4l1.1,2.3l-1.5,2l-1.9,1.3l-2.3-1.2l-1.8-1.4l-3.7-2.3l-1.6-3.1l-2.3,0.7l-10.8-2.1l-8.1,1.1l0.9,0.7l1.1,0.4
	l6.5-0.3l2.9,1.4l5.6,0.6l3.2-0.2l2.3,5l5,2.7l1.1,2.5l3-0.3l4.5-3.7l3.5,0.2l4.9-0.3l1.5,1.9l1.7,3.8l2.6,4.1l2,4.2l-1,0.2
	l-2.6,0.5l-8.2,1.7l-11.9,2.4l-11.9,2.3l-11.9,2.3l-12,2.2l-12,2.2l-12,2.1l-12,2.1l-12,2.1l-12,2l-12,2l-12,1.9l-12,1.9l-12,1.8
	l-12,1.8l-12,1.7l-0.7-0.6l-4.7,0.5l-3.5,0.4l-1.4,1.1l-7,1l-5.6,0.8l-9.4,1.3l-11.5,1.5l-16.2,2.1l-7.6,1l3.1-2.4l4.8-1.9l8.4-4.6
	l3.1-4l4.6-3.2l1.6-3.4l2.9-3.4l0.8-3.5l0.4-0.6l5-3.7l5.2-4.5l10.9-12l0.4,1.3l-0.2,1.5l1.3,1.5l1.3,2.5l1.5,1.5l1.7,1.1l2.7,0.8
	l3.3,1.6l2.5,0.2l0.8-0.2l2.3-2.4l2-1.4l1.9-2.5l4.5,2.3l1.6-0.3l3.8-1.9l3.7-0.9l0.9-0.5l1.2-1.5l-0.4-2.5l0.2-0.7l0.6-0.4l0.7-0.2
	l1.8,0.6l1.7-0.2l6.5-4l0.6,0.1l1.1,1.2l2.8-2.2l1.5-1.9l0.4-2.5l1.1-2.6l-0.5-1l-1.2-1.2l0.8-3.3l1.4-3.4l5.5-10.5l1.3-6l2.3-4.1
	l0.5-3.1l1.7-3.2l0.5-6.1l0.7-1.3l1.3-0.4l1.5,0.5l1.2,0.9l0.9,1.7l3.8,0.9l3-0.3l1.9-1.5l0.8-2.3l0.9-4.2l1.1-2.6l0.5-3.1l0.7-2.2
	l1.4-1.5l4-0.6l1.7-2.1l1.2-2.3l0.8-0.8l1.1-0.1l3-3.9l3.4-7.6l0.2-4.4l0.6-3.3l-0.1-3.2l0.6-1.9l4.7,2.6l2.7,1.5L480.4,372.6z
	 M575.6,410.5l-1.3,1l2.5-7.8l0.8-0.3l0,0L575.6,410.5z M564.1,438.8l-1.3,6.6l-2.2-2.2l-0.9-2.1l-0.5-5.7l0.9-9.8l1.9-6.4l1.8-3.2
	l0.7-5.9l0.9-2.2l4.7-1.7l2.9-1.1l-3.5,17.9l1,2.9l-1.2,1.3l-2,1.3l-1.8,2.3l-1,2.3L564.1,438.8z"/>
<polygon fill="none" stroke="#CFD0D2" stroke-linecap="round" stroke-linejoin="round" stroke-miterlimit="10" points="311.6,512.1 
	319.2,511.2 335.3,509.1 346.8,507.5 356.2,506.2 361.8,505.4 368.7,504.4 370.2,503.4 373.7,503 378.4,502.5 377.4,505.9 
	377.6,508.1 377.2,511.4 377.5,513.5 375.1,514 373.7,514.8 372,516.5 368.4,524.9 366.9,525.8 363.8,524.2 360.2,525.6 
	357.9,527.4 354.8,531.7 353.5,533.1 352.5,533.7 351.7,533.8 351.2,533.2 350.6,531.4 350.1,530.8 349,531 347.2,531.9 
	345.6,533.5 343.9,535.9 341.4,536.1 341,536.7 340.7,539.3 340,541.3 338.8,542.9 334.6,544.6 329.6,549.3 322.5,554.4 
	315.5,556.4 312.6,557.6 310.7,558.9 306.8,563.7 305.5,569.4 303.4,570.7 299.8,571.2 298.9,571.7 298.3,573.9 298.1,583 
	287,584.2 276,585.4 264.9,586.6 253.8,587.6 248.3,588.2 242.8,588.7 237.3,589.2 231.9,589.7 226.4,590.2 220.9,590.7 
	215.4,591.2 209.9,591.6 204.4,592.1 199,592.5 193.5,593 188,593.4 182.5,593.8 177,594.2 171.5,594.7 166,595 165.6,595.1 
	166.1,595.6 166.7,596.1 157.4,596.8 148.3,597.5 139.2,598.2 130.1,598.9 121,599.5 112,600.1 102.9,600.7 94.1,601.2 94.1,601 
	95.3,599.2 99,596.1 100.5,592.2 99.7,587.5 100.8,583.2 103.9,579.2 105.1,575.4 104.3,571.7 105.7,568.6 109.5,566 110,565 
	109.8,564.3 109.7,563.5 109.7,563.2 109.8,562.5 110.6,562 111.8,561.5 112.2,560.9 112.2,560 111.4,558.3 111.5,557.5 
	111.6,556.3 113.3,553 113.4,550.3 111.9,548.2 112.5,547 113.3,546.6 114.5,546.4 114.8,545.8 114.8,545.1 113.7,543.8 
	113.9,542.5 115.5,541.5 115.8,539.2 115,536 117.4,535.8 117.4,536 117.9,536.4 118.6,536 118.6,535.8 125.3,535.4 131.1,535 
	136.9,534.5 142.7,534.1 148.5,533.7 154.3,533.2 160,532.7 165.3,532.3 165.4,532.2 165.1,528.5 163.4,524.2 163.5,524.2 
	168.1,524.3 171,524.3 172.1,525.6 183.3,524.4 194.4,523.1 205.5,521.8 216.6,520.5 228.2,519.8 239.8,518.9 251.5,518.1 
	263.1,517.2 274.7,516.3 286.4,515.3 298,514.2 309.6,513.2 309.9,513 310.1,512.9 310.4,512.8 310.6,512.6 310.9,512.5 
	311.1,512.4 311.4,512.3 "/>
<path fill="none" stroke="#CFD0D2" stroke-linecap="round" stroke-linejoin="round" stroke-miterlimit="10" d="M569.9,477.2l2.9,4.4
	l2.9,6.1l-2.6-2.2l-2.5-0.9l-3.7-0.3l-3.5-1.2l0.8,2.6l0.3,2.9l-2.6-0.4l-1.8-0.6l2.1,2.8l-3.3-0.3l-2,0.6l-0.8,3l-1.5,2l-2.6,1.1
	l-4.5-1.7l-1.9-2.8l-1.2-3.3l0.6,4l1.6,4l0.4,3.2l3.9-0.2l3.5-1.3l4.8-0.9l3-1.3l1.7-1.4l4.7-0.1l1.1,3.7l0.3,3.9l0.6,4.1l1.3-0.3
	l1.2-1.6l-0.8-7.4l3.6-3.6l1.4-0.1l1.8,2l1,2.3l1.2,3.1l0.1,5.1l-5.2,7.1l-3.5,6.3l-2.1,1.6l-3.5,0.1l-4.1-0.5l-1.9,0.1l-1.3,0.7
	l-1.2-1.5l-1.2-2.9l-1.7-0.7l-1.1,0.3l-0.1,3.3l-3.4,1.6l-5.1-0.3l-5.6-1.6l2.8,2.4L557,525l1.6,0.7l1.6,1.2l-1.3,2.7l-0.9,2.9
	l0.2,2.1L558,536l-4.4,4.5h-2.9l-8.3-4.8l4.3,4.7l3,1.8l5.4,0.2l9.3-4l3.6,1.5l-1.8,4.4l-2,3.3l-3.3,1L558,550l-0.5,2.1l-2.1,0.6
	l-3.3,0.8l-5.2,1.2l-2.9,0.1l-3.2,4.6l-1.4,0.8l-2.2-0.3l-1.5-2.9l-1.2-1.3l1.1,5.8l0.7,1.5l1,1l-4.1,4.1l-3.7,4.8l-1.4,1.4
	l-1.4,2.3L524,583l-0.1,4.3l-0.5,4.9l-0.6-2l-0.4-3.5l-1.7-3.8l0.8,7.4l-0.8,3.7l-13.5,2.3l-5.1,2.7l-5.9-4.1l-5.5-3.9l-5.5-3.9
	l-5.5-3.9l-5.4-3.9l-5.4-3.9l-5.4-4l-5.4-4l-4.8,0.7l-4.8,0.7l-4.8,0.6l-4.8,0.6l-4.8,0.6l-4.8,0.6l-4.8,0.6l-4.8,0.6l-0.7-3.3
	l-0.5-2.3l-3.6-3.5l-2.1-2.1l-3.5,2.6l-0.4-0.9l-0.1-1.8l-0.4-0.6l-1.1-0.3l-5.4,0.6l-5.4,0.6l-5.4,0.6l-5.4,0.6l-5.4,0.6l-5.4,0.6
	l-5.4,0.5l-5.4,0.5l-1.3-0.2l-2.2,1.7l-6.1,3l-2.9,2.3l-1.2,0.1l-5.2,2.5l-5.2,2.5l-0.6,0.1l-10.3,1.5l-10.3,1.5l-10.3,1.5
	l-10.3,1.4l0.2-9.1l0.6-2.2l0.9-0.6l3.5-0.5l2.1-1.3l1.3-5.6l3.9-4.8l1.9-1.3l2.9-1.2l7-2l7.1-5.1l5-4.6l4.2-1.7l1.2-1.6l0.7-2
	l0.3-2.6l0.4-0.6l2.5-0.2l1.6-2.5l1.7-1.5l1.7-1l1.1-0.2l0.5,0.6l0.6,1.8l0.5,0.6l0.8-0.1l1-0.6l1.3-1.4l3.2-4.3l2.2-1.8l3.6-1.4
	l3,1.6l1.5-0.9l3.6-8.4l1.7-1.7l1.3-0.8l2.5-0.5l-0.3-2.1l0.4-3.3l-0.2-2.2l1-3.4l0.7,0.6l12-1.7l12-1.8l12-1.8l12-1.9l12-1.9l12-2
	l12-2l12-2.1l12-2.1l12-2.1l12-2.2l12-2.2l11.9-2.3l11.9-2.3l11.9-2.4l8.2-1.7l-0.2,3.4l0.9,1.8L569.9,477.2z M586.5,495.5l1.4,2.3
	l-2-1.9l-7-8.5l-4.2-6.4l-5.1-11l1-0.2l6.2,12.6L586.5,495.5z M584.2,497l-0.3,1l-3.2-4.1l2.6,1l0.7,1.1L584.2,497z M592.8,521.9
	l-4.2,2.1l-0.5-0.3l4.6-3.5l-0.2-8.7l-0.6-3.9l-2.3-6.6l-0.3-1.4l1.3,2l2.1,6.2l0.8,4.8v7.3L592.8,521.9z M585.3,525.7l-5.4,4.3
	h-0.7l3.5-3L585.3,525.7z M565.9,553.5l-0.7,0.7l2-5.8l4.7-7.9l1.4-1.3l-3.9,6.7L565.9,553.5z M564.3,553.3l-0.7,0.3l-1.4-0.2
	l-2-0.5l-0.5-0.6l1.8-0.1L564.3,553.3z"/>
<path fill="none" stroke="#CFD0D2" stroke-linecap="round" stroke-linejoin="round" stroke-miterlimit="10" d="M99.4,52.5l-0.1,0.7
	l1.1,0.1l-0.2,0.4l-1.1,0.7L96,55.9l-2.1,0.6l-1.1-0.4l-0.2-0.8l0.8-1.3l-0.1-0.6l-0.9,0.1l0.2-0.5l1.2-1.1l10.7-7.1l4.6-2.7
	l2.5-0.9l0.4,0.3l-2.6,2.6l-0.4,1l0.2,0.6l-0.8,1.3l-7.8,5L99.4,52.5z M122.8,80.7l-0.4,1.4l0.2,0.8l-3.2,3.9l-1.1,2.4l-1,0.4
	l-1-1.5l-0.1-1.2l0.8-1l0.7-1.4v-1.8l-0.4-0.6l-0.9,1.7l0.6,0.3l0.2,0.3L117,85l-4.1-0.6l-1.3-1.2l0.1-1.8l1.2-2.4l4.4-5.3l2-1.5
	l5.8-2.6l3.3-0.8l3.3-0.3l2.5,0.5l1.6,1.3l-1.3,1.1l-6.5,1.4l-0.2,0.3l1.3,0.7l0.3,0.5l-1,1.5L122.8,80.7z M117.1,97.9l0.4,0.5
	l0.6-0.6l0.7-1.2l0.2-0.7l0.1-0.7l4.6-3.6l0.9-0.2l1.6,0.7l7.4,0.5l2.9,0.6l3.2,1.6l1.1,0.6l4.2,5.7l1.9,2.2l1.1,0.5l0.7,0.9
	l0.7,2.1l0.6,0.6h5.5l2.4-0.6l1.4-1l1.7,0.4l2,1.8l1.9,0.4l1.7-1l1.7-0.1l1.7,0.8l0.8,0.6l0.5-0.1l2.8-3.3l3.5-3l4.7-3.4l2.7-1.6
	l0.8,0.2l4.5-1.4l4.1-0.5h5.5l5-1.2l4.4-2.4l4-1.5l3.5-0.6l1.4,0.4l-0.7,1.4l-0.2,2.3l0.3,3.2l-0.1,2l-0.5,0.9v0.8l0.5,0.7l3.5,0.1
	l2,0.8l2.1-0.2l2.3-1.2l1.9,0.1l1.5,1.5l1.9,0.1l1.6-1.4l1.1-1.3l1-0.6l0.8-0.2l1,0.4l0.7,0.9l1.8,2.4l1,1.6l0.8,2.5l0.4,0.8
	l0.1,1.5l-0.9,1.1l-0.2,0.8l0.7,0.7l3.5-0.2l1.7,0.6l0.7,0.8l-0.3,1l0.4,1l1,1l3,1.3l0.8,0.7l-0.1,0.9l-0.8,0.7l-1.4,0.4l-10.8-0.3
	l-3.1,0.1l-0.4,0.6l-0.3,0.1l-0.5-0.1l-0.9,0.1l-0.5-0.3l-0.5-1l-1-0.6l-1.5-0.1l-1.2,1l-1.1,3.3l0.3,0.6v2.1l0.4,0.5v0.5l-0.4,0.4
	h-0.9l-1.4-0.3l-5.5-4.2l-4-2l-4.8-1.2l-3.8-0.4l-2.7,0.3l-2.1,1.5l-1.5,2.6l-2.6,1.7l-3.7,0.7l-1.9,0.9l-0.2,1l-1.3,0.2L191,127
	h-2.5l-2.5,0.7l-1.7,1.1l-1.6,3.2l-0.2,1.5l-1.3,1.4l-3.6,2.4l-0.1,0.8l-1.8,2.5l-0.5,1.3l0.1,1.2h-0.7l-1.5-1.2l-0.2-1.8l1-2.4
	l1-1.2h1l0.5-1.1v-2.2l-0.5-1l-1.8,0.6l-0.9,0.9L172,134l-1.5-0.3l-1.2,1.3l-0.9,2.9l-1.2,2l-1.5,1l-1.2-0.9l-0.8-2.7l-0.2-2.2
	l0.4-2.7l-0.4-0.5l-0.6,0.9l-0.8,2.3l-0.9,4.9l-0.7,1.6l-1.1,0.8l-1.6,3.1l-2,5.4l-2.4,5.3l-2.7,5.1l-1.7,2.8l-0.6,0.4l-0.2,0.9
	l0.1,2l-1.5-0.4l-1.3-1.5l-0.9-1.6l-0.2-1.7l1.3-4.5l0.1-0.7l-0.2-0.4l-1-0.4l-2.1,1l-2.2,0.3l-0.7-0.2l-0.3-0.7l-0.1-1.2l0.3-1.4
	l1.1-2.6l-0.2-2.4l0.5-1.4l-0.8-2.5v-1.2l-1-1.3l-2.6-1.6l-5.9-1.9l0.4-2.7l-0.3-1.1l-1.5-1.6l-6.1-1.5l-4.1-0.6l-4,0.3l-2.9-0.5
	h-3.2l-2.2-1l-2.2-1l-2.2-1l-2.1-1l-3.7-0.7l-3.7-0.8l-3.7-0.8l-3.7-0.8l-3.7-0.8l-3.7-0.8l-3.7-0.8l-3.7-0.8l-0.9-1.7l-0.9-1.7
	l-0.9-1.7l-0.9-1.7l-1.7-0.6l-0.9-0.3l-0.7-0.9l-1.5,0.5l-0.7-1.5l0.1-0.3l1.9-0.5l5.3-2.5l4.5-2.9l3.6-3.4l4.7-2.2l5.7-1.1l4-1.4
	l2.4-1.7l3.1-3.2l1.8-1l2.3-0.4l1.7-1.3l1-2.1l2.1-2.5l3.1-2.8l1.8-1.2l0.5,0.5l0.2,0.9v1.3l0.9,1l1.8,0.7l0.9,1v1.4l0.6,1.1
	l1.2,0.9l0.5,2.1l-0.3,3.2l0.1,2.1L117.1,97.9z M244.6,103.9l0.1,0.9l-0.9-0.1l-0.8-0.5l-0.7-0.9l-1.1-2.4l-1.4-1.7l1.4-2.2l1-0.4
	l1.2,0.3l0.3,1.2l-0.6,2l0.3,1.9L244.6,103.9z M245.6,108.7l-0.4,0.3l-1.7-1.4l-0.4-1l0.1-0.9l0.6-0.1l1,0.6l0.6,0.8l0.2,1
	L245.6,108.7z M264.8,116.1l0.4,0.9l-0.5,1.5l-2,1l-4.2,0.5l-2.8-0.2l-1.4-0.8l-0.3-0.5v-1.1l0.6-0.2l1,0.5l1.3-0.4l1.6-1.3l0.8-0.9
	v-0.6l-0.7-1l0.4-0.5l2.3,0.1l0.9,0.6l1.8,2.2L264.8,116.1z M235,128l3.8,0.1l0.3-0.4l1.2,1l0.3,0.9l-0.4,0.8l-0.6,0.5l-0.8,0.2
	l-1.5-0.6l-2.5-1.8L235,128z M231.4,130.5l4.1,2.1l3.7,1.1h3.4l2.6,0.6l1.7,1.2l1.3,1.4l0.9,1.6l1.7,0.8l2.6-0.1l2.1,0.5l1.6,1.1
	l8.5,2.2l3.6,1.3l2.1,1.4l0.7,1v1.1l0.3,1.1l1.7,2l0.6,0.1l0.5,1l0.4,1.9l0.6,1.2l0.8,0.6l-0.4,0.3l-2.7-0.8l-1.4,0.5l-0.5,1.5
	l0.1,1.4l0.6,1.2l3.7,3.4l1.3,3.4l0.7,4.2l-0.2,1.7l0.2,3.7l0.5,5.7l0.2,1.9l-0.8,2l-2.5,3.1l-0.1-0.5h-0.7l-0.7,0.5l-0.7,2.5
	l-0.3,4.4l-0.8,2.5l-1.2,0.5l-0.7,0.7l-0.1,0.9l-1.3,0.8l-2.5,0.6l-1.6,1.5l-0.8,3.8l0.3,1.7l-0.3,2.3l0.3,1.9l0.9,1.5l2.2,1.3
	l3.6,1.1h2.1l1.3-0.8l1.1-2.7l1.3-1.2l1.7-0.6l0.5-1.2l2.2-5.4l-0.2-1.1l-1.1-0.3l0.1-0.3l1.3-0.4l1.1-0.8l0.8-1.3l1.6-1.1l4-1.9
	l2-1.8l1.4-0.4l2.2,0.5l3,1.5l2.5,2.4l2.1,3.3l3.3,8.9l4.6,14.5l2.9,8.1l1.1,1.7l0.6,0.8l0,0l0,0l-0.5,12l-1.1,5.1l-2.7,3.2l0.1-0.7
	l0.2-0.9l-0.5-2.8l-0.7-1l-1.2-0.3l-1.4,0.5l-1.5,1.3l-0.4,1.1l0.8,1l-0.2,1l-1.3,1.1l-0.6,2.2v3.3l-0.3,2.1l-0.6,0.9l-2.6,1.6
	l-1.3,1.2l-1.1,1.7l-0.8,2.6l-0.6,3.6v2.7l0.6,1.4l-0.7,1l-1.3,2l-0.2,0.7l0.2,1l-0.3,0.5l-0.8,0.1l-0.5,0.6l-1.2,2l-1.8,5.1
	l-0.3,0.9l-0.3,0.3l-10.3,1.8l-10.3,1.7l-10.3,1.7l-10.3,1.6l-0.3-2.5l-9.4,1.1l-9.4,1.1l-9.4,1l-9.4,1l-9.4,1l-9.4,0.9l-7.7,0.7
	l1.9-1.4l3.1-3.1l1.6-2.6l1.5-3.4l1.3-4.2l2.9-6.3l1.3-3.8l1.2-4.7l0.7-4.9l0.3-5.1l-0.1-5.2l-0.6-5.4l-1.4-5.3l-2.2-5.3l-1.1-2.7
	l-0.4-0.7l-3.6-6.7l-4.2-9.4v-0.8l2.4-6.1v-0.8L188,214l-0.9-2.3l-1.9-3v-0.8l2.7-4.3l1.6-3.3l1.3-3.9l0.7-4.4v-5l-0.4-3.3l-0.7-1.6
	l-0.1-1.3l0.6-1l3.2-1.5l0.9-2.1l-0.1-3.5l0.5-1.8l1.1-0.1l1-0.8l0.8-1.5l1.2-0.5l1.6,0.5l2-2.4l2.3-5.2l1.9-3l1.4-0.7l0.3,0.4
	l-0.8,1.6l-0.1,1.6l0.6,1.7l-0.1,1.7l-0.4,2.4l0.5,0.7l-0.8,3.8l0.1,1.9l0.9,1.3l0.8-0.6l0.7-2.5l0.2-1.3l-0.4-0.1v-1l0.5-1.9l0.5-1
	h0.6l0.3,1v2l-1.1,4.8l-0.2,1.4l0.4,0.4l1.6-3.1l1.1-4.8l0.8-3.6v-1.9l-0.9-4.9l-0.2-2l0.3-1.4l1.5-1.8l2.7-2.1l2.7-1.3l2.8-0.4
	l1.9-0.7l1-1l-0.5-0.6l-1.9-0.3l-1.5-0.9L221,143l-0.5-1.9l0.1-2.2l0.9-2.3l1.8-2.3l0.5-1.6l-0.9-0.9l0.8-0.5h2.5l1.7-0.5l0.9-0.9
	L231.4,130.5z M206.9,140.5l-1,0.3l-0.8-0.4l-0.1-2l0.6-3.5l0.8-1.7l1.4,0.5l-0.2,0.4l0.7,3.6l-0.3,1.7L206.9,140.5z M196.6,162.9
	l-0.3,0.6h-0.8l-0.7-0.5l-0.8-1.8l0.2-0.4l1.6,0.1l0.6,0.7L196.6,162.9z"/>
<path fill="none" stroke="#CFD0D2" stroke-linecap="round" stroke-linejoin="round" stroke-miterlimit="10" d="M669.3-20.6l1.5-0.1
	l1.6-0.5l3.8-3.3l4.8-2.8l2.5-2.1l0.2-1.3l1.2-0.8l2.2-0.3l4.7,1.7l5.8,2.9l4.6,2.3l1.9,5.9l2,6.2l2.1,6.6l1.5,4.7l2.1,6.4l1.6,5.1
	l2.2,6.7l1.2,3.6l0.8,0.9l0.1,1.5l0.1,0.7L718,24l0.4,0.6l0.3,1l-0.2,1l0.1,1.1l0.2,0.6l-1.6,1.2l3.2,2.1l5.2,1.4l3.4-0.5l1.6-1.3
	l0,0h0.5l1,1.3l0.1,1.5l-0.7,0.9l-0.8,0.8l0.2,1.1l0.8,1l1,0.8l1.3,1.5l0,1.9l-0.3,1.5l0.1,1.4l0.9,1l2,1l1.4,1.2l1.7,0.3l0.5-0.8
	l0.3-0.9l0.4-0.8h1.1h1.3l1.5,0.1l0.2,1.3l1.4,1.8l1.9,3.8L748,55l1,2.3l2.9-0.1l0.9,0.5l0.4,0.8l-3.9,8l-5.2,0.7l-2.2,2.5l-2.7,1.3
	l-0.4,3.1l-1.4,1.1l-2.2,0.5l-2.1-0.2l-1.3,0.8l-0.4,5.5l-1.7,0.1l-0.1,2l-0.6,1l-1,1l-1.7-1.9l-1.3-1.9l-1.1-0.2l-1.5-0.1l-1.4,0.4
	l-0.8,0.6l-0.7,1.7l-1.3,1.7l-1.5-0.6l-1.4-1.3l-0.1,2.8l-0.4,3l1.1,3v2l-1.3-0.2l-1.6-1.3l-3.6-0.3l-2.5,0.9v-1.9l1.7-3.2l-0.9-0.3
	l-1.1,0.7l-0.6-0.2l0.2-2.5l-0.6-2.5l-0.8,1.2l-0.6,3l-2.7,3l1.2,3.4l-1,8l0.7,3.1l-1.3,3l-2,2.8l-3.6,0.4l-2.1,2.6l-0.7,2.5
	l-1.1,0.6l-1.4-2.5l-0.7-0.7l0.1,4.2l-0.9,0.5l-1.2-2.7l-1-1.7l-0.9,2l0.3,4.4l-1-0.1l-0.7-1.5l-0.8-0.3l0.3,1.8l1,2.4l-0.1,1.5
	l-1.1-0.5l-1.3-0.9l-1.3,1.4l-1.3,0.8l-0.4-1.2l-0.2-1.6l-2.6,1.6l-2.6,3.7l-1.6,4.6l1.1,0.4l1.4,0.9l-3,7.2l-3.3,6.7l-1.2,9.7
	l-1.2,1.4l-0.8,1.9l-3.4-3.2l-1.3-3l-3.7-2.9l-1.7-2.2l-1.1-2.7l-0.7-3.1l-1.4-4.5l-1.4-4.5l-1.4-4.5l-1.4-4.5l-1.4-4.5l-1.4-4.5
	l-1.4-4.5l-1.4-4.5l-1.4-4.5l-1.4-4.5l-1.4-4.5l-1.4-4.5l-1.4-4.5l-1.4-4.5l-1.4-4.5l-1.3-4l0.5-0.8l1.4-1.6l1.2-0.1l1.4,1.5
	l1.1,0.9l0.9-0.6l0.4-1.8l-0.6-2.2l0.7-1.9l1.2-0.6l1.2-0.3l0.4-0.9l-0.4-1.1l-0.9-1.7l-0.4-2.2l2-4.6l3-3.6l0.9-1.6l-0.3-2.7
	l1.4-3.3l0.6-1.8l-0.1-1.4l-1-1.5l-0.8-3.2l-0.3-4l-0.3-4.3l0.9-4.2l2-4.9L646,14l-0.7-5.8l2.3-6.5l2.6-7.4l1.5-4.2l2.6-7.6l1.8-5.4
	l1-2.5l0.9-2.9h2.9h2.9l0.6,3.7l0.8,1.7l0.4,0.8l1.7,1.1L669.3-20.6z M725,89.3l-1.4,1.3l-1.9,0.2l0.7,2.1v0.8l-2.4-0.5l-1-0.5
	l-0.8-2.8l1-3.2l1.1-1.5l2,0.2l2.3,2.6L725,89.3z M714.1,98.5l-0.9,1.1l-1.3,0.1l-0.6-2l0.2-0.8l0.3-0.4l0.8,0.4L714.1,98.5z"/>
<path fill="none" stroke="#CFD0D2" stroke-linecap="round" stroke-linejoin="round" stroke-miterlimit="10" d="M667.7,176.6l1.9,1.8
	l1.2-0.1l1.1-0.7l0.9-0.2l0.8,0.7v1.2l-1.4,0.7l-2.2,2.6l-2.2,1.4l-0.6,2.6l-1.1,3.1l-2.4,5.1l1.8,0.9h5.7l2.8,0.8l5.7,6.7l-0.6,1
	l0.1,1.5l3.8,1.1l2.6,5.3l3.2,1.2l4.3,0.1l4.4-3l3.4-3.4l-0.7-1.8l-3.8-3.7l-1.2-1.9l-2.2-0.8l-0.4,1.3L691,199l-0.4-0.8l1-0.7
	l1.4-0.2l1.7,0.3l5.3,3.7l2.9,6l1.4,3.9l-0.1,1.5H703l-2.1,0.9l-9.8,5l-1.8,2.5l-4.8,3.4l-0.6-0.9l-0.2-2.1l-1.5-4.1l-1.1,0.1
	l-6.4,9.1l-3.1,1.3l-2.2,2.7l-0.9-0.9l-1.8-5l0.5-4.7l-0.9,0.3l-1.3,2l-1.5-1.5l-1.4-0.7l-1.3-0.7l-0.4-1.5l-0.6-2.3l-1.4-0.1
	l-0.9-2.8l-0.6-1.8l-2.3,0.6l-1.8,0.5l-3,0.8l-3.1,0.9l-2.3,0.6l-0.1-0.4l-3.6,0.9l-3.6,0.9l-3.6,0.9l-3.6,0.9l-3.6,0.9l-3.6,0.9
	l-3.6,0.9l-3.6,0.8l0.1,1l-1.3,0.5l-0.3-1.1l-2.6,0.5l-2.6,0.5l-2.6,0.5l-2.6,0.5l-2.6,0.5l-2.6,0.5l-2.6,0.5l-2.6,0.5l-1.1-0.8
	l0.1-3.7l0.1-3.7l0.1-3.7l0.1-3.7l0.1-3.7l0.1-3.7l0.1-3.7l0.1-3.7l3-0.6l3-0.6l3-0.6l3-0.6l3-0.6l3-0.6l3-0.6l3-0.6l4.3-0.9
	l4.3-0.9l4.3-0.9l4.3-1l4.3-1l4.3-1l4.3-1l4.3-1l2.3-1.8l2.2-4l1.7-1.2l2.5-2.7l1.4-0.8l3.5-0.7l-0.1,2.3l1.4,1.9L667.7,176.6z
	 M690.9,229.4l-7.8,4.3l-1.7-0.9l1.9-1.2l1.8-3.8l1.7-0.8l3.2,1L690.9,229.4z M708.3,229.4l-2.2,1.3h-5.8l4.1-2.5l0.6-0.6l0.1-2
	l-0.2-1l2.8,3.6L708.3,229.4z"/>
<path fill="none" stroke="#CFD0D2" stroke-linecap="round" stroke-linejoin="round" stroke-miterlimit="10" d="M544.6,337.5l1.7,6.5
	l1.7,6.5l1.7,6.5l1.7,6.5l1.7,6.5l1.7,6.5l1.7,6.5l1.7,6.5h0.1h0.1h0.1h0.1h0.1h0.1h0.1h0.1l3.2-0.7l7.1-1.6l7.1-1.6l3.4-0.8
	l0.2,1.2v1.9l-0.6,0.9L579,387l-0.7-0.5l-0.7,1l-0.4,1l0.6,3.6l-0.2,1.9l-2,1l-1.1,5.2l-1.4,3.1l-0.4,1.8l-2.9,1.1l-4.7,1.7
	l-0.9,2.2l-2.6-0.3l-3.7,0.9l0.2-2.7l0.6-2.5l-2.4-1.8h-1.2l-1.4-0.7l1-2.2l0.3-2.1l-0.9-2.3l0.2-1.9l-0.9,0.5l-1.1,2.2l-0.8,1
	l-0.9-1.6l-0.6,0.5l-0.2,1.3l-0.9,0.8l-2.4-1.1l-3.4-1.2l-2.4-2.8l-1.5-2.2l0.1-4.6l1.9-1.2l2.9,0.1l3.6-0.8l-0.7-0.9l-1.2,0.4
	l-4.5-2.7l-1.7-1.9l-2.2-0.1l-0.5,2.3l-0.9,0.8l0.4-4.8l1.7-0.5l2.3-1.8l-1.3-2.5L537,373l-2.6,2l-0.4-1.8v-2.5l2.2-0.4l2,0.4
	l0.8-4.1l-0.3-1.7l-2.1,3l-1.7-5.2l1.5-5.7l2-2.8l3.1-0.6l3.1-1l-2.2-0.5l-2.1-0.1l1.1-2.4l1.2-0.6l0.9-2l-3,0.9l-0.4-3.4l-1.4,1
	l-1.7,0.7l-0.4,1.6l0.6,2.3l-0.2,1.7l-1.1,1.5l-2.2,1.5l-0.6-1.6l-0.9-0.6l0.5,3.7l-0.4,1.4l-2.4-3l-0.4,0.8l0.3,0.9l-0.1,1.7
	l-1.3,1.2l0.5,2.1l-0.3,1.3l-5.1-0.9v0.6l3.5,3.4l2.2,0.9l0.7,2.1l-1.3,2.2l-2.7-1.1l-0.4,0.2l1.8,2.4l1.3,2.2l-0.4,2.1l0.6,2.4
	l0.3,2.2l-0.1,2l3,8.5l1.9,2.1l1.8,2l1.2,2l-1.4,0.6l-2.7-1.3l-2.3-0.9l-3.3-3.8l-0.7-1.6l-0.9-1.2l0.9,3l1.6,3.3l9.1,6.2l2,2.7
	l1.5,2.1l0.2,2.3l-2.3-1.2l-2.1-1.7l-5-1.3l-5.9-0.3l-4.3-4.7l0.5,2.2l-0.3,2l-2.4-1.9l-1.6-1.7l-0.8-2.1l-2.4,0.6l-2.2,2.4
	l-2.6,0.1l-1-3.6l0.3-2.1l1.8-5.1l2.1-2.8l0.5-3.2l-1.3-4.6l1,3.4l2.1-4l-2.4-2.3l-2.2-2.1l-2,3.4l-2.4-0.6l-4.2-2.8l-6.2-1.3
	l-1.1-1.1l-0.2-1.4l0.4-2.1l-2.1-1.5l-4.6-1l-2.1-1.2l-0.5-0.3l-0.6-1.9l-0.8-1.1l-1-0.3l-0.3-0.8l0.3-1.2l-0.8-1.1l-2-1l-0.8-1
	l0.3-1.1l-1-0.3l-2.3,0.5l-2.4-0.5l-2.6-1.5l-2.7,0.2l-4.2,2.8l-2.5,1l-0.9,1.3l-0.2,2l-0.9,1.2l-2.5,0.5h-0.4l-3-0.1l-2.2-0.8
	l-0.5-0.4v-1.1l-0.5-0.4h-0.6l-0.5,0.7l0.2,1.9l-4.1,5.8l-2.6-0.5l-0.9,0.2l-5.7,8.1l-1.9,1.5l-3.5,3.8l-0.9-5.4l-0.9-5.4l-0.9-5.4
	l-0.9-5.4l7.3-1.3l7.3-1.3l7.3-1.3l7.3-1.3l7.3-1.4l7.3-1.4l7.3-1.4l7.3-1.4l7.3-1.4l7.3-1.5l7.3-1.5l7.3-1.5l7.3-1.5l7.3-1.5
	l7.3-1.5L544.6,337.5z M577.7,403.5l-0.8,0.3l0.5-1.6l1.3-7.6l0.7-2.7l-0.1,5.1l-1.2,5L577.7,403.5z"/>
<path fill="none" stroke="#CFD0D2" stroke-linecap="round" stroke-linejoin="round" stroke-miterlimit="10" d="M265.9,411.3l2.2,0.1
	l2.7-1.1l2.6,0.2l2.5,1.4l2.6,2.9l2.6,4.4l4,2.4l5.5,0.3l4.1,1.3l2.8,2.3l2.1,0.6l2.2-1.7l2.4-1.1l2.6,0.5l3.6,1.7l4.9-1.2l6.2-4.1
	l3.9-0.4l1.6,3.3l3.3,3.2l5,3.2l0.3,0.1l0.9,1.1l1.2,6.2l-0.1,1.3l-0.7,2.7l0.3,1.3l1.2,2l4.2,4.4l0.6,1.9l1.6,1.7l1.6,2.6l4.6,5.4
	l6.5,4.1l4.7,0.6l-10.9,12l-5.2,4.5l-5,3.7l-0.4,0.6l-0.8,3.5l-2.9,3.4l-1.6,3.4l-4.6,3.2l-3.1,4l-8.4,4.6l-4.8,1.9l-3.1,2.4
	l-0.2,0.1l-0.2,0.1l-0.2,0.1l-0.2,0.1l-0.2,0.1l-0.2,0.1l-0.2,0.1l-0.3,0.1l-11.6,1.1l-11.6,1l-11.6,1l-11.6,0.9l-11.6,0.9
	l-11.6,0.9l-11.6,0.8l-11.6,0.8l-11.1,1.3l-11.1,1.3l-11.1,1.2l-11.1,1.2l-1.1-1.2h-3l-4.5-0.1h-0.2l1.7,4.2l0.3,3.8l-0.1,0.1
	l-5.2,0.4l-5.8,0.5l-5.8,0.5l-5.8,0.4l-5.8,0.4l-5.8,0.4l-5.8,0.4l-6.7,0.5l1.5-3.8l1.5-1.1l0.7-0.2l1.7,0.6l0.8,0.2l1.7-1.4
	l1.3-3.9l0.6-4.1l-0.1-4.3l-1.3-3.3l-0.5-2.1l0.8-2.7l2.7-3.6l5.8-0.5l8.9,2.5l4.8,0.5l0.7-1.4l-0.4-2.4l-1.6-3.4l-0.7-2.6l0.3-1.8
	l3.3-2.3l6.4-2.8l2.5-3.2l-1.4-3.6l0.1-3.4l1.6-3.2l1-0.8l0.6-0.5l1.6,0.4l1.2-0.3l0.8-1.1l0.2-1.6l-0.3-2l0.4-0.5l0.6-0.2l1.7,0.9
	l1.9,0.1l1.8-0.8l1.2,0.5l0.6,1.7l0.7,0.5l0.9-0.8l0.3-1.6l-0.2-2.5l0.4-0.4l0.4,0.3l0.6,0.7l1.4,0.2l1.9-0.9l2.8,0.4l5.6,2.4
	l2.4,1.9l1.5-0.8l1.4-2.9l2.3-2.4l3.1-1.9l3.3,0.4l3.5,2.7l2.5,0.4l1.5-2l0.7-2.1l-0.1-2.2l0.5-1.4l1.2-0.7l0.4-1.1l-0.4-1.4
	l0.8-0.9l2.1-0.4l0.3-0.6l-0.3-0.5v-0.3l0.6-0.1l1,0.5l1.2,1.3l0.7,1.9l2.2,1.7l3.6,1.5h2.7l1.8-1.5l1.5-3.4l1.1-5.4l1.9-3.2l2.6-1
	l1.7-2.2l0.9-3.3l1.8-2.8l2.6-2.3l0.8-2.9l-1.1-3.6l1.1-2.1l3.2-0.7l2,0.2l1.3,0.8l0.9,0.3l0,0l0.5,0.1l1.1-0.4l1.3-0.8l6-3.1l3-2.5
	l0.1-2.1l-0.7-1.2l-1.6-0.4l-0.4-0.8l0.7-1.3l-0.1-1.5l-1-1.7l0.5-1.9l0.5-0.5l1.6-1.6l1.9-0.4L265.9,411.3z M117.4,535.8L115,536
	l-0.1-0.5l0.1-1.2l0.2-0.5l0.5-0.1h0.5l0.8,1L117.4,535.8z"/>
<polygon fill="none" stroke="#CFD0D2" stroke-linecap="round" stroke-linejoin="round" stroke-miterlimit="10" points="151.7,277.8 
	152.2,284.4 153.2,289.9 154.3,292.2 155.5,293.9 156.8,295 158.5,298.4 160.5,304.2 162.3,308 163.5,309.5 164.5,320.8 
	165.6,333.5 166.7,346.2 167.8,358.9 168.9,371.5 169.9,384.2 171,396.9 172,408.9 172.1,409.1 170.7,410.5 169.9,412.9 
	170.3,415.2 170.1,417 169.1,418.1 169.9,420.7 172.3,424.8 173.9,428.8 174.7,432.9 174.6,435.9 173,438.7 171.8,444.6 
	170.6,447.1 168.9,448 167.5,450.3 166.4,453.9 165,455.8 163.4,455.8 162.3,456.5 161.7,458 161.9,459.5 163,460.9 162.8,462.4 
	161.3,463.8 161.4,464.5 161.9,464.8 161.8,465.5 160.8,466.2 160.4,468.2 160.7,471.4 160.3,473.1 159.3,473.2 159.2,474.1 
	161.3,477.7 160.3,478.5 158.7,481.7 158.6,485.1 160,488.6 157.5,491.8 151.1,494.6 147.8,496.9 147.5,498.6 148.2,501.2 
	149.8,504.6 150.2,507.1 149.5,508.5 144.7,507.9 135.8,505.4 130.1,505.9 127.4,509.6 126.5,512.2 127,514.3 124.5,511.9 
	122.8,510.9 122.6,511 122.2,511.3 122.2,512.1 122.3,512.7 122.6,513.3 122.5,513.7 122.1,513.8 120.3,512.9 118.1,510.2 
	115.3,505.7 114.5,502 115.7,499.2 115.5,496.3 113.9,493.3 113,490.4 112.9,487.5 109.3,483.4 102.3,478 97.2,474.7 94,473.6 
	90.2,470.9 85.9,466.7 83.5,463.4 83.1,461.1 84.6,454.7 89.1,440.7 89.6,439 89.8,438.4 89.5,437.8 89,437.3 86.6,435.8 
	82.1,434.7 78.1,434.2 74.9,436 71.9,432.9 69.1,424.8 62.7,416.4 52.9,407.7 47.1,401.8 45.5,398.5 43.9,393.7 42.5,387.2 
	42.3,381.7 43.8,375.1 45.4,374.3 45.6,372.1 45,368.4 46.6,365.4 50.5,363.3 53.8,358.9 56.7,352.1 57.9,347.4 57.5,344.5 
	56.1,341.9 54,339.5 53.3,336.4 54.2,332.5 57.5,330 63.2,328.6 68.4,326.4 72.9,323.4 75.5,320.2 76.2,316.8 77.4,314.2 
	79.1,312.3 80.2,309.2 80.7,305 80.6,301.9 79.9,300 77.8,297.9 74.1,295.5 72,293.2 71.4,291 69.4,288.6 66,286.2 63.9,283.4 
	78.2,282.7 92.1,281.9 106,281.1 119.9,280.2 133.8,279.2 147.7,278.1 "/>
<path fill="#F7921E" stroke="#FFFFFF" stroke-linecap="round" stroke-linejoin="round" stroke-miterlimit="10" d="M586,296.3
	l6.2-0.3l1.4-1.3l1.3,2l1.2,2.9l0.3,3.3l-0.2,3.5l0.2,4.2l0.8,6.4l0.3,5.8l-0.5-1.7l-1-6.9l-0.8,0.9l-0.3,1.7l0.2,9.2l-1.4,5.3
	l-1.6,3.8h-2.5l1.1,2.4l-0.4,1.5l0.1,2.9l-1,2.2l-1.4,0.1l-1.6,1.7l-0.5,1.2l0.4,1.9l-0.9,1.9l-2.8,9.6l-3.5,3.4l-1.1-0.1l0.2-4.3
	l-0.2-4.2l-2.9-1.2l-2.6-0.4l-2.7,0.7l-3.7-2.5l-4.4-1.4l-6.8-5.1l-0.2-1.8l-0.8-2.9l0.6-4.9l0.9-3.6l1.8-2.1l5.9-3.1l1-2.9l0.5-2.3
	l1.3-1.8l3-3.4l4.7-4.3l-9.9-8.7l-1.9-0.2l-3.1-4.6l-2.6-0.9l-0.8-0.7l-1-3.9L554,291v-1.4l1.7-1.5l0.6-2.5l-0.2-1.2l-2.3-3.3
	l-0.3-1.1l2.3-2.8l2.7-5.1l1.1-5.2l0.6-1.6l0.8-1.2l2.1-1.9l3.5,1.2l3.5,1.2l3.5,1.2l3.5,1.2l3.5,1.2l3.5,1.2l3.5,1.2l3.4,1.2
	l0.2,3.3l-1.5,7.2l-0.9,1.8l-1.2,1.7l-1,0.8l-0.8,1.3l-0.8,1.9l-0.4,3.6L586,296.3z M596.9,327.6l-2.2,7.1l-0.4-1.2l2.8-8.8
	L596.9,327.6z"/>
<polygon fill="none" stroke="#CFD0D2" stroke-linecap="round" stroke-linejoin="round" stroke-miterlimit="10" points="665.3,161.9 
	665.4,167.6 665.3,170.4 661.7,171.2 660.3,172 657.8,174.7 656.1,175.9 653.9,179.9 651.6,181.7 647.3,182.7 643,183.7 
	638.7,184.7 634.5,185.6 630.2,186.6 625.9,187.5 621.6,188.5 617.3,189.4 616.4,188.1 614.1,185.9 613.4,184.9 613.2,183.6 
	613.3,180.1 613.7,178.9 613.9,176.8 613,168.9 612.8,164.3 611.4,156 611.5,153.5 611.9,151.8 612.1,147.7 613.5,144.1 614,139.9 
	614.8,136.1 614.6,134.1 614.8,129.5 613.8,121.7 614.3,120.3 618,118.3 619,117.2 622.3,113 623.3,111.4 623.8,109.8 623.9,107.6 
	624.2,106.9 624,105.7 621.2,101.2 620.7,99.4 622.4,93 620.9,89.9 621.2,89 621.9,80.4 623.6,76 627.5,76.3 629.4,75.6 630.5,74 
	631.8,78 633.2,82.4 634.7,86.9 636.1,91.3 637.5,95.8 639,100.3 640.4,104.7 641.9,109.2 643.3,113.6 644.7,118.1 646.2,122.6 
	647.6,127 649.1,131.5 650.5,136 652,140.4 653.4,144.9 654.1,148 655.2,150.7 656.9,152.9 660.6,155.8 661.9,158.8 "/>
<polygon fill="none" stroke="#CFD0D2" stroke-linecap="round" stroke-linejoin="round" stroke-miterlimit="10" points="555.2,331.2 
	554.1,332.9 553.5,335.8 551.5,339.6 552.2,341.7 553,343.1 553.4,346.3 555.8,349 560.3,353.3 562.7,361 566.4,365.6 571.8,370.9 
	575.2,371.9 575.9,374.1 575.3,378.2 573.8,380.3 576.2,379.5 577.6,380 579.5,382.9 579.8,384.9 576.4,385.7 569.3,387.3 
	562.2,388.8 559,389.5 558.9,389.5 558.9,389.5 558.8,389.6 558.7,389.6 558.7,389.6 558.6,389.6 558.5,389.6 558.4,389.6 
	556.7,383.1 555,376.6 553.2,370.1 551.5,363.6 549.8,357.1 548,350.6 546.3,344.1 544.6,337.5 546.2,333.7 547,332.5 548.2,331.7 
	552.1,330.6 "/>
<polygon fill="none" stroke="#CFD0D2" stroke-linecap="round" stroke-linejoin="round" stroke-miterlimit="10" points="617.3,189.4 
	614.3,190 611.4,190.7 608.4,191.3 605.4,191.9 602.5,192.5 599.5,193.1 596.5,193.7 593.5,194.4 592.1,192 592,189.8 591.4,186.9 
	590.5,183.1 589.6,178.9 588.3,173.3 587.5,169.5 586.7,166.1 585.7,161.4 583.3,159.2 582.5,158.9 582,159.3 581.2,161.4 
	580.8,161.4 580.3,161.1 580,159.5 579.8,153.7 579.4,152 578.4,149.1 575.6,142.7 575.2,141.2 575.1,138.8 575.4,136.3 
	576.3,133.6 576.3,132.5 575.2,128.5 574.8,124.6 571.6,119.4 570.5,111.9 569.1,108.5 569,105.2 568.1,102.5 573,101.3 585.1,98.3 
	597.1,95.2 609.1,92.1 621.2,89 620.9,89.9 622.4,93 620.7,99.4 621.2,101.2 624,105.7 624.2,106.9 623.9,107.6 623.8,109.8 
	623.3,111.4 622.3,113 619,117.2 618,118.3 614.3,120.3 613.8,121.7 614.8,129.5 614.6,134.1 614.8,136.1 614,139.9 613.5,144.1 
	612.1,147.7 611.9,151.8 611.5,153.5 611.4,156 612.8,164.3 613,168.9 613.9,176.8 613.7,178.9 613.3,180.1 613.2,183.6 
	613.4,184.9 614.1,185.9 616.4,188.1 "/>
<path fill="none" stroke="#CFD0D2" stroke-linecap="round" stroke-linejoin="round" stroke-miterlimit="10" d="M661.1,218.9l1.3,0.7
	l1.4,0.7l1.5,1.5l-0.9,1.3l-1.6-1.3l-1.1-1.6l-1.1-0.8l-1-0.1l1.8,3.6l-1.2,3.4l1.4,7.5l-1.6,3.7l-7,3.9l-2.3,0.4l-0.2-2.4l0.5-1.2
	l-0.5-2.6l-0.3-1.7l-0.8-2.8l-0.9-3.2l-0.9-3.5l-0.8-3.1l-0.6-2.2l-0.8-3.1l-0.6-2.2l2.3-0.6l3.1-0.9l3-0.8l1.8-0.5l2.3-0.6l0.6,1.8
	l0.9,2.8l1.4,0.1l0.6,2.3L661.1,218.9z M667.5,230.6l-1.2,1.5l-1.7,0.2l0.5-1.7l-0.3-2.3l0.2-2.7l0.3-0.9l0.8-0.9L667.5,230.6z
	 M663.8,231.9l-0.6,1l-0.8-1.9v-2.4l0.6-0.2l0.6,1.1L663.8,231.9z"/>
<polygon fill="none" stroke="#CFD0D2" stroke-linecap="round" stroke-linejoin="round" stroke-miterlimit="10" points="644.9,213.8 
	645.5,216 646.3,219 646.9,221.3 647.7,224.4 648.7,227.9 649.6,231.1 650.3,233.9 650.6,235.6 651.1,238.2 650.6,239.4 
	650.9,241.9 648.1,242.3 643.9,244.1 638.4,247 635,247 632.1,249.3 620.9,252.5 618.3,252.3 616,255.9 611.6,258.8 600.8,268.1 
	599.6,269.7 597.4,267.5 595.7,265.7 597.8,263.5 599.4,261.8 600.9,260.3 601.9,259.2 600.6,257.9 599.3,256.5 598.6,252.5 
	597.9,248.6 597.2,244.6 596.5,240.6 595.8,236.6 595.1,232.7 594.4,228.7 593.7,224.7 596.2,224.2 598.8,223.7 601.4,223.2 
	604,222.7 606.5,222.2 609.1,221.6 611.7,221.1 614.2,220.6 614.5,221.7 615.8,221.2 615.8,220.2 619.4,219.4 623,218.5 
	626.6,217.7 630.3,216.8 633.9,216 637.5,215.1 641.1,214.2 644.8,213.3 "/>
<polygon fill="none" stroke="#CFD0D2" stroke-linecap="round" stroke-linejoin="round" stroke-miterlimit="10" points="512.3,380.4 
	511.4,379.5 509.7,379 508.9,378.8 510.9,375.4 513.1,377.6 515.5,379.8 513.4,383.8 "/>
</svg>
